%TF.GenerationSoftware,KiCad,Pcbnew,(7.0.0)*%
%TF.CreationDate,2023-03-18T14:12:53+09:00*%
%TF.ProjectId,hep-numpad,6865702d-6e75-46d7-9061-642e6b696361,rev?*%
%TF.SameCoordinates,Original*%
%TF.FileFunction,Soldermask,Top*%
%TF.FilePolarity,Negative*%
%FSLAX46Y46*%
G04 Gerber Fmt 4.6, Leading zero omitted, Abs format (unit mm)*
G04 Created by KiCad (PCBNEW (7.0.0)) date 2023-03-18 14:12:53*
%MOMM*%
%LPD*%
G01*
G04 APERTURE LIST*
%ADD10C,1.701800*%
%ADD11C,3.000000*%
%ADD12C,3.987800*%
%ADD13C,3.048000*%
%ADD14C,1.600000*%
G04 APERTURE END LIST*
D10*
%TO.C,SW7*%
X102870000Y-93820000D03*
D11*
X104140000Y-91280000D03*
D12*
X107950000Y-93820000D03*
D11*
X110490000Y-88740000D03*
D10*
X113030000Y-93820000D03*
%TD*%
D12*
%TO.C,SW17*%
X86487000Y-123665000D03*
D13*
X86487000Y-138905000D03*
D10*
X93345000Y-131920000D03*
D11*
X94615000Y-129380000D03*
D12*
X98425000Y-131920000D03*
D11*
X100965000Y-126840000D03*
D10*
X103505000Y-131920000D03*
D12*
X110363000Y-123665000D03*
D13*
X110363000Y-138905000D03*
%TD*%
D10*
%TO.C,SW8*%
X102870000Y-112870000D03*
D11*
X104140000Y-110330000D03*
D12*
X107950000Y-112870000D03*
D11*
X110490000Y-107790000D03*
D10*
X113030000Y-112870000D03*
%TD*%
%TO.C,SW5*%
X102870000Y-55720000D03*
D11*
X104140000Y-53180000D03*
D12*
X107950000Y-55720000D03*
D11*
X110490000Y-50640000D03*
D10*
X113030000Y-55720000D03*
%TD*%
%TO.C,SW12*%
X121920000Y-112870000D03*
D11*
X123190000Y-110330000D03*
D12*
X127000000Y-112870000D03*
D11*
X129540000Y-107790000D03*
D10*
X132080000Y-112870000D03*
%TD*%
D12*
%TO.C,SW14*%
X137795000Y-72357000D03*
X137795000Y-96233000D03*
D10*
X140970000Y-84295000D03*
D11*
X142240000Y-81755000D03*
D12*
X146050000Y-84295000D03*
D11*
X148590000Y-79215000D03*
D10*
X151130000Y-84295000D03*
D13*
X153035000Y-72357000D03*
X153035000Y-96233000D03*
%TD*%
D10*
%TO.C,SW3*%
X83820000Y-93820000D03*
D11*
X85090000Y-91280000D03*
D12*
X88900000Y-93820000D03*
D11*
X91440000Y-88740000D03*
D10*
X93980000Y-93820000D03*
%TD*%
%TO.C,SW9*%
X121920000Y-55720000D03*
D11*
X123190000Y-53180000D03*
D12*
X127000000Y-55720000D03*
D11*
X129540000Y-50640000D03*
D10*
X132080000Y-55720000D03*
%TD*%
%TO.C,SW10*%
X121920000Y-74770000D03*
D11*
X123190000Y-72230000D03*
D12*
X127000000Y-74770000D03*
D11*
X129540000Y-69690000D03*
D10*
X132080000Y-74770000D03*
%TD*%
%TO.C,SW1*%
X83820000Y-55720000D03*
D11*
X85090000Y-53180000D03*
D12*
X88900000Y-55720000D03*
D11*
X91440000Y-50640000D03*
D10*
X93980000Y-55720000D03*
%TD*%
%TO.C,SW4*%
X83820000Y-112870000D03*
D11*
X85090000Y-110330000D03*
D12*
X88900000Y-112870000D03*
D11*
X91440000Y-107790000D03*
D10*
X93980000Y-112870000D03*
%TD*%
%TO.C,SW6*%
X102870000Y-74770000D03*
D11*
X104140000Y-72230000D03*
D12*
X107950000Y-74770000D03*
D11*
X110490000Y-69690000D03*
D10*
X113030000Y-74770000D03*
%TD*%
%TO.C,SW16*%
X121920000Y-131920000D03*
D11*
X123190000Y-129380000D03*
D12*
X127000000Y-131920000D03*
D11*
X129540000Y-126840000D03*
D10*
X132080000Y-131920000D03*
%TD*%
%TO.C,SW2*%
X83820000Y-74770000D03*
D11*
X85090000Y-72230000D03*
D12*
X88900000Y-74770000D03*
D11*
X91440000Y-69690000D03*
D10*
X93980000Y-74770000D03*
%TD*%
%TO.C,SW11*%
X121920000Y-93820000D03*
D11*
X123190000Y-91280000D03*
D12*
X127000000Y-93820000D03*
D11*
X129540000Y-88740000D03*
D10*
X132080000Y-93820000D03*
%TD*%
D12*
%TO.C,SW15*%
X137795000Y-110457000D03*
X137795000Y-134333000D03*
D10*
X140970000Y-122395000D03*
D11*
X142240000Y-119855000D03*
D12*
X146050000Y-122395000D03*
D11*
X148590000Y-117315000D03*
D10*
X151130000Y-122395000D03*
D13*
X153035000Y-110457000D03*
X153035000Y-134333000D03*
%TD*%
D10*
%TO.C,SW13*%
X140970000Y-55720000D03*
D11*
X142240000Y-53180000D03*
D12*
X146050000Y-55720000D03*
D11*
X148590000Y-50640000D03*
D10*
X151130000Y-55720000D03*
%TD*%
D14*
%TO.C,U4*%
X119380000Y-55880000D03*
X119380000Y-58420000D03*
X119380000Y-60960000D03*
X119380000Y-63500000D03*
X119380000Y-66040000D03*
X134620000Y-66040000D03*
X134620000Y-63500000D03*
X134620000Y-60960000D03*
X134620000Y-58420000D03*
X134620000Y-55880000D03*
X134620000Y-53340000D03*
%TD*%
M02*
