%TF.GenerationSoftware,KiCad,Pcbnew,(7.0.0)*%
%TF.CreationDate,2023-03-18T14:12:53+09:00*%
%TF.ProjectId,hep-numpad,6865702d-6e75-46d7-9061-642e6b696361,rev?*%
%TF.SameCoordinates,Original*%
%TF.FileFunction,Soldermask,Bot*%
%TF.FilePolarity,Negative*%
%FSLAX46Y46*%
G04 Gerber Fmt 4.6, Leading zero omitted, Abs format (unit mm)*
G04 Created by KiCad (PCBNEW (7.0.0)) date 2023-03-18 14:12:53*
%MOMM*%
%LPD*%
G01*
G04 APERTURE LIST*
G04 Aperture macros list*
%AMRoundRect*
0 Rectangle with rounded corners*
0 $1 Rounding radius*
0 $2 $3 $4 $5 $6 $7 $8 $9 X,Y pos of 4 corners*
0 Add a 4 corners polygon primitive as box body*
4,1,4,$2,$3,$4,$5,$6,$7,$8,$9,$2,$3,0*
0 Add four circle primitives for the rounded corners*
1,1,$1+$1,$2,$3*
1,1,$1+$1,$4,$5*
1,1,$1+$1,$6,$7*
1,1,$1+$1,$8,$9*
0 Add four rect primitives between the rounded corners*
20,1,$1+$1,$2,$3,$4,$5,0*
20,1,$1+$1,$4,$5,$6,$7,0*
20,1,$1+$1,$6,$7,$8,$9,0*
20,1,$1+$1,$8,$9,$2,$3,0*%
G04 Aperture macros list end*
%ADD10C,1.701800*%
%ADD11C,3.000000*%
%ADD12C,3.987800*%
%ADD13RoundRect,0.200000X-1.075000X-1.050000X1.075000X-1.050000X1.075000X1.050000X-1.075000X1.050000X0*%
%ADD14C,3.048000*%
%ADD15RoundRect,0.100000X-0.637500X-0.100000X0.637500X-0.100000X0.637500X0.100000X-0.637500X0.100000X0*%
%ADD16R,0.500000X0.800000*%
%ADD17R,0.400000X0.800000*%
%ADD18C,1.600000*%
G04 APERTURE END LIST*
D10*
%TO.C,SW7*%
X102870000Y-93820000D03*
D11*
X104140000Y-91280000D03*
D12*
X107950000Y-93820000D03*
D11*
X110490000Y-88740000D03*
D10*
X113030000Y-93820000D03*
D13*
X100865000Y-91280000D03*
X113792000Y-88740000D03*
%TD*%
D12*
%TO.C,SW17*%
X86487000Y-123665000D03*
D14*
X86487000Y-138905000D03*
D10*
X93345000Y-131920000D03*
D11*
X94615000Y-129380000D03*
D12*
X98425000Y-131920000D03*
D11*
X100965000Y-126840000D03*
D10*
X103505000Y-131920000D03*
D12*
X110363000Y-123665000D03*
D14*
X110363000Y-138905000D03*
D13*
X91340000Y-129380000D03*
X104267000Y-126840000D03*
%TD*%
D10*
%TO.C,SW8*%
X102870000Y-112870000D03*
D11*
X104140000Y-110330000D03*
D12*
X107950000Y-112870000D03*
D11*
X110490000Y-107790000D03*
D10*
X113030000Y-112870000D03*
D13*
X100865000Y-110330000D03*
X113792000Y-107790000D03*
%TD*%
D10*
%TO.C,SW5*%
X102870000Y-55720000D03*
D11*
X104140000Y-53180000D03*
D12*
X107950000Y-55720000D03*
D11*
X110490000Y-50640000D03*
D10*
X113030000Y-55720000D03*
D13*
X100865000Y-53180000D03*
X113792000Y-50640000D03*
%TD*%
D10*
%TO.C,SW12*%
X121920000Y-112870000D03*
D11*
X123190000Y-110330000D03*
D12*
X127000000Y-112870000D03*
D11*
X129540000Y-107790000D03*
D10*
X132080000Y-112870000D03*
D13*
X119915000Y-110330000D03*
X132842000Y-107790000D03*
%TD*%
D12*
%TO.C,SW14*%
X137795000Y-72357000D03*
X137795000Y-96233000D03*
D10*
X140970000Y-84295000D03*
D11*
X142240000Y-81755000D03*
D12*
X146050000Y-84295000D03*
D11*
X148590000Y-79215000D03*
D10*
X151130000Y-84295000D03*
D14*
X153035000Y-72357000D03*
X153035000Y-96233000D03*
D13*
X138965000Y-81755000D03*
X151892000Y-79215000D03*
%TD*%
D10*
%TO.C,SW3*%
X83820000Y-93820000D03*
D11*
X85090000Y-91280000D03*
D12*
X88900000Y-93820000D03*
D11*
X91440000Y-88740000D03*
D10*
X93980000Y-93820000D03*
D13*
X81815000Y-91280000D03*
X94742000Y-88740000D03*
%TD*%
D10*
%TO.C,SW9*%
X121920000Y-55720000D03*
D11*
X123190000Y-53180000D03*
D12*
X127000000Y-55720000D03*
D11*
X129540000Y-50640000D03*
D10*
X132080000Y-55720000D03*
D13*
X119915000Y-53180000D03*
X132842000Y-50640000D03*
%TD*%
D10*
%TO.C,SW10*%
X121920000Y-74770000D03*
D11*
X123190000Y-72230000D03*
D12*
X127000000Y-74770000D03*
D11*
X129540000Y-69690000D03*
D10*
X132080000Y-74770000D03*
D13*
X119915000Y-72230000D03*
X132842000Y-69690000D03*
%TD*%
D10*
%TO.C,SW1*%
X83820000Y-55720000D03*
D11*
X85090000Y-53180000D03*
D12*
X88900000Y-55720000D03*
D11*
X91440000Y-50640000D03*
D10*
X93980000Y-55720000D03*
D13*
X81815000Y-53180000D03*
X94742000Y-50640000D03*
%TD*%
D10*
%TO.C,SW4*%
X83820000Y-112870000D03*
D11*
X85090000Y-110330000D03*
D12*
X88900000Y-112870000D03*
D11*
X91440000Y-107790000D03*
D10*
X93980000Y-112870000D03*
D13*
X81815000Y-110330000D03*
X94742000Y-107790000D03*
%TD*%
D10*
%TO.C,SW6*%
X102870000Y-74770000D03*
D11*
X104140000Y-72230000D03*
D12*
X107950000Y-74770000D03*
D11*
X110490000Y-69690000D03*
D10*
X113030000Y-74770000D03*
D13*
X100865000Y-72230000D03*
X113792000Y-69690000D03*
%TD*%
D10*
%TO.C,SW16*%
X121920000Y-131920000D03*
D11*
X123190000Y-129380000D03*
D12*
X127000000Y-131920000D03*
D11*
X129540000Y-126840000D03*
D10*
X132080000Y-131920000D03*
D13*
X119915000Y-129380000D03*
X132842000Y-126840000D03*
%TD*%
D10*
%TO.C,SW2*%
X83820000Y-74770000D03*
D11*
X85090000Y-72230000D03*
D12*
X88900000Y-74770000D03*
D11*
X91440000Y-69690000D03*
D10*
X93980000Y-74770000D03*
D13*
X81815000Y-72230000D03*
X94742000Y-69690000D03*
%TD*%
D10*
%TO.C,SW11*%
X121920000Y-93820000D03*
D11*
X123190000Y-91280000D03*
D12*
X127000000Y-93820000D03*
D11*
X129540000Y-88740000D03*
D10*
X132080000Y-93820000D03*
D13*
X119915000Y-91280000D03*
X132842000Y-88740000D03*
%TD*%
D12*
%TO.C,SW15*%
X137795000Y-110457000D03*
X137795000Y-134333000D03*
D10*
X140970000Y-122395000D03*
D11*
X142240000Y-119855000D03*
D12*
X146050000Y-122395000D03*
D11*
X148590000Y-117315000D03*
D10*
X151130000Y-122395000D03*
D14*
X153035000Y-110457000D03*
X153035000Y-134333000D03*
D13*
X138965000Y-119855000D03*
X151892000Y-117315000D03*
%TD*%
D10*
%TO.C,SW13*%
X140970000Y-55720000D03*
D11*
X142240000Y-53180000D03*
D12*
X146050000Y-55720000D03*
D11*
X148590000Y-50640000D03*
D10*
X151130000Y-55720000D03*
D13*
X138965000Y-53180000D03*
X151892000Y-50640000D03*
%TD*%
D15*
%TO.C,U3*%
X109848400Y-133872700D03*
X109848400Y-133222700D03*
X109848400Y-132572700D03*
X109848400Y-131922700D03*
X109848400Y-131272700D03*
X109848400Y-130622700D03*
X109848400Y-129972700D03*
X109848400Y-129322700D03*
X115573400Y-129322700D03*
X115573400Y-129972700D03*
X115573400Y-130622700D03*
X115573400Y-131272700D03*
X115573400Y-131922700D03*
X115573400Y-132572700D03*
X115573400Y-133222700D03*
X115573400Y-133872700D03*
%TD*%
%TO.C,U2*%
X139979000Y-103454500D03*
X139979000Y-102804500D03*
X139979000Y-102154500D03*
X139979000Y-101504500D03*
X139979000Y-100854500D03*
X139979000Y-100204500D03*
X139979000Y-99554500D03*
X139979000Y-98904500D03*
X145704000Y-98904500D03*
X145704000Y-99554500D03*
X145704000Y-100204500D03*
X145704000Y-100854500D03*
X145704000Y-101504500D03*
X145704000Y-102154500D03*
X145704000Y-102804500D03*
X145704000Y-103454500D03*
%TD*%
D16*
%TO.C,RN4*%
X148607499Y-103211499D03*
D17*
X149407499Y-103211499D03*
X150207499Y-103211499D03*
D16*
X151007499Y-103211499D03*
X151007499Y-105011499D03*
D17*
X150207499Y-105011499D03*
X149407499Y-105011499D03*
D16*
X148607499Y-105011499D03*
%TD*%
%TO.C,RN2*%
X104176499Y-83907499D03*
D17*
X104976499Y-83907499D03*
X105776499Y-83907499D03*
D16*
X106576499Y-83907499D03*
X106576499Y-85707499D03*
D17*
X105776499Y-85707499D03*
X104976499Y-85707499D03*
D16*
X104176499Y-85707499D03*
%TD*%
%TO.C,RN1*%
X92611499Y-85707499D03*
D17*
X91811499Y-85707499D03*
X91011499Y-85707499D03*
D16*
X90211499Y-85707499D03*
X90211499Y-83907499D03*
D17*
X91011499Y-83907499D03*
X91811499Y-83907499D03*
D16*
X92611499Y-83907499D03*
%TD*%
%TO.C,RN5*%
X107773399Y-136968099D03*
D17*
X106973399Y-136968099D03*
X106173399Y-136968099D03*
D16*
X105373399Y-136968099D03*
X105373399Y-135168099D03*
D17*
X106173399Y-135168099D03*
X106973399Y-135168099D03*
D16*
X107773399Y-135168099D03*
%TD*%
D18*
%TO.C,U4*%
X119380000Y-55880000D03*
X119380000Y-58420000D03*
X119380000Y-60960000D03*
X119380000Y-63500000D03*
X119380000Y-66040000D03*
X134620000Y-66040000D03*
X134620000Y-63500000D03*
X134620000Y-60960000D03*
X134620000Y-58420000D03*
X134620000Y-55880000D03*
X134620000Y-53340000D03*
%TD*%
D15*
%TO.C,U1*%
X95562500Y-84188750D03*
X95562500Y-83538750D03*
X95562500Y-82888750D03*
X95562500Y-82238750D03*
X95562500Y-81588750D03*
X95562500Y-80938750D03*
X95562500Y-80288750D03*
X95562500Y-79638750D03*
X101287500Y-79638750D03*
X101287500Y-80288750D03*
X101287500Y-80938750D03*
X101287500Y-81588750D03*
X101287500Y-82238750D03*
X101287500Y-82888750D03*
X101287500Y-83538750D03*
X101287500Y-84188750D03*
%TD*%
D16*
%TO.C,RN3*%
X135825999Y-105011499D03*
D17*
X135025999Y-105011499D03*
X134225999Y-105011499D03*
D16*
X133425999Y-105011499D03*
X133425999Y-103211499D03*
D17*
X134225999Y-103211499D03*
X135025999Y-103211499D03*
D16*
X135825999Y-103211499D03*
%TD*%
M02*
