M48
; DRILL file {KiCad (7.0.0)} date Sat Mar 18 14:12:53 2023
; FORMAT={-:-/ absolute / inch / decimal}
; #@! TF.CreationDate,2023-03-18T14:12:53+09:00
; #@! TF.GenerationSoftware,Kicad,Pcbnew,(7.0.0)
; #@! TF.FileFunction,Plated,1,2,PTH
FMAT,2
INCH
; #@! TA.AperFunction,Plated,PTH,ViaDrill
T1C0.0118
; #@! TA.AperFunction,Plated,PTH,ComponentDrill
T2C0.0394
%
G90
G05
T1
X3.6887Y-3.1351
X3.7011Y-3.3743
X3.821Y-3.2889
X3.846Y-3.3139
X3.9347Y-3.4211
X3.9877Y-3.3743
X4.0527Y-3.1354
X4.1006Y-3.161
X4.2534Y-3.3743
X4.2567Y-5.0914
X4.3847Y-5.2706
X4.4147Y-5.245
X4.4851Y-5.2706
X4.5121Y-3.1354
X4.5206Y-3.2889
X4.5325Y-3.161
X4.5424Y-3.3139
X4.5706Y-5.3439
X4.6006Y-3.1354
X4.6006Y-3.3883
X4.6006Y-4.0739
X4.6006Y-4.2039
X4.6253Y-3.2889
X4.6253Y-4.0489
X4.6256Y-4.2339
X4.6256Y-5.3439
X4.65Y-4.0984
X4.65Y-4.1745
X4.6503Y-4.9745
X4.6506Y-3.3139
X4.705Y-3.161
X5.193Y-4.1343
X5.3431Y-3.1585
X5.411Y-4.0474
X5.4151Y-3.3957
X5.4233Y-3.3437
X5.431Y-3.8939
X5.446Y-4.0738
X5.4998Y-3.4203
X5.6664Y-3.8939
X5.6864Y-3.9195
X5.7364Y-4.1343
X5.7907Y-4.1343
X5.8014Y-3.9024
X5.8014Y-4.0474
T2
X4.7Y-2.2
X4.7Y-2.3
X4.7Y-2.4
X4.7Y-2.5
X4.7Y-2.6
X5.3Y-2.1
X5.3Y-2.2
X5.3Y-2.3
X5.3Y-2.4
X5.3Y-2.5
X5.3Y-2.6
T0
M30
