M48
; DRILL file {KiCad (7.0.0)} date Sat Mar 18 14:12:53 2023
; FORMAT={-:-/ absolute / inch / decimal}
; #@! TF.CreationDate,2023-03-18T14:12:53+09:00
; #@! TF.GenerationSoftware,Kicad,Pcbnew,(7.0.0)
; #@! TF.FileFunction,NonPlated,1,2,NPTH
FMAT,2
INCH
; #@! TA.AperFunction,NonPlated,NPTH,ComponentDrill
T1C0.0670
; #@! TA.AperFunction,NonPlated,NPTH,ComponentDrill
T2C0.1181
; #@! TA.AperFunction,NonPlated,NPTH,ComponentDrill
T3C0.1200
; #@! TA.AperFunction,NonPlated,NPTH,ComponentDrill
T4C0.1570
%
G90
G05
T1
X3.3Y-2.1937
X3.3Y-2.9437
X3.3Y-3.6937
X3.3Y-4.4437
X3.675Y-5.1937
X3.7Y-2.1937
X3.7Y-2.9437
X3.7Y-3.6937
X3.7Y-4.4437
X4.05Y-2.1937
X4.05Y-2.9437
X4.05Y-3.6937
X4.05Y-4.4437
X4.075Y-5.1937
X4.45Y-2.1937
X4.45Y-2.9437
X4.45Y-3.6937
X4.45Y-4.4437
X4.8Y-2.1937
X4.8Y-2.9437
X4.8Y-3.6937
X4.8Y-4.4437
X4.8Y-5.1937
X5.2Y-2.1937
X5.2Y-2.9437
X5.2Y-3.6937
X5.2Y-4.4437
X5.2Y-5.1937
X5.55Y-2.1937
X5.55Y-3.3187
X5.55Y-4.8187
X5.95Y-2.1937
X5.95Y-3.3187
X5.95Y-4.8187
T2
X3.35Y-2.0937
X3.35Y-2.8437
X3.35Y-3.5937
X3.35Y-4.3437
X3.6Y-1.9937
X3.6Y-2.7437
X3.6Y-3.4937
X3.6Y-4.2437
X3.725Y-5.0937
X3.975Y-4.9937
X4.1Y-2.0937
X4.1Y-2.8437
X4.1Y-3.5937
X4.1Y-4.3437
X4.35Y-1.9937
X4.35Y-2.7437
X4.35Y-3.4937
X4.35Y-4.2437
X4.85Y-2.0937
X4.85Y-2.8437
X4.85Y-3.5937
X4.85Y-4.3437
X4.85Y-5.0937
X5.1Y-1.9937
X5.1Y-2.7437
X5.1Y-3.4937
X5.1Y-4.2437
X5.1Y-4.9937
X5.6Y-2.0937
X5.6Y-3.2187
X5.6Y-4.7187
X5.85Y-1.9937
X5.85Y-3.1187
X5.85Y-4.6187
T3
X3.405Y-5.4687
X4.345Y-5.4687
X6.025Y-2.8487
X6.025Y-3.7887
X6.025Y-4.3487
X6.025Y-5.2887
T4
X3.405Y-4.8687
X3.5Y-2.1937
X3.5Y-2.9437
X3.5Y-3.6937
X3.5Y-4.4437
X3.875Y-5.1937
X4.25Y-2.1937
X4.25Y-2.9437
X4.25Y-3.6937
X4.25Y-4.4437
X4.345Y-4.8687
X5.0Y-2.1937
X5.0Y-2.9437
X5.0Y-3.6937
X5.0Y-4.4437
X5.0Y-5.1937
X5.425Y-2.8487
X5.425Y-3.7887
X5.425Y-4.3487
X5.425Y-5.2887
X5.75Y-2.1937
X5.75Y-3.3187
X5.75Y-4.8187
T0
M30
