M48
; DRILL file {KiCad (7.0.0)} date Wed Mar 29 14:48:56 2023
; FORMAT={-:-/ absolute / inch / decimal}
; #@! TF.CreationDate,2023-03-29T14:48:56+09:00
; #@! TF.GenerationSoftware,Kicad,Pcbnew,(7.0.0)
; #@! TF.FileFunction,NonPlated,1,2,NPTH
FMAT,2
INCH
; #@! TA.AperFunction,NonPlated,NPTH,ComponentDrill
T1C0.0670
; #@! TA.AperFunction,NonPlated,NPTH,ComponentDrill
T2C0.1181
; #@! TA.AperFunction,NonPlated,NPTH,ComponentDrill
T3C0.1200
; #@! TA.AperFunction,NonPlated,NPTH,ComponentDrill
T4C0.1570
%
G90
G05
T1
X2.3312Y-1.4062
X2.6125Y-3.6562
X2.7312Y-1.4062
X2.8Y-2.9062
X2.8937Y-2.1562
X3.0125Y-3.6562
X3.0812Y-1.4062
X3.2Y-2.9062
X3.2937Y-2.1562
X3.4812Y-1.4062
X3.8312Y-1.4062
X3.8312Y-2.1562
X3.8312Y-2.9062
X3.8312Y-3.6562
X4.1125Y-4.4062
X4.2313Y-1.4062
X4.2313Y-2.1562
X4.2313Y-2.9062
X4.2313Y-3.6562
X4.5125Y-4.4062
X4.5812Y-1.4062
X4.5812Y-2.1562
X4.5812Y-2.9062
X4.5812Y-3.6562
X4.9813Y-1.4062
X4.9813Y-2.1562
X4.9813Y-2.9062
X4.9813Y-3.6562
X5.05Y-4.4062
X5.3312Y-1.4062
X5.3312Y-2.1562
X5.3312Y-2.9062
X5.3312Y-3.6562
X5.45Y-4.4062
X5.7313Y-1.4062
X5.7313Y-2.1562
X5.7313Y-2.9062
X5.7313Y-3.6562
X6.0812Y-1.4062
X6.0812Y-2.1562
X6.0812Y-2.9062
X6.0812Y-3.6562
X6.3625Y-4.4062
X6.4813Y-1.4062
X6.4813Y-2.1562
X6.4813Y-2.9062
X6.4813Y-3.6562
X6.7625Y-4.4062
X6.8312Y-1.4062
X6.8312Y-2.1562
X6.8312Y-2.9062
X6.8312Y-3.6562
X7.2313Y-1.4062
X7.2313Y-2.1562
X7.2313Y-2.9062
X7.2313Y-3.6562
X7.5812Y-1.4062
X7.5812Y-2.1562
X7.5812Y-2.9062
X7.5812Y-3.6562
X7.9813Y-1.4062
X7.9813Y-2.1562
X7.9813Y-2.9062
X7.9813Y-3.6562
X8.2375Y-4.4062
X8.3312Y-1.4062
X8.3312Y-2.1562
X8.3312Y-2.9062
X8.3312Y-3.6562
X8.6375Y-4.4062
X8.7312Y-1.4062
X8.7312Y-2.1562
X8.7312Y-2.9062
X8.7312Y-3.6562
X9.0812Y-1.4062
X9.0812Y-2.1562
X9.0812Y-2.9062
X9.0812Y-3.6562
X9.4812Y-1.4062
X9.4812Y-2.1562
X9.4812Y-2.9062
X9.4812Y-3.6562
X9.7375Y-4.4062
X9.8312Y-1.4062
X9.8312Y-2.1562
X9.8312Y-2.9062
X9.8312Y-3.6562
X10.1375Y-4.4062
X10.2312Y-1.4062
X10.2312Y-2.1562
X10.2312Y-2.9062
X10.2312Y-3.6562
X10.5812Y-1.4062
X10.5812Y-2.1562
X10.5812Y-2.9062
X10.5812Y-3.6562
X10.675Y-4.4062
X10.9812Y-1.4062
X10.9812Y-2.1562
X10.9812Y-2.9062
X10.9812Y-3.6562
X11.075Y-4.4062
X11.3312Y-1.4062
X11.3312Y-2.1562
X11.6125Y-3.6562
X11.7312Y-1.4062
X11.7312Y-2.1562
X11.8Y-2.9062
X12.0125Y-3.6562
X12.0812Y-1.4062
X12.0812Y-2.1562
X12.2Y-2.9062
X12.4812Y-1.4062
X12.4812Y-2.1562
X12.6437Y-3.6562
X12.8312Y-1.4062
X13.0437Y-3.6562
X13.2312Y-1.4062
T2
X2.3813Y-1.3062
X2.6313Y-1.2063
X2.6625Y-3.5562
X2.85Y-2.8062
X2.9125Y-3.4562
X2.9438Y-2.0562
X3.1Y-2.7062
X3.1313Y-1.3062
X3.1938Y-1.9563
X3.3813Y-1.2063
X3.8813Y-1.3062
X3.8813Y-2.0562
X3.8813Y-2.8062
X3.8813Y-3.5562
X4.1312Y-1.2063
X4.1312Y-1.9563
X4.1312Y-2.7062
X4.1312Y-3.4562
X4.1625Y-4.3062
X4.4125Y-4.2062
X4.6312Y-1.3062
X4.6312Y-2.0562
X4.6312Y-2.8062
X4.6312Y-3.5562
X4.8812Y-1.2063
X4.8812Y-1.9563
X4.8812Y-2.7062
X4.8812Y-3.4562
X5.1Y-4.3062
X5.35Y-4.2062
X5.3812Y-1.3062
X5.3812Y-2.0562
X5.3812Y-2.8062
X5.3812Y-3.5562
X5.6312Y-1.2063
X5.6312Y-1.9563
X5.6312Y-2.7062
X5.6312Y-3.4562
X6.1312Y-1.3062
X6.1312Y-2.0562
X6.1312Y-2.8062
X6.1312Y-3.5562
X6.3812Y-1.2063
X6.3812Y-1.9563
X6.3812Y-2.7062
X6.3812Y-3.4562
X6.4125Y-4.3062
X6.6625Y-4.2062
X6.8812Y-1.3062
X6.8812Y-2.0562
X6.8812Y-2.8062
X6.8812Y-3.5562
X7.1312Y-1.2063
X7.1312Y-1.9563
X7.1312Y-2.7062
X7.1312Y-3.4562
X7.6312Y-1.3062
X7.6312Y-2.0562
X7.6312Y-2.8062
X7.6312Y-3.5562
X7.8812Y-1.2063
X7.8812Y-1.9563
X7.8812Y-2.7062
X7.8812Y-3.4562
X8.2875Y-4.3062
X8.3812Y-1.3062
X8.3812Y-2.0562
X8.3812Y-2.8062
X8.3812Y-3.5562
X8.5375Y-4.2062
X8.6312Y-1.2063
X8.6312Y-1.9563
X8.6312Y-2.7062
X8.6312Y-3.4562
X9.1312Y-1.3062
X9.1312Y-2.0562
X9.1312Y-2.8062
X9.1312Y-3.5562
X9.3812Y-1.2063
X9.3812Y-1.9563
X9.3812Y-2.7062
X9.3812Y-3.4562
X9.7875Y-4.3062
X9.8812Y-1.3062
X9.8812Y-2.0562
X9.8812Y-2.8062
X9.8812Y-3.5562
X10.0375Y-4.2062
X10.1312Y-1.2063
X10.1312Y-1.9563
X10.1312Y-2.7062
X10.1312Y-3.4562
X10.6312Y-1.3062
X10.6312Y-2.0562
X10.6312Y-2.8062
X10.6312Y-3.5562
X10.725Y-4.3062
X10.8812Y-1.2063
X10.8812Y-1.9563
X10.8812Y-2.7062
X10.8812Y-3.4562
X10.975Y-4.2062
X11.3812Y-1.3062
X11.3812Y-2.0562
X11.6312Y-1.2063
X11.6312Y-1.9563
X11.6625Y-3.5562
X11.85Y-2.8062
X11.9125Y-3.4562
X12.1Y-2.7062
X12.1312Y-1.3062
X12.1312Y-2.0562
X12.3812Y-1.2063
X12.3812Y-1.9563
X12.6937Y-3.5562
X12.8812Y-1.3062
X12.9437Y-3.4562
X13.1312Y-1.2063
T3
X2.3425Y-3.3813
X3.2825Y-3.3813
X6.0925Y-4.6812
X7.0325Y-4.6812
X7.9675Y-4.6812
X8.9075Y-4.6812
X11.53Y-2.6313
X12.47Y-2.6313
T4
X2.3425Y-3.9812
X2.5312Y-1.4062
X2.8125Y-3.6562
X3.0Y-2.9062
X3.0938Y-2.1562
X3.2812Y-1.4062
X3.2825Y-3.9812
X4.0312Y-1.4062
X4.0312Y-2.1562
X4.0312Y-2.9062
X4.0312Y-3.6562
X4.3125Y-4.4062
X4.7812Y-1.4062
X4.7812Y-2.1562
X4.7812Y-2.9062
X4.7812Y-3.6562
X5.25Y-4.4062
X5.5312Y-1.4062
X5.5312Y-2.1562
X5.5312Y-2.9062
X5.5312Y-3.6562
X6.0925Y-4.0812
X6.2812Y-1.4062
X6.2812Y-2.1562
X6.2812Y-2.9062
X6.2812Y-3.6562
X6.5625Y-4.4062
X7.0312Y-1.4062
X7.0312Y-2.1562
X7.0312Y-2.9062
X7.0312Y-3.6562
X7.0325Y-4.0812
X7.7812Y-1.4062
X7.7812Y-2.1562
X7.7812Y-2.9062
X7.7812Y-3.6562
X7.9675Y-4.0812
X8.4375Y-4.4062
X8.5312Y-1.4062
X8.5312Y-2.1562
X8.5312Y-2.9062
X8.5312Y-3.6562
X8.9075Y-4.0812
X9.2812Y-1.4062
X9.2812Y-2.1562
X9.2812Y-2.9062
X9.2812Y-3.6562
X9.9375Y-4.4062
X10.0312Y-1.4062
X10.0312Y-2.1562
X10.0312Y-2.9062
X10.0312Y-3.6562
X10.7812Y-1.4062
X10.7812Y-2.1562
X10.7812Y-2.9062
X10.7812Y-3.6562
X10.875Y-4.4062
X11.53Y-3.2312
X11.5312Y-1.4062
X11.5312Y-2.1562
X11.8125Y-3.6562
X12.0Y-2.9062
X12.2812Y-1.4062
X12.2812Y-2.1562
X12.47Y-3.2312
X12.8438Y-3.6562
X13.0312Y-1.4062
T0
M30
