M48
; DRILL file {KiCad (7.0.0)} date Wed Mar 29 14:48:56 2023
; FORMAT={-:-/ absolute / inch / decimal}
; #@! TF.CreationDate,2023-03-29T14:48:56+09:00
; #@! TF.GenerationSoftware,Kicad,Pcbnew,(7.0.0)
; #@! TF.FileFunction,Plated,1,2,PTH
FMAT,2
INCH
; #@! TA.AperFunction,Plated,PTH,ViaDrill
T1C0.0118
; #@! TA.AperFunction,Plated,PTH,ComponentDrill
T2C0.0394
%
G90
G05
T1
X2.5265Y-2.5217
X2.6611Y-2.4302
X2.6811Y-2.4558
X2.6914Y-2.3602
X2.8314Y-2.5217
X2.8961Y-2.3023
X2.9314Y-2.2767
X3.1065Y-2.5217
X3.4223Y-2.4558
X3.4423Y-1.7515
X3.4423Y-2.3023
X3.4423Y-2.4302
X3.5023Y-1.6915
X3.5123Y-2.4302
X3.5423Y-2.3023
X3.5523Y-2.4558
X3.5823Y-2.4302
X4.2101Y-2.5217
X4.2196Y-2.2767
X4.3446Y-2.4302
X4.3646Y-2.4558
X4.3796Y-2.3767
X4.46Y-2.2767
X4.515Y-2.5217
X4.5401Y-2.5717
X4.5796Y-2.3023
X4.6051Y-2.5717
X4.7901Y-2.5217
X5.7101Y-2.5217
X5.7196Y-2.2767
X5.8446Y-2.4302
X5.8646Y-2.4558
X5.8796Y-2.3767
X5.96Y-2.2767
X6.015Y-2.5217
X6.0401Y-2.5717
X6.0796Y-2.3023
X6.1051Y-2.5717
X6.2901Y-2.5217
X7.2101Y-2.5217
X7.2196Y-2.2767
X7.3446Y-2.4302
X7.3646Y-2.4558
X7.3796Y-2.3767
X7.46Y-2.2767
X7.515Y-2.5217
X7.5401Y-2.5717
X7.5796Y-2.3023
X7.6051Y-2.5717
X7.7901Y-2.5217
X8.7101Y-2.5217
X8.7196Y-2.2767
X8.8446Y-2.4302
X8.8646Y-2.4558
X8.8796Y-2.3767
X8.96Y-2.2767
X9.015Y-2.5217
X9.0401Y-2.5717
X9.0796Y-2.3023
X9.1051Y-2.5717
X9.2901Y-2.5217
X10.2092Y-4.0657
X10.2101Y-2.5217
X10.2196Y-2.2767
X10.3446Y-2.4302
X10.3461Y-3.9998
X10.3487Y-3.9486
X10.3646Y-2.4558
X10.3796Y-2.3767
X10.4161Y-4.0298
X10.46Y-2.2767
X10.5141Y-4.0657
X10.515Y-2.5217
X10.5401Y-2.5717
X10.5796Y-2.3023
X10.5823Y-3.8207
X10.6051Y-2.5717
X10.7901Y-2.5217
X11.2023Y-2.3623
X11.2023Y-2.5823
X11.2323Y-2.4558
X11.2323Y-2.5623
X11.2623Y-2.4302
X11.2623Y-2.5823
X11.7074Y-2.5217
X11.8419Y-2.4302
X11.8619Y-2.4558
X11.8769Y-2.3767
X11.9573Y-2.2767
X11.9623Y-2.3123
X12.0123Y-2.5217
T2
X2.9812Y-1.4125
X2.9812Y-1.5125
X2.9812Y-1.6125
X2.9812Y-1.7125
X2.9812Y-1.8125
X3.5812Y-1.3125
X3.5812Y-1.4125
X3.5812Y-1.5125
X3.5812Y-1.6125
X3.5812Y-1.7125
X3.5812Y-1.8125
T0
M30
