%TF.GenerationSoftware,KiCad,Pcbnew,(7.0.0)*%
%TF.CreationDate,2023-03-29T14:48:56+09:00*%
%TF.ProjectId,HEP,4845502e-6b69-4636-9164-5f7063625858,rev?*%
%TF.SameCoordinates,Original*%
%TF.FileFunction,Legend,Bot*%
%TF.FilePolarity,Positive*%
%FSLAX46Y46*%
G04 Gerber Fmt 4.6, Leading zero omitted, Abs format (unit mm)*
G04 Created by KiCad (PCBNEW (7.0.0)) date 2023-03-29 14:48:56*
%MOMM*%
%LPD*%
G01*
G04 APERTURE LIST*
G04 Aperture macros list*
%AMRoundRect*
0 Rectangle with rounded corners*
0 $1 Rounding radius*
0 $2 $3 $4 $5 $6 $7 $8 $9 X,Y pos of 4 corners*
0 Add a 4 corners polygon primitive as box body*
4,1,4,$2,$3,$4,$5,$6,$7,$8,$9,$2,$3,0*
0 Add four circle primitives for the rounded corners*
1,1,$1+$1,$2,$3*
1,1,$1+$1,$4,$5*
1,1,$1+$1,$6,$7*
1,1,$1+$1,$8,$9*
0 Add four rect primitives between the rounded corners*
20,1,$1+$1,$2,$3,$4,$5,0*
20,1,$1+$1,$4,$5,$6,$7,0*
20,1,$1+$1,$6,$7,$8,$9,0*
20,1,$1+$1,$8,$9,$2,$3,0*%
G04 Aperture macros list end*
%ADD10C,0.150000*%
%ADD11C,0.120000*%
%ADD12C,3.000000*%
%ADD13C,3.987800*%
%ADD14C,1.701800*%
%ADD15RoundRect,0.200000X-1.075000X-1.050000X1.075000X-1.050000X1.075000X1.050000X-1.075000X1.050000X0*%
%ADD16C,3.048000*%
%ADD17RoundRect,0.100000X-0.637500X-0.100000X0.637500X-0.100000X0.637500X0.100000X-0.637500X0.100000X0*%
%ADD18R,0.500000X0.800000*%
%ADD19R,0.400000X0.800000*%
%ADD20C,1.600000*%
G04 APERTURE END LIST*
D10*
%TO.C,U6*%
X267811154Y-56199880D02*
X267811154Y-57009404D01*
X267811154Y-57009404D02*
X267763535Y-57104642D01*
X267763535Y-57104642D02*
X267715916Y-57152261D01*
X267715916Y-57152261D02*
X267620678Y-57199880D01*
X267620678Y-57199880D02*
X267430202Y-57199880D01*
X267430202Y-57199880D02*
X267334964Y-57152261D01*
X267334964Y-57152261D02*
X267287345Y-57104642D01*
X267287345Y-57104642D02*
X267239726Y-57009404D01*
X267239726Y-57009404D02*
X267239726Y-56199880D01*
X266334964Y-56199880D02*
X266525440Y-56199880D01*
X266525440Y-56199880D02*
X266620678Y-56247500D01*
X266620678Y-56247500D02*
X266668297Y-56295119D01*
X266668297Y-56295119D02*
X266763535Y-56437976D01*
X266763535Y-56437976D02*
X266811154Y-56628452D01*
X266811154Y-56628452D02*
X266811154Y-57009404D01*
X266811154Y-57009404D02*
X266763535Y-57104642D01*
X266763535Y-57104642D02*
X266715916Y-57152261D01*
X266715916Y-57152261D02*
X266620678Y-57199880D01*
X266620678Y-57199880D02*
X266430202Y-57199880D01*
X266430202Y-57199880D02*
X266334964Y-57152261D01*
X266334964Y-57152261D02*
X266287345Y-57104642D01*
X266287345Y-57104642D02*
X266239726Y-57009404D01*
X266239726Y-57009404D02*
X266239726Y-56771309D01*
X266239726Y-56771309D02*
X266287345Y-56676071D01*
X266287345Y-56676071D02*
X266334964Y-56628452D01*
X266334964Y-56628452D02*
X266430202Y-56580833D01*
X266430202Y-56580833D02*
X266620678Y-56580833D01*
X266620678Y-56580833D02*
X266715916Y-56628452D01*
X266715916Y-56628452D02*
X266763535Y-56676071D01*
X266763535Y-56676071D02*
X266811154Y-56771309D01*
%TO.C,U8*%
X267028654Y-95390880D02*
X267028654Y-96200404D01*
X267028654Y-96200404D02*
X266981035Y-96295642D01*
X266981035Y-96295642D02*
X266933416Y-96343261D01*
X266933416Y-96343261D02*
X266838178Y-96390880D01*
X266838178Y-96390880D02*
X266647702Y-96390880D01*
X266647702Y-96390880D02*
X266552464Y-96343261D01*
X266552464Y-96343261D02*
X266504845Y-96295642D01*
X266504845Y-96295642D02*
X266457226Y-96200404D01*
X266457226Y-96200404D02*
X266457226Y-95390880D01*
X265838178Y-95819452D02*
X265933416Y-95771833D01*
X265933416Y-95771833D02*
X265981035Y-95724214D01*
X265981035Y-95724214D02*
X266028654Y-95628976D01*
X266028654Y-95628976D02*
X266028654Y-95581357D01*
X266028654Y-95581357D02*
X265981035Y-95486119D01*
X265981035Y-95486119D02*
X265933416Y-95438500D01*
X265933416Y-95438500D02*
X265838178Y-95390880D01*
X265838178Y-95390880D02*
X265647702Y-95390880D01*
X265647702Y-95390880D02*
X265552464Y-95438500D01*
X265552464Y-95438500D02*
X265504845Y-95486119D01*
X265504845Y-95486119D02*
X265457226Y-95581357D01*
X265457226Y-95581357D02*
X265457226Y-95628976D01*
X265457226Y-95628976D02*
X265504845Y-95724214D01*
X265504845Y-95724214D02*
X265552464Y-95771833D01*
X265552464Y-95771833D02*
X265647702Y-95819452D01*
X265647702Y-95819452D02*
X265838178Y-95819452D01*
X265838178Y-95819452D02*
X265933416Y-95867071D01*
X265933416Y-95867071D02*
X265981035Y-95914690D01*
X265981035Y-95914690D02*
X266028654Y-96009928D01*
X266028654Y-96009928D02*
X266028654Y-96200404D01*
X266028654Y-96200404D02*
X265981035Y-96295642D01*
X265981035Y-96295642D02*
X265933416Y-96343261D01*
X265933416Y-96343261D02*
X265838178Y-96390880D01*
X265838178Y-96390880D02*
X265647702Y-96390880D01*
X265647702Y-96390880D02*
X265552464Y-96343261D01*
X265552464Y-96343261D02*
X265504845Y-96295642D01*
X265504845Y-96295642D02*
X265457226Y-96200404D01*
X265457226Y-96200404D02*
X265457226Y-96009928D01*
X265457226Y-96009928D02*
X265504845Y-95914690D01*
X265504845Y-95914690D02*
X265552464Y-95867071D01*
X265552464Y-95867071D02*
X265647702Y-95819452D01*
%TO.C,U2*%
X115411154Y-56199880D02*
X115411154Y-57009404D01*
X115411154Y-57009404D02*
X115363535Y-57104642D01*
X115363535Y-57104642D02*
X115315916Y-57152261D01*
X115315916Y-57152261D02*
X115220678Y-57199880D01*
X115220678Y-57199880D02*
X115030202Y-57199880D01*
X115030202Y-57199880D02*
X114934964Y-57152261D01*
X114934964Y-57152261D02*
X114887345Y-57104642D01*
X114887345Y-57104642D02*
X114839726Y-57009404D01*
X114839726Y-57009404D02*
X114839726Y-56199880D01*
X114411154Y-56295119D02*
X114363535Y-56247500D01*
X114363535Y-56247500D02*
X114268297Y-56199880D01*
X114268297Y-56199880D02*
X114030202Y-56199880D01*
X114030202Y-56199880D02*
X113934964Y-56247500D01*
X113934964Y-56247500D02*
X113887345Y-56295119D01*
X113887345Y-56295119D02*
X113839726Y-56390357D01*
X113839726Y-56390357D02*
X113839726Y-56485595D01*
X113839726Y-56485595D02*
X113887345Y-56628452D01*
X113887345Y-56628452D02*
X114458773Y-57199880D01*
X114458773Y-57199880D02*
X113839726Y-57199880D01*
%TO.C,U1*%
X72648654Y-56199880D02*
X72648654Y-57009404D01*
X72648654Y-57009404D02*
X72601035Y-57104642D01*
X72601035Y-57104642D02*
X72553416Y-57152261D01*
X72553416Y-57152261D02*
X72458178Y-57199880D01*
X72458178Y-57199880D02*
X72267702Y-57199880D01*
X72267702Y-57199880D02*
X72172464Y-57152261D01*
X72172464Y-57152261D02*
X72124845Y-57104642D01*
X72124845Y-57104642D02*
X72077226Y-57009404D01*
X72077226Y-57009404D02*
X72077226Y-56199880D01*
X71077226Y-57199880D02*
X71648654Y-57199880D01*
X71362940Y-57199880D02*
X71362940Y-56199880D01*
X71362940Y-56199880D02*
X71458178Y-56342738D01*
X71458178Y-56342738D02*
X71553416Y-56437976D01*
X71553416Y-56437976D02*
X71648654Y-56485595D01*
%TO.C,U5*%
X229711154Y-56199880D02*
X229711154Y-57009404D01*
X229711154Y-57009404D02*
X229663535Y-57104642D01*
X229663535Y-57104642D02*
X229615916Y-57152261D01*
X229615916Y-57152261D02*
X229520678Y-57199880D01*
X229520678Y-57199880D02*
X229330202Y-57199880D01*
X229330202Y-57199880D02*
X229234964Y-57152261D01*
X229234964Y-57152261D02*
X229187345Y-57104642D01*
X229187345Y-57104642D02*
X229139726Y-57009404D01*
X229139726Y-57009404D02*
X229139726Y-56199880D01*
X228187345Y-56199880D02*
X228663535Y-56199880D01*
X228663535Y-56199880D02*
X228711154Y-56676071D01*
X228711154Y-56676071D02*
X228663535Y-56628452D01*
X228663535Y-56628452D02*
X228568297Y-56580833D01*
X228568297Y-56580833D02*
X228330202Y-56580833D01*
X228330202Y-56580833D02*
X228234964Y-56628452D01*
X228234964Y-56628452D02*
X228187345Y-56676071D01*
X228187345Y-56676071D02*
X228139726Y-56771309D01*
X228139726Y-56771309D02*
X228139726Y-57009404D01*
X228139726Y-57009404D02*
X228187345Y-57104642D01*
X228187345Y-57104642D02*
X228234964Y-57152261D01*
X228234964Y-57152261D02*
X228330202Y-57199880D01*
X228330202Y-57199880D02*
X228568297Y-57199880D01*
X228568297Y-57199880D02*
X228663535Y-57152261D01*
X228663535Y-57152261D02*
X228711154Y-57104642D01*
%TO.C,U4*%
X191611154Y-56199880D02*
X191611154Y-57009404D01*
X191611154Y-57009404D02*
X191563535Y-57104642D01*
X191563535Y-57104642D02*
X191515916Y-57152261D01*
X191515916Y-57152261D02*
X191420678Y-57199880D01*
X191420678Y-57199880D02*
X191230202Y-57199880D01*
X191230202Y-57199880D02*
X191134964Y-57152261D01*
X191134964Y-57152261D02*
X191087345Y-57104642D01*
X191087345Y-57104642D02*
X191039726Y-57009404D01*
X191039726Y-57009404D02*
X191039726Y-56199880D01*
X190134964Y-56533214D02*
X190134964Y-57199880D01*
X190373059Y-56152261D02*
X190611154Y-56866547D01*
X190611154Y-56866547D02*
X189992107Y-56866547D01*
%TO.C,U3*%
X153511154Y-56199880D02*
X153511154Y-57009404D01*
X153511154Y-57009404D02*
X153463535Y-57104642D01*
X153463535Y-57104642D02*
X153415916Y-57152261D01*
X153415916Y-57152261D02*
X153320678Y-57199880D01*
X153320678Y-57199880D02*
X153130202Y-57199880D01*
X153130202Y-57199880D02*
X153034964Y-57152261D01*
X153034964Y-57152261D02*
X152987345Y-57104642D01*
X152987345Y-57104642D02*
X152939726Y-57009404D01*
X152939726Y-57009404D02*
X152939726Y-56199880D01*
X152558773Y-56199880D02*
X151939726Y-56199880D01*
X151939726Y-56199880D02*
X152273059Y-56580833D01*
X152273059Y-56580833D02*
X152130202Y-56580833D01*
X152130202Y-56580833D02*
X152034964Y-56628452D01*
X152034964Y-56628452D02*
X151987345Y-56676071D01*
X151987345Y-56676071D02*
X151939726Y-56771309D01*
X151939726Y-56771309D02*
X151939726Y-57009404D01*
X151939726Y-57009404D02*
X151987345Y-57104642D01*
X151987345Y-57104642D02*
X152034964Y-57152261D01*
X152034964Y-57152261D02*
X152130202Y-57199880D01*
X152130202Y-57199880D02*
X152415916Y-57199880D01*
X152415916Y-57199880D02*
X152511154Y-57152261D01*
X152511154Y-57152261D02*
X152558773Y-57104642D01*
%TO.C,U7*%
X305842654Y-56199880D02*
X305842654Y-57009404D01*
X305842654Y-57009404D02*
X305795035Y-57104642D01*
X305795035Y-57104642D02*
X305747416Y-57152261D01*
X305747416Y-57152261D02*
X305652178Y-57199880D01*
X305652178Y-57199880D02*
X305461702Y-57199880D01*
X305461702Y-57199880D02*
X305366464Y-57152261D01*
X305366464Y-57152261D02*
X305318845Y-57104642D01*
X305318845Y-57104642D02*
X305271226Y-57009404D01*
X305271226Y-57009404D02*
X305271226Y-56199880D01*
X304890273Y-56199880D02*
X304223607Y-56199880D01*
X304223607Y-56199880D02*
X304652178Y-57199880D01*
D11*
%TO.C,U6*%
X264218750Y-62837750D02*
X266418750Y-62837750D01*
X264218750Y-62837750D02*
X260618750Y-62837750D01*
X264218750Y-57367750D02*
X266418750Y-57367750D01*
X264218750Y-57367750D02*
X262018750Y-57367750D01*
%TO.C,U8*%
X264196750Y-96584750D02*
X261996750Y-96584750D01*
X264196750Y-96584750D02*
X266396750Y-96584750D01*
X264196750Y-102054750D02*
X260596750Y-102054750D01*
X264196750Y-102054750D02*
X266396750Y-102054750D01*
%TO.C,RN12*%
X269904750Y-63650750D02*
X269904750Y-62650750D01*
X273264750Y-63650750D02*
X273264750Y-62650750D01*
%TO.C,RN9*%
X220432750Y-63650750D02*
X220432750Y-62650750D01*
X217072750Y-63650750D02*
X217072750Y-62650750D01*
%TO.C,U2*%
X111818750Y-57367750D02*
X109618750Y-57367750D01*
X111818750Y-57367750D02*
X114018750Y-57367750D01*
X111818750Y-62837750D02*
X108218750Y-62837750D01*
X111818750Y-62837750D02*
X114018750Y-62837750D01*
%TO.C,U1*%
X69056250Y-57367750D02*
X66856250Y-57367750D01*
X69056250Y-57367750D02*
X71256250Y-57367750D01*
X69056250Y-62837750D02*
X65456250Y-62837750D01*
X69056250Y-62837750D02*
X71256250Y-62837750D01*
%TO.C,U5*%
X226118750Y-57367750D02*
X223918750Y-57367750D01*
X226118750Y-57367750D02*
X228318750Y-57367750D01*
X226118750Y-62837750D02*
X222518750Y-62837750D01*
X226118750Y-62837750D02*
X228318750Y-62837750D01*
%TO.C,U4*%
X188018750Y-57367750D02*
X185818750Y-57367750D01*
X188018750Y-57367750D02*
X190218750Y-57367750D01*
X188018750Y-62837750D02*
X184418750Y-62837750D01*
X188018750Y-62837750D02*
X190218750Y-62837750D01*
%TO.C,RN4*%
X120864750Y-63650750D02*
X120864750Y-62650750D01*
X117504750Y-63650750D02*
X117504750Y-62650750D01*
%TO.C,RN1*%
X63370250Y-63650750D02*
X63370250Y-62650750D01*
X60010250Y-63650750D02*
X60010250Y-62650750D01*
%TO.C,RN8*%
X197064750Y-63650750D02*
X197064750Y-62650750D01*
X193704750Y-63650750D02*
X193704750Y-62650750D01*
%TO.C,RN10*%
X235164750Y-63650750D02*
X235164750Y-62650750D01*
X231804750Y-63650750D02*
X231804750Y-62650750D01*
%TO.C,RN7*%
X182332750Y-63650750D02*
X182332750Y-62650750D01*
X178972750Y-63650750D02*
X178972750Y-62650750D01*
%TO.C,RN6*%
X158964750Y-63650750D02*
X158964750Y-62650750D01*
X155604750Y-63650750D02*
X155604750Y-62650750D01*
%TO.C,U3*%
X149918750Y-57367750D02*
X147718750Y-57367750D01*
X149918750Y-57367750D02*
X152118750Y-57367750D01*
X149918750Y-62837750D02*
X146318750Y-62837750D01*
X149918750Y-62837750D02*
X152118750Y-62837750D01*
%TO.C,RN5*%
X144232750Y-63650750D02*
X144232750Y-62650750D01*
X140872750Y-63650750D02*
X140872750Y-62650750D01*
%TO.C,U7*%
X302250250Y-57367750D02*
X300050250Y-57367750D01*
X302250250Y-57367750D02*
X304450250Y-57367750D01*
X302250250Y-62837750D02*
X298650250Y-62837750D01*
X302250250Y-62837750D02*
X304450250Y-62837750D01*
%TO.C,RN2*%
X78102250Y-63650750D02*
X78102250Y-62650750D01*
X74742250Y-63650750D02*
X74742250Y-62650750D01*
%TO.C,RN14*%
X311296250Y-63650750D02*
X311296250Y-62650750D01*
X307936250Y-63650750D02*
X307936250Y-62650750D01*
%TO.C,RN11*%
X255172750Y-63650750D02*
X255172750Y-62650750D01*
X258532750Y-63650750D02*
X258532750Y-62650750D01*
%TO.C,RN15*%
X258510750Y-102867750D02*
X258510750Y-101867750D01*
X255150750Y-102867750D02*
X255150750Y-101867750D01*
%TO.C,RN13*%
X296564250Y-63650750D02*
X296564250Y-62650750D01*
X293204250Y-63650750D02*
X293204250Y-62650750D01*
%TO.C,RN3*%
X106132750Y-63650750D02*
X106132750Y-62650750D01*
X102772750Y-63650750D02*
X102772750Y-62650750D01*
%TD*%
%LPC*%
D12*
%TO.C,SW57*%
X210502500Y-109378750D03*
D13*
X214312500Y-111918750D03*
D14*
X219392500Y-111918750D03*
D12*
X216852500Y-106838750D03*
D14*
X209232500Y-111918750D03*
D15*
X207227500Y-109378750D03*
X220154500Y-106838750D03*
D16*
X202374500Y-118903750D03*
X226250500Y-118903750D03*
D13*
X202374500Y-103663750D03*
X226250500Y-103663750D03*
%TD*%
D15*
%TO.C,SW56*%
X332073250Y-87788750D03*
X319146250Y-90328750D03*
D14*
X321151250Y-92868750D03*
D12*
X328771250Y-87788750D03*
D14*
X331311250Y-92868750D03*
D13*
X326231250Y-92868750D03*
D12*
X322421250Y-90328750D03*
%TD*%
%TO.C,SW55*%
X308133750Y-52228750D03*
D13*
X311943750Y-54768750D03*
D14*
X317023750Y-54768750D03*
D12*
X314483750Y-49688750D03*
D14*
X306863750Y-54768750D03*
D15*
X304858750Y-52228750D03*
X317785750Y-49688750D03*
%TD*%
D12*
%TO.C,SW54*%
X327183750Y-33178750D03*
D13*
X330993750Y-35718750D03*
D14*
X336073750Y-35718750D03*
D12*
X333533750Y-30638750D03*
D14*
X325913750Y-35718750D03*
D15*
X323908750Y-33178750D03*
X336835750Y-30638750D03*
%TD*%
D12*
%TO.C,SW53*%
X308133750Y-33178750D03*
D13*
X311943750Y-35718750D03*
D14*
X317023750Y-35718750D03*
D12*
X314483750Y-30638750D03*
D14*
X306863750Y-35718750D03*
D15*
X304858750Y-33178750D03*
X317785750Y-30638750D03*
%TD*%
D12*
%TO.C,SW52*%
X296227500Y-90328750D03*
D13*
X300037500Y-92868750D03*
D14*
X305117500Y-92868750D03*
D12*
X302577500Y-87788750D03*
D14*
X294957500Y-92868750D03*
D15*
X292952500Y-90328750D03*
X305879500Y-87788750D03*
%TD*%
D12*
%TO.C,SW51*%
X300990000Y-71278750D03*
D13*
X304800000Y-73818750D03*
D14*
X309880000Y-73818750D03*
D12*
X307340000Y-68738750D03*
D14*
X299720000Y-73818750D03*
D15*
X297715000Y-71278750D03*
X310642000Y-68738750D03*
D16*
X292862000Y-66833750D03*
X316738000Y-66833750D03*
D13*
X292862000Y-82073750D03*
X316738000Y-82073750D03*
%TD*%
D15*
%TO.C,SW48*%
X279685750Y-87788750D03*
X266758750Y-90328750D03*
D14*
X268763750Y-92868750D03*
D12*
X276383750Y-87788750D03*
D14*
X278923750Y-92868750D03*
D13*
X273843750Y-92868750D03*
D12*
X270033750Y-90328750D03*
%TD*%
D15*
%TO.C,SW47*%
X279685750Y-68738750D03*
X266758750Y-71278750D03*
D14*
X268763750Y-73818750D03*
D12*
X276383750Y-68738750D03*
D14*
X278923750Y-73818750D03*
D13*
X273843750Y-73818750D03*
D12*
X270033750Y-71278750D03*
%TD*%
%TO.C,SW8*%
X67627500Y-90328750D03*
D13*
X71437500Y-92868750D03*
D14*
X76517500Y-92868750D03*
D12*
X73977500Y-87788750D03*
D14*
X66357500Y-92868750D03*
D15*
X64352500Y-90328750D03*
X77279500Y-87788750D03*
D16*
X59499500Y-85883750D03*
X83375500Y-85883750D03*
D13*
X59499500Y-101123750D03*
X83375500Y-101123750D03*
%TD*%
D12*
%TO.C,SW7*%
X72390000Y-71278750D03*
D13*
X76200000Y-73818750D03*
D14*
X81280000Y-73818750D03*
D12*
X78740000Y-68738750D03*
D14*
X71120000Y-73818750D03*
D15*
X69115000Y-71278750D03*
X82042000Y-68738750D03*
%TD*%
D12*
%TO.C,SW6*%
X74771250Y-52228750D03*
D13*
X78581250Y-54768750D03*
D14*
X83661250Y-54768750D03*
D12*
X81121250Y-49688750D03*
D14*
X73501250Y-54768750D03*
D15*
X71496250Y-52228750D03*
X84423250Y-49688750D03*
%TD*%
D12*
%TO.C,SW4*%
X162877500Y-109378750D03*
D13*
X166687500Y-111918750D03*
D14*
X171767500Y-111918750D03*
D12*
X169227500Y-106838750D03*
D14*
X161607500Y-111918750D03*
D15*
X159602500Y-109378750D03*
X172529500Y-106838750D03*
D16*
X154749500Y-118903750D03*
X178625500Y-118903750D03*
D13*
X154749500Y-103663750D03*
X178625500Y-103663750D03*
%TD*%
D12*
%TO.C,SW3*%
X129540000Y-109378750D03*
D13*
X133350000Y-111918750D03*
D14*
X138430000Y-111918750D03*
D12*
X135890000Y-106838750D03*
D14*
X128270000Y-111918750D03*
D15*
X126265000Y-109378750D03*
X139192000Y-106838750D03*
%TD*%
D12*
%TO.C,SW2*%
X105727500Y-109378750D03*
D13*
X109537500Y-111918750D03*
D14*
X114617500Y-111918750D03*
D12*
X112077500Y-106838750D03*
D14*
X104457500Y-111918750D03*
D15*
X102452500Y-109378750D03*
X115379500Y-106838750D03*
%TD*%
D14*
%TO.C,SW30*%
X192563750Y-54768750D03*
D12*
X193833750Y-52228750D03*
D13*
X197643750Y-54768750D03*
D12*
X200183750Y-49688750D03*
D14*
X202723750Y-54768750D03*
D15*
X190558750Y-52228750D03*
X203485750Y-49688750D03*
%TD*%
D14*
%TO.C,SW34*%
X211613750Y-54768750D03*
D12*
X212883750Y-52228750D03*
D13*
X216693750Y-54768750D03*
D12*
X219233750Y-49688750D03*
D14*
X221773750Y-54768750D03*
D15*
X209608750Y-52228750D03*
X222535750Y-49688750D03*
%TD*%
%TO.C,SW45*%
X279685750Y-30638750D03*
X266758750Y-33178750D03*
D14*
X278923750Y-35718750D03*
D12*
X276383750Y-30638750D03*
D13*
X273843750Y-35718750D03*
D12*
X270033750Y-33178750D03*
D14*
X268763750Y-35718750D03*
%TD*%
%TO.C,SW40*%
X230663750Y-92868750D03*
D12*
X231933750Y-90328750D03*
D13*
X235743750Y-92868750D03*
D12*
X238283750Y-87788750D03*
D14*
X240823750Y-92868750D03*
D15*
X228658750Y-90328750D03*
X241585750Y-87788750D03*
%TD*%
D14*
%TO.C,SW27*%
X173513750Y-73818750D03*
D12*
X174783750Y-71278750D03*
D13*
X178593750Y-73818750D03*
D12*
X181133750Y-68738750D03*
D14*
X183673750Y-73818750D03*
D15*
X171508750Y-71278750D03*
X184435750Y-68738750D03*
%TD*%
D14*
%TO.C,SW25*%
X173513750Y-35718750D03*
D12*
X174783750Y-33178750D03*
D13*
X178593750Y-35718750D03*
D12*
X181133750Y-30638750D03*
D14*
X183673750Y-35718750D03*
D15*
X171508750Y-33178750D03*
X184435750Y-30638750D03*
%TD*%
D14*
%TO.C,SW39*%
X230663750Y-73818750D03*
D12*
X231933750Y-71278750D03*
D13*
X235743750Y-73818750D03*
D12*
X238283750Y-68738750D03*
D14*
X240823750Y-73818750D03*
D15*
X228658750Y-71278750D03*
X241585750Y-68738750D03*
%TD*%
D14*
%TO.C,SW16*%
X116363750Y-92868750D03*
D12*
X117633750Y-90328750D03*
D13*
X121443750Y-92868750D03*
D12*
X123983750Y-87788750D03*
D14*
X126523750Y-92868750D03*
D15*
X114358750Y-90328750D03*
X127285750Y-87788750D03*
%TD*%
D14*
%TO.C,SW38*%
X230663750Y-54768750D03*
D12*
X231933750Y-52228750D03*
D13*
X235743750Y-54768750D03*
D12*
X238283750Y-49688750D03*
D14*
X240823750Y-54768750D03*
D15*
X228658750Y-52228750D03*
X241585750Y-49688750D03*
%TD*%
D14*
%TO.C,SW29*%
X192563750Y-35718750D03*
D12*
X193833750Y-33178750D03*
D13*
X197643750Y-35718750D03*
D12*
X200183750Y-30638750D03*
D14*
X202723750Y-35718750D03*
D15*
X190558750Y-33178750D03*
X203485750Y-30638750D03*
%TD*%
%TO.C,SW59*%
X282067000Y-106838750D03*
X269140000Y-109378750D03*
D14*
X281305000Y-111918750D03*
D12*
X278765000Y-106838750D03*
D13*
X276225000Y-111918750D03*
D12*
X272415000Y-109378750D03*
D14*
X271145000Y-111918750D03*
%TD*%
D15*
%TO.C,SW42*%
X260635750Y-49688750D03*
X247708750Y-52228750D03*
D14*
X259873750Y-54768750D03*
D12*
X257333750Y-49688750D03*
D13*
X254793750Y-54768750D03*
D12*
X250983750Y-52228750D03*
D14*
X249713750Y-54768750D03*
%TD*%
%TO.C,SW18*%
X135413750Y-54768750D03*
D12*
X136683750Y-52228750D03*
D13*
X140493750Y-54768750D03*
D12*
X143033750Y-49688750D03*
D14*
X145573750Y-54768750D03*
D15*
X133408750Y-52228750D03*
X146335750Y-49688750D03*
%TD*%
D14*
%TO.C,SW21*%
X154463750Y-35718750D03*
D12*
X155733750Y-33178750D03*
D13*
X159543750Y-35718750D03*
D12*
X162083750Y-30638750D03*
D14*
X164623750Y-35718750D03*
D15*
X152458750Y-33178750D03*
X165385750Y-30638750D03*
%TD*%
D14*
%TO.C,SW33*%
X211613750Y-35718750D03*
D12*
X212883750Y-33178750D03*
D13*
X216693750Y-35718750D03*
D12*
X219233750Y-30638750D03*
D14*
X221773750Y-35718750D03*
D15*
X209608750Y-33178750D03*
X222535750Y-30638750D03*
%TD*%
D14*
%TO.C,SW49*%
X287813750Y-35718750D03*
D12*
X289083750Y-33178750D03*
D13*
X292893750Y-35718750D03*
D12*
X295433750Y-30638750D03*
D14*
X297973750Y-35718750D03*
D15*
X285808750Y-33178750D03*
X298735750Y-30638750D03*
%TD*%
D14*
%TO.C,SW31*%
X192563750Y-73818750D03*
D12*
X193833750Y-71278750D03*
D13*
X197643750Y-73818750D03*
D12*
X200183750Y-68738750D03*
D14*
X202723750Y-73818750D03*
D15*
X190558750Y-71278750D03*
X203485750Y-68738750D03*
%TD*%
D14*
%TO.C,SW11*%
X97313750Y-73818750D03*
D12*
X98583750Y-71278750D03*
D13*
X102393750Y-73818750D03*
D12*
X104933750Y-68738750D03*
D14*
X107473750Y-73818750D03*
D15*
X95308750Y-71278750D03*
X108235750Y-68738750D03*
%TD*%
%TO.C,SW41*%
X260635750Y-30638750D03*
X247708750Y-33178750D03*
D14*
X259873750Y-35718750D03*
D12*
X257333750Y-30638750D03*
D13*
X254793750Y-35718750D03*
D12*
X250983750Y-33178750D03*
D14*
X249713750Y-35718750D03*
%TD*%
%TO.C,SW12*%
X97313750Y-92868750D03*
D12*
X98583750Y-90328750D03*
D13*
X102393750Y-92868750D03*
D12*
X104933750Y-87788750D03*
D14*
X107473750Y-92868750D03*
D15*
X95308750Y-90328750D03*
X108235750Y-87788750D03*
%TD*%
D14*
%TO.C,SW1*%
X59213750Y-35718750D03*
D12*
X60483750Y-33178750D03*
D13*
X64293750Y-35718750D03*
D12*
X66833750Y-30638750D03*
D14*
X69373750Y-35718750D03*
D15*
X57208750Y-33178750D03*
X70135750Y-30638750D03*
%TD*%
%TO.C,SW46*%
X279685750Y-49688750D03*
X266758750Y-52228750D03*
D14*
X278923750Y-54768750D03*
D12*
X276383750Y-49688750D03*
D13*
X273843750Y-54768750D03*
D12*
X270033750Y-52228750D03*
D14*
X268763750Y-54768750D03*
%TD*%
%TO.C,SW14*%
X116363750Y-54768750D03*
D12*
X117633750Y-52228750D03*
D13*
X121443750Y-54768750D03*
D12*
X123983750Y-49688750D03*
D14*
X126523750Y-54768750D03*
D15*
X114358750Y-52228750D03*
X127285750Y-49688750D03*
%TD*%
D14*
%TO.C,SW10*%
X97313750Y-54768750D03*
D12*
X98583750Y-52228750D03*
D13*
X102393750Y-54768750D03*
D12*
X104933750Y-49688750D03*
D14*
X107473750Y-54768750D03*
D15*
X95308750Y-52228750D03*
X108235750Y-49688750D03*
%TD*%
D14*
%TO.C,SW58*%
X247332500Y-111918750D03*
D12*
X248602500Y-109378750D03*
D13*
X252412500Y-111918750D03*
D12*
X254952500Y-106838750D03*
D14*
X257492500Y-111918750D03*
D15*
X245327500Y-109378750D03*
X258254500Y-106838750D03*
%TD*%
D14*
%TO.C,SW17*%
X135413750Y-35718750D03*
D12*
X136683750Y-33178750D03*
D13*
X140493750Y-35718750D03*
D12*
X143033750Y-30638750D03*
D14*
X145573750Y-35718750D03*
D15*
X133408750Y-33178750D03*
X146335750Y-30638750D03*
%TD*%
D14*
%TO.C,SW26*%
X173513750Y-54768750D03*
D12*
X174783750Y-52228750D03*
D13*
X178593750Y-54768750D03*
D12*
X181133750Y-49688750D03*
D14*
X183673750Y-54768750D03*
D15*
X171508750Y-52228750D03*
X184435750Y-49688750D03*
%TD*%
D14*
%TO.C,SW15*%
X116363750Y-73818750D03*
D12*
X117633750Y-71278750D03*
D13*
X121443750Y-73818750D03*
D12*
X123983750Y-68738750D03*
D14*
X126523750Y-73818750D03*
D15*
X114358750Y-71278750D03*
X127285750Y-68738750D03*
%TD*%
D14*
%TO.C,SW36*%
X211613750Y-92868750D03*
D12*
X212883750Y-90328750D03*
D13*
X216693750Y-92868750D03*
D12*
X219233750Y-87788750D03*
D14*
X221773750Y-92868750D03*
D15*
X209608750Y-90328750D03*
X222535750Y-87788750D03*
%TD*%
%TO.C,SW44*%
X260635750Y-87788750D03*
X247708750Y-90328750D03*
D14*
X259873750Y-92868750D03*
D12*
X257333750Y-87788750D03*
D13*
X254793750Y-92868750D03*
D12*
X250983750Y-90328750D03*
D14*
X249713750Y-92868750D03*
%TD*%
%TO.C,SW23*%
X154463750Y-73818750D03*
D12*
X155733750Y-71278750D03*
D13*
X159543750Y-73818750D03*
D12*
X162083750Y-68738750D03*
D14*
X164623750Y-73818750D03*
D15*
X152458750Y-71278750D03*
X165385750Y-68738750D03*
%TD*%
D14*
%TO.C,SW9*%
X97313750Y-35718750D03*
D12*
X98583750Y-33178750D03*
D13*
X102393750Y-35718750D03*
D12*
X104933750Y-30638750D03*
D14*
X107473750Y-35718750D03*
D15*
X95308750Y-33178750D03*
X108235750Y-30638750D03*
%TD*%
D14*
%TO.C,SW37*%
X230663750Y-35718750D03*
D12*
X231933750Y-33178750D03*
D13*
X235743750Y-35718750D03*
D12*
X238283750Y-30638750D03*
D14*
X240823750Y-35718750D03*
D15*
X228658750Y-33178750D03*
X241585750Y-30638750D03*
%TD*%
D14*
%TO.C,SW5*%
X78263750Y-35718750D03*
D12*
X79533750Y-33178750D03*
D13*
X83343750Y-35718750D03*
D12*
X85883750Y-30638750D03*
D14*
X88423750Y-35718750D03*
D15*
X76258750Y-33178750D03*
X89185750Y-30638750D03*
%TD*%
D14*
%TO.C,SW22*%
X154463750Y-54768750D03*
D12*
X155733750Y-52228750D03*
D13*
X159543750Y-54768750D03*
D12*
X162083750Y-49688750D03*
D14*
X164623750Y-54768750D03*
D15*
X152458750Y-52228750D03*
X165385750Y-49688750D03*
%TD*%
D14*
%TO.C,SW19*%
X135413750Y-73818750D03*
D12*
X136683750Y-71278750D03*
D13*
X140493750Y-73818750D03*
D12*
X143033750Y-68738750D03*
D14*
X145573750Y-73818750D03*
D15*
X133408750Y-71278750D03*
X146335750Y-68738750D03*
%TD*%
%TO.C,SW43*%
X260635750Y-68738750D03*
X247708750Y-71278750D03*
D14*
X259873750Y-73818750D03*
D12*
X257333750Y-68738750D03*
D13*
X254793750Y-73818750D03*
D12*
X250983750Y-71278750D03*
D14*
X249713750Y-73818750D03*
%TD*%
%TO.C,SW24*%
X154463750Y-92868750D03*
D12*
X155733750Y-90328750D03*
D13*
X159543750Y-92868750D03*
D12*
X162083750Y-87788750D03*
D14*
X164623750Y-92868750D03*
D15*
X152458750Y-90328750D03*
X165385750Y-87788750D03*
%TD*%
D14*
%TO.C,SW35*%
X211613750Y-73818750D03*
D12*
X212883750Y-71278750D03*
D13*
X216693750Y-73818750D03*
D12*
X219233750Y-68738750D03*
D14*
X221773750Y-73818750D03*
D15*
X209608750Y-71278750D03*
X222535750Y-68738750D03*
%TD*%
D14*
%TO.C,SW13*%
X116363750Y-35718750D03*
D12*
X117633750Y-33178750D03*
D13*
X121443750Y-35718750D03*
D12*
X123983750Y-30638750D03*
D14*
X126523750Y-35718750D03*
D15*
X114358750Y-33178750D03*
X127285750Y-30638750D03*
%TD*%
D14*
%TO.C,SW32*%
X192563750Y-92868750D03*
D12*
X193833750Y-90328750D03*
D13*
X197643750Y-92868750D03*
D12*
X200183750Y-87788750D03*
D14*
X202723750Y-92868750D03*
D15*
X190558750Y-90328750D03*
X203485750Y-87788750D03*
%TD*%
%TO.C,SW50*%
X298735750Y-49688750D03*
X285808750Y-52228750D03*
D14*
X297973750Y-54768750D03*
D12*
X295433750Y-49688750D03*
D13*
X292893750Y-54768750D03*
D12*
X289083750Y-52228750D03*
D14*
X287813750Y-54768750D03*
%TD*%
%TO.C,SW20*%
X135413750Y-92868750D03*
D12*
X136683750Y-90328750D03*
D13*
X140493750Y-92868750D03*
D12*
X143033750Y-87788750D03*
D14*
X145573750Y-92868750D03*
D15*
X133408750Y-90328750D03*
X146335750Y-87788750D03*
%TD*%
D14*
%TO.C,SW28*%
X173513750Y-92868750D03*
D12*
X174783750Y-90328750D03*
D13*
X178593750Y-92868750D03*
D12*
X181133750Y-87788750D03*
D14*
X183673750Y-92868750D03*
D15*
X171508750Y-90328750D03*
X184435750Y-87788750D03*
%TD*%
D17*
%TO.C,U6*%
X267081250Y-62377750D03*
X267081250Y-61727750D03*
X267081250Y-61077750D03*
X267081250Y-60427750D03*
X267081250Y-59777750D03*
X267081250Y-59127750D03*
X267081250Y-58477750D03*
X267081250Y-57827750D03*
X261356250Y-57827750D03*
X261356250Y-58477750D03*
X261356250Y-59127750D03*
X261356250Y-59777750D03*
X261356250Y-60427750D03*
X261356250Y-61077750D03*
X261356250Y-61727750D03*
X261356250Y-62377750D03*
%TD*%
%TO.C,U8*%
X261334250Y-101594750D03*
X261334250Y-100944750D03*
X261334250Y-100294750D03*
X261334250Y-99644750D03*
X261334250Y-98994750D03*
X261334250Y-98344750D03*
X261334250Y-97694750D03*
X261334250Y-97044750D03*
X267059250Y-97044750D03*
X267059250Y-97694750D03*
X267059250Y-98344750D03*
X267059250Y-98994750D03*
X267059250Y-99644750D03*
X267059250Y-100294750D03*
X267059250Y-100944750D03*
X267059250Y-101594750D03*
%TD*%
D18*
%TO.C,RN12*%
X270384749Y-64050749D03*
D19*
X271184749Y-64050749D03*
X271984749Y-64050749D03*
D18*
X272784749Y-64050749D03*
X272784749Y-62250749D03*
D19*
X271984749Y-62250749D03*
X271184749Y-62250749D03*
D18*
X270384749Y-62250749D03*
%TD*%
%TO.C,RN9*%
X217552749Y-62250749D03*
D19*
X218352749Y-62250749D03*
X219152749Y-62250749D03*
D18*
X219952749Y-62250749D03*
X219952749Y-64050749D03*
D19*
X219152749Y-64050749D03*
X218352749Y-64050749D03*
D18*
X217552749Y-64050749D03*
%TD*%
D17*
%TO.C,U2*%
X108956250Y-62377750D03*
X108956250Y-61727750D03*
X108956250Y-61077750D03*
X108956250Y-60427750D03*
X108956250Y-59777750D03*
X108956250Y-59127750D03*
X108956250Y-58477750D03*
X108956250Y-57827750D03*
X114681250Y-57827750D03*
X114681250Y-58477750D03*
X114681250Y-59127750D03*
X114681250Y-59777750D03*
X114681250Y-60427750D03*
X114681250Y-61077750D03*
X114681250Y-61727750D03*
X114681250Y-62377750D03*
%TD*%
%TO.C,U1*%
X66193750Y-62377750D03*
X66193750Y-61727750D03*
X66193750Y-61077750D03*
X66193750Y-60427750D03*
X66193750Y-59777750D03*
X66193750Y-59127750D03*
X66193750Y-58477750D03*
X66193750Y-57827750D03*
X71918750Y-57827750D03*
X71918750Y-58477750D03*
X71918750Y-59127750D03*
X71918750Y-59777750D03*
X71918750Y-60427750D03*
X71918750Y-61077750D03*
X71918750Y-61727750D03*
X71918750Y-62377750D03*
%TD*%
%TO.C,U5*%
X223256250Y-62377750D03*
X223256250Y-61727750D03*
X223256250Y-61077750D03*
X223256250Y-60427750D03*
X223256250Y-59777750D03*
X223256250Y-59127750D03*
X223256250Y-58477750D03*
X223256250Y-57827750D03*
X228981250Y-57827750D03*
X228981250Y-58477750D03*
X228981250Y-59127750D03*
X228981250Y-59777750D03*
X228981250Y-60427750D03*
X228981250Y-61077750D03*
X228981250Y-61727750D03*
X228981250Y-62377750D03*
%TD*%
%TO.C,U4*%
X185156250Y-62377750D03*
X185156250Y-61727750D03*
X185156250Y-61077750D03*
X185156250Y-60427750D03*
X185156250Y-59777750D03*
X185156250Y-59127750D03*
X185156250Y-58477750D03*
X185156250Y-57827750D03*
X190881250Y-57827750D03*
X190881250Y-58477750D03*
X190881250Y-59127750D03*
X190881250Y-59777750D03*
X190881250Y-60427750D03*
X190881250Y-61077750D03*
X190881250Y-61727750D03*
X190881250Y-62377750D03*
%TD*%
D18*
%TO.C,RN4*%
X117984749Y-62250749D03*
D19*
X118784749Y-62250749D03*
X119584749Y-62250749D03*
D18*
X120384749Y-62250749D03*
X120384749Y-64050749D03*
D19*
X119584749Y-64050749D03*
X118784749Y-64050749D03*
D18*
X117984749Y-64050749D03*
%TD*%
%TO.C,RN1*%
X60490249Y-62250749D03*
D19*
X61290249Y-62250749D03*
X62090249Y-62250749D03*
D18*
X62890249Y-62250749D03*
X62890249Y-64050749D03*
D19*
X62090249Y-64050749D03*
X61290249Y-64050749D03*
D18*
X60490249Y-64050749D03*
%TD*%
%TO.C,RN8*%
X194184749Y-62250749D03*
D19*
X194984749Y-62250749D03*
X195784749Y-62250749D03*
D18*
X196584749Y-62250749D03*
X196584749Y-64050749D03*
D19*
X195784749Y-64050749D03*
X194984749Y-64050749D03*
D18*
X194184749Y-64050749D03*
%TD*%
%TO.C,RN10*%
X232284749Y-62250749D03*
D19*
X233084749Y-62250749D03*
X233884749Y-62250749D03*
D18*
X234684749Y-62250749D03*
X234684749Y-64050749D03*
D19*
X233884749Y-64050749D03*
X233084749Y-64050749D03*
D18*
X232284749Y-64050749D03*
%TD*%
%TO.C,RN7*%
X179452749Y-62250749D03*
D19*
X180252749Y-62250749D03*
X181052749Y-62250749D03*
D18*
X181852749Y-62250749D03*
X181852749Y-64050749D03*
D19*
X181052749Y-64050749D03*
X180252749Y-64050749D03*
D18*
X179452749Y-64050749D03*
%TD*%
%TO.C,RN6*%
X156084749Y-62250749D03*
D19*
X156884749Y-62250749D03*
X157684749Y-62250749D03*
D18*
X158484749Y-62250749D03*
X158484749Y-64050749D03*
D19*
X157684749Y-64050749D03*
X156884749Y-64050749D03*
D18*
X156084749Y-64050749D03*
%TD*%
D20*
%TO.C,U9*%
X75723750Y-35878750D03*
X75723750Y-38418750D03*
X75723750Y-40958750D03*
X75723750Y-43498750D03*
X75723750Y-46038750D03*
X90963750Y-46038750D03*
X90963750Y-43498750D03*
X90963750Y-40958750D03*
X90963750Y-38418750D03*
X90963750Y-35878750D03*
X90963750Y-33338750D03*
%TD*%
D17*
%TO.C,U3*%
X147056250Y-62377750D03*
X147056250Y-61727750D03*
X147056250Y-61077750D03*
X147056250Y-60427750D03*
X147056250Y-59777750D03*
X147056250Y-59127750D03*
X147056250Y-58477750D03*
X147056250Y-57827750D03*
X152781250Y-57827750D03*
X152781250Y-58477750D03*
X152781250Y-59127750D03*
X152781250Y-59777750D03*
X152781250Y-60427750D03*
X152781250Y-61077750D03*
X152781250Y-61727750D03*
X152781250Y-62377750D03*
%TD*%
D18*
%TO.C,RN5*%
X141352749Y-62250749D03*
D19*
X142152749Y-62250749D03*
X142952749Y-62250749D03*
D18*
X143752749Y-62250749D03*
X143752749Y-64050749D03*
D19*
X142952749Y-64050749D03*
X142152749Y-64050749D03*
D18*
X141352749Y-64050749D03*
%TD*%
D17*
%TO.C,U7*%
X299387750Y-62377750D03*
X299387750Y-61727750D03*
X299387750Y-61077750D03*
X299387750Y-60427750D03*
X299387750Y-59777750D03*
X299387750Y-59127750D03*
X299387750Y-58477750D03*
X299387750Y-57827750D03*
X305112750Y-57827750D03*
X305112750Y-58477750D03*
X305112750Y-59127750D03*
X305112750Y-59777750D03*
X305112750Y-60427750D03*
X305112750Y-61077750D03*
X305112750Y-61727750D03*
X305112750Y-62377750D03*
%TD*%
D18*
%TO.C,RN2*%
X75222249Y-62250749D03*
D19*
X76022249Y-62250749D03*
X76822249Y-62250749D03*
D18*
X77622249Y-62250749D03*
X77622249Y-64050749D03*
D19*
X76822249Y-64050749D03*
X76022249Y-64050749D03*
D18*
X75222249Y-64050749D03*
%TD*%
%TO.C,RN14*%
X308416249Y-62250749D03*
D19*
X309216249Y-62250749D03*
X310016249Y-62250749D03*
D18*
X310816249Y-62250749D03*
X310816249Y-64050749D03*
D19*
X310016249Y-64050749D03*
X309216249Y-64050749D03*
D18*
X308416249Y-64050749D03*
%TD*%
%TO.C,RN11*%
X255652749Y-64050749D03*
D19*
X256452749Y-64050749D03*
X257252749Y-64050749D03*
D18*
X258052749Y-64050749D03*
X258052749Y-62250749D03*
D19*
X257252749Y-62250749D03*
X256452749Y-62250749D03*
D18*
X255652749Y-62250749D03*
%TD*%
%TO.C,RN15*%
X255630749Y-101467749D03*
D19*
X256430749Y-101467749D03*
X257230749Y-101467749D03*
D18*
X258030749Y-101467749D03*
X258030749Y-103267749D03*
D19*
X257230749Y-103267749D03*
X256430749Y-103267749D03*
D18*
X255630749Y-103267749D03*
%TD*%
%TO.C,RN13*%
X293684249Y-62250749D03*
D19*
X294484249Y-62250749D03*
X295284249Y-62250749D03*
D18*
X296084249Y-62250749D03*
X296084249Y-64050749D03*
D19*
X295284249Y-64050749D03*
X294484249Y-64050749D03*
D18*
X293684249Y-64050749D03*
%TD*%
%TO.C,RN3*%
X103252749Y-62250749D03*
D19*
X104052749Y-62250749D03*
X104852749Y-62250749D03*
D18*
X105652749Y-62250749D03*
X105652749Y-64050749D03*
D19*
X104852749Y-64050749D03*
X104052749Y-64050749D03*
D18*
X103252749Y-64050749D03*
%TD*%
M02*
