%TF.GenerationSoftware,KiCad,Pcbnew,(7.0.0)*%
%TF.CreationDate,2023-03-29T14:48:56+09:00*%
%TF.ProjectId,HEP,4845502e-6b69-4636-9164-5f7063625858,rev?*%
%TF.SameCoordinates,Original*%
%TF.FileFunction,Legend,Top*%
%TF.FilePolarity,Positive*%
%FSLAX46Y46*%
G04 Gerber Fmt 4.6, Leading zero omitted, Abs format (unit mm)*
G04 Created by KiCad (PCBNEW (7.0.0)) date 2023-03-29 14:48:56*
%MOMM*%
%LPD*%
G01*
G04 APERTURE LIST*
%ADD10C,3.000000*%
%ADD11C,3.987800*%
%ADD12C,1.701800*%
%ADD13C,3.048000*%
%ADD14C,1.600000*%
G04 APERTURE END LIST*
%LPC*%
D10*
%TO.C,SW57*%
X210502500Y-109378750D03*
D11*
X214312500Y-111918750D03*
D12*
X219392500Y-111918750D03*
D10*
X216852500Y-106838750D03*
D12*
X209232500Y-111918750D03*
D13*
X202374500Y-118903750D03*
X226250500Y-118903750D03*
D11*
X202374500Y-103663750D03*
X226250500Y-103663750D03*
%TD*%
D12*
%TO.C,SW56*%
X321151250Y-92868750D03*
D10*
X328771250Y-87788750D03*
D12*
X331311250Y-92868750D03*
D11*
X326231250Y-92868750D03*
D10*
X322421250Y-90328750D03*
%TD*%
%TO.C,SW55*%
X308133750Y-52228750D03*
D11*
X311943750Y-54768750D03*
D12*
X317023750Y-54768750D03*
D10*
X314483750Y-49688750D03*
D12*
X306863750Y-54768750D03*
%TD*%
D10*
%TO.C,SW54*%
X327183750Y-33178750D03*
D11*
X330993750Y-35718750D03*
D12*
X336073750Y-35718750D03*
D10*
X333533750Y-30638750D03*
D12*
X325913750Y-35718750D03*
%TD*%
D10*
%TO.C,SW53*%
X308133750Y-33178750D03*
D11*
X311943750Y-35718750D03*
D12*
X317023750Y-35718750D03*
D10*
X314483750Y-30638750D03*
D12*
X306863750Y-35718750D03*
%TD*%
D10*
%TO.C,SW52*%
X296227500Y-90328750D03*
D11*
X300037500Y-92868750D03*
D12*
X305117500Y-92868750D03*
D10*
X302577500Y-87788750D03*
D12*
X294957500Y-92868750D03*
%TD*%
D10*
%TO.C,SW51*%
X300990000Y-71278750D03*
D11*
X304800000Y-73818750D03*
D12*
X309880000Y-73818750D03*
D10*
X307340000Y-68738750D03*
D12*
X299720000Y-73818750D03*
D13*
X292862000Y-66833750D03*
X316738000Y-66833750D03*
D11*
X292862000Y-82073750D03*
X316738000Y-82073750D03*
%TD*%
D12*
%TO.C,SW48*%
X268763750Y-92868750D03*
D10*
X276383750Y-87788750D03*
D12*
X278923750Y-92868750D03*
D11*
X273843750Y-92868750D03*
D10*
X270033750Y-90328750D03*
%TD*%
D12*
%TO.C,SW47*%
X268763750Y-73818750D03*
D10*
X276383750Y-68738750D03*
D12*
X278923750Y-73818750D03*
D11*
X273843750Y-73818750D03*
D10*
X270033750Y-71278750D03*
%TD*%
%TO.C,SW8*%
X67627500Y-90328750D03*
D11*
X71437500Y-92868750D03*
D12*
X76517500Y-92868750D03*
D10*
X73977500Y-87788750D03*
D12*
X66357500Y-92868750D03*
D13*
X59499500Y-85883750D03*
X83375500Y-85883750D03*
D11*
X59499500Y-101123750D03*
X83375500Y-101123750D03*
%TD*%
D10*
%TO.C,SW7*%
X72390000Y-71278750D03*
D11*
X76200000Y-73818750D03*
D12*
X81280000Y-73818750D03*
D10*
X78740000Y-68738750D03*
D12*
X71120000Y-73818750D03*
%TD*%
D10*
%TO.C,SW6*%
X74771250Y-52228750D03*
D11*
X78581250Y-54768750D03*
D12*
X83661250Y-54768750D03*
D10*
X81121250Y-49688750D03*
D12*
X73501250Y-54768750D03*
%TD*%
D10*
%TO.C,SW4*%
X162877500Y-109378750D03*
D11*
X166687500Y-111918750D03*
D12*
X171767500Y-111918750D03*
D10*
X169227500Y-106838750D03*
D12*
X161607500Y-111918750D03*
D13*
X154749500Y-118903750D03*
X178625500Y-118903750D03*
D11*
X154749500Y-103663750D03*
X178625500Y-103663750D03*
%TD*%
D10*
%TO.C,SW3*%
X129540000Y-109378750D03*
D11*
X133350000Y-111918750D03*
D12*
X138430000Y-111918750D03*
D10*
X135890000Y-106838750D03*
D12*
X128270000Y-111918750D03*
%TD*%
D10*
%TO.C,SW2*%
X105727500Y-109378750D03*
D11*
X109537500Y-111918750D03*
D12*
X114617500Y-111918750D03*
D10*
X112077500Y-106838750D03*
D12*
X104457500Y-111918750D03*
%TD*%
%TO.C,SW30*%
X192563750Y-54768750D03*
D10*
X193833750Y-52228750D03*
D11*
X197643750Y-54768750D03*
D10*
X200183750Y-49688750D03*
D12*
X202723750Y-54768750D03*
%TD*%
%TO.C,SW34*%
X211613750Y-54768750D03*
D10*
X212883750Y-52228750D03*
D11*
X216693750Y-54768750D03*
D10*
X219233750Y-49688750D03*
D12*
X221773750Y-54768750D03*
%TD*%
%TO.C,SW45*%
X278923750Y-35718750D03*
D10*
X276383750Y-30638750D03*
D11*
X273843750Y-35718750D03*
D10*
X270033750Y-33178750D03*
D12*
X268763750Y-35718750D03*
%TD*%
%TO.C,SW40*%
X230663750Y-92868750D03*
D10*
X231933750Y-90328750D03*
D11*
X235743750Y-92868750D03*
D10*
X238283750Y-87788750D03*
D12*
X240823750Y-92868750D03*
%TD*%
%TO.C,SW27*%
X173513750Y-73818750D03*
D10*
X174783750Y-71278750D03*
D11*
X178593750Y-73818750D03*
D10*
X181133750Y-68738750D03*
D12*
X183673750Y-73818750D03*
%TD*%
%TO.C,SW25*%
X173513750Y-35718750D03*
D10*
X174783750Y-33178750D03*
D11*
X178593750Y-35718750D03*
D10*
X181133750Y-30638750D03*
D12*
X183673750Y-35718750D03*
%TD*%
%TO.C,SW39*%
X230663750Y-73818750D03*
D10*
X231933750Y-71278750D03*
D11*
X235743750Y-73818750D03*
D10*
X238283750Y-68738750D03*
D12*
X240823750Y-73818750D03*
%TD*%
%TO.C,SW16*%
X116363750Y-92868750D03*
D10*
X117633750Y-90328750D03*
D11*
X121443750Y-92868750D03*
D10*
X123983750Y-87788750D03*
D12*
X126523750Y-92868750D03*
%TD*%
%TO.C,SW38*%
X230663750Y-54768750D03*
D10*
X231933750Y-52228750D03*
D11*
X235743750Y-54768750D03*
D10*
X238283750Y-49688750D03*
D12*
X240823750Y-54768750D03*
%TD*%
%TO.C,SW29*%
X192563750Y-35718750D03*
D10*
X193833750Y-33178750D03*
D11*
X197643750Y-35718750D03*
D10*
X200183750Y-30638750D03*
D12*
X202723750Y-35718750D03*
%TD*%
%TO.C,SW59*%
X281305000Y-111918750D03*
D10*
X278765000Y-106838750D03*
D11*
X276225000Y-111918750D03*
D10*
X272415000Y-109378750D03*
D12*
X271145000Y-111918750D03*
%TD*%
%TO.C,SW42*%
X259873750Y-54768750D03*
D10*
X257333750Y-49688750D03*
D11*
X254793750Y-54768750D03*
D10*
X250983750Y-52228750D03*
D12*
X249713750Y-54768750D03*
%TD*%
%TO.C,SW18*%
X135413750Y-54768750D03*
D10*
X136683750Y-52228750D03*
D11*
X140493750Y-54768750D03*
D10*
X143033750Y-49688750D03*
D12*
X145573750Y-54768750D03*
%TD*%
%TO.C,SW21*%
X154463750Y-35718750D03*
D10*
X155733750Y-33178750D03*
D11*
X159543750Y-35718750D03*
D10*
X162083750Y-30638750D03*
D12*
X164623750Y-35718750D03*
%TD*%
%TO.C,SW33*%
X211613750Y-35718750D03*
D10*
X212883750Y-33178750D03*
D11*
X216693750Y-35718750D03*
D10*
X219233750Y-30638750D03*
D12*
X221773750Y-35718750D03*
%TD*%
%TO.C,SW49*%
X287813750Y-35718750D03*
D10*
X289083750Y-33178750D03*
D11*
X292893750Y-35718750D03*
D10*
X295433750Y-30638750D03*
D12*
X297973750Y-35718750D03*
%TD*%
%TO.C,SW31*%
X192563750Y-73818750D03*
D10*
X193833750Y-71278750D03*
D11*
X197643750Y-73818750D03*
D10*
X200183750Y-68738750D03*
D12*
X202723750Y-73818750D03*
%TD*%
%TO.C,SW11*%
X97313750Y-73818750D03*
D10*
X98583750Y-71278750D03*
D11*
X102393750Y-73818750D03*
D10*
X104933750Y-68738750D03*
D12*
X107473750Y-73818750D03*
%TD*%
%TO.C,SW41*%
X259873750Y-35718750D03*
D10*
X257333750Y-30638750D03*
D11*
X254793750Y-35718750D03*
D10*
X250983750Y-33178750D03*
D12*
X249713750Y-35718750D03*
%TD*%
%TO.C,SW12*%
X97313750Y-92868750D03*
D10*
X98583750Y-90328750D03*
D11*
X102393750Y-92868750D03*
D10*
X104933750Y-87788750D03*
D12*
X107473750Y-92868750D03*
%TD*%
%TO.C,SW1*%
X59213750Y-35718750D03*
D10*
X60483750Y-33178750D03*
D11*
X64293750Y-35718750D03*
D10*
X66833750Y-30638750D03*
D12*
X69373750Y-35718750D03*
%TD*%
%TO.C,SW46*%
X278923750Y-54768750D03*
D10*
X276383750Y-49688750D03*
D11*
X273843750Y-54768750D03*
D10*
X270033750Y-52228750D03*
D12*
X268763750Y-54768750D03*
%TD*%
%TO.C,SW14*%
X116363750Y-54768750D03*
D10*
X117633750Y-52228750D03*
D11*
X121443750Y-54768750D03*
D10*
X123983750Y-49688750D03*
D12*
X126523750Y-54768750D03*
%TD*%
%TO.C,SW10*%
X97313750Y-54768750D03*
D10*
X98583750Y-52228750D03*
D11*
X102393750Y-54768750D03*
D10*
X104933750Y-49688750D03*
D12*
X107473750Y-54768750D03*
%TD*%
%TO.C,SW58*%
X247332500Y-111918750D03*
D10*
X248602500Y-109378750D03*
D11*
X252412500Y-111918750D03*
D10*
X254952500Y-106838750D03*
D12*
X257492500Y-111918750D03*
%TD*%
%TO.C,SW17*%
X135413750Y-35718750D03*
D10*
X136683750Y-33178750D03*
D11*
X140493750Y-35718750D03*
D10*
X143033750Y-30638750D03*
D12*
X145573750Y-35718750D03*
%TD*%
%TO.C,SW26*%
X173513750Y-54768750D03*
D10*
X174783750Y-52228750D03*
D11*
X178593750Y-54768750D03*
D10*
X181133750Y-49688750D03*
D12*
X183673750Y-54768750D03*
%TD*%
%TO.C,SW15*%
X116363750Y-73818750D03*
D10*
X117633750Y-71278750D03*
D11*
X121443750Y-73818750D03*
D10*
X123983750Y-68738750D03*
D12*
X126523750Y-73818750D03*
%TD*%
%TO.C,SW36*%
X211613750Y-92868750D03*
D10*
X212883750Y-90328750D03*
D11*
X216693750Y-92868750D03*
D10*
X219233750Y-87788750D03*
D12*
X221773750Y-92868750D03*
%TD*%
%TO.C,SW44*%
X259873750Y-92868750D03*
D10*
X257333750Y-87788750D03*
D11*
X254793750Y-92868750D03*
D10*
X250983750Y-90328750D03*
D12*
X249713750Y-92868750D03*
%TD*%
%TO.C,SW23*%
X154463750Y-73818750D03*
D10*
X155733750Y-71278750D03*
D11*
X159543750Y-73818750D03*
D10*
X162083750Y-68738750D03*
D12*
X164623750Y-73818750D03*
%TD*%
%TO.C,SW9*%
X97313750Y-35718750D03*
D10*
X98583750Y-33178750D03*
D11*
X102393750Y-35718750D03*
D10*
X104933750Y-30638750D03*
D12*
X107473750Y-35718750D03*
%TD*%
%TO.C,SW37*%
X230663750Y-35718750D03*
D10*
X231933750Y-33178750D03*
D11*
X235743750Y-35718750D03*
D10*
X238283750Y-30638750D03*
D12*
X240823750Y-35718750D03*
%TD*%
%TO.C,SW5*%
X78263750Y-35718750D03*
D10*
X79533750Y-33178750D03*
D11*
X83343750Y-35718750D03*
D10*
X85883750Y-30638750D03*
D12*
X88423750Y-35718750D03*
%TD*%
%TO.C,SW22*%
X154463750Y-54768750D03*
D10*
X155733750Y-52228750D03*
D11*
X159543750Y-54768750D03*
D10*
X162083750Y-49688750D03*
D12*
X164623750Y-54768750D03*
%TD*%
%TO.C,SW19*%
X135413750Y-73818750D03*
D10*
X136683750Y-71278750D03*
D11*
X140493750Y-73818750D03*
D10*
X143033750Y-68738750D03*
D12*
X145573750Y-73818750D03*
%TD*%
%TO.C,SW43*%
X259873750Y-73818750D03*
D10*
X257333750Y-68738750D03*
D11*
X254793750Y-73818750D03*
D10*
X250983750Y-71278750D03*
D12*
X249713750Y-73818750D03*
%TD*%
%TO.C,SW24*%
X154463750Y-92868750D03*
D10*
X155733750Y-90328750D03*
D11*
X159543750Y-92868750D03*
D10*
X162083750Y-87788750D03*
D12*
X164623750Y-92868750D03*
%TD*%
%TO.C,SW35*%
X211613750Y-73818750D03*
D10*
X212883750Y-71278750D03*
D11*
X216693750Y-73818750D03*
D10*
X219233750Y-68738750D03*
D12*
X221773750Y-73818750D03*
%TD*%
%TO.C,SW13*%
X116363750Y-35718750D03*
D10*
X117633750Y-33178750D03*
D11*
X121443750Y-35718750D03*
D10*
X123983750Y-30638750D03*
D12*
X126523750Y-35718750D03*
%TD*%
%TO.C,SW32*%
X192563750Y-92868750D03*
D10*
X193833750Y-90328750D03*
D11*
X197643750Y-92868750D03*
D10*
X200183750Y-87788750D03*
D12*
X202723750Y-92868750D03*
%TD*%
%TO.C,SW50*%
X297973750Y-54768750D03*
D10*
X295433750Y-49688750D03*
D11*
X292893750Y-54768750D03*
D10*
X289083750Y-52228750D03*
D12*
X287813750Y-54768750D03*
%TD*%
%TO.C,SW20*%
X135413750Y-92868750D03*
D10*
X136683750Y-90328750D03*
D11*
X140493750Y-92868750D03*
D10*
X143033750Y-87788750D03*
D12*
X145573750Y-92868750D03*
%TD*%
%TO.C,SW28*%
X173513750Y-92868750D03*
D10*
X174783750Y-90328750D03*
D11*
X178593750Y-92868750D03*
D10*
X181133750Y-87788750D03*
D12*
X183673750Y-92868750D03*
%TD*%
D14*
%TO.C,U9*%
X75723750Y-35878750D03*
X75723750Y-38418750D03*
X75723750Y-40958750D03*
X75723750Y-43498750D03*
X75723750Y-46038750D03*
X90963750Y-46038750D03*
X90963750Y-43498750D03*
X90963750Y-40958750D03*
X90963750Y-38418750D03*
X90963750Y-35878750D03*
X90963750Y-33338750D03*
%TD*%
M02*
