  0
SECTION
  2
HEADER
  9
$ACADVER
  1
AC1009
  9
$DWGCODEPAGE
  3
ansi_949
  9
$INSBASE
 10
0.0
 20
0.0
 30
0.0
  9
$EXTMIN
 10
1.000000E+20
 20
1.000000E+20
 30
1.000000E+20
  9
$EXTMAX
 10
-1.000000E+20
 20
-1.000000E+20
 30
-1.000000E+20
  9
$LIMMIN
 10
0.0
 20
0.0
  9
$LIMMAX
 10
12.0
 20
9.0
  9
$ORTHOMODE
 70
     0
  9
$REGENMODE
 70
     1
  9
$FILLMODE
 70
     1
  9
$QTEXTMODE
 70
     0
  9
$MIRRTEXT
 70
     1
  9
$DRAGMODE
 70
     2
  9
$LTSCALE
 40
1.0
  9
$OSMODE
 70
    37
  9
$ATTMODE
 70
     1
  9
$TEXTSIZE
 40
0.2
  9
$TRACEWID
 40
0.05
  9
$TEXTSTYLE
  7
STANDARD
  9
$CLAYER
  8
0
  9
$CELTYPE
  6
BYBLOCK
  9
$CECOLOR
 62
   256
  9
$DIMSCALE
 40
1.0
  9
$DIMASZ
 40
0.18
  9
$DIMEXO
 40
0.0625
  9
$DIMDLI
 40
0.38
  9
$DIMRND
 40
0.0
  9
$DIMDLE
 40
0.0
  9
$DIMEXE
 40
0.18
  9
$DIMTP
 40
0.0
  9
$DIMTM
 40
0.0
  9
$DIMTXT
 40
0.18
  9
$DIMCEN
 40
0.09
  9
$DIMTSZ
 40
0.0
  9
$DIMTOL
 70
     0
  9
$DIMLIM
 70
     0
  9
$DIMTIH
 70
     1
  9
$DIMTOH
 70
     1
  9
$DIMSE1
 70
     0
  9
$DIMSE2
 70
     0
  9
$DIMTAD
 70
     0
  9
$DIMZIN
 70
     0
  9
$DIMBLK
  1

  9
$DIMASO
 70
     1
  9
$DIMSHO
 70
     1
  9
$DIMPOST
  1

  9
$DIMAPOST
  1

  9
$DIMALT
 70
     0
  9
$DIMALTD
 70
     2
  9
$DIMALTF
 40
25.4
  9
$DIMLFAC
 40
1.0
  9
$DIMTOFL
 70
     0
  9
$DIMTVP
 40
0.0
  9
$DIMTIX
 70
     0
  9
$DIMSOXD
 70
     0
  9
$DIMSAH
 70
     0
  9
$DIMBLK1
  1

  9
$DIMBLK2
  1

  9
$DIMSTYLE
  2
STANDARD
  9
$DIMCLRD
 70
     0
  9
$DIMCLRE
 70
     0
  9
$DIMCLRT
 70
     0
  9
$DIMTFAC
 40
1.0
  9
$DIMGAP
 40
0.09
  9
$LUNITS
 70
     2
  9
$LUPREC
 70
     4
  9
$SKETCHINC
 40
0.1
  9
$FILLETRAD
 40
0.5
  9
$AUNITS
 70
     0
  9
$AUPREC
 70
     0
  9
$MENU
  1
.
  9
$ELEVATION
 40
0.0
  9
$PELEVATION
 40
0.0
  9
$THICKNESS
 40
0.0
  9
$LIMCHECK
 70
     0
  9
$CHAMFERA
 40
0.0
  9
$CHAMFERB
 40
0.0
  9
$SKPOLY
 70
     0
  9
$TDCREATE
 40
2460068.734504433
  9
$TDUPDATE
 40
2460093.937439757
  9
$TDINDWG
 40
0.0000000116
  9
$TDUSRTIMER
 40
0.0000000116
  9
$USRTIMER
 70
     1
  9
$ANGBASE
 50
0.0
  9
$ANGDIR
 70
     0
  9
$PDMODE
 70
     0
  9
$PDSIZE
 40
0.0
  9
$PLINEWID
 40
0.0
  9
$COORDS
 70
     1
  9
$SPLFRAME
 70
     0
  9
$SPLINETYPE
 70
     6
  9
$SPLINESEGS
 70
     8
  9
$ATTDIA
 70
     0
  9
$ATTREQ
 70
     1
  9
$HANDLING
 70
     1
  9
$HANDSEED
  5
2B8E
  9
$SURFTAB1
 70
     6
  9
$SURFTAB2
 70
     6
  9
$SURFTYPE
 70
     6
  9
$SURFU
 70
     6
  9
$SURFV
 70
     6
  9
$UCSNAME
  2

  9
$UCSORG
 10
0.0
 20
0.0
 30
0.0
  9
$UCSXDIR
 10
1.0
 20
0.0
 30
0.0
  9
$UCSYDIR
 10
0.0
 20
1.0
 30
0.0
  9
$PUCSNAME
  2

  9
$PUCSORG
 10
0.0
 20
0.0
 30
0.0
  9
$PUCSXDIR
 10
1.0
 20
0.0
 30
0.0
  9
$PUCSYDIR
 10
0.0
 20
1.0
 30
0.0
  9
$USERI1
 70
     0
  9
$USERI2
 70
     0
  9
$USERI3
 70
     0
  9
$USERI4
 70
     0
  9
$USERI5
 70
     0
  9
$USERR1
 40
0.0
  9
$USERR2
 40
0.0
  9
$USERR3
 40
0.0
  9
$USERR4
 40
0.0
  9
$USERR5
 40
0.0
  9
$WORLDVIEW
 70
     1
  9
$SHADEDGE
 70
     3
  9
$SHADEDIF
 70
    70
  9
$TILEMODE
 70
     1
  9
$MAXACTVP
 70
    64
  9
$PLIMCHECK
 70
     0
  9
$PEXTMIN
 10
1.000000E+20
 20
1.000000E+20
 30
1.000000E+20
  9
$PEXTMAX
 10
-1.000000E+20
 20
-1.000000E+20
 30
-1.000000E+20
  9
$PLIMMIN
 10
0.0
 20
0.0
  9
$PLIMMAX
 10
12.0
 20
9.0
  9
$UNITMODE
 70
     0
  9
$VISRETAIN
 70
     1
  9
$PLINEGEN
 70
     0
  9
$PSLTSCALE
 70
     0
  0
ENDSEC
  0
SECTION
  2
TABLES
  0
TABLE
  2
VPORT
 70
     1
  0
VPORT
  2
*ACTIVE
 70
     0
 10
0.0
 20
0.0
 11
1.0
 21
1.0
 12
404.030923
 22
17.209169
 13
0.0
 23
0.0
 14
0.5
 24
0.5
 15
0.5
 25
0.5
 16
0.0
 26
0.0
 36
1.0
 17
0.0
 27
0.0
 37
0.0
 40
1167.71704
 41
2.040609
 42
50.0
 43
0.0
 44
0.0
 50
0.0
 51
0.0
 71
    16
 72
   100
 73
     1
 74
     3
 75
     0
 76
     0
 77
     0
 78
     0
  0
ENDTAB
  0
TABLE
  2
LTYPE
 70
     1
  0
LTYPE
  2
CONTINUOUS
 70
     0
  3
______
 72
    65
 73
     0
 40
0.0
  0
ENDTAB
  0
TABLE
  2
LAYER
 70
     3
  0
LAYER
  2
0
 70
     0
 62
     7
  6
CONTINUOUS
  0
LAYER
  2
DEFPOINTS
 70
     0
 62
     7
  6
CONTINUOUS
  0
LAYER
  2
DIMENSION
 70
     0
 62
     3
  6
CONTINUOUS
  0
ENDTAB
  0
TABLE
  2
STYLE
 70
     1
  0
STYLE
  2
STANDARD
 70
     0
 40
0.0
 41
1.0
 50
0.0
 71
     0
 42
0.2
  3
txt
  4

  0
ENDTAB
  0
TABLE
  2
VIEW
 70
     0
  0
ENDTAB
  0
TABLE
  2
UCS
 70
     0
  0
ENDTAB
  0
TABLE
  2
APPID
 70
     8
  0
APPID
  2
ACAD
 70
     0
  0
APPID
  2
MCS_DIM1
 70
     0
  0
APPID
  2
MCSXDATA5
 70
     0
  0
APPID
  2
MCS_DOCUMENT_ID
 70
     0
  0
APPID
  2
MCS_PARAMS_DATA
 70
     0
  0
APPID
  2
MC_VERSION_DATA
 70
     0
  0
APPID
  2
ACAD_PSEXT
 70
     0
  0
APPID
  2
ACAD_DSTYLE_DIMRADIAL_EXTE
 70
     0
  0
ENDTAB
  0
TABLE
  2
DIMSTYLE
 70
     1
  0
DIMSTYLE
  2
STANDARD
 70
     0
  3

  4

  5

  6

  7

 40
1.0
 41
0.18
 42
0.0625
 43
0.38
 44
0.18
 45
0.0
 46
0.0
 47
0.0
 48
0.0
140
0.18
141
0.09
142
0.0
143
25.4
144
1.0
145
0.0
146
1.0
147
0.09
 71
     0
 72
     0
 73
     1
 74
     1
 75
     0
 76
     0
 77
     0
 78
     0
170
     0
171
     2
172
     0
173
     0
174
     0
175
     0
176
     0
177
     0
178
     0
  0
ENDTAB
  0
ENDSEC
  0
SECTION
  2
BLOCKS
  0
BLOCK
  8
0
  2
$MODEL_SPACE
 70
     0
 10
0.0
 20
0.0
 30
0.0
  3
$MODEL_SPACE
  1

  0
ENDBLK
  5
274
  8
0
  0
BLOCK
 67
     1
  8
0
  2
$PAPER_SPACE
 70
     0
 10
0.0
 20
0.0
 30
0.0
  3
$PAPER_SPACE
  1

  0
ENDBLK
  5
276
 67
     1
  8
0
  0
BLOCK
  8
0
  2
*D0
 70
     1
 10
0.0
 20
0.0
 30
0.0
  3
*D0
  1

  0
LINE
  5
2A3
  8
DIMENSION
 62
     0
 10
64.4375
 20
-3.5875
 30
0.0
 11
64.4375
 21
-35.755
 31
0.0
  0
LINE
  5
2A4
  8
DIMENSION
 62
     0
 10
84.4875
 20
-35.6375
 30
0.0
 11
84.4875
 21
-35.755
 31
0.0
  0
LINE
  5
2A5
  8
DIMENSION
 62
     0
 10
64.6175
 20
-35.575
 30
0.0
 11
73.8925
 21
-35.575
 31
0.0
  0
LINE
  5
2A6
  8
DIMENSION
 62
     0
 10
84.3075
 20
-35.575
 30
0.0
 11
75.0325
 21
-35.575
 31
0.0
  0
SOLID
  5
2A7
  8
DIMENSION
 62
     0
 10
64.6175
 20
-35.545
 30
0.0
 11
64.6175
 21
-35.605
 31
0.0
 12
64.4375
 22
-35.575
 32
0.0
 13
64.4375
 23
-35.575
 33
0.0
  0
SOLID
  5
2A8
  8
DIMENSION
 62
     0
 10
84.3075
 20
-35.605
 30
0.0
 11
84.3075
 21
-35.545
 31
0.0
 12
84.4875
 22
-35.575
 32
0.0
 13
84.4875
 23
-35.575
 33
0.0
  0
TEXT
  5
2A9
  8
DIMENSION
  6
CONTINUOUS
 62
     0
 10
73.9825
 20
-35.665
 30
0.0
 40
0.18
  1
20.0500
  0
POINT
  5
2AA
  8
DEFPOINTS
 62
     0
 10
64.4375
 20
-3.525
 30
0.0
  0
POINT
  5
2AB
  8
DEFPOINTS
 62
     0
 10
84.4875
 20
-35.575
 30
0.0
  0
POINT
  5
2AC
  8
DEFPOINTS
 62
     0
 10
84.4875
 20
-35.575
 30
0.0
  0
ENDBLK
  5
2A2
  8
0
  0
BLOCK
  8
0
  2
*D1
 70
     1
 10
0.0
 20
0.0
 30
0.0
  3
*D1
  1

  0
LINE
  5
5FF
  8
DIMENSION
 62
     0
 10
0.151228
 20
3.520927
 30
0.0
 11
0.331228
 21
3.520927
 31
0.0
  0
LINE
  5
600
  8
DIMENSION
 62
     0
 10
0.585786
 20
3.775486
 30
0.0
 11
0.331228
 21
3.520927
 31
0.0
  0
TEXT
  5
601
  8
DIMENSION
  6
CONTINUOUS
 62
     0
 10
-0.898772
 20
3.430927
 30
0.0
 40
0.18
  1
R2.0000
  0
SOLID
  5
602
  8
DIMENSION
 62
     0
 10
0.47972
 20
3.626993
 30
0.0
 11
0.437294
 21
3.66942
 31
0.0
 12
0.585786
 22
3.775486
 32
0.0
 13
0.585786
 23
3.775486
 33
0.0
  0
LINE
  5
603
  8
DIMENSION
 62
     0
 10
1.91
 20
5.189699
 30
0.0
 11
2.09
 21
5.189699
 31
0.0
  0
LINE
  5
604
  8
DIMENSION
 62
     0
 10
2.0
 20
5.099699
 30
0.0
 11
2.0
 21
5.279699
 31
0.0
  0
POINT
  5
605
  8
DEFPOINTS
 62
     0
 10
0.585786
 20
3.775486
 30
0.0
  0
POINT
  5
606
  8
DEFPOINTS
 62
     0
 10
2.0
 20
5.189699
 30
0.0
  0
ENDBLK
  5
5FE
  8
0
  0
BLOCK
  8
0
  2
_NONE
 70
     0
 10
0.0
 20
0.0
 30
0.0
  3
_NONE
  1

  0
ENDBLK
  5
609
  8
0
  0
BLOCK
  8
0
  2
*D3
 70
     1
 10
0.0
 20
0.0
 30
0.0
  3
*D3
  1

  0
LINE
  5
7D7
  8
DIMENSION
 62
     0
 10
-3.970092
 20
112.229791
 30
0.0
 11
-3.790092
 21
112.229791
 31
0.0
  0
LINE
  5
7D8
  8
DIMENSION
 62
     0
 10
-3.535534
 20
111.975233
 30
0.0
 11
-3.790092
 21
112.229791
 31
0.0
  0
TEXT
  5
7D9
  8
DIMENSION
  6
CONTINUOUS
 62
     0
 10
-5.020092
 20
112.139791
 30
0.0
 40
0.18
  1
R5.0000
  0
SOLID
  5
7DA
  8
DIMENSION
 62
     0
 10
-3.684026
 20
112.081299
 30
0.0
 11
-3.6416
 21
112.123725
 31
0.0
 12
-3.535534
 22
111.975233
 32
0.0
 13
-3.535534
 23
111.975233
 33
0.0
  0
LINE
  5
7DB
  8
DIMENSION
 62
     0
 10
-0.09
 20
108.439699
 30
0.0
 11
0.09
 21
108.439699
 31
0.0
  0
LINE
  5
7DC
  8
DIMENSION
 62
     0
 10
0.0
 20
108.349699
 30
0.0
 11
0.0
 21
108.529699
 31
0.0
  0
POINT
  5
7DD
  8
DEFPOINTS
 62
     0
 10
-3.535534
 20
111.975233
 30
0.0
  0
POINT
  5
7DE
  8
DEFPOINTS
 62
     0
 10
0.0
 20
108.439699
 30
0.0
  0
ENDBLK
  5
7D6
  8
0
  0
BLOCK
  8
0
  2
*D4
 70
     1
 10
0.0
 20
0.0
 30
0.0
  3
*D4
  1

  0
LINE
  5
9BF
  8
DIMENSION
 62
     0
 10
7.994034
 20
109.635803
 30
0.0
 11
8.174034
 21
109.635803
 31
0.0
  0
LINE
  5
9C0
  8
DIMENSION
 62
     0
 10
8.428593
 20
109.381245
 30
0.0
 11
8.174034
 21
109.635803
 31
0.0
  0
TEXT
  5
9C1
  8
DIMENSION
  6
CONTINUOUS
 62
     0
 10
6.944034
 20
109.545803
 30
0.0
 40
0.18
  1
R2.0000
  0
SOLID
  5
9C2
  8
DIMENSION
 62
     0
 10
8.2801
 20
109.487311
 30
0.0
 11
8.322527
 21
109.529737
 31
0.0
 12
8.428593
 22
109.381245
 32
0.0
 13
8.428593
 23
109.381245
 33
0.0
  0
LINE
  5
9C3
  8
DIMENSION
 62
     0
 10
9.752806
 20
107.967031
 30
0.0
 11
9.932806
 21
107.967031
 31
0.0
  0
LINE
  5
9C4
  8
DIMENSION
 62
     0
 10
9.842806
 20
107.877031
 30
0.0
 11
9.842806
 21
108.057031
 31
0.0
  0
POINT
  5
9C5
  8
DEFPOINTS
 62
     0
 10
8.428593
 20
109.381245
 30
0.0
  0
POINT
  5
9C6
  8
DEFPOINTS
 62
     0
 10
9.842806
 20
107.967031
 30
0.0
  0
ENDBLK
  5
9BE
  8
0
  0
BLOCK
  8
0
  2
*D5
 70
     1
 10
0.0
 20
0.0
 30
0.0
  3
*D5
  1

  0
LINE
  5
A00
  8
DIMENSION
 62
     0
 10
50.856534
 20
109.635803
 30
0.0
 11
51.036534
 21
109.635803
 31
0.0
  0
LINE
  5
A01
  8
DIMENSION
 62
     0
 10
51.291093
 20
109.381245
 30
0.0
 11
51.036534
 21
109.635803
 31
0.0
  0
TEXT
  5
A02
  8
DIMENSION
  6
CONTINUOUS
 62
     0
 10
49.806534
 20
109.545803
 30
0.0
 40
0.18
  1
R2.0000
  0
SOLID
  5
A03
  8
DIMENSION
 62
     0
 10
51.1426
 20
109.487311
 30
0.0
 11
51.185027
 21
109.529737
 31
0.0
 12
51.291093
 22
109.381245
 32
0.0
 13
51.291093
 23
109.381245
 33
0.0
  0
LINE
  5
A04
  8
DIMENSION
 62
     0
 10
52.615306
 20
107.967031
 30
0.0
 11
52.795306
 21
107.967031
 31
0.0
  0
LINE
  5
A05
  8
DIMENSION
 62
     0
 10
52.705306
 20
107.877031
 30
0.0
 11
52.705306
 21
108.057031
 31
0.0
  0
POINT
  5
A06
  8
DEFPOINTS
 62
     0
 10
51.291093
 20
109.381245
 30
0.0
  0
POINT
  5
A07
  8
DEFPOINTS
 62
     0
 10
52.705306
 20
107.967031
 30
0.0
  0
ENDBLK
  5
9FF
  8
0
  0
BLOCK
  8
0
  2
*D6
 70
     1
 10
0.0
 20
0.0
 30
0.0
  3
*D6
  1

  0
LINE
  5
A57
  8
DIMENSION
 62
     0
 10
323.016578
 20
71.535803
 30
0.0
 11
322.836578
 21
71.535803
 31
0.0
  0
LINE
  5
A58
  8
DIMENSION
 62
     0
 10
322.58202
 20
71.281245
 30
0.0
 11
322.836578
 21
71.535803
 31
0.0
  0
TEXT
  5
A59
  8
DIMENSION
  6
CONTINUOUS
 62
     0
 10
323.106578
 20
71.445803
 30
0.0
 40
0.18
  1
R2.0000
  0
SOLID
  5
A5A
  8
DIMENSION
 62
     0
 10
322.688086
 20
71.429737
 30
0.0
 11
322.730512
 21
71.387311
 31
0.0
 12
322.58202
 22
71.281245
 32
0.0
 13
322.58202
 23
71.281245
 33
0.0
  0
LINE
  5
A5B
  8
DIMENSION
 62
     0
 10
321.077806
 20
69.867031
 30
0.0
 11
321.257806
 21
69.867031
 31
0.0
  0
LINE
  5
A5C
  8
DIMENSION
 62
     0
 10
321.167806
 20
69.777031
 30
0.0
 11
321.167806
 21
69.957031
 31
0.0
  0
POINT
  5
A5D
  8
DEFPOINTS
 62
     0
 10
322.58202
 20
71.281245
 30
0.0
  0
POINT
  5
A5E
  8
DEFPOINTS
 62
     0
 10
321.167806
 20
69.867031
 30
0.0
  0
ENDBLK
  5
A56
  8
0
  0
BLOCK
  8
0
  2
*D7
 70
     1
 10
0.0
 20
0.0
 30
0.0
  3
*D7
  1

  0
LINE
  5
184B
  8
DIMENSION
 62
     0
 10
19.516226
 20
-28.091621
 30
0.0
 11
10.926226
 21
-28.091621
 31
0.0
  0
TEXT
  5
184C
  8
DIMENSION
  6
CONTINUOUS
 62
     0
 10
9.786226
 20
-28.181621
 30
0.0
 40
0.18
  1
R10.0000
  0
SOLID
  5
184D
  8
DIMENSION
 62
     0
 10
19.516226
 20
-28.121621
 30
0.0
 11
19.516226
 21
-28.061621
 31
0.0
 12
19.696226
 22
-28.091621
 32
0.0
 13
19.696226
 23
-28.091621
 33
0.0
  0
ARC
  5
184E
  8
DIMENSION
 62
     0
 10
9.696226
 20
-28.091621
 30
0.0
 40
10.00000000000682
 50
358.968662
 51
89.641901
  0
POINT
  5
184F
  8
DEFPOINTS
 62
     0
 10
19.696226
 20
-28.091621
 30
0.0
  0
POINT
  5
1858
  8
DEFPOINTS
 62
     0
 10
9.696226
 20
-28.091621
 30
0.0
  0
ENDBLK
  5
184A
  8
0
  0
BLOCK
  8
0
  2
*D8
 70
     1
 10
0.0
 20
0.0
 30
0.0
  3
*D8
  1

  0
LINE
  5
185D
  8
DIMENSION
 62
     0
 10
-0.123774
 20
-28.091621
 30
0.0
 11
6.326643
 21
-28.091621
 31
0.0
  0
TEXT
  5
185E
  8
DIMENSION
  6
CONTINUOUS
 62
     0
 10
6.416643
 20
-28.181621
 30
0.0
 40
0.18
  1
R10.0000
  0
SOLID
  5
185F
  8
DIMENSION
 62
     0
 10
-0.123774
 20
-28.061621
 30
0.0
 11
-0.123774
 21
-28.121621
 31
0.0
 12
-0.303774
 22
-28.091621
 32
0.0
 13
-0.303774
 23
-28.091621
 33
0.0
  0
POINT
  5
1860
  8
DEFPOINTS
 62
     0
 10
-0.303774
 20
-28.091621
 30
0.0
  0
POINT
  5
1861
  8
DEFPOINTS
 62
     0
 10
9.696226
 20
-28.091621
 30
0.0
  0
ENDBLK
  5
185C
  8
0
  0
BLOCK
  8
0
  2
*D9
 70
     1
 10
0.0
 20
0.0
 30
0.0
  3
*D9
  1

  0
LINE
  5
186C
  8
DIMENSION
 62
     0
 10
-0.241274
 20
-38.09162
 30
0.0
 11
6.022976
 21
-38.09162
 31
0.0
  0
LINE
  5
186D
  8
DIMENSION
 62
     0
 10
5.905476
 20
-46.616029
 30
0.0
 11
6.022976
 21
-46.616029
 31
0.0
  0
LINE
  5
186E
  8
DIMENSION
 62
     0
 10
5.842976
 20
-38.27162
 30
0.0
 11
5.842976
 21
-42.173824
 31
0.0
  0
LINE
  5
186F
  8
DIMENSION
 62
     0
 10
5.842976
 20
-46.436029
 30
0.0
 11
5.842976
 21
-42.533824
 31
0.0
  0
SOLID
  5
1870
  8
DIMENSION
 62
     0
 10
5.872976
 20
-38.27162
 30
0.0
 11
5.812976
 21
-38.27162
 31
0.0
 12
5.842976
 22
-38.09162
 32
0.0
 13
5.842976
 23
-38.09162
 33
0.0
  0
SOLID
  5
1871
  8
DIMENSION
 62
     0
 10
5.812976
 20
-46.436029
 30
0.0
 11
5.872976
 21
-46.436029
 31
0.0
 12
5.842976
 22
-46.616029
 32
0.0
 13
5.842976
 23
-46.616029
 33
0.0
  0
TEXT
  5
1872
  8
DIMENSION
  6
CONTINUOUS
 62
     0
 10
5.392976
 20
-42.443824
 30
0.0
 40
0.18
  1
8.5244
  0
POINT
  5
1873
  8
DEFPOINTS
 62
     0
 10
-0.303774
 20
-38.09162
 30
0.0
  0
POINT
  5
1874
  8
DEFPOINTS
 62
     0
 10
5.842976
 20
-46.616029
 30
0.0
  0
POINT
  5
1875
  8
DEFPOINTS
 62
     0
 10
5.842976
 20
-46.616029
 30
0.0
  0
ENDBLK
  5
186B
  8
0
  0
BLOCK
  8
0
  2
*D10
 70
     1
 10
0.0
 20
0.0
 30
0.0
  3
*D10
  1

  0
LINE
  5
187F
  8
DIMENSION
 62
     0
 10
9.547082
 20
14.898865
 30
0.0
 11
9.367082
 21
14.898865
 31
0.0
  0
LINE
  5
1880
  8
DIMENSION
 62
     0
 10
9.367082
 20
14.898865
 30
0.0
 11
9.259991
 21
14.754188
 31
0.0
  0
TEXT
  5
1881
  8
DIMENSION
  6
CONTINUOUS
 62
     0
 10
9.637082
 20
14.808865
 30
0.0
 40
0.18
  1
R2.0000
  0
SOLID
  5
1882
  8
DIMENSION
 62
     0
 10
9.235878
 20
14.772037
 30
0.0
 11
9.284103
 21
14.736339
 31
0.0
 12
9.152899
 22
14.609511
 32
0.0
 13
9.152899
 23
14.609511
 33
0.0
  0
ARC
  5
1883
  8
DIMENSION
 62
     0
 10
10.342806
 20
16.217031
 30
0.0
 40
2.0
 50
228.332308
 51
268.209434
  0
POINT
  5
188B
  8
DEFPOINTS
 62
     0
 10
9.152899
 20
14.609511
 30
0.0
  0
POINT
  5
188C
  8
DEFPOINTS
 62
     0
 10
10.342806
 20
16.217031
 30
0.0
  0
ENDBLK
  5
187E
  8
0
  0
BLOCK
  8
0
  2
*D11
 70
     1
 10
0.0
 20
0.0
 30
0.0
  3
*D11
  1

  0
LINE
  5
1891
  8
DIMENSION
 62
     0
 10
2.083424
 20
-23.608271
 30
0.0
 11
1.903424
 21
-23.608271
 31
0.0
  0
LINE
  5
1892
  8
DIMENSION
 62
     0
 10
1.903424
 20
-23.608271
 30
0.0
 11
1.184381
 21
-23.194591
 31
0.0
  0
TEXT
  5
1893
  8
DIMENSION
  6
CONTINUOUS
 62
     0
 10
2.173424
 20
-23.698271
 30
0.0
 40
0.18
  1
R10.0000
  0
SOLID
  5
1894
  8
DIMENSION
 62
     0
 10
1.199342
 20
-23.168588
 30
0.0
 11
1.169421
 21
-23.220595
 31
0.0
 12
1.02836
 22
-23.104829
 32
0.0
 13
1.02836
 23
-23.104829
 33
0.0
  0
POINT
  5
1895
  8
DEFPOINTS
 62
     0
 10
1.02836
 20
-23.104829
 30
0.0
  0
POINT
  5
1896
  8
DEFPOINTS
 62
     0
 10
9.696226
 20
-28.091621
 30
0.0
  0
ENDBLK
  5
1890
  8
0
  0
BLOCK
  8
0
  2
*D12
 70
     1
 10
0.0
 20
0.0
 30
0.0
  3
*D12
  1

  0
LINE
  5
189D
  8
DIMENSION
 62
     0
 10
27.955306
 20
34.767031
 30
0.0
 11
31.672806
 21
34.767031
 31
0.0
  0
LINE
  5
189E
  8
DIMENSION
 62
     0
 10
27.955306
 20
107.967031
 30
0.0
 11
31.672806
 21
107.967031
 31
0.0
  0
LINE
  5
189F
  8
DIMENSION
 62
     0
 10
31.492806
 20
34.947031
 30
0.0
 11
31.492806
 21
71.187031
 31
0.0
  0
LINE
  5
18A0
  8
DIMENSION
 62
     0
 10
31.492806
 20
107.787031
 30
0.0
 11
31.492806
 21
71.547031
 31
0.0
  0
SOLID
  5
18A1
  8
DIMENSION
 62
     0
 10
31.462806
 20
34.947031
 30
0.0
 11
31.522806
 21
34.947031
 31
0.0
 12
31.492806
 22
34.767031
 32
0.0
 13
31.492806
 23
34.767031
 33
0.0
  0
SOLID
  5
18A2
  8
DIMENSION
 62
     0
 10
31.522806
 20
107.787031
 30
0.0
 11
31.462806
 21
107.787031
 31
0.0
 12
31.492806
 22
107.967031
 32
0.0
 13
31.492806
 23
107.967031
 33
0.0
  0
TEXT
  5
18A3
  8
DIMENSION
  6
CONTINUOUS
 62
     0
 10
30.997806
 20
71.277031
 30
0.0
 40
0.18
  1
73.2000
  0
POINT
  5
18A4
  8
DEFPOINTS
 62
     0
 10
27.892806
 20
34.767031
 30
0.0
  0
POINT
  5
18A5
  8
DEFPOINTS
 62
     0
 10
27.892806
 20
107.967031
 30
0.0
  0
POINT
  5
18A6
  8
DEFPOINTS
 62
     0
 10
31.492806
 20
107.967031
 30
0.0
  0
ENDBLK
  5
189C
  8
0
  0
BLOCK
  8
0
  2
*D13
 70
     1
 10
0.0
 20
0.0
 30
0.0
  3
*D13
  1

  0
LINE
  5
18AD
  8
DIMENSION
 62
     0
 10
9.758726
 20
-48.09162
 30
0.0
 11
75.036226
 21
-48.09162
 31
0.0
  0
LINE
  5
18AE
  8
DIMENSION
 62
     0
 10
9.758726
 20
-18.091621
 30
0.0
 11
75.036226
 21
-18.091621
 31
0.0
  0
LINE
  5
18AF
  8
DIMENSION
 62
     0
 10
74.856226
 20
-47.91162
 30
0.0
 11
74.856226
 21
-33.27162
 31
0.0
  0
LINE
  5
18B0
  8
DIMENSION
 62
     0
 10
74.856226
 20
-18.271621
 30
0.0
 11
74.856226
 21
-32.91162
 31
0.0
  0
SOLID
  5
18B1
  8
DIMENSION
 62
     0
 10
74.826226
 20
-47.91162
 30
0.0
 11
74.886226
 21
-47.91162
 31
0.0
 12
74.856226
 22
-48.09162
 32
0.0
 13
74.856226
 23
-48.09162
 33
0.0
  0
SOLID
  5
18B2
  8
DIMENSION
 62
     0
 10
74.886226
 20
-18.271621
 30
0.0
 11
74.826226
 21
-18.271621
 31
0.0
 12
74.856226
 22
-18.091621
 32
0.0
 13
74.856226
 23
-18.091621
 33
0.0
  0
TEXT
  5
18B3
  8
DIMENSION
  6
CONTINUOUS
 62
     0
 10
74.391226
 20
-33.18162
 30
0.0
 40
0.18
  1
30.0000
  0
POINT
  5
18B4
  8
DEFPOINTS
 62
     0
 10
9.696226
 20
-48.09162
 30
0.0
  0
POINT
  5
18B5
  8
DEFPOINTS
 62
     0
 10
9.696226
 20
-18.091621
 30
0.0
  0
POINT
  5
18B6
  8
DEFPOINTS
 62
     0
 10
74.856226
 20
-18.091621
 30
0.0
  0
ENDBLK
  5
18AC
  8
0
  0
BLOCK
  8
0
  2
*D14
 70
     1
 10
0.0
 20
0.0
 30
0.0
  3
*D14
  1

  0
LINE
  5
18BD
  8
DIMENSION
 62
     0
 10
26.046226
 20
-130.400461
 30
0.0
 11
88.083726
 21
-130.400461
 31
0.0
  0
LINE
  5
18BE
  8
DIMENSION
 62
     0
 10
9.758726
 20
-85.400462
 30
0.0
 11
88.083726
 21
-85.400462
 31
0.0
  0
LINE
  5
18BF
  8
DIMENSION
 62
     0
 10
87.903726
 20
-130.220461
 30
0.0
 11
87.903726
 21
-108.080461
 31
0.0
  0
LINE
  5
18C0
  8
DIMENSION
 62
     0
 10
87.903726
 20
-85.580462
 30
0.0
 11
87.903726
 21
-107.720461
 31
0.0
  0
SOLID
  5
18C1
  8
DIMENSION
 62
     0
 10
87.873726
 20
-130.220461
 30
0.0
 11
87.933726
 21
-130.220461
 31
0.0
 12
87.903726
 22
-130.400461
 32
0.0
 13
87.903726
 23
-130.400461
 33
0.0
  0
SOLID
  5
18C2
  8
DIMENSION
 62
     0
 10
87.933726
 20
-85.580462
 30
0.0
 11
87.873726
 21
-85.580462
 31
0.0
 12
87.903726
 22
-85.400462
 32
0.0
 13
87.903726
 23
-85.400462
 33
0.0
  0
TEXT
  5
18C3
  8
DIMENSION
  6
CONTINUOUS
 62
     0
 10
87.423726
 20
-107.990461
 30
0.0
 40
0.18
  1
45.0000
  0
POINT
  5
18C4
  8
DEFPOINTS
 62
     0
 10
25.983726
 20
-130.400461
 30
0.0
  0
POINT
  5
18C5
  8
DEFPOINTS
 62
     0
 10
9.696226
 20
-85.400462
 30
0.0
  0
POINT
  5
18C6
  8
DEFPOINTS
 62
     0
 10
87.903726
 20
-85.400462
 30
0.0
  0
ENDBLK
  5
18BC
  8
0
  0
BLOCK
  8
0
  2
*D15
 70
     1
 10
0.0
 20
0.0
 30
0.0
  3
*D15
  1

  0
LINE
  5
18CD
  8
DIMENSION
 62
     0
 10
21.921226
 20
-120.400461
 30
0.0
 11
16.043726
 21
-120.400461
 31
0.0
  0
LINE
  5
18CE
  8
DIMENSION
 62
     0
 10
9.758726
 20
-85.400462
 30
0.0
 11
16.403726
 21
-85.400462
 31
0.0
  0
LINE
  5
18CF
  8
DIMENSION
 62
     0
 10
16.223726
 20
-120.220461
 30
0.0
 11
16.223726
 21
-103.080461
 31
0.0
  0
LINE
  5
18D0
  8
DIMENSION
 62
     0
 10
16.223726
 20
-85.580462
 30
0.0
 11
16.223726
 21
-102.720461
 31
0.0
  0
SOLID
  5
18D1
  8
DIMENSION
 62
     0
 10
16.193726
 20
-120.220461
 30
0.0
 11
16.253726
 21
-120.220461
 31
0.0
 12
16.223726
 22
-120.400461
 32
0.0
 13
16.223726
 23
-120.400461
 33
0.0
  0
SOLID
  5
18D2
  8
DIMENSION
 62
     0
 10
16.253726
 20
-85.580462
 30
0.0
 11
16.193726
 21
-85.580462
 31
0.0
 12
16.223726
 22
-85.400462
 32
0.0
 13
16.223726
 23
-85.400462
 33
0.0
  0
TEXT
  5
18D3
  8
DIMENSION
  6
CONTINUOUS
 62
     0
 10
15.743726
 20
-102.990461
 30
0.0
 40
0.18
  1
35.0000
  0
POINT
  5
18D4
  8
DEFPOINTS
 62
     0
 10
21.983726
 20
-120.400461
 30
0.0
  0
POINT
  5
18D5
  8
DEFPOINTS
 62
     0
 10
9.696226
 20
-85.400462
 30
0.0
  0
POINT
  5
18D6
  8
DEFPOINTS
 62
     0
 10
16.223726
 20
-85.400462
 30
0.0
  0
ENDBLK
  5
18CC
  8
0
  0
BLOCK
  8
0
  2
*D16
 70
     1
 10
0.0
 20
0.0
 30
0.0
  3
*D16
  1

  0
LINE
  5
18DD
  8
DIMENSION
 62
     0
 10
9.758726
 20
-214.512751
 30
0.0
 11
75.036226
 21
-214.512751
 31
0.0
  0
LINE
  5
18DE
  8
DIMENSION
 62
     0
 10
103.233726
 20
-164.512752
 30
0.0
 11
74.676226
 21
-164.512752
 31
0.0
  0
LINE
  5
18DF
  8
DIMENSION
 62
     0
 10
74.856226
 20
-214.332751
 30
0.0
 11
74.856226
 21
-189.692751
 31
0.0
  0
LINE
  5
18E0
  8
DIMENSION
 62
     0
 10
74.856226
 20
-164.692752
 30
0.0
 11
74.856226
 21
-189.332751
 31
0.0
  0
SOLID
  5
18E1
  8
DIMENSION
 62
     0
 10
74.826226
 20
-214.332751
 30
0.0
 11
74.886226
 21
-214.332751
 31
0.0
 12
74.856226
 22
-214.512751
 32
0.0
 13
74.856226
 23
-214.512751
 33
0.0
  0
SOLID
  5
18E2
  8
DIMENSION
 62
     0
 10
74.886226
 20
-164.692752
 30
0.0
 11
74.826226
 21
-164.692752
 31
0.0
 12
74.856226
 22
-164.512752
 32
0.0
 13
74.856226
 23
-164.512752
 33
0.0
  0
TEXT
  5
18E3
  8
DIMENSION
  6
CONTINUOUS
 62
     0
 10
74.391226
 20
-189.602751
 30
0.0
 40
0.18
  1
50.0000
  0
POINT
  5
18E4
  8
DEFPOINTS
 62
     0
 10
9.696226
 20
-214.512751
 30
0.0
  0
POINT
  5
18E5
  8
DEFPOINTS
 62
     0
 10
103.296226
 20
-164.512752
 30
0.0
  0
POINT
  5
18E6
  8
DEFPOINTS
 62
     0
 10
74.856226
 20
-164.512752
 30
0.0
  0
ENDBLK
  5
18DC
  8
0
  0
BLOCK
  8
0
  2
*D17
 70
     1
 10
0.0
 20
0.0
 30
0.0
  3
*D17
  1

  0
LINE
  5
19BC
  8
DIMENSION
 62
     0
 10
4.372714
 20
237.636531
 30
0.0
 11
4.552714
 21
237.636531
 31
0.0
  0
LINE
  5
19BD
  8
DIMENSION
 62
     0
 10
4.807272
 20
237.381972
 30
0.0
 11
4.552714
 21
237.636531
 31
0.0
  0
TEXT
  5
19BE
  8
DIMENSION
  6
CONTINUOUS
 62
     0
 10
3.322714
 20
237.546531
 30
0.0
 40
0.18
  1
R5.0000
  0
SOLID
  5
19BF
  8
DIMENSION
 62
     0
 10
4.65878
 20
237.488038
 30
0.0
 11
4.701206
 21
237.530465
 31
0.0
 12
4.807272
 22
237.381972
 32
0.0
 13
4.807272
 23
237.381972
 33
0.0
  0
LINE
  5
19C0
  8
DIMENSION
 62
     0
 10
8.252806
 20
233.846438
 30
0.0
 11
8.432806
 21
233.846438
 31
0.0
  0
LINE
  5
19C1
  8
DIMENSION
 62
     0
 10
8.342806
 20
233.756438
 30
0.0
 11
8.342806
 21
233.936438
 31
0.0
  0
POINT
  5
19C2
  8
DEFPOINTS
 62
     0
 10
4.807272
 20
237.381972
 30
0.0
  0
POINT
  5
19C3
  8
DEFPOINTS
 62
     0
 10
8.342806
 20
233.846438
 30
0.0
  0
ENDBLK
  5
19BB
  8
0
  0
BLOCK
  8
0
  2
*D18
 70
     1
 10
0.0
 20
0.0
 30
0.0
  3
*D18
  1

  0
LINE
  5
1CA0
  8
DIMENSION
 62
     0
 10
4.372714
 20
327.636531
 30
0.0
 11
4.552714
 21
327.636531
 31
0.0
  0
LINE
  5
1CA1
  8
DIMENSION
 62
     0
 10
4.807272
 20
327.381972
 30
0.0
 11
4.552714
 21
327.636531
 31
0.0
  0
TEXT
  5
1CA2
  8
DIMENSION
  6
CONTINUOUS
 62
     0
 10
3.322714
 20
327.546531
 30
0.0
 40
0.18
  1
R5.0000
  0
SOLID
  5
1CA3
  8
DIMENSION
 62
     0
 10
4.65878
 20
327.488038
 30
0.0
 11
4.701206
 21
327.530465
 31
0.0
 12
4.807272
 22
327.381972
 32
0.0
 13
4.807272
 23
327.381972
 33
0.0
  0
LINE
  5
1CA4
  8
DIMENSION
 62
     0
 10
8.252806
 20
323.846438
 30
0.0
 11
8.432806
 21
323.846438
 31
0.0
  0
LINE
  5
1CA5
  8
DIMENSION
 62
     0
 10
8.342806
 20
323.756438
 30
0.0
 11
8.342806
 21
323.936438
 31
0.0
  0
POINT
  5
1CA6
  8
DEFPOINTS
 62
     0
 10
4.807272
 20
327.381972
 30
0.0
  0
POINT
  5
1CA7
  8
DEFPOINTS
 62
     0
 10
8.342806
 20
323.846438
 30
0.0
  0
ENDBLK
  5
1C9F
  8
0
  0
BLOCK
  8
0
  2
*D19
 70
     1
 10
0.0
 20
0.0
 30
0.0
  3
*D19
  1

  0
LINE
  5
1CB6
  8
DIMENSION
 62
     0
 10
4.372714
 20
397.636531
 30
0.0
 11
4.552714
 21
397.636531
 31
0.0
  0
LINE
  5
1CB7
  8
DIMENSION
 62
     0
 10
4.807272
 20
397.381972
 30
0.0
 11
4.552714
 21
397.636531
 31
0.0
  0
TEXT
  5
1CB8
  8
DIMENSION
  6
CONTINUOUS
 62
     0
 10
3.322714
 20
397.546531
 30
0.0
 40
0.18
  1
R5.0000
  0
SOLID
  5
1CB9
  8
DIMENSION
 62
     0
 10
4.65878
 20
397.488038
 30
0.0
 11
4.701206
 21
397.530465
 31
0.0
 12
4.807272
 22
397.381972
 32
0.0
 13
4.807272
 23
397.381972
 33
0.0
  0
LINE
  5
1CBA
  8
DIMENSION
 62
     0
 10
8.252806
 20
393.846438
 30
0.0
 11
8.432806
 21
393.846438
 31
0.0
  0
LINE
  5
1CBB
  8
DIMENSION
 62
     0
 10
8.342806
 20
393.756438
 30
0.0
 11
8.342806
 21
393.936438
 31
0.0
  0
POINT
  5
1CBC
  8
DEFPOINTS
 62
     0
 10
4.807272
 20
397.381972
 30
0.0
  0
POINT
  5
1CBD
  8
DEFPOINTS
 62
     0
 10
8.342806
 20
393.846438
 30
0.0
  0
ENDBLK
  5
1CB5
  8
0
  0
ENDSEC
  0
SECTION
  2
ENTITIES
  0
ARC
  5
22
  8
0
 10
11.867806
 20
93.942031
 30
0.0
 40
1.0
 50
180.0
 51
270.0
  0
ARC
  5
23
  8
0
 10
23.867806
 20
93.942031
 30
0.0
 40
1.0
 50
270.0
 51
0.0
  0
ARC
  5
24
  8
0
 10
23.867806
 20
105.942031
 30
0.0
 40
1.0
 50
0.0
 51
90.0
  0
ARC
  5
25
  8
0
 10
11.867806
 20
105.942031
 30
0.0
 40
1.0
 50
90.0
 51
180.0
  0
LINE
  5
26
  8
0
 10
11.867806
 20
92.942031
 30
0.0
 11
23.867806
 21
92.942031
 31
0.0
  0
LINE
  5
27
  8
0
 10
23.867806
 20
106.942031
 30
0.0
 11
11.867806
 21
106.942031
 31
0.0
  0
LINE
  5
28
  8
0
 10
24.867806
 20
93.942031
 30
0.0
 11
24.867806
 21
105.942031
 31
0.0
  0
LINE
  5
29
  8
0
 10
10.867806
 20
105.942031
 30
0.0
 11
10.867806
 21
93.942031
 31
0.0
  0
ARC
  5
2A
  8
0
 10
54.730306
 20
93.942031
 30
0.0
 40
1.0
 50
180.0
 51
270.0
  0
ARC
  5
2B
  8
0
 10
66.730306
 20
93.942031
 30
0.0
 40
1.0
 50
270.0
 51
0.0
  0
ARC
  5
2C
  8
0
 10
66.730306
 20
105.942031
 30
0.0
 40
1.0
 50
0.0
 51
90.0
  0
ARC
  5
2D
  8
0
 10
54.730306
 20
105.942031
 30
0.0
 40
1.0
 50
90.0
 51
180.0
  0
LINE
  5
2E
  8
0
 10
54.730306
 20
92.942031
 30
0.0
 11
66.730306
 21
92.942031
 31
0.0
  0
LINE
  5
2F
  8
0
 10
66.730306
 20
106.942031
 30
0.0
 11
54.730306
 21
106.942031
 31
0.0
  0
LINE
  5
30
  8
0
 10
67.730306
 20
93.942031
 30
0.0
 11
67.730306
 21
105.942031
 31
0.0
  0
LINE
  5
31
  8
0
 10
53.730306
 20
105.942031
 30
0.0
 11
53.730306
 21
93.942031
 31
0.0
  0
ARC
  5
32
  8
0
 10
73.780306
 20
93.942031
 30
0.0
 40
1.0
 50
180.0
 51
270.0
  0
ARC
  5
33
  8
0
 10
85.780306
 20
93.942031
 30
0.0
 40
1.0
 50
270.0
 51
0.0
  0
ARC
  5
34
  8
0
 10
85.780306
 20
105.942031
 30
0.0
 40
1.0
 50
0.0
 51
90.0
  0
ARC
  5
35
  8
0
 10
73.780306
 20
105.942031
 30
0.0
 40
1.0
 50
90.0
 51
180.0
  0
LINE
  5
36
  8
0
 10
73.780306
 20
92.942031
 30
0.0
 11
85.780306
 21
92.942031
 31
0.0
  0
LINE
  5
37
  8
0
 10
85.780306
 20
106.942031
 30
0.0
 11
73.780306
 21
106.942031
 31
0.0
  0
LINE
  5
38
  8
0
 10
86.780306
 20
93.942031
 30
0.0
 11
86.780306
 21
105.942031
 31
0.0
  0
LINE
  5
39
  8
0
 10
72.780306
 20
105.942031
 30
0.0
 11
72.780306
 21
93.942031
 31
0.0
  0
ARC
  5
3A
  8
0
 10
92.830306
 20
93.942031
 30
0.0
 40
1.0
 50
180.0
 51
270.0
  0
ARC
  5
3B
  8
0
 10
104.830306
 20
93.942031
 30
0.0
 40
1.0
 50
270.0
 51
0.0
  0
ARC
  5
3C
  8
0
 10
104.830306
 20
105.942031
 30
0.0
 40
1.0
 50
0.0
 51
90.0
  0
ARC
  5
3D
  8
0
 10
92.830306
 20
105.942031
 30
0.0
 40
1.0
 50
90.0
 51
180.0
  0
LINE
  5
3E
  8
0
 10
92.830306
 20
92.942031
 30
0.0
 11
104.830306
 21
92.942031
 31
0.0
  0
LINE
  5
3F
  8
0
 10
104.830306
 20
106.942031
 30
0.0
 11
92.830306
 21
106.942031
 31
0.0
  0
LINE
  5
40
  8
0
 10
105.830306
 20
93.942031
 30
0.0
 11
105.830306
 21
105.942031
 31
0.0
  0
LINE
  5
41
  8
0
 10
91.830306
 20
105.942031
 30
0.0
 11
91.830306
 21
93.942031
 31
0.0
  0
ARC
  5
42
  8
0
 10
111.880306
 20
93.942031
 30
0.0
 40
1.0
 50
180.0
 51
270.0
  0
ARC
  5
43
  8
0
 10
123.880306
 20
93.942031
 30
0.0
 40
1.0
 50
270.0
 51
0.0
  0
ARC
  5
44
  8
0
 10
123.880306
 20
105.942031
 30
0.0
 40
1.0
 50
0.0
 51
90.0
  0
ARC
  5
45
  8
0
 10
111.880306
 20
105.942031
 30
0.0
 40
1.0
 50
90.0
 51
180.0
  0
LINE
  5
46
  8
0
 10
111.880306
 20
92.942031
 30
0.0
 11
123.880306
 21
92.942031
 31
0.0
  0
LINE
  5
47
  8
0
 10
123.880306
 20
106.942031
 30
0.0
 11
111.880306
 21
106.942031
 31
0.0
  0
LINE
  5
48
  8
0
 10
124.880306
 20
93.942031
 30
0.0
 11
124.880306
 21
105.942031
 31
0.0
  0
LINE
  5
49
  8
0
 10
110.880306
 20
105.942031
 30
0.0
 11
110.880306
 21
93.942031
 31
0.0
  0
ARC
  5
4A
  8
0
 10
130.930306
 20
93.942031
 30
0.0
 40
1.0
 50
180.0
 51
270.0
  0
ARC
  5
4B
  8
0
 10
142.930306
 20
93.942031
 30
0.0
 40
1.0
 50
270.0
 51
0.0
  0
ARC
  5
4C
  8
0
 10
142.930306
 20
105.942031
 30
0.0
 40
1.0
 50
0.0
 51
90.0
  0
ARC
  5
4D
  8
0
 10
130.930306
 20
105.942031
 30
0.0
 40
1.0
 50
90.0
 51
180.0
  0
LINE
  5
4E
  8
0
 10
130.930306
 20
92.942031
 30
0.0
 11
142.930306
 21
92.942031
 31
0.0
  0
LINE
  5
4F
  8
0
 10
142.930306
 20
106.942031
 30
0.0
 11
130.930306
 21
106.942031
 31
0.0
  0
LINE
  5
50
  8
0
 10
143.930306
 20
93.942031
 30
0.0
 11
143.930306
 21
105.942031
 31
0.0
  0
LINE
  5
51
  8
0
 10
129.930306
 20
105.942031
 30
0.0
 11
129.930306
 21
93.942031
 31
0.0
  0
ARC
  5
52
  8
0
 10
149.980306
 20
93.942031
 30
0.0
 40
1.0
 50
180.0
 51
270.0
  0
ARC
  5
53
  8
0
 10
161.980306
 20
93.942031
 30
0.0
 40
1.0
 50
270.0
 51
0.0
  0
ARC
  5
54
  8
0
 10
161.980306
 20
105.942031
 30
0.0
 40
1.0
 50
0.0
 51
90.0
  0
ARC
  5
55
  8
0
 10
149.980306
 20
105.942031
 30
0.0
 40
1.0
 50
90.0
 51
180.0
  0
LINE
  5
56
  8
0
 10
149.980306
 20
92.942031
 30
0.0
 11
161.980306
 21
92.942031
 31
0.0
  0
LINE
  5
57
  8
0
 10
161.980306
 20
106.942031
 30
0.0
 11
149.980306
 21
106.942031
 31
0.0
  0
LINE
  5
58
  8
0
 10
162.980306
 20
93.942031
 30
0.0
 11
162.980306
 21
105.942031
 31
0.0
  0
LINE
  5
59
  8
0
 10
148.980306
 20
105.942031
 30
0.0
 11
148.980306
 21
93.942031
 31
0.0
  0
ARC
  5
5A
  8
0
 10
169.030306
 20
93.942031
 30
0.0
 40
1.0
 50
180.0
 51
270.0
  0
ARC
  5
5B
  8
0
 10
181.030306
 20
93.942031
 30
0.0
 40
1.0
 50
270.0
 51
0.0
  0
ARC
  5
5C
  8
0
 10
181.030306
 20
105.942031
 30
0.0
 40
1.0
 50
0.0
 51
90.0
  0
ARC
  5
5D
  8
0
 10
169.030306
 20
105.942031
 30
0.0
 40
1.0
 50
90.0
 51
180.0
  0
LINE
  5
5E
  8
0
 10
169.030306
 20
92.942031
 30
0.0
 11
181.030306
 21
92.942031
 31
0.0
  0
LINE
  5
5F
  8
0
 10
181.030306
 20
106.942031
 30
0.0
 11
169.030306
 21
106.942031
 31
0.0
  0
LINE
  5
60
  8
0
 10
182.030306
 20
93.942031
 30
0.0
 11
182.030306
 21
105.942031
 31
0.0
  0
LINE
  5
61
  8
0
 10
168.030306
 20
105.942031
 30
0.0
 11
168.030306
 21
93.942031
 31
0.0
  0
ARC
  5
62
  8
0
 10
188.080306
 20
93.942031
 30
0.0
 40
1.0
 50
180.0
 51
270.0
  0
ARC
  5
63
  8
0
 10
200.080306
 20
93.942031
 30
0.0
 40
1.0
 50
270.0
 51
0.0
  0
ARC
  5
64
  8
0
 10
200.080306
 20
105.942031
 30
0.0
 40
1.0
 50
0.0
 51
90.0
  0
ARC
  5
65
  8
0
 10
188.080306
 20
105.942031
 30
0.0
 40
1.0
 50
90.0
 51
180.0
  0
LINE
  5
66
  8
0
 10
188.080306
 20
92.942031
 30
0.0
 11
200.080306
 21
92.942031
 31
0.0
  0
LINE
  5
67
  8
0
 10
200.080306
 20
106.942031
 30
0.0
 11
188.080306
 21
106.942031
 31
0.0
  0
LINE
  5
68
  8
0
 10
201.080306
 20
93.942031
 30
0.0
 11
201.080306
 21
105.942031
 31
0.0
  0
LINE
  5
69
  8
0
 10
187.080306
 20
105.942031
 30
0.0
 11
187.080306
 21
93.942031
 31
0.0
  0
ARC
  5
6A
  8
0
 10
207.130306
 20
93.942031
 30
0.0
 40
1.0
 50
180.0
 51
270.0
  0
ARC
  5
6B
  8
0
 10
219.130306
 20
93.942031
 30
0.0
 40
1.0
 50
270.0
 51
0.0
  0
ARC
  5
6C
  8
0
 10
219.130306
 20
105.942031
 30
0.0
 40
1.0
 50
0.0
 51
90.0
  0
ARC
  5
6D
  8
0
 10
207.130306
 20
105.942031
 30
0.0
 40
1.0
 50
90.0
 51
180.0
  0
LINE
  5
6E
  8
0
 10
207.130306
 20
92.942031
 30
0.0
 11
219.130306
 21
92.942031
 31
0.0
  0
LINE
  5
6F
  8
0
 10
219.130306
 20
106.942031
 30
0.0
 11
207.130306
 21
106.942031
 31
0.0
  0
LINE
  5
70
  8
0
 10
220.130306
 20
93.942031
 30
0.0
 11
220.130306
 21
105.942031
 31
0.0
  0
LINE
  5
71
  8
0
 10
206.130306
 20
105.942031
 30
0.0
 11
206.130306
 21
93.942031
 31
0.0
  0
ARC
  5
72
  8
0
 10
226.180306
 20
93.942031
 30
0.0
 40
1.0
 50
180.0
 51
270.0
  0
ARC
  5
73
  8
0
 10
238.180306
 20
93.942031
 30
0.0
 40
1.0
 50
270.0
 51
0.0
  0
ARC
  5
74
  8
0
 10
238.180306
 20
105.942031
 30
0.0
 40
1.0
 50
0.0
 51
90.0
  0
ARC
  5
75
  8
0
 10
226.180306
 20
105.942031
 30
0.0
 40
1.0
 50
90.0
 51
180.0
  0
LINE
  5
76
  8
0
 10
226.180306
 20
92.942031
 30
0.0
 11
238.180306
 21
92.942031
 31
0.0
  0
LINE
  5
77
  8
0
 10
238.180306
 20
106.942031
 30
0.0
 11
226.180306
 21
106.942031
 31
0.0
  0
LINE
  5
78
  8
0
 10
239.180306
 20
93.942031
 30
0.0
 11
239.180306
 21
105.942031
 31
0.0
  0
LINE
  5
79
  8
0
 10
225.180306
 20
105.942031
 30
0.0
 11
225.180306
 21
93.942031
 31
0.0
  0
ARC
  5
7A
  8
0
 10
245.230306
 20
93.942031
 30
0.0
 40
1.0
 50
180.0
 51
270.0
  0
ARC
  5
7B
  8
0
 10
257.230306
 20
93.942031
 30
0.0
 40
1.0
 50
270.0
 51
0.0
  0
ARC
  5
7C
  8
0
 10
257.230306
 20
105.942031
 30
0.0
 40
1.0
 50
0.0
 51
90.0
  0
ARC
  5
7D
  8
0
 10
245.230306
 20
105.942031
 30
0.0
 40
1.0
 50
90.0
 51
180.0
  0
LINE
  5
7E
  8
0
 10
245.230306
 20
92.942031
 30
0.0
 11
257.230306
 21
92.942031
 31
0.0
  0
LINE
  5
7F
  8
0
 10
257.230306
 20
106.942031
 30
0.0
 11
245.230306
 21
106.942031
 31
0.0
  0
LINE
  5
80
  8
0
 10
258.230306
 20
93.942031
 30
0.0
 11
258.230306
 21
105.942031
 31
0.0
  0
LINE
  5
81
  8
0
 10
244.230306
 20
105.942031
 30
0.0
 11
244.230306
 21
93.942031
 31
0.0
  0
ARC
  5
82
  8
0
 10
264.280306
 20
93.942031
 30
0.0
 40
1.0
 50
180.0
 51
270.0
  0
ARC
  5
83
  8
0
 10
276.280306
 20
93.942031
 30
0.0
 40
1.0
 50
270.0
 51
0.0
  0
ARC
  5
84
  8
0
 10
276.280306
 20
105.942031
 30
0.0
 40
1.0
 50
0.0
 51
90.0
  0
ARC
  5
85
  8
0
 10
264.280306
 20
105.942031
 30
0.0
 40
1.0
 50
90.0
 51
180.0
  0
LINE
  5
86
  8
0
 10
264.280306
 20
92.942031
 30
0.0
 11
276.280306
 21
92.942031
 31
0.0
  0
LINE
  5
87
  8
0
 10
276.280306
 20
106.942031
 30
0.0
 11
264.280306
 21
106.942031
 31
0.0
  0
LINE
  5
88
  8
0
 10
277.280306
 20
93.942031
 30
0.0
 11
277.280306
 21
105.942031
 31
0.0
  0
LINE
  5
89
  8
0
 10
263.280306
 20
105.942031
 30
0.0
 11
263.280306
 21
93.942031
 31
0.0
  0
ARC
  5
8A
  8
0
 10
283.330306
 20
93.942031
 30
0.0
 40
1.0
 50
180.0
 51
270.0
  0
ARC
  5
8B
  8
0
 10
295.330306
 20
93.942031
 30
0.0
 40
1.0
 50
270.0
 51
0.0
  0
ARC
  5
8C
  8
0
 10
295.330306
 20
105.942031
 30
0.0
 40
1.0
 50
0.0
 51
90.0
  0
ARC
  5
8D
  8
0
 10
283.330306
 20
105.942031
 30
0.0
 40
1.0
 50
90.0
 51
180.0
  0
LINE
  5
8E
  8
0
 10
283.330306
 20
92.942031
 30
0.0
 11
295.330306
 21
92.942031
 31
0.0
  0
LINE
  5
8F
  8
0
 10
295.330306
 20
106.942031
 30
0.0
 11
283.330306
 21
106.942031
 31
0.0
  0
LINE
  5
90
  8
0
 10
296.330306
 20
93.942031
 30
0.0
 11
296.330306
 21
105.942031
 31
0.0
  0
LINE
  5
91
  8
0
 10
282.330306
 20
105.942031
 30
0.0
 11
282.330306
 21
93.942031
 31
0.0
  0
ARC
  5
92
  8
0
 10
11.867806
 20
74.892031
 30
0.0
 40
1.0
 50
180.0
 51
270.0
  0
ARC
  5
93
  8
0
 10
23.867806
 20
74.892031
 30
0.0
 40
1.0
 50
270.0
 51
0.0
  0
ARC
  5
94
  8
0
 10
23.867806
 20
86.892031
 30
0.0
 40
1.0
 50
0.0
 51
90.0
  0
ARC
  5
95
  8
0
 10
11.867806
 20
86.892031
 30
0.0
 40
1.0
 50
90.0
 51
180.0
  0
LINE
  5
96
  8
0
 10
11.867806
 20
73.892031
 30
0.0
 11
23.867806
 21
73.892031
 31
0.0
  0
LINE
  5
97
  8
0
 10
23.867806
 20
87.892031
 30
0.0
 11
11.867806
 21
87.892031
 31
0.0
  0
LINE
  5
98
  8
0
 10
24.867806
 20
74.892031
 30
0.0
 11
24.867806
 21
86.892031
 31
0.0
  0
LINE
  5
99
  8
0
 10
10.867806
 20
86.892031
 30
0.0
 11
10.867806
 21
74.892031
 31
0.0
  0
ARC
  5
9A
  8
0
 10
49.967806
 20
74.892031
 30
0.0
 40
1.0
 50
180.0
 51
270.0
  0
ARC
  5
9B
  8
0
 10
61.967806
 20
74.892031
 30
0.0
 40
1.0
 50
270.0
 51
0.0
  0
ARC
  5
9C
  8
0
 10
61.967806
 20
86.892031
 30
0.0
 40
1.0
 50
0.0
 51
90.0
  0
ARC
  5
9D
  8
0
 10
49.967806
 20
86.892031
 30
0.0
 40
1.0
 50
90.0
 51
180.0
  0
LINE
  5
9E
  8
0
 10
49.967806
 20
73.892031
 30
0.0
 11
61.967806
 21
73.892031
 31
0.0
  0
LINE
  5
9F
  8
0
 10
61.967806
 20
87.892031
 30
0.0
 11
49.967806
 21
87.892031
 31
0.0
  0
LINE
  5
A0
  8
0
 10
62.967806
 20
74.892031
 30
0.0
 11
62.967806
 21
86.892031
 31
0.0
  0
LINE
  5
A1
  8
0
 10
48.967806
 20
86.892031
 30
0.0
 11
48.967806
 21
74.892031
 31
0.0
  0
ARC
  5
A2
  8
0
 10
73.780306
 20
74.892031
 30
0.0
 40
1.0
 50
180.0
 51
270.0
  0
ARC
  5
A3
  8
0
 10
85.780306
 20
74.892031
 30
0.0
 40
1.0
 50
270.0
 51
0.0
  0
ARC
  5
A4
  8
0
 10
85.780306
 20
86.892031
 30
0.0
 40
1.0
 50
0.0
 51
90.0
  0
ARC
  5
A5
  8
0
 10
73.780306
 20
86.892031
 30
0.0
 40
1.0
 50
90.0
 51
180.0
  0
LINE
  5
A6
  8
0
 10
73.780306
 20
73.892031
 30
0.0
 11
85.780306
 21
73.892031
 31
0.0
  0
LINE
  5
A7
  8
0
 10
85.780306
 20
87.892031
 30
0.0
 11
73.780306
 21
87.892031
 31
0.0
  0
LINE
  5
A8
  8
0
 10
86.780306
 20
74.892031
 30
0.0
 11
86.780306
 21
86.892031
 31
0.0
  0
LINE
  5
A9
  8
0
 10
72.780306
 20
86.892031
 30
0.0
 11
72.780306
 21
74.892031
 31
0.0
  0
ARC
  5
AA
  8
0
 10
92.830306
 20
74.892031
 30
0.0
 40
1.0
 50
180.0
 51
270.0
  0
ARC
  5
AB
  8
0
 10
104.830306
 20
74.892031
 30
0.0
 40
1.0
 50
270.0
 51
0.0
  0
ARC
  5
AC
  8
0
 10
104.830306
 20
86.892031
 30
0.0
 40
1.0
 50
0.0
 51
90.0
  0
ARC
  5
AD
  8
0
 10
92.830306
 20
86.892031
 30
0.0
 40
1.0
 50
90.0
 51
180.0
  0
LINE
  5
AE
  8
0
 10
92.830306
 20
73.892031
 30
0.0
 11
104.830306
 21
73.892031
 31
0.0
  0
LINE
  5
AF
  8
0
 10
104.830306
 20
87.892031
 30
0.0
 11
92.830306
 21
87.892031
 31
0.0
  0
LINE
  5
B0
  8
0
 10
105.830306
 20
74.892031
 30
0.0
 11
105.830306
 21
86.892031
 31
0.0
  0
LINE
  5
B1
  8
0
 10
91.830306
 20
86.892031
 30
0.0
 11
91.830306
 21
74.892031
 31
0.0
  0
ARC
  5
B2
  8
0
 10
111.880306
 20
74.892031
 30
0.0
 40
1.0
 50
180.0
 51
270.0
  0
ARC
  5
B3
  8
0
 10
123.880306
 20
74.892031
 30
0.0
 40
1.0
 50
270.0
 51
0.0
  0
ARC
  5
B4
  8
0
 10
123.880306
 20
86.892031
 30
0.0
 40
1.0
 50
0.0
 51
90.0
  0
ARC
  5
B5
  8
0
 10
111.880306
 20
86.892031
 30
0.0
 40
1.0
 50
90.0
 51
180.0
  0
LINE
  5
B6
  8
0
 10
111.880306
 20
73.892031
 30
0.0
 11
123.880306
 21
73.892031
 31
0.0
  0
LINE
  5
B7
  8
0
 10
123.880306
 20
87.892031
 30
0.0
 11
111.880306
 21
87.892031
 31
0.0
  0
LINE
  5
B8
  8
0
 10
124.880306
 20
74.892031
 30
0.0
 11
124.880306
 21
86.892031
 31
0.0
  0
LINE
  5
B9
  8
0
 10
110.880306
 20
86.892031
 30
0.0
 11
110.880306
 21
74.892031
 31
0.0
  0
ARC
  5
BA
  8
0
 10
130.930306
 20
74.892031
 30
0.0
 40
1.0
 50
180.0
 51
270.0
  0
ARC
  5
BB
  8
0
 10
142.930306
 20
74.892031
 30
0.0
 40
1.0
 50
270.0
 51
0.0
  0
ARC
  5
BC
  8
0
 10
142.930306
 20
86.892031
 30
0.0
 40
1.0
 50
0.0
 51
90.0
  0
ARC
  5
BD
  8
0
 10
130.930306
 20
86.892031
 30
0.0
 40
1.0
 50
90.0
 51
180.0
  0
LINE
  5
BE
  8
0
 10
130.930306
 20
73.892031
 30
0.0
 11
142.930306
 21
73.892031
 31
0.0
  0
LINE
  5
BF
  8
0
 10
142.930306
 20
87.892031
 30
0.0
 11
130.930306
 21
87.892031
 31
0.0
  0
LINE
  5
C0
  8
0
 10
143.930306
 20
74.892031
 30
0.0
 11
143.930306
 21
86.892031
 31
0.0
  0
LINE
  5
C1
  8
0
 10
129.930306
 20
86.892031
 30
0.0
 11
129.930306
 21
74.892031
 31
0.0
  0
ARC
  5
C2
  8
0
 10
149.980306
 20
74.892031
 30
0.0
 40
1.0
 50
180.0
 51
270.0
  0
ARC
  5
C3
  8
0
 10
161.980306
 20
74.892031
 30
0.0
 40
1.0
 50
270.0
 51
0.0
  0
ARC
  5
C4
  8
0
 10
161.980306
 20
86.892031
 30
0.0
 40
1.0
 50
0.0
 51
90.0
  0
ARC
  5
C5
  8
0
 10
149.980306
 20
86.892031
 30
0.0
 40
1.0
 50
90.0
 51
180.0
  0
LINE
  5
C6
  8
0
 10
149.980306
 20
73.892031
 30
0.0
 11
161.980306
 21
73.892031
 31
0.0
  0
LINE
  5
C7
  8
0
 10
161.980306
 20
87.892031
 30
0.0
 11
149.980306
 21
87.892031
 31
0.0
  0
LINE
  5
C8
  8
0
 10
162.980306
 20
74.892031
 30
0.0
 11
162.980306
 21
86.892031
 31
0.0
  0
LINE
  5
C9
  8
0
 10
148.980306
 20
86.892031
 30
0.0
 11
148.980306
 21
74.892031
 31
0.0
  0
ARC
  5
CA
  8
0
 10
169.030306
 20
74.892031
 30
0.0
 40
1.0
 50
180.0
 51
270.0
  0
ARC
  5
CB
  8
0
 10
181.030306
 20
74.892031
 30
0.0
 40
1.0
 50
270.0
 51
0.0
  0
ARC
  5
CC
  8
0
 10
181.030306
 20
86.892031
 30
0.0
 40
1.0
 50
0.0
 51
90.0
  0
ARC
  5
CD
  8
0
 10
169.030306
 20
86.892031
 30
0.0
 40
1.0
 50
90.0
 51
180.0
  0
LINE
  5
CE
  8
0
 10
169.030306
 20
73.892031
 30
0.0
 11
181.030306
 21
73.892031
 31
0.0
  0
LINE
  5
CF
  8
0
 10
181.030306
 20
87.892031
 30
0.0
 11
169.030306
 21
87.892031
 31
0.0
  0
LINE
  5
D0
  8
0
 10
182.030306
 20
74.892031
 30
0.0
 11
182.030306
 21
86.892031
 31
0.0
  0
LINE
  5
D1
  8
0
 10
168.030306
 20
86.892031
 30
0.0
 11
168.030306
 21
74.892031
 31
0.0
  0
ARC
  5
D2
  8
0
 10
188.080306
 20
74.892031
 30
0.0
 40
1.0
 50
180.0
 51
270.0
  0
ARC
  5
D3
  8
0
 10
200.080306
 20
74.892031
 30
0.0
 40
1.0
 50
270.0
 51
0.0
  0
ARC
  5
D4
  8
0
 10
200.080306
 20
86.892031
 30
0.0
 40
1.0
 50
0.0
 51
90.0
  0
ARC
  5
D5
  8
0
 10
188.080306
 20
86.892031
 30
0.0
 40
1.0
 50
90.0
 51
180.0
  0
LINE
  5
D6
  8
0
 10
188.080306
 20
73.892031
 30
0.0
 11
200.080306
 21
73.892031
 31
0.0
  0
LINE
  5
D7
  8
0
 10
200.080306
 20
87.892031
 30
0.0
 11
188.080306
 21
87.892031
 31
0.0
  0
LINE
  5
D8
  8
0
 10
201.080306
 20
74.892031
 30
0.0
 11
201.080306
 21
86.892031
 31
0.0
  0
LINE
  5
D9
  8
0
 10
187.080306
 20
86.892031
 30
0.0
 11
187.080306
 21
74.892031
 31
0.0
  0
ARC
  5
DA
  8
0
 10
207.130306
 20
74.892031
 30
0.0
 40
1.0
 50
180.0
 51
270.0
  0
ARC
  5
DB
  8
0
 10
219.130306
 20
74.892031
 30
0.0
 40
1.0
 50
270.0
 51
0.0
  0
ARC
  5
DC
  8
0
 10
219.130306
 20
86.892031
 30
0.0
 40
1.0
 50
0.0
 51
90.0
  0
ARC
  5
DD
  8
0
 10
207.130306
 20
86.892031
 30
0.0
 40
1.0
 50
90.0
 51
180.0
  0
LINE
  5
DE
  8
0
 10
207.130306
 20
73.892031
 30
0.0
 11
219.130306
 21
73.892031
 31
0.0
  0
LINE
  5
DF
  8
0
 10
219.130306
 20
87.892031
 30
0.0
 11
207.130306
 21
87.892031
 31
0.0
  0
LINE
  5
E0
  8
0
 10
220.130306
 20
74.892031
 30
0.0
 11
220.130306
 21
86.892031
 31
0.0
  0
LINE
  5
E1
  8
0
 10
206.130306
 20
86.892031
 30
0.0
 11
206.130306
 21
74.892031
 31
0.0
  0
ARC
  5
E2
  8
0
 10
226.180306
 20
74.892031
 30
0.0
 40
1.0
 50
180.0
 51
270.0
  0
ARC
  5
E3
  8
0
 10
238.180306
 20
74.892031
 30
0.0
 40
1.0
 50
270.0
 51
0.0
  0
ARC
  5
E4
  8
0
 10
238.180306
 20
86.892031
 30
0.0
 40
1.0
 50
0.0
 51
90.0
  0
ARC
  5
E5
  8
0
 10
226.180306
 20
86.892031
 30
0.0
 40
1.0
 50
90.0
 51
180.0
  0
LINE
  5
E6
  8
0
 10
226.180306
 20
73.892031
 30
0.0
 11
238.180306
 21
73.892031
 31
0.0
  0
LINE
  5
E7
  8
0
 10
238.180306
 20
87.892031
 30
0.0
 11
226.180306
 21
87.892031
 31
0.0
  0
LINE
  5
E8
  8
0
 10
239.180306
 20
74.892031
 30
0.0
 11
239.180306
 21
86.892031
 31
0.0
  0
LINE
  5
E9
  8
0
 10
225.180306
 20
86.892031
 30
0.0
 11
225.180306
 21
74.892031
 31
0.0
  0
ARC
  5
EA
  8
0
 10
245.230306
 20
74.892031
 30
0.0
 40
1.0
 50
180.0
 51
270.0
  0
ARC
  5
EB
  8
0
 10
257.230306
 20
74.892031
 30
0.0
 40
1.0
 50
270.0
 51
0.0
  0
ARC
  5
EC
  8
0
 10
257.230306
 20
86.892031
 30
0.0
 40
1.0
 50
0.0
 51
90.0
  0
ARC
  5
ED
  8
0
 10
245.230306
 20
86.892031
 30
0.0
 40
1.0
 50
90.0
 51
180.0
  0
LINE
  5
EE
  8
0
 10
245.230306
 20
73.892031
 30
0.0
 11
257.230306
 21
73.892031
 31
0.0
  0
LINE
  5
EF
  8
0
 10
257.230306
 20
87.892031
 30
0.0
 11
245.230306
 21
87.892031
 31
0.0
  0
LINE
  5
F0
  8
0
 10
258.230306
 20
74.892031
 30
0.0
 11
258.230306
 21
86.892031
 31
0.0
  0
LINE
  5
F1
  8
0
 10
244.230306
 20
86.892031
 30
0.0
 11
244.230306
 21
74.892031
 31
0.0
  0
ARC
  5
F2
  8
0
 10
269.042806
 20
74.892031
 30
0.0
 40
1.0
 50
180.0
 51
270.0
  0
ARC
  5
F3
  8
0
 10
281.042806
 20
74.892031
 30
0.0
 40
1.0
 50
270.0
 51
0.0
  0
ARC
  5
F4
  8
0
 10
281.042806
 20
86.892031
 30
0.0
 40
1.0
 50
0.0
 51
90.0
  0
ARC
  5
F5
  8
0
 10
269.042806
 20
86.892031
 30
0.0
 40
1.0
 50
90.0
 51
180.0
  0
LINE
  5
F6
  8
0
 10
269.042806
 20
73.892031
 30
0.0
 11
281.042806
 21
73.892031
 31
0.0
  0
LINE
  5
F7
  8
0
 10
281.042806
 20
87.892031
 30
0.0
 11
269.042806
 21
87.892031
 31
0.0
  0
LINE
  5
F8
  8
0
 10
282.042806
 20
74.892031
 30
0.0
 11
282.042806
 21
86.892031
 31
0.0
  0
LINE
  5
F9
  8
0
 10
268.042806
 20
86.892031
 30
0.0
 11
268.042806
 21
74.892031
 31
0.0
  0
ARC
  5
FA
  8
0
 10
292.855306
 20
74.892031
 30
0.0
 40
1.0
 50
180.0
 51
270.0
  0
ARC
  5
FB
  8
0
 10
304.855306
 20
74.892031
 30
0.0
 40
1.0
 50
270.0
 51
0.0
  0
ARC
  5
FC
  8
0
 10
304.855306
 20
86.892031
 30
0.0
 40
1.0
 50
0.0
 51
90.0
  0
ARC
  5
FD
  8
0
 10
292.855306
 20
86.892031
 30
0.0
 40
1.0
 50
90.0
 51
180.0
  0
LINE
  5
FE
  8
0
 10
292.855306
 20
73.892031
 30
0.0
 11
304.855306
 21
73.892031
 31
0.0
  0
LINE
  5
FF
  8
0
 10
304.855306
 20
87.892031
 30
0.0
 11
292.855306
 21
87.892031
 31
0.0
  0
LINE
  5
100
  8
0
 10
305.855306
 20
74.892031
 30
0.0
 11
305.855306
 21
86.892031
 31
0.0
  0
LINE
  5
101
  8
0
 10
291.855306
 20
86.892031
 30
0.0
 11
291.855306
 21
74.892031
 31
0.0
  0
ARC
  5
102
  8
0
 10
11.867806
 20
55.842031
 30
0.0
 40
1.0
 50
180.0
 51
270.0
  0
ARC
  5
103
  8
0
 10
23.867806
 20
55.842031
 30
0.0
 40
1.0
 50
270.0
 51
0.0
  0
ARC
  5
104
  8
0
 10
23.867806
 20
67.842031
 30
0.0
 40
1.0
 50
0.0
 51
90.0
  0
ARC
  5
105
  8
0
 10
11.867806
 20
67.842031
 30
0.0
 40
1.0
 50
90.0
 51
180.0
  0
LINE
  5
106
  8
0
 10
11.867806
 20
54.842031
 30
0.0
 11
23.867806
 21
54.842031
 31
0.0
  0
LINE
  5
107
  8
0
 10
23.867806
 20
68.842031
 30
0.0
 11
11.867806
 21
68.842031
 31
0.0
  0
LINE
  5
108
  8
0
 10
24.867806
 20
55.842031
 30
0.0
 11
24.867806
 21
67.842031
 31
0.0
  0
LINE
  5
109
  8
0
 10
10.867806
 20
67.842031
 30
0.0
 11
10.867806
 21
55.842031
 31
0.0
  0
ARC
  5
10A
  8
0
 10
47.586556
 20
55.842031
 30
0.0
 40
1.0
 50
180.0
 51
270.0
  0
ARC
  5
10B
  8
0
 10
59.586556
 20
55.842031
 30
0.0
 40
1.0
 50
270.0
 51
0.0
  0
ARC
  5
10C
  8
0
 10
59.586556
 20
67.842031
 30
0.0
 40
1.0
 50
0.0
 51
90.0
  0
ARC
  5
10D
  8
0
 10
47.586556
 20
67.842031
 30
0.0
 40
1.0
 50
90.0
 51
180.0
  0
LINE
  5
10E
  8
0
 10
47.586556
 20
54.842031
 30
0.0
 11
59.586556
 21
54.842031
 31
0.0
  0
LINE
  5
10F
  8
0
 10
59.586556
 20
68.842031
 30
0.0
 11
47.586556
 21
68.842031
 31
0.0
  0
LINE
  5
110
  8
0
 10
60.586556
 20
55.842031
 30
0.0
 11
60.586556
 21
67.842031
 31
0.0
  0
LINE
  5
111
  8
0
 10
46.586556
 20
67.842031
 30
0.0
 11
46.586556
 21
55.842031
 31
0.0
  0
ARC
  5
112
  8
0
 10
73.780306
 20
55.842031
 30
0.0
 40
1.0
 50
180.0
 51
270.0
  0
ARC
  5
113
  8
0
 10
85.780306
 20
55.842031
 30
0.0
 40
1.0
 50
270.0
 51
0.0
  0
ARC
  5
114
  8
0
 10
85.780306
 20
67.842031
 30
0.0
 40
1.0
 50
0.0
 51
90.0
  0
ARC
  5
115
  8
0
 10
73.780306
 20
67.842031
 30
0.0
 40
1.0
 50
90.0
 51
180.0
  0
LINE
  5
116
  8
0
 10
73.780306
 20
54.842031
 30
0.0
 11
85.780306
 21
54.842031
 31
0.0
  0
LINE
  5
117
  8
0
 10
85.780306
 20
68.842031
 30
0.0
 11
73.780306
 21
68.842031
 31
0.0
  0
LINE
  5
118
  8
0
 10
86.780306
 20
55.842031
 30
0.0
 11
86.780306
 21
67.842031
 31
0.0
  0
LINE
  5
119
  8
0
 10
72.780306
 20
67.842031
 30
0.0
 11
72.780306
 21
55.842031
 31
0.0
  0
ARC
  5
11A
  8
0
 10
92.830306
 20
55.842031
 30
0.0
 40
1.0
 50
180.0
 51
270.0
  0
ARC
  5
11B
  8
0
 10
104.830306
 20
55.842031
 30
0.0
 40
1.0
 50
270.0
 51
0.0
  0
ARC
  5
11C
  8
0
 10
104.830306
 20
67.842031
 30
0.0
 40
1.0
 50
0.0
 51
90.0
  0
ARC
  5
11D
  8
0
 10
92.830306
 20
67.842031
 30
0.0
 40
1.0
 50
90.0
 51
180.0
  0
LINE
  5
11E
  8
0
 10
92.830306
 20
54.842031
 30
0.0
 11
104.830306
 21
54.842031
 31
0.0
  0
LINE
  5
11F
  8
0
 10
104.830306
 20
68.842031
 30
0.0
 11
92.830306
 21
68.842031
 31
0.0
  0
LINE
  5
120
  8
0
 10
105.830306
 20
55.842031
 30
0.0
 11
105.830306
 21
67.842031
 31
0.0
  0
LINE
  5
121
  8
0
 10
91.830306
 20
67.842031
 30
0.0
 11
91.830306
 21
55.842031
 31
0.0
  0
ARC
  5
122
  8
0
 10
111.880306
 20
55.842031
 30
0.0
 40
1.0
 50
180.0
 51
270.0
  0
ARC
  5
123
  8
0
 10
123.880306
 20
55.842031
 30
0.0
 40
1.0
 50
270.0
 51
0.0
  0
ARC
  5
124
  8
0
 10
123.880306
 20
67.842031
 30
0.0
 40
1.0
 50
0.0
 51
90.0
  0
ARC
  5
125
  8
0
 10
111.880306
 20
67.842031
 30
0.0
 40
1.0
 50
90.0
 51
180.0
  0
LINE
  5
126
  8
0
 10
111.880306
 20
54.842031
 30
0.0
 11
123.880306
 21
54.842031
 31
0.0
  0
LINE
  5
127
  8
0
 10
123.880306
 20
68.842031
 30
0.0
 11
111.880306
 21
68.842031
 31
0.0
  0
LINE
  5
128
  8
0
 10
124.880306
 20
55.842031
 30
0.0
 11
124.880306
 21
67.842031
 31
0.0
  0
LINE
  5
129
  8
0
 10
110.880306
 20
67.842031
 30
0.0
 11
110.880306
 21
55.842031
 31
0.0
  0
ARC
  5
12A
  8
0
 10
130.930306
 20
55.842031
 30
0.0
 40
1.0
 50
180.0
 51
270.0
  0
ARC
  5
12B
  8
0
 10
142.930306
 20
55.842031
 30
0.0
 40
1.0
 50
270.0
 51
0.0
  0
ARC
  5
12C
  8
0
 10
142.930306
 20
67.842031
 30
0.0
 40
1.0
 50
0.0
 51
90.0
  0
ARC
  5
12D
  8
0
 10
130.930306
 20
67.842031
 30
0.0
 40
1.0
 50
90.0
 51
180.0
  0
LINE
  5
12E
  8
0
 10
130.930306
 20
54.842031
 30
0.0
 11
142.930306
 21
54.842031
 31
0.0
  0
LINE
  5
12F
  8
0
 10
142.930306
 20
68.842031
 30
0.0
 11
130.930306
 21
68.842031
 31
0.0
  0
LINE
  5
130
  8
0
 10
143.930306
 20
55.842031
 30
0.0
 11
143.930306
 21
67.842031
 31
0.0
  0
LINE
  5
131
  8
0
 10
129.930306
 20
67.842031
 30
0.0
 11
129.930306
 21
55.842031
 31
0.0
  0
ARC
  5
132
  8
0
 10
149.980306
 20
55.842031
 30
0.0
 40
1.0
 50
180.0
 51
270.0
  0
ARC
  5
133
  8
0
 10
161.980306
 20
55.842031
 30
0.0
 40
1.0
 50
270.0
 51
0.0
  0
ARC
  5
134
  8
0
 10
161.980306
 20
67.842031
 30
0.0
 40
1.0
 50
0.0
 51
90.0
  0
ARC
  5
135
  8
0
 10
149.980306
 20
67.842031
 30
0.0
 40
1.0
 50
90.0
 51
180.0
  0
LINE
  5
136
  8
0
 10
149.980306
 20
54.842031
 30
0.0
 11
161.980306
 21
54.842031
 31
0.0
  0
LINE
  5
137
  8
0
 10
161.980306
 20
68.842031
 30
0.0
 11
149.980306
 21
68.842031
 31
0.0
  0
LINE
  5
138
  8
0
 10
162.980306
 20
55.842031
 30
0.0
 11
162.980306
 21
67.842031
 31
0.0
  0
LINE
  5
139
  8
0
 10
148.980306
 20
67.842031
 30
0.0
 11
148.980306
 21
55.842031
 31
0.0
  0
ARC
  5
13A
  8
0
 10
169.030306
 20
55.842031
 30
0.0
 40
1.0
 50
180.0
 51
270.0
  0
ARC
  5
13B
  8
0
 10
181.030306
 20
55.842031
 30
0.0
 40
1.0
 50
270.0
 51
0.0
  0
ARC
  5
13C
  8
0
 10
181.030306
 20
67.842031
 30
0.0
 40
1.0
 50
0.0
 51
90.0
  0
ARC
  5
13D
  8
0
 10
169.030306
 20
67.842031
 30
0.0
 40
1.0
 50
90.0
 51
180.0
  0
LINE
  5
13E
  8
0
 10
169.030306
 20
54.842031
 30
0.0
 11
181.030306
 21
54.842031
 31
0.0
  0
LINE
  5
13F
  8
0
 10
181.030306
 20
68.842031
 30
0.0
 11
169.030306
 21
68.842031
 31
0.0
  0
LINE
  5
140
  8
0
 10
182.030306
 20
55.842031
 30
0.0
 11
182.030306
 21
67.842031
 31
0.0
  0
LINE
  5
141
  8
0
 10
168.030306
 20
67.842031
 30
0.0
 11
168.030306
 21
55.842031
 31
0.0
  0
ARC
  5
142
  8
0
 10
188.080306
 20
55.842031
 30
0.0
 40
1.0
 50
180.0
 51
270.0
  0
ARC
  5
143
  8
0
 10
200.080306
 20
55.842031
 30
0.0
 40
1.0
 50
270.0
 51
0.0
  0
ARC
  5
144
  8
0
 10
200.080306
 20
67.842031
 30
0.0
 40
1.0
 50
0.0
 51
90.0
  0
ARC
  5
145
  8
0
 10
188.080306
 20
67.842031
 30
0.0
 40
1.0
 50
90.0
 51
180.0
  0
LINE
  5
146
  8
0
 10
188.080306
 20
54.842031
 30
0.0
 11
200.080306
 21
54.842031
 31
0.0
  0
LINE
  5
147
  8
0
 10
200.080306
 20
68.842031
 30
0.0
 11
188.080306
 21
68.842031
 31
0.0
  0
LINE
  5
148
  8
0
 10
201.080306
 20
55.842031
 30
0.0
 11
201.080306
 21
67.842031
 31
0.0
  0
LINE
  5
149
  8
0
 10
187.080306
 20
67.842031
 30
0.0
 11
187.080306
 21
55.842031
 31
0.0
  0
ARC
  5
14A
  8
0
 10
207.130306
 20
55.842031
 30
0.0
 40
1.0
 50
180.0
 51
270.0
  0
ARC
  5
14B
  8
0
 10
219.130306
 20
55.842031
 30
0.0
 40
1.0
 50
270.0
 51
0.0
  0
ARC
  5
14C
  8
0
 10
219.130306
 20
67.842031
 30
0.0
 40
1.0
 50
0.0
 51
90.0
  0
ARC
  5
14D
  8
0
 10
207.130306
 20
67.842031
 30
0.0
 40
1.0
 50
90.0
 51
180.0
  0
LINE
  5
14E
  8
0
 10
207.130306
 20
54.842031
 30
0.0
 11
219.130306
 21
54.842031
 31
0.0
  0
LINE
  5
14F
  8
0
 10
219.130306
 20
68.842031
 30
0.0
 11
207.130306
 21
68.842031
 31
0.0
  0
LINE
  5
150
  8
0
 10
220.130306
 20
55.842031
 30
0.0
 11
220.130306
 21
67.842031
 31
0.0
  0
LINE
  5
151
  8
0
 10
206.130306
 20
67.842031
 30
0.0
 11
206.130306
 21
55.842031
 31
0.0
  0
ARC
  5
152
  8
0
 10
226.180306
 20
55.842031
 30
0.0
 40
1.0
 50
180.0
 51
270.0
  0
ARC
  5
153
  8
0
 10
238.180306
 20
55.842031
 30
0.0
 40
1.0
 50
270.0
 51
0.0
  0
ARC
  5
154
  8
0
 10
238.180306
 20
67.842031
 30
0.0
 40
1.0
 50
0.0
 51
90.0
  0
ARC
  5
155
  8
0
 10
226.180306
 20
67.842031
 30
0.0
 40
1.0
 50
90.0
 51
180.0
  0
LINE
  5
156
  8
0
 10
226.180306
 20
54.842031
 30
0.0
 11
238.180306
 21
54.842031
 31
0.0
  0
LINE
  5
157
  8
0
 10
238.180306
 20
68.842031
 30
0.0
 11
226.180306
 21
68.842031
 31
0.0
  0
LINE
  5
158
  8
0
 10
239.180306
 20
55.842031
 30
0.0
 11
239.180306
 21
67.842031
 31
0.0
  0
LINE
  5
159
  8
0
 10
225.180306
 20
67.842031
 30
0.0
 11
225.180306
 21
55.842031
 31
0.0
  0
ARC
  5
15A
  8
0
 10
245.230306
 20
55.842031
 30
0.0
 40
1.0
 50
180.0
 51
270.0
  0
ARC
  5
15B
  8
0
 10
257.230306
 20
55.842031
 30
0.0
 40
1.0
 50
270.0
 51
0.0
  0
ARC
  5
15C
  8
0
 10
257.230306
 20
67.842031
 30
0.0
 40
1.0
 50
0.0
 51
90.0
  0
ARC
  5
15D
  8
0
 10
245.230306
 20
67.842031
 30
0.0
 40
1.0
 50
90.0
 51
180.0
  0
LINE
  5
15E
  8
0
 10
245.230306
 20
54.842031
 30
0.0
 11
257.230306
 21
54.842031
 31
0.0
  0
LINE
  5
15F
  8
0
 10
257.230306
 20
68.842031
 30
0.0
 11
245.230306
 21
68.842031
 31
0.0
  0
LINE
  5
160
  8
0
 10
258.230306
 20
55.842031
 30
0.0
 11
258.230306
 21
67.842031
 31
0.0
  0
LINE
  5
161
  8
0
 10
244.230306
 20
67.842031
 30
0.0
 11
244.230306
 21
55.842031
 31
0.0
  0
ARC
  5
162
  8
0
 10
264.280306
 20
55.842031
 30
0.0
 40
1.0
 50
180.0
 51
270.0
  0
ARC
  5
163
  8
0
 10
276.280306
 20
55.842031
 30
0.0
 40
1.0
 50
270.0
 51
0.0
  0
ARC
  5
164
  8
0
 10
276.280306
 20
67.842031
 30
0.0
 40
1.0
 50
0.0
 51
90.0
  0
ARC
  5
165
  8
0
 10
264.280306
 20
67.842031
 30
0.0
 40
1.0
 50
90.0
 51
180.0
  0
LINE
  5
166
  8
0
 10
264.280306
 20
54.842031
 30
0.0
 11
276.280306
 21
54.842031
 31
0.0
  0
LINE
  5
167
  8
0
 10
276.280306
 20
68.842031
 30
0.0
 11
264.280306
 21
68.842031
 31
0.0
  0
LINE
  5
168
  8
0
 10
277.280306
 20
55.842031
 30
0.0
 11
277.280306
 21
67.842031
 31
0.0
  0
LINE
  5
169
  8
0
 10
263.280306
 20
67.842031
 30
0.0
 11
263.280306
 21
55.842031
 31
0.0
  0
ARC
  5
184
  8
0
 10
11.867806
 20
36.792031
 30
0.0
 40
1.0
 50
180.0
 51
270.0
  0
ARC
  5
185
  8
0
 10
23.867806
 20
36.792031
 30
0.0
 40
1.0
 50
270.0
 51
0.0
  0
ARC
  5
186
  8
0
 10
23.867806
 20
48.792031
 30
0.0
 40
1.0
 50
0.0
 51
90.0
  0
ARC
  5
187
  8
0
 10
11.867806
 20
48.792031
 30
0.0
 40
1.0
 50
90.0
 51
180.0
  0
LINE
  5
188
  8
0
 10
11.867806
 20
35.792031
 30
0.0
 11
23.867806
 21
35.792031
 31
0.0
  0
LINE
  5
189
  8
0
 10
23.867806
 20
49.792031
 30
0.0
 11
11.867806
 21
49.792031
 31
0.0
  0
LINE
  5
18A
  8
0
 10
24.867806
 20
36.792031
 30
0.0
 11
24.867806
 21
48.792031
 31
0.0
  0
LINE
  5
18B
  8
0
 10
10.867806
 20
48.792031
 30
0.0
 11
10.867806
 21
36.792031
 31
0.0
  0
ARC
  5
1A6
  8
0
 10
73.780306
 20
36.792031
 30
0.0
 40
1.0
 50
180.0
 51
270.0
  0
ARC
  5
1A7
  8
0
 10
85.780306
 20
36.792031
 30
0.0
 40
1.0
 50
270.0
 51
0.0
  0
ARC
  5
1A8
  8
0
 10
85.780306
 20
48.792031
 30
0.0
 40
1.0
 50
0.0
 51
90.0
  0
ARC
  5
1A9
  8
0
 10
73.780306
 20
48.792031
 30
0.0
 40
1.0
 50
90.0
 51
180.0
  0
LINE
  5
1AA
  8
0
 10
73.780306
 20
35.792031
 30
0.0
 11
85.780306
 21
35.792031
 31
0.0
  0
LINE
  5
1AB
  8
0
 10
85.780306
 20
49.792031
 30
0.0
 11
73.780306
 21
49.792031
 31
0.0
  0
LINE
  5
1AC
  8
0
 10
86.780306
 20
36.792031
 30
0.0
 11
86.780306
 21
48.792031
 31
0.0
  0
LINE
  5
1AD
  8
0
 10
72.780306
 20
48.792031
 30
0.0
 11
72.780306
 21
36.792031
 31
0.0
  0
ARC
  5
1AE
  8
0
 10
92.830306
 20
36.792031
 30
0.0
 40
1.0
 50
180.0
 51
270.0
  0
ARC
  5
1AF
  8
0
 10
104.830306
 20
36.792031
 30
0.0
 40
1.0
 50
270.0
 51
0.0
  0
ARC
  5
1B0
  8
0
 10
104.830306
 20
48.792031
 30
0.0
 40
1.0
 50
0.0
 51
90.0
  0
ARC
  5
1B1
  8
0
 10
92.830306
 20
48.792031
 30
0.0
 40
1.0
 50
90.0
 51
180.0
  0
LINE
  5
1B2
  8
0
 10
92.830306
 20
35.792031
 30
0.0
 11
104.830306
 21
35.792031
 31
0.0
  0
LINE
  5
1B3
  8
0
 10
104.830306
 20
49.792031
 30
0.0
 11
92.830306
 21
49.792031
 31
0.0
  0
LINE
  5
1B4
  8
0
 10
105.830306
 20
36.792031
 30
0.0
 11
105.830306
 21
48.792031
 31
0.0
  0
LINE
  5
1B5
  8
0
 10
91.830306
 20
48.792031
 30
0.0
 11
91.830306
 21
36.792031
 31
0.0
  0
ARC
  5
1B6
  8
0
 10
111.880306
 20
36.792031
 30
0.0
 40
1.0
 50
180.0
 51
270.0
  0
ARC
  5
1B7
  8
0
 10
123.880306
 20
36.792031
 30
0.0
 40
1.0
 50
270.0
 51
0.0
  0
ARC
  5
1B8
  8
0
 10
123.880306
 20
48.792031
 30
0.0
 40
1.0
 50
0.0
 51
90.0
  0
ARC
  5
1B9
  8
0
 10
111.880306
 20
48.792031
 30
0.0
 40
1.0
 50
90.0
 51
180.0
  0
LINE
  5
1BA
  8
0
 10
111.880306
 20
35.792031
 30
0.0
 11
123.880306
 21
35.792031
 31
0.0
  0
LINE
  5
1BB
  8
0
 10
123.880306
 20
49.792031
 30
0.0
 11
111.880306
 21
49.792031
 31
0.0
  0
LINE
  5
1BC
  8
0
 10
124.880306
 20
36.792031
 30
0.0
 11
124.880306
 21
48.792031
 31
0.0
  0
LINE
  5
1BD
  8
0
 10
110.880306
 20
48.792031
 30
0.0
 11
110.880306
 21
36.792031
 31
0.0
  0
ARC
  5
1BE
  8
0
 10
130.930306
 20
36.792031
 30
0.0
 40
1.0
 50
180.0
 51
270.0
  0
ARC
  5
1BF
  8
0
 10
142.930306
 20
36.792031
 30
0.0
 40
1.0
 50
270.0
 51
0.0
  0
ARC
  5
1C0
  8
0
 10
142.930306
 20
48.792031
 30
0.0
 40
1.0
 50
0.0
 51
90.0
  0
ARC
  5
1C1
  8
0
 10
130.930306
 20
48.792031
 30
0.0
 40
1.0
 50
90.0
 51
180.0
  0
LINE
  5
1C2
  8
0
 10
130.930306
 20
35.792031
 30
0.0
 11
142.930306
 21
35.792031
 31
0.0
  0
LINE
  5
1C3
  8
0
 10
142.930306
 20
49.792031
 30
0.0
 11
130.930306
 21
49.792031
 31
0.0
  0
LINE
  5
1C4
  8
0
 10
143.930306
 20
36.792031
 30
0.0
 11
143.930306
 21
48.792031
 31
0.0
  0
LINE
  5
1C5
  8
0
 10
129.930306
 20
48.792031
 30
0.0
 11
129.930306
 21
36.792031
 31
0.0
  0
ARC
  5
1C6
  8
0
 10
149.980306
 20
36.792031
 30
0.0
 40
1.0
 50
180.0
 51
270.0
  0
ARC
  5
1C7
  8
0
 10
161.980306
 20
36.792031
 30
0.0
 40
1.0
 50
270.0
 51
0.0
  0
ARC
  5
1C8
  8
0
 10
161.980306
 20
48.792031
 30
0.0
 40
1.0
 50
0.0
 51
90.0
  0
ARC
  5
1C9
  8
0
 10
149.980306
 20
48.792031
 30
0.0
 40
1.0
 50
90.0
 51
180.0
  0
LINE
  5
1CA
  8
0
 10
149.980306
 20
35.792031
 30
0.0
 11
161.980306
 21
35.792031
 31
0.0
  0
LINE
  5
1CB
  8
0
 10
161.980306
 20
49.792031
 30
0.0
 11
149.980306
 21
49.792031
 31
0.0
  0
LINE
  5
1CC
  8
0
 10
162.980306
 20
36.792031
 30
0.0
 11
162.980306
 21
48.792031
 31
0.0
  0
LINE
  5
1CD
  8
0
 10
148.980306
 20
48.792031
 30
0.0
 11
148.980306
 21
36.792031
 31
0.0
  0
ARC
  5
1CE
  8
0
 10
169.030306
 20
36.792031
 30
0.0
 40
1.0
 50
180.0
 51
270.0
  0
ARC
  5
1CF
  8
0
 10
181.030306
 20
36.792031
 30
0.0
 40
1.0
 50
270.0
 51
0.0
  0
ARC
  5
1D0
  8
0
 10
181.030306
 20
48.792031
 30
0.0
 40
1.0
 50
0.0
 51
90.0
  0
ARC
  5
1D1
  8
0
 10
169.030306
 20
48.792031
 30
0.0
 40
1.0
 50
90.0
 51
180.0
  0
LINE
  5
1D2
  8
0
 10
169.030306
 20
35.792031
 30
0.0
 11
181.030306
 21
35.792031
 31
0.0
  0
LINE
  5
1D3
  8
0
 10
181.030306
 20
49.792031
 30
0.0
 11
169.030306
 21
49.792031
 31
0.0
  0
LINE
  5
1D4
  8
0
 10
182.030306
 20
36.792031
 30
0.0
 11
182.030306
 21
48.792031
 31
0.0
  0
LINE
  5
1D5
  8
0
 10
168.030306
 20
48.792031
 30
0.0
 11
168.030306
 21
36.792031
 31
0.0
  0
ARC
  5
1D6
  8
0
 10
188.080306
 20
36.792031
 30
0.0
 40
1.0
 50
180.0
 51
270.0
  0
ARC
  5
1D7
  8
0
 10
200.080306
 20
36.792031
 30
0.0
 40
1.0
 50
270.0
 51
0.0
  0
ARC
  5
1D8
  8
0
 10
200.080306
 20
48.792031
 30
0.0
 40
1.0
 50
0.0
 51
90.0
  0
ARC
  5
1D9
  8
0
 10
188.080306
 20
48.792031
 30
0.0
 40
1.0
 50
90.0
 51
180.0
  0
LINE
  5
1DA
  8
0
 10
188.080306
 20
35.792031
 30
0.0
 11
200.080306
 21
35.792031
 31
0.0
  0
LINE
  5
1DB
  8
0
 10
200.080306
 20
49.792031
 30
0.0
 11
188.080306
 21
49.792031
 31
0.0
  0
LINE
  5
1DC
  8
0
 10
201.080306
 20
36.792031
 30
0.0
 11
201.080306
 21
48.792031
 31
0.0
  0
LINE
  5
1DD
  8
0
 10
187.080306
 20
48.792031
 30
0.0
 11
187.080306
 21
36.792031
 31
0.0
  0
ARC
  5
1DE
  8
0
 10
207.130306
 20
36.792031
 30
0.0
 40
1.0
 50
180.0
 51
270.0
  0
ARC
  5
1DF
  8
0
 10
219.130306
 20
36.792031
 30
0.0
 40
1.0
 50
270.0
 51
0.0
  0
ARC
  5
1E0
  8
0
 10
219.130306
 20
48.792031
 30
0.0
 40
1.0
 50
0.0
 51
90.0
  0
ARC
  5
1E1
  8
0
 10
207.130306
 20
48.792031
 30
0.0
 40
1.0
 50
90.0
 51
180.0
  0
LINE
  5
1E2
  8
0
 10
207.130306
 20
35.792031
 30
0.0
 11
219.130306
 21
35.792031
 31
0.0
  0
LINE
  5
1E3
  8
0
 10
219.130306
 20
49.792031
 30
0.0
 11
207.130306
 21
49.792031
 31
0.0
  0
LINE
  5
1E4
  8
0
 10
220.130306
 20
36.792031
 30
0.0
 11
220.130306
 21
48.792031
 31
0.0
  0
LINE
  5
1E5
  8
0
 10
206.130306
 20
48.792031
 30
0.0
 11
206.130306
 21
36.792031
 31
0.0
  0
ARC
  5
1E6
  8
0
 10
226.180306
 20
36.792031
 30
0.0
 40
1.0
 50
180.0
 51
270.0
  0
ARC
  5
1E7
  8
0
 10
238.180306
 20
36.792031
 30
0.0
 40
1.0
 50
270.0
 51
0.0
  0
ARC
  5
1E8
  8
0
 10
238.180306
 20
48.792031
 30
0.0
 40
1.0
 50
0.0
 51
90.0
  0
ARC
  5
1E9
  8
0
 10
226.180306
 20
48.792031
 30
0.0
 40
1.0
 50
90.0
 51
180.0
  0
LINE
  5
1EA
  8
0
 10
226.180306
 20
35.792031
 30
0.0
 11
238.180306
 21
35.792031
 31
0.0
  0
LINE
  5
1EB
  8
0
 10
238.180306
 20
49.792031
 30
0.0
 11
226.180306
 21
49.792031
 31
0.0
  0
LINE
  5
1EC
  8
0
 10
239.180306
 20
36.792031
 30
0.0
 11
239.180306
 21
48.792031
 31
0.0
  0
LINE
  5
1ED
  8
0
 10
225.180306
 20
48.792031
 30
0.0
 11
225.180306
 21
36.792031
 31
0.0
  0
ARC
  5
1EE
  8
0
 10
245.230306
 20
36.792031
 30
0.0
 40
1.0
 50
180.0
 51
270.0
  0
ARC
  5
1EF
  8
0
 10
257.230306
 20
36.792031
 30
0.0
 40
1.0
 50
270.0
 51
0.0
  0
ARC
  5
1F0
  8
0
 10
257.230306
 20
48.792031
 30
0.0
 40
1.0
 50
0.0
 51
90.0
  0
ARC
  5
1F1
  8
0
 10
245.230306
 20
48.792031
 30
0.0
 40
1.0
 50
90.0
 51
180.0
  0
LINE
  5
1F2
  8
0
 10
245.230306
 20
35.792031
 30
0.0
 11
257.230306
 21
35.792031
 31
0.0
  0
LINE
  5
1F3
  8
0
 10
257.230306
 20
49.792031
 30
0.0
 11
245.230306
 21
49.792031
 31
0.0
  0
LINE
  5
1F4
  8
0
 10
258.230306
 20
36.792031
 30
0.0
 11
258.230306
 21
48.792031
 31
0.0
  0
LINE
  5
1F5
  8
0
 10
244.230306
 20
48.792031
 30
0.0
 11
244.230306
 21
36.792031
 31
0.0
  0
ARC
  5
1F6
  8
0
 10
271.424056
 20
36.792031
 30
0.0
 40
1.0
 50
180.0
 51
270.0
  0
ARC
  5
1F7
  8
0
 10
283.424056
 20
36.792031
 30
0.0
 40
1.0
 50
270.0
 51
0.0
  0
ARC
  5
1F8
  8
0
 10
283.424056
 20
48.792031
 30
0.0
 40
1.0
 50
0.0
 51
90.0
  0
ARC
  5
1F9
  8
0
 10
271.424056
 20
48.792031
 30
0.0
 40
1.0
 50
90.0
 51
180.0
  0
LINE
  5
1FA
  8
0
 10
271.424056
 20
35.792031
 30
0.0
 11
283.424056
 21
35.792031
 31
0.0
  0
LINE
  5
1FB
  8
0
 10
283.424056
 20
49.792031
 30
0.0
 11
271.424056
 21
49.792031
 31
0.0
  0
LINE
  5
1FC
  8
0
 10
284.424056
 20
36.792031
 30
0.0
 11
284.424056
 21
48.792031
 31
0.0
  0
LINE
  5
1FD
  8
0
 10
270.424056
 20
48.792031
 30
0.0
 11
270.424056
 21
36.792031
 31
0.0
  0
ARC
  5
1FE
  8
0
 10
297.617806
 20
36.792031
 30
0.0
 40
1.0
 50
180.0
 51
270.0
  0
ARC
  5
1FF
  8
0
 10
309.617806
 20
36.792031
 30
0.0
 40
1.0
 50
270.0
 51
0.0
  0
ARC
  5
200
  8
0
 10
309.617806
 20
48.792031
 30
0.0
 40
1.0
 50
0.0
 51
90.0
  0
ARC
  5
201
  8
0
 10
297.617806
 20
48.792031
 30
0.0
 40
1.0
 50
90.0
 51
180.0
  0
LINE
  5
202
  8
0
 10
297.617806
 20
35.792031
 30
0.0
 11
309.617806
 21
35.792031
 31
0.0
  0
LINE
  5
203
  8
0
 10
309.617806
 20
49.792031
 30
0.0
 11
297.617806
 21
49.792031
 31
0.0
  0
LINE
  5
204
  8
0
 10
310.617806
 20
36.792031
 30
0.0
 11
310.617806
 21
48.792031
 31
0.0
  0
LINE
  5
205
  8
0
 10
296.617806
 20
48.792031
 30
0.0
 11
296.617806
 21
36.792031
 31
0.0
  0
ARC
  5
206
  8
0
 10
76.161556
 20
17.742031
 30
0.0
 40
1.0
 50
180.0
 51
270.0
  0
ARC
  5
207
  8
0
 10
88.161556
 20
17.742031
 30
0.0
 40
1.0
 50
270.0
 51
0.0
  0
ARC
  5
208
  8
0
 10
88.161556
 20
29.742031
 30
0.0
 40
1.0
 50
0.0
 51
90.0
  0
ARC
  5
209
  8
0
 10
76.161556
 20
29.742031
 30
0.0
 40
1.0
 50
90.0
 51
180.0
  0
LINE
  5
20A
  8
0
 10
76.161556
 20
16.742031
 30
0.0
 11
88.161556
 21
16.742031
 31
0.0
  0
LINE
  5
20B
  8
0
 10
88.161556
 20
30.742031
 30
0.0
 11
76.161556
 21
30.742031
 31
0.0
  0
LINE
  5
20C
  8
0
 10
89.161556
 20
17.742031
 30
0.0
 11
89.161556
 21
29.742031
 31
0.0
  0
LINE
  5
20D
  8
0
 10
75.161556
 20
29.742031
 30
0.0
 11
75.161556
 21
17.742031
 31
0.0
  0
ARC
  5
20E
  8
0
 10
102.355306
 20
17.742031
 30
0.0
 40
1.0
 50
180.0
 51
270.0
  0
ARC
  5
20F
  8
0
 10
114.355306
 20
17.742031
 30
0.0
 40
1.0
 50
270.0
 51
0.0
  0
ARC
  5
210
  8
0
 10
114.355306
 20
29.742031
 30
0.0
 40
1.0
 50
0.0
 51
90.0
  0
ARC
  5
211
  8
0
 10
102.355306
 20
29.742031
 30
0.0
 40
1.0
 50
90.0
 51
180.0
  0
LINE
  5
212
  8
0
 10
102.355306
 20
16.742031
 30
0.0
 11
114.355306
 21
16.742031
 31
0.0
  0
LINE
  5
213
  8
0
 10
114.355306
 20
30.742031
 30
0.0
 11
102.355306
 21
30.742031
 31
0.0
  0
LINE
  5
214
  8
0
 10
115.355306
 20
17.742031
 30
0.0
 11
115.355306
 21
29.742031
 31
0.0
  0
LINE
  5
215
  8
0
 10
101.355306
 20
29.742031
 30
0.0
 11
101.355306
 21
17.742031
 31
0.0
  0
ARC
  5
216
  8
0
 10
128.549056
 20
17.742031
 30
0.0
 40
1.0
 50
180.0
 51
270.0
  0
ARC
  5
217
  8
0
 10
140.549056
 20
17.742031
 30
0.0
 40
1.0
 50
270.0
 51
0.0
  0
ARC
  5
218
  8
0
 10
140.549056
 20
29.742031
 30
0.0
 40
1.0
 50
0.0
 51
90.0
  0
ARC
  5
219
  8
0
 10
128.549056
 20
29.742031
 30
0.0
 40
1.0
 50
90.0
 51
180.0
  0
LINE
  5
21A
  8
0
 10
128.549056
 20
16.742031
 30
0.0
 11
140.549056
 21
16.742031
 31
0.0
  0
LINE
  5
21B
  8
0
 10
140.549056
 20
30.742031
 30
0.0
 11
128.549056
 21
30.742031
 31
0.0
  0
LINE
  5
21C
  8
0
 10
141.549056
 20
17.742031
 30
0.0
 11
141.549056
 21
29.742031
 31
0.0
  0
LINE
  5
21D
  8
0
 10
127.549056
 20
29.742031
 30
0.0
 11
127.549056
 21
17.742031
 31
0.0
  0
ARC
  5
238
  8
0
 10
190.461556
 20
17.742031
 30
0.0
 40
1.0
 50
180.0
 51
270.0
  0
ARC
  5
239
  8
0
 10
202.461556
 20
17.742031
 30
0.0
 40
1.0
 50
270.0
 51
0.0
  0
ARC
  5
23A
  8
0
 10
202.461556
 20
29.742031
 30
0.0
 40
1.0
 50
0.0
 51
90.0
  0
ARC
  5
23B
  8
0
 10
190.461556
 20
29.742031
 30
0.0
 40
1.0
 50
90.0
 51
180.0
  0
LINE
  5
23C
  8
0
 10
190.461556
 20
16.742031
 30
0.0
 11
202.461556
 21
16.742031
 31
0.0
  0
LINE
  5
23D
  8
0
 10
202.461556
 20
30.742031
 30
0.0
 11
190.461556
 21
30.742031
 31
0.0
  0
LINE
  5
23E
  8
0
 10
203.461556
 20
17.742031
 30
0.0
 11
203.461556
 21
29.742031
 31
0.0
  0
LINE
  5
23F
  8
0
 10
189.461556
 20
29.742031
 30
0.0
 11
189.461556
 21
17.742031
 31
0.0
  0
ARC
  5
240
  8
0
 10
216.655306
 20
17.742031
 30
0.0
 40
1.0
 50
180.0
 51
270.0
  0
ARC
  5
241
  8
0
 10
228.655306
 20
17.742031
 30
0.0
 40
1.0
 50
270.0
 51
0.0
  0
ARC
  5
242
  8
0
 10
228.655306
 20
29.742031
 30
0.0
 40
1.0
 50
0.0
 51
90.0
  0
ARC
  5
243
  8
0
 10
216.655306
 20
29.742031
 30
0.0
 40
1.0
 50
90.0
 51
180.0
  0
LINE
  5
244
  8
0
 10
216.655306
 20
16.742031
 30
0.0
 11
228.655306
 21
16.742031
 31
0.0
  0
LINE
  5
245
  8
0
 10
228.655306
 20
30.742031
 30
0.0
 11
216.655306
 21
30.742031
 31
0.0
  0
LINE
  5
246
  8
0
 10
229.655306
 20
17.742031
 30
0.0
 11
229.655306
 21
29.742031
 31
0.0
  0
LINE
  5
247
  8
0
 10
215.655306
 20
29.742031
 30
0.0
 11
215.655306
 21
17.742031
 31
0.0
  0
ARC
  5
248
  8
0
 10
242.849056
 20
17.742031
 30
0.0
 40
1.0
 50
180.0
 51
270.0
  0
ARC
  5
249
  8
0
 10
254.849056
 20
17.742031
 30
0.0
 40
1.0
 50
270.0
 51
0.0
  0
ARC
  5
24A
  8
0
 10
254.849056
 20
29.742031
 30
0.0
 40
1.0
 50
0.0
 51
90.0
  0
ARC
  5
24B
  8
0
 10
242.849056
 20
29.742031
 30
0.0
 40
1.0
 50
90.0
 51
180.0
  0
LINE
  5
24C
  8
0
 10
242.849056
 20
16.742031
 30
0.0
 11
254.849056
 21
16.742031
 31
0.0
  0
LINE
  5
24D
  8
0
 10
254.849056
 20
30.742031
 30
0.0
 11
242.849056
 21
30.742031
 31
0.0
  0
LINE
  5
24E
  8
0
 10
255.849056
 20
17.742031
 30
0.0
 11
255.849056
 21
29.742031
 31
0.0
  0
LINE
  5
24F
  8
0
 10
241.849056
 20
29.742031
 30
0.0
 11
241.849056
 21
17.742031
 31
0.0
  0
POLYLINE
  5
2DF
  8
0
 62
     4
 66
     1
 10
0.0
 20
0.0
 30
0.0
 70
     1
  0
VERTEX
  5
2911
  8
0
 62
     4
 10
51.205306
 20
109.467031
 30
0.0
  0
VERTEX
  5
2912
  8
0
 62
     4
 10
70.255306
 20
109.467031
 30
0.0
  0
VERTEX
  5
2913
  8
0
 62
     4
 10
70.255306
 20
90.417031
 30
0.0
  0
VERTEX
  5
2914
  8
0
 62
     4
 10
51.205306
 20
90.417031
 30
0.0
  0
SEQEND
  5
2B25
  8
0
 62
     4
  0
POLYLINE
  5
2E6
  8
0
 62
     4
 66
     1
 10
0.0
 20
0.0
 30
0.0
 70
     1
  0
VERTEX
  5
2915
  8
0
 62
     4
 10
70.255306
 20
109.467031
 30
0.0
  0
VERTEX
  5
2916
  8
0
 62
     4
 10
89.305306
 20
109.467031
 30
0.0
  0
VERTEX
  5
2917
  8
0
 62
     4
 10
89.305306
 20
90.417031
 30
0.0
  0
VERTEX
  5
2918
  8
0
 62
     4
 10
70.255306
 20
90.417031
 30
0.0
  0
SEQEND
  5
2B26
  8
0
 62
     4
  0
POLYLINE
  5
2E7
  8
0
 62
     4
 66
     1
 10
0.0
 20
0.0
 30
0.0
 70
     1
  0
VERTEX
  5
2919
  8
0
 62
     4
 10
89.305306
 20
109.467031
 30
0.0
  0
VERTEX
  5
291A
  8
0
 62
     4
 10
108.355306
 20
109.467031
 30
0.0
  0
VERTEX
  5
291B
  8
0
 62
     4
 10
108.355306
 20
90.417031
 30
0.0
  0
VERTEX
  5
291C
  8
0
 62
     4
 10
89.305306
 20
90.417031
 30
0.0
  0
SEQEND
  5
2B27
  8
0
 62
     4
  0
POLYLINE
  5
2E8
  8
0
 62
     4
 66
     1
 10
0.0
 20
0.0
 30
0.0
 70
     1
  0
VERTEX
  5
291D
  8
0
 62
     4
 10
108.355306
 20
109.467031
 30
0.0
  0
VERTEX
  5
291E
  8
0
 62
     4
 10
127.405306
 20
109.467031
 30
0.0
  0
VERTEX
  5
291F
  8
0
 62
     4
 10
127.405306
 20
90.417031
 30
0.0
  0
VERTEX
  5
2920
  8
0
 62
     4
 10
108.355306
 20
90.417031
 30
0.0
  0
SEQEND
  5
2B28
  8
0
 62
     4
  0
POLYLINE
  5
2E9
  8
0
 62
     4
 66
     1
 10
0.0
 20
0.0
 30
0.0
 70
     1
  0
VERTEX
  5
2921
  8
0
 62
     4
 10
127.405306
 20
109.467031
 30
0.0
  0
VERTEX
  5
2922
  8
0
 62
     4
 10
146.455306
 20
109.467031
 30
0.0
  0
VERTEX
  5
2923
  8
0
 62
     4
 10
146.455306
 20
90.417031
 30
0.0
  0
VERTEX
  5
2924
  8
0
 62
     4
 10
127.405306
 20
90.417031
 30
0.0
  0
SEQEND
  5
2B29
  8
0
 62
     4
  0
POLYLINE
  5
2EA
  8
0
 62
     4
 66
     1
 10
0.0
 20
0.0
 30
0.0
 70
     1
  0
VERTEX
  5
2925
  8
0
 62
     4
 10
146.455306
 20
109.467031
 30
0.0
  0
VERTEX
  5
2926
  8
0
 62
     4
 10
165.505306
 20
109.467031
 30
0.0
  0
VERTEX
  5
2927
  8
0
 62
     4
 10
165.505306
 20
90.417031
 30
0.0
  0
VERTEX
  5
2928
  8
0
 62
     4
 10
146.455306
 20
90.417031
 30
0.0
  0
SEQEND
  5
2B2A
  8
0
 62
     4
  0
POLYLINE
  5
2EB
  8
0
 62
     4
 66
     1
 10
0.0
 20
0.0
 30
0.0
 70
     1
  0
VERTEX
  5
2929
  8
0
 62
     4
 10
165.505306
 20
109.467031
 30
0.0
  0
VERTEX
  5
292A
  8
0
 62
     4
 10
184.555306
 20
109.467031
 30
0.0
  0
VERTEX
  5
292B
  8
0
 62
     4
 10
184.555306
 20
90.417031
 30
0.0
  0
VERTEX
  5
292C
  8
0
 62
     4
 10
165.505306
 20
90.417031
 30
0.0
  0
SEQEND
  5
2B2B
  8
0
 62
     4
  0
POLYLINE
  5
2EC
  8
0
 62
     4
 66
     1
 10
0.0
 20
0.0
 30
0.0
 70
     1
  0
VERTEX
  5
292D
  8
0
 62
     4
 10
184.555306
 20
109.467031
 30
0.0
  0
VERTEX
  5
292E
  8
0
 62
     4
 10
203.605306
 20
109.467031
 30
0.0
  0
VERTEX
  5
292F
  8
0
 62
     4
 10
203.605306
 20
90.417031
 30
0.0
  0
VERTEX
  5
2930
  8
0
 62
     4
 10
184.555306
 20
90.417031
 30
0.0
  0
SEQEND
  5
2B2C
  8
0
 62
     4
  0
POLYLINE
  5
2ED
  8
0
 62
     4
 66
     1
 10
0.0
 20
0.0
 30
0.0
 70
     1
  0
VERTEX
  5
2931
  8
0
 62
     4
 10
203.605306
 20
109.467031
 30
0.0
  0
VERTEX
  5
2932
  8
0
 62
     4
 10
222.655306
 20
109.467031
 30
0.0
  0
VERTEX
  5
2933
  8
0
 62
     4
 10
222.655306
 20
90.417031
 30
0.0
  0
VERTEX
  5
2934
  8
0
 62
     4
 10
203.605306
 20
90.417031
 30
0.0
  0
SEQEND
  5
2B2D
  8
0
 62
     4
  0
POLYLINE
  5
2EE
  8
0
 62
     4
 66
     1
 10
0.0
 20
0.0
 30
0.0
 70
     1
  0
VERTEX
  5
2935
  8
0
 62
     4
 10
222.655306
 20
109.467031
 30
0.0
  0
VERTEX
  5
2936
  8
0
 62
     4
 10
241.705306
 20
109.467031
 30
0.0
  0
VERTEX
  5
2937
  8
0
 62
     4
 10
241.705306
 20
90.417031
 30
0.0
  0
VERTEX
  5
2938
  8
0
 62
     4
 10
222.655306
 20
90.417031
 30
0.0
  0
SEQEND
  5
2B2E
  8
0
 62
     4
  0
POLYLINE
  5
2EF
  8
0
 62
     4
 66
     1
 10
0.0
 20
0.0
 30
0.0
 70
     1
  0
VERTEX
  5
2939
  8
0
 62
     4
 10
241.705306
 20
109.467031
 30
0.0
  0
VERTEX
  5
293A
  8
0
 62
     4
 10
260.755306
 20
109.467031
 30
0.0
  0
VERTEX
  5
293B
  8
0
 62
     4
 10
260.755306
 20
90.417031
 30
0.0
  0
VERTEX
  5
293C
  8
0
 62
     4
 10
241.705306
 20
90.417031
 30
0.0
  0
SEQEND
  5
2B2F
  8
0
 62
     4
  0
POLYLINE
  5
2F0
  8
0
 62
     4
 66
     1
 10
0.0
 20
0.0
 30
0.0
 70
     1
  0
VERTEX
  5
293D
  8
0
 62
     4
 10
260.755306
 20
109.467031
 30
0.0
  0
VERTEX
  5
293E
  8
0
 62
     4
 10
279.805306
 20
109.467031
 30
0.0
  0
VERTEX
  5
293F
  8
0
 62
     4
 10
279.805306
 20
90.417031
 30
0.0
  0
VERTEX
  5
2940
  8
0
 62
     4
 10
260.755306
 20
90.417031
 30
0.0
  0
SEQEND
  5
2B30
  8
0
 62
     4
  0
POLYLINE
  5
2F1
  8
0
 62
     4
 66
     1
 10
0.0
 20
0.0
 30
0.0
 70
     1
  0
VERTEX
  5
2941
  8
0
 62
     4
 10
70.255306
 20
90.417031
 30
0.0
  0
VERTEX
  5
2942
  8
0
 62
     4
 10
89.305306
 20
90.417031
 30
0.0
  0
VERTEX
  5
2943
  8
0
 62
     4
 10
89.305306
 20
71.367031
 30
0.0
  0
VERTEX
  5
2944
  8
0
 62
     4
 10
70.255306
 20
71.367031
 30
0.0
  0
SEQEND
  5
2B31
  8
0
 62
     4
  0
POLYLINE
  5
2F2
  8
0
 62
     4
 66
     1
 10
0.0
 20
0.0
 30
0.0
 70
     1
  0
VERTEX
  5
2945
  8
0
 62
     4
 10
89.305306
 20
90.417031
 30
0.0
  0
VERTEX
  5
2946
  8
0
 62
     4
 10
108.355306
 20
90.417031
 30
0.0
  0
VERTEX
  5
2947
  8
0
 62
     4
 10
108.355306
 20
71.367031
 30
0.0
  0
VERTEX
  5
2948
  8
0
 62
     4
 10
89.305306
 20
71.367031
 30
0.0
  0
SEQEND
  5
2B32
  8
0
 62
     4
  0
POLYLINE
  5
2F3
  8
0
 62
     4
 66
     1
 10
0.0
 20
0.0
 30
0.0
 70
     1
  0
VERTEX
  5
2949
  8
0
 62
     4
 10
108.355306
 20
90.417031
 30
0.0
  0
VERTEX
  5
294A
  8
0
 62
     4
 10
127.405306
 20
90.417031
 30
0.0
  0
VERTEX
  5
294B
  8
0
 62
     4
 10
127.405306
 20
71.367031
 30
0.0
  0
VERTEX
  5
294C
  8
0
 62
     4
 10
108.355306
 20
71.367031
 30
0.0
  0
SEQEND
  5
2B33
  8
0
 62
     4
  0
POLYLINE
  5
2F4
  8
0
 62
     4
 66
     1
 10
0.0
 20
0.0
 30
0.0
 70
     1
  0
VERTEX
  5
294D
  8
0
 62
     4
 10
127.405306
 20
90.417031
 30
0.0
  0
VERTEX
  5
294E
  8
0
 62
     4
 10
146.455306
 20
90.417031
 30
0.0
  0
VERTEX
  5
294F
  8
0
 62
     4
 10
146.455306
 20
71.367031
 30
0.0
  0
VERTEX
  5
2950
  8
0
 62
     4
 10
127.405306
 20
71.367031
 30
0.0
  0
SEQEND
  5
2B34
  8
0
 62
     4
  0
POLYLINE
  5
2F5
  8
0
 62
     4
 66
     1
 10
0.0
 20
0.0
 30
0.0
 70
     1
  0
VERTEX
  5
2951
  8
0
 62
     4
 10
146.455306
 20
90.417031
 30
0.0
  0
VERTEX
  5
2952
  8
0
 62
     4
 10
165.505306
 20
90.417031
 30
0.0
  0
VERTEX
  5
2953
  8
0
 62
     4
 10
165.505306
 20
71.367031
 30
0.0
  0
VERTEX
  5
2954
  8
0
 62
     4
 10
146.455306
 20
71.367031
 30
0.0
  0
SEQEND
  5
2B35
  8
0
 62
     4
  0
POLYLINE
  5
2F6
  8
0
 62
     4
 66
     1
 10
0.0
 20
0.0
 30
0.0
 70
     1
  0
VERTEX
  5
2955
  8
0
 62
     4
 10
165.505306
 20
90.417031
 30
0.0
  0
VERTEX
  5
2956
  8
0
 62
     4
 10
184.555306
 20
90.417031
 30
0.0
  0
VERTEX
  5
2957
  8
0
 62
     4
 10
184.555306
 20
71.367031
 30
0.0
  0
VERTEX
  5
2958
  8
0
 62
     4
 10
165.505306
 20
71.367031
 30
0.0
  0
SEQEND
  5
2B36
  8
0
 62
     4
  0
POLYLINE
  5
2F7
  8
0
 62
     4
 66
     1
 10
0.0
 20
0.0
 30
0.0
 70
     1
  0
VERTEX
  5
2959
  8
0
 62
     4
 10
70.255306
 20
71.367031
 30
0.0
  0
VERTEX
  5
295A
  8
0
 62
     4
 10
89.305306
 20
71.367031
 30
0.0
  0
VERTEX
  5
295B
  8
0
 62
     4
 10
89.305306
 20
52.317031
 30
0.0
  0
VERTEX
  5
295C
  8
0
 62
     4
 10
70.255306
 20
52.317031
 30
0.0
  0
SEQEND
  5
2B37
  8
0
 62
     4
  0
POLYLINE
  5
2F8
  8
0
 62
     4
 66
     1
 10
0.0
 20
0.0
 30
0.0
 70
     1
  0
VERTEX
  5
295D
  8
0
 62
     4
 10
89.305306
 20
71.367031
 30
0.0
  0
VERTEX
  5
295E
  8
0
 62
     4
 10
108.355306
 20
71.367031
 30
0.0
  0
VERTEX
  5
295F
  8
0
 62
     4
 10
108.355306
 20
52.317031
 30
0.0
  0
VERTEX
  5
2960
  8
0
 62
     4
 10
89.305306
 20
52.317031
 30
0.0
  0
SEQEND
  5
2B38
  8
0
 62
     4
  0
POLYLINE
  5
2F9
  8
0
 62
     4
 66
     1
 10
0.0
 20
0.0
 30
0.0
 70
     1
  0
VERTEX
  5
2961
  8
0
 62
     4
 10
108.355306
 20
71.367031
 30
0.0
  0
VERTEX
  5
2962
  8
0
 62
     4
 10
127.405306
 20
71.367031
 30
0.0
  0
VERTEX
  5
2963
  8
0
 62
     4
 10
127.405306
 20
52.317031
 30
0.0
  0
VERTEX
  5
2964
  8
0
 62
     4
 10
108.355306
 20
52.317031
 30
0.0
  0
SEQEND
  5
2B39
  8
0
 62
     4
  0
POLYLINE
  5
2FA
  8
0
 62
     4
 66
     1
 10
0.0
 20
0.0
 30
0.0
 70
     1
  0
VERTEX
  5
2965
  8
0
 62
     4
 10
127.405306
 20
71.367031
 30
0.0
  0
VERTEX
  5
2966
  8
0
 62
     4
 10
146.455306
 20
71.367031
 30
0.0
  0
VERTEX
  5
2967
  8
0
 62
     4
 10
146.455306
 20
52.317031
 30
0.0
  0
VERTEX
  5
2968
  8
0
 62
     4
 10
127.405306
 20
52.317031
 30
0.0
  0
SEQEND
  5
2B3A
  8
0
 62
     4
  0
POLYLINE
  5
2FB
  8
0
 62
     4
 66
     1
 10
0.0
 20
0.0
 30
0.0
 70
     1
  0
VERTEX
  5
2969
  8
0
 62
     4
 10
146.455306
 20
71.367031
 30
0.0
  0
VERTEX
  5
296A
  8
0
 62
     4
 10
165.505306
 20
71.367031
 30
0.0
  0
VERTEX
  5
296B
  8
0
 62
     4
 10
165.505306
 20
52.317031
 30
0.0
  0
VERTEX
  5
296C
  8
0
 62
     4
 10
146.455306
 20
52.317031
 30
0.0
  0
SEQEND
  5
2B3B
  8
0
 62
     4
  0
POLYLINE
  5
2FD
  8
0
 62
     4
 66
     1
 10
0.0
 20
0.0
 30
0.0
 70
     1
  0
VERTEX
  5
296D
  8
0
 62
     4
 10
165.505306
 20
71.367031
 30
0.0
  0
VERTEX
  5
296E
  8
0
 62
     4
 10
184.555306
 20
71.367031
 30
0.0
  0
VERTEX
  5
296F
  8
0
 62
     4
 10
184.555306
 20
52.317031
 30
0.0
  0
VERTEX
  5
2970
  8
0
 62
     4
 10
165.505306
 20
52.317031
 30
0.0
  0
SEQEND
  5
2B3C
  8
0
 62
     4
  0
POLYLINE
  5
2FE
  8
0
 62
     4
 66
     1
 10
0.0
 20
0.0
 30
0.0
 70
     1
  0
VERTEX
  5
2971
  8
0
 62
     4
 10
184.555306
 20
71.367031
 30
0.0
  0
VERTEX
  5
2972
  8
0
 62
     4
 10
203.605306
 20
71.367031
 30
0.0
  0
VERTEX
  5
2973
  8
0
 62
     4
 10
203.605306
 20
52.317031
 30
0.0
  0
VERTEX
  5
2974
  8
0
 62
     4
 10
184.555306
 20
52.317031
 30
0.0
  0
SEQEND
  5
2B3D
  8
0
 62
     4
  0
POLYLINE
  5
2FF
  8
0
 62
     4
 66
     1
 10
0.0
 20
0.0
 30
0.0
 70
     1
  0
VERTEX
  5
2975
  8
0
 62
     4
 10
203.605306
 20
71.367031
 30
0.0
  0
VERTEX
  5
2976
  8
0
 62
     4
 10
222.655306
 20
71.367031
 30
0.0
  0
VERTEX
  5
2977
  8
0
 62
     4
 10
222.655306
 20
52.317031
 30
0.0
  0
VERTEX
  5
2978
  8
0
 62
     4
 10
203.605306
 20
52.317031
 30
0.0
  0
SEQEND
  5
2B3E
  8
0
 62
     4
  0
POLYLINE
  5
300
  8
0
 62
     4
 66
     1
 10
0.0
 20
0.0
 30
0.0
 70
     1
  0
VERTEX
  5
2979
  8
0
 62
     4
 10
222.655306
 20
71.367031
 30
0.0
  0
VERTEX
  5
297A
  8
0
 62
     4
 10
241.705306
 20
71.367031
 30
0.0
  0
VERTEX
  5
297B
  8
0
 62
     4
 10
241.705306
 20
52.317031
 30
0.0
  0
VERTEX
  5
297C
  8
0
 62
     4
 10
222.655306
 20
52.317031
 30
0.0
  0
SEQEND
  5
2B3F
  8
0
 62
     4
  0
POLYLINE
  5
301
  8
0
 62
     4
 66
     1
 10
0.0
 20
0.0
 30
0.0
 70
     1
  0
VERTEX
  5
297D
  8
0
 62
     4
 10
241.705306
 20
71.367031
 30
0.0
  0
VERTEX
  5
297E
  8
0
 62
     4
 10
260.755306
 20
71.367031
 30
0.0
  0
VERTEX
  5
297F
  8
0
 62
     4
 10
260.755306
 20
52.317031
 30
0.0
  0
VERTEX
  5
2980
  8
0
 62
     4
 10
241.705306
 20
52.317031
 30
0.0
  0
SEQEND
  5
2B40
  8
0
 62
     4
  0
POLYLINE
  5
302
  8
0
 62
     4
 66
     1
 10
0.0
 20
0.0
 30
0.0
 70
     1
  0
VERTEX
  5
2981
  8
0
 62
     4
 10
70.255306
 20
52.317031
 30
0.0
  0
VERTEX
  5
2982
  8
0
 62
     4
 10
89.305306
 20
52.317031
 30
0.0
  0
VERTEX
  5
2983
  8
0
 62
     4
 10
89.305306
 20
33.267031
 30
0.0
  0
VERTEX
  5
2984
  8
0
 62
     4
 10
70.255306
 20
33.267031
 30
0.0
  0
SEQEND
  5
2B41
  8
0
 62
     4
  0
POLYLINE
  5
303
  8
0
 62
     4
 66
     1
 10
0.0
 20
0.0
 30
0.0
 70
     1
  0
VERTEX
  5
2985
  8
0
 62
     4
 10
89.305306
 20
52.317031
 30
0.0
  0
VERTEX
  5
2986
  8
0
 62
     4
 10
108.355306
 20
52.317031
 30
0.0
  0
VERTEX
  5
2987
  8
0
 62
     4
 10
108.355306
 20
33.267031
 30
0.0
  0
VERTEX
  5
2988
  8
0
 62
     4
 10
89.305306
 20
33.267031
 30
0.0
  0
SEQEND
  5
2B42
  8
0
 62
     4
  0
POLYLINE
  5
304
  8
0
 62
     4
 66
     1
 10
0.0
 20
0.0
 30
0.0
 70
     1
  0
VERTEX
  5
2989
  8
0
 62
     4
 10
108.355306
 20
52.317031
 30
0.0
  0
VERTEX
  5
298A
  8
0
 62
     4
 10
127.405306
 20
52.317031
 30
0.0
  0
VERTEX
  5
298B
  8
0
 62
     4
 10
127.405306
 20
33.267031
 30
0.0
  0
VERTEX
  5
298C
  8
0
 62
     4
 10
108.355306
 20
33.267031
 30
0.0
  0
SEQEND
  5
2B43
  8
0
 62
     4
  0
POLYLINE
  5
305
  8
0
 62
     4
 66
     1
 10
0.0
 20
0.0
 30
0.0
 70
     1
  0
VERTEX
  5
298D
  8
0
 62
     4
 10
127.405306
 20
52.317031
 30
0.0
  0
VERTEX
  5
298E
  8
0
 62
     4
 10
146.455306
 20
52.317031
 30
0.0
  0
VERTEX
  5
298F
  8
0
 62
     4
 10
146.455306
 20
33.267031
 30
0.0
  0
VERTEX
  5
2990
  8
0
 62
     4
 10
127.405306
 20
33.267031
 30
0.0
  0
SEQEND
  5
2B44
  8
0
 62
     4
  0
POLYLINE
  5
306
  8
0
 62
     4
 66
     1
 10
0.0
 20
0.0
 30
0.0
 70
     1
  0
VERTEX
  5
2991
  8
0
 62
     4
 10
146.455306
 20
52.317031
 30
0.0
  0
VERTEX
  5
2992
  8
0
 62
     4
 10
165.505306
 20
52.317031
 30
0.0
  0
VERTEX
  5
2993
  8
0
 62
     4
 10
165.505306
 20
33.267031
 30
0.0
  0
VERTEX
  5
2994
  8
0
 62
     4
 10
146.455306
 20
33.267031
 30
0.0
  0
SEQEND
  5
2B45
  8
0
 62
     4
  0
POLYLINE
  5
307
  8
0
 62
     4
 66
     1
 10
0.0
 20
0.0
 30
0.0
 70
     1
  0
VERTEX
  5
2995
  8
0
 62
     4
 10
165.505306
 20
52.317031
 30
0.0
  0
VERTEX
  5
2996
  8
0
 62
     4
 10
184.555306
 20
52.317031
 30
0.0
  0
VERTEX
  5
2997
  8
0
 62
     4
 10
184.555306
 20
33.267031
 30
0.0
  0
VERTEX
  5
2998
  8
0
 62
     4
 10
165.505306
 20
33.267031
 30
0.0
  0
SEQEND
  5
2B46
  8
0
 62
     4
  0
POLYLINE
  5
308
  8
0
 62
     4
 66
     1
 10
0.0
 20
0.0
 30
0.0
 70
     1
  0
VERTEX
  5
2999
  8
0
 62
     4
 10
184.555306
 20
52.317031
 30
0.0
  0
VERTEX
  5
299A
  8
0
 62
     4
 10
203.605306
 20
52.317031
 30
0.0
  0
VERTEX
  5
299B
  8
0
 62
     4
 10
203.605306
 20
33.267031
 30
0.0
  0
VERTEX
  5
299C
  8
0
 62
     4
 10
184.555306
 20
33.267031
 30
0.0
  0
SEQEND
  5
2B47
  8
0
 62
     4
  0
POLYLINE
  5
309
  8
0
 62
     4
 66
     1
 10
0.0
 20
0.0
 30
0.0
 70
     1
  0
VERTEX
  5
299D
  8
0
 62
     4
 10
203.605306
 20
52.317031
 30
0.0
  0
VERTEX
  5
299E
  8
0
 62
     4
 10
222.655306
 20
52.317031
 30
0.0
  0
VERTEX
  5
299F
  8
0
 62
     4
 10
222.655306
 20
33.267031
 30
0.0
  0
VERTEX
  5
29A0
  8
0
 62
     4
 10
203.605306
 20
33.267031
 30
0.0
  0
SEQEND
  5
2B48
  8
0
 62
     4
  0
POLYLINE
  5
30A
  8
0
 62
     4
 66
     1
 10
0.0
 20
0.0
 30
0.0
 70
     1
  0
VERTEX
  5
29A1
  8
0
 62
     4
 10
222.655306
 20
52.317031
 30
0.0
  0
VERTEX
  5
29A2
  8
0
 62
     4
 10
241.705306
 20
52.317031
 30
0.0
  0
VERTEX
  5
29A3
  8
0
 62
     4
 10
241.705306
 20
33.267031
 30
0.0
  0
VERTEX
  5
29A4
  8
0
 62
     4
 10
222.655306
 20
33.267031
 30
0.0
  0
SEQEND
  5
2B49
  8
0
 62
     4
  0
POLYLINE
  5
30B
  8
0
 62
     4
 66
     1
 10
0.0
 20
0.0
 30
0.0
 70
     1
  0
VERTEX
  5
29A5
  8
0
 62
     4
 10
241.705306
 20
52.317031
 30
0.0
  0
VERTEX
  5
29A6
  8
0
 62
     4
 10
260.755306
 20
52.317031
 30
0.0
  0
VERTEX
  5
29A7
  8
0
 62
     4
 10
260.755306
 20
33.267031
 30
0.0
  0
VERTEX
  5
29A8
  8
0
 62
     4
 10
241.705306
 20
33.267031
 30
0.0
  0
SEQEND
  5
2B4A
  8
0
 62
     4
  0
POLYLINE
  5
30C
  8
0
 62
     4
 66
     1
 10
0.0
 20
0.0
 30
0.0
 70
     1
  0
VERTEX
  5
29A9
  8
0
 62
     4
 10
184.555306
 20
90.417031
 30
0.0
  0
VERTEX
  5
29AA
  8
0
 62
     4
 10
203.605306
 20
90.417031
 30
0.0
  0
VERTEX
  5
29AB
  8
0
 62
     4
 10
203.605306
 20
71.367031
 30
0.0
  0
VERTEX
  5
29AC
  8
0
 62
     4
 10
184.555306
 20
71.367031
 30
0.0
  0
SEQEND
  5
2B4B
  8
0
 62
     4
  0
POLYLINE
  5
30D
  8
0
 62
     4
 66
     1
 10
0.0
 20
0.0
 30
0.0
 70
     1
  0
VERTEX
  5
29AD
  8
0
 62
     4
 10
203.605306
 20
90.417031
 30
0.0
  0
VERTEX
  5
29AE
  8
0
 62
     4
 10
222.655306
 20
90.417031
 30
0.0
  0
VERTEX
  5
29AF
  8
0
 62
     4
 10
222.655306
 20
71.367031
 30
0.0
  0
VERTEX
  5
29B0
  8
0
 62
     4
 10
203.605306
 20
71.367031
 30
0.0
  0
SEQEND
  5
2B4C
  8
0
 62
     4
  0
POLYLINE
  5
30E
  8
0
 62
     4
 66
     1
 10
0.0
 20
0.0
 30
0.0
 70
     1
  0
VERTEX
  5
29B1
  8
0
 62
     4
 10
222.655306
 20
90.417031
 30
0.0
  0
VERTEX
  5
29B2
  8
0
 62
     4
 10
241.705306
 20
90.417031
 30
0.0
  0
VERTEX
  5
29B3
  8
0
 62
     4
 10
241.705306
 20
71.367031
 30
0.0
  0
VERTEX
  5
29B4
  8
0
 62
     4
 10
222.655306
 20
71.367031
 30
0.0
  0
SEQEND
  5
2B4D
  8
0
 62
     4
  0
POLYLINE
  5
30F
  8
0
 62
     4
 66
     1
 10
0.0
 20
0.0
 30
0.0
 70
     1
  0
VERTEX
  5
29B5
  8
0
 62
     4
 10
241.705306
 20
90.417031
 30
0.0
  0
VERTEX
  5
29B6
  8
0
 62
     4
 10
260.755306
 20
90.417031
 30
0.0
  0
VERTEX
  5
29B7
  8
0
 62
     4
 10
260.755306
 20
71.367031
 30
0.0
  0
VERTEX
  5
29B8
  8
0
 62
     4
 10
241.705306
 20
71.367031
 30
0.0
  0
SEQEND
  5
2B4E
  8
0
 62
     4
  0
POLYLINE
  5
310
  8
0
 62
     4
 66
     1
 10
0.0
 20
0.0
 30
0.0
 70
     1
  0
VERTEX
  5
29B9
  8
0
 62
     4
 10
279.805306
 20
109.467031
 30
0.0
  0
VERTEX
  5
29BA
  8
0
 62
     4
 10
298.855306
 20
109.467031
 30
0.0
  0
VERTEX
  5
29BB
  8
0
 62
     4
 10
298.855306
 20
90.417031
 30
0.0
  0
VERTEX
  5
29BC
  8
0
 62
     4
 10
279.805306
 20
90.417031
 30
0.0
  0
SEQEND
  5
2B4F
  8
0
 62
     4
  0
POLYLINE
  5
311
  8
0
 62
     4
 66
     1
 10
0.0
 20
0.0
 30
0.0
 70
     1
  0
VERTEX
  5
29BD
  8
0
 62
     4
 10
260.755306
 20
71.367031
 30
0.0
  0
VERTEX
  5
29BE
  8
0
 62
     4
 10
279.805306
 20
71.367031
 30
0.0
  0
VERTEX
  5
29BF
  8
0
 62
     4
 10
279.805306
 20
52.317031
 30
0.0
  0
VERTEX
  5
29C0
  8
0
 62
     4
 10
260.755306
 20
52.317031
 30
0.0
  0
SEQEND
  5
2B50
  8
0
 62
     4
  0
POLYLINE
  5
312
  8
0
 62
     4
 66
     1
 10
0.0
 20
0.0
 30
0.0
 70
     1
  0
VERTEX
  5
29C1
  8
0
 62
     4
 10
8.342806
 20
109.467031
 30
0.0
  0
VERTEX
  5
29C2
  8
0
 62
     4
 10
27.392806
 20
109.467031
 30
0.0
  0
VERTEX
  5
29C3
  8
0
 62
     4
 10
27.392806
 20
90.417031
 30
0.0
  0
VERTEX
  5
29C4
  8
0
 62
     4
 10
8.342806
 20
90.417031
 30
0.0
  0
SEQEND
  5
2B51
  8
0
 62
     4
  0
POLYLINE
  5
317
  8
0
 62
     4
 66
     1
 10
0.0
 20
0.0
 30
0.0
 70
     1
  0
VERTEX
  5
29C5
  8
0
 62
     4
 10
8.342806
 20
90.417031
 30
0.0
  0
VERTEX
  5
29C6
  8
0
 62
     4
 10
27.392806
 20
90.417031
 30
0.0
  0
VERTEX
  5
29C7
  8
0
 62
     4
 10
27.392806
 20
71.367031
 30
0.0
  0
VERTEX
  5
29C8
  8
0
 62
     4
 10
8.342806
 20
71.367031
 30
0.0
  0
SEQEND
  5
2B52
  8
0
 62
     4
  0
POLYLINE
  5
318
  8
0
 62
     4
 66
     1
 10
0.0
 20
0.0
 30
0.0
 70
     1
  0
VERTEX
  5
29C9
  8
0
 62
     4
 10
8.342806
 20
71.367031
 30
0.0
  0
VERTEX
  5
29CA
  8
0
 62
     4
 10
27.392806
 20
71.367031
 30
0.0
  0
VERTEX
  5
29CB
  8
0
 62
     4
 10
27.392806
 20
52.317031
 30
0.0
  0
VERTEX
  5
29CC
  8
0
 62
     4
 10
8.342806
 20
52.317031
 30
0.0
  0
SEQEND
  5
2B53
  8
0
 62
     4
  0
POLYLINE
  5
319
  8
0
 62
     4
 66
     1
 10
0.0
 20
0.0
 30
0.0
 70
     1
  0
VERTEX
  5
29CD
  8
0
 62
     4
 10
8.342806
 20
52.317031
 30
0.0
  0
VERTEX
  5
29CE
  8
0
 62
     4
 10
27.392806
 20
52.317031
 30
0.0
  0
VERTEX
  5
29CF
  8
0
 62
     4
 10
27.392806
 20
33.267031
 30
0.0
  0
VERTEX
  5
29D0
  8
0
 62
     4
 10
8.342806
 20
33.267031
 30
0.0
  0
SEQEND
  5
2B54
  8
0
 62
     4
  0
POLYLINE
  5
31A
  8
0
  6
BYBLOCK
 62
     4
 66
     1
 10
0.0
 20
0.0
 30
0.0
 70
     1
  0
VERTEX
  5
29D1
  8
0
  6
BYBLOCK
 62
     4
 10
-214.315711
 20
98.938684
 30
0.0
  0
VERTEX
  5
29D2
  8
0
  6
BYBLOCK
 62
     4
 10
-190.503211
 20
98.938684
 30
0.0
  0
VERTEX
  5
29D3
  8
0
  6
BYBLOCK
 62
     4
 10
-190.503211
 20
79.888684
 30
0.0
  0
VERTEX
  5
29D4
  8
0
  6
BYBLOCK
 62
     4
 10
-214.315711
 20
79.888684
 30
0.0
  0
SEQEND
  5
2B55
  8
0
  6
BYBLOCK
 62
     4
  0
POLYLINE
  5
31B
  8
0
  6
BYBLOCK
 62
     4
 66
     1
 10
0.0
 20
0.0
 30
0.0
 70
     1
  0
VERTEX
  5
29D5
  8
0
  6
BYBLOCK
 62
     4
 10
-214.315711
 20
79.888684
 30
0.0
  0
VERTEX
  5
29D6
  8
0
  6
BYBLOCK
 62
     4
 10
-185.740711
 20
79.888684
 30
0.0
  0
VERTEX
  5
29D7
  8
0
  6
BYBLOCK
 62
     4
 10
-185.740711
 20
60.838684
 30
0.0
  0
VERTEX
  5
29D8
  8
0
  6
BYBLOCK
 62
     4
 10
-214.315711
 20
60.838684
 30
0.0
  0
SEQEND
  5
2B56
  8
0
  6
BYBLOCK
 62
     4
  0
POLYLINE
  5
31C
  8
0
  6
BYBLOCK
 62
     4
 66
     1
 10
0.0
 20
0.0
 30
0.0
 70
     1
  0
VERTEX
  5
29D9
  8
0
  6
BYBLOCK
 62
     4
 10
-214.315711
 20
60.838684
 30
0.0
  0
VERTEX
  5
29DA
  8
0
  6
BYBLOCK
 62
     4
 10
-180.978211
 20
60.838684
 30
0.0
  0
VERTEX
  5
29DB
  8
0
  6
BYBLOCK
 62
     4
 10
-180.978211
 20
41.788684
 30
0.0
  0
VERTEX
  5
29DC
  8
0
  6
BYBLOCK
 62
     4
 10
-214.315711
 20
41.788684
 30
0.0
  0
SEQEND
  5
2B57
  8
0
  6
BYBLOCK
 62
     4
  0
POLYLINE
  5
31D
  8
0
  6
BYBLOCK
 62
     4
 66
     1
 10
0.0
 20
0.0
 30
0.0
 70
     1
  0
VERTEX
  5
29DD
  8
0
  6
BYBLOCK
 62
     4
 10
-214.315711
 20
41.788684
 30
0.0
  0
VERTEX
  5
29DE
  8
0
  6
BYBLOCK
 62
     4
 10
-176.215711
 20
41.788684
 30
0.0
  0
VERTEX
  5
29DF
  8
0
  6
BYBLOCK
 62
     4
 10
-176.215711
 20
22.738684
 30
0.0
  0
VERTEX
  5
29E0
  8
0
  6
BYBLOCK
 62
     4
 10
-214.315711
 20
22.738684
 30
0.0
  0
SEQEND
  5
2B58
  8
0
  6
BYBLOCK
 62
     4
  0
ARC
  5
3B4
  8
0
 10
-152.847454
 20
79.176981
 30
0.0
 40
1.0
 50
180.0
 51
270.0
  0
ARC
  5
3B5
  8
0
 10
-140.847454
 20
79.176981
 30
0.0
 40
1.0
 50
270.0
 51
0.0
  0
LINE
  5
3B6
  8
0
 10
-152.847454
 20
78.176981
 30
0.0
 11
-140.847454
 21
78.176981
 31
0.0
  0
ARC
  5
3B9
  8
0
 10
-132.409454
 20
94.576981
 30
0.0
 40
1.0
 50
0.0
 51
90.0
  0
ARC
  5
3BA
  8
0
 10
-137.409454
 20
76.426981
 30
0.0
 40
1.0
 50
180.0
 51
270.0
  0
ARC
  5
3BB
  8
0
 10
-132.409454
 20
76.426981
 30
0.0
 40
1.0
 50
270.0
 51
0.0
  0
LINE
  5
3BC
  8
0
 10
-132.409454
 20
95.576981
 30
0.0
 11
-135.909454
 21
95.576981
 31
0.0
  0
LINE
  5
3BD
  8
0
 10
-135.909454
 20
95.576981
 30
0.0
 11
-137.409454
 21
95.576981
 31
0.0
  0
LINE
  5
3BE
  8
0
 10
-137.409454
 20
75.426981
 30
0.0
 11
-132.409454
 21
75.426981
 31
0.0
  0
LINE
  5
3C0
  8
0
 10
-131.409454
 20
76.426981
 30
0.0
 11
-131.409454
 21
94.576981
 31
0.0
  0
ARC
  5
3C1
  8
0
 10
-161.285454
 20
94.576981
 30
0.0
 40
1.0
 50
90.0
 51
180.0
  0
ARC
  5
3C2
  8
0
 10
-161.285454
 20
76.426981
 30
0.0
 40
1.0
 50
180.0
 51
270.0
  0
ARC
  5
3C3
  8
0
 10
-156.285454
 20
76.426981
 30
0.0
 40
1.0
 50
270.0
 51
0.0
  0
LINE
  5
3C4
  8
0
 10
-156.285454
 20
95.576981
 30
0.0
 11
-157.785454
 21
95.576981
 31
0.0
  0
LINE
  5
3C5
  8
0
 10
-157.785454
 20
95.576981
 30
0.0
 11
-161.285454
 21
95.576981
 31
0.0
  0
LINE
  5
3C6
  8
0
 10
-161.285454
 20
75.426981
 30
0.0
 11
-156.285454
 21
75.426981
 31
0.0
  0
LINE
  5
3C7
  8
0
 10
-162.285454
 20
94.576981
 30
0.0
 11
-162.285454
 21
76.426981
 31
0.0
  0
LINE
  5
3C9
  8
0
 10
-137.409454
 20
95.576981
 30
0.0
 11
-156.285454
 21
95.576981
 31
0.0
  0
LINE
  5
3CC
  8
0
  6
BYBLOCK
 10
-138.409454
 20
76.426981
 30
0.0
 11
-138.409454
 21
79.176981
 31
0.0
  0
LINE
  5
3CD
  8
0
  6
BYBLOCK
 10
-153.847454
 20
79.176981
 30
0.0
 11
-155.285454
 21
79.176981
 31
0.0
  0
LINE
  5
3CE
  8
0
  6
BYBLOCK
 10
-155.285454
 20
76.426981
 30
0.0
 11
-155.285454
 21
79.176981
 31
0.0
  0
LINE
  5
3CF
  8
0
  6
BYBLOCK
 10
-139.847454
 20
79.176981
 30
0.0
 11
-138.409454
 21
79.176981
 31
0.0
  0
ARC
  5
3F0
  8
0
 10
-140.847454
 20
66.071296
 30
0.0
 40
1.0
 50
0.0
 51
90.0
  0
ARC
  5
3F1
  8
0
 10
-152.847454
 20
66.071296
 30
0.0
 40
1.0
 50
90.0
 51
180.0
  0
LINE
  5
3F2
  8
0
 10
-140.847454
 20
67.071296
 30
0.0
 11
-152.847454
 21
67.071296
 31
0.0
  0
ARC
  5
3F3
  8
0
 10
-161.285454
 20
50.671296
 30
0.0
 40
1.0
 50
180.0
 51
270.0
  0
ARC
  5
3F4
  8
0
 10
-156.285454
 20
68.821296
 30
0.0
 40
1.0
 50
0.0
 51
90.0
  0
ARC
  5
3F5
  8
0
 10
-161.285454
 20
68.821296
 30
0.0
 40
1.0
 50
90.0
 51
180.0
  0
LINE
  5
3F6
  8
0
 10
-161.285454
 20
49.671296
 30
0.0
 11
-157.785454
 21
49.671296
 31
0.0
  0
LINE
  5
3F7
  8
0
 10
-157.785454
 20
49.671296
 30
0.0
 11
-156.285454
 21
49.671296
 31
0.0
  0
LINE
  5
3F8
  8
0
 10
-156.285454
 20
69.821296
 30
0.0
 11
-161.285454
 21
69.821296
 31
0.0
  0
LINE
  5
3F9
  8
0
 10
-162.285454
 20
68.821296
 30
0.0
 11
-162.285454
 21
50.671296
 31
0.0
  0
ARC
  5
3FA
  8
0
 10
-132.409454
 20
50.671296
 30
0.0
 40
1.0
 50
270.0
 51
0.0
  0
ARC
  5
3FB
  8
0
 10
-132.409454
 20
68.821296
 30
0.0
 40
1.0
 50
0.0
 51
90.0
  0
ARC
  5
3FC
  8
0
 10
-137.409454
 20
68.821296
 30
0.0
 40
1.0
 50
90.0
 51
180.0
  0
LINE
  5
3FD
  8
0
 10
-137.409454
 20
49.671296
 30
0.0
 11
-135.909454
 21
49.671296
 31
0.0
  0
LINE
  5
3FE
  8
0
 10
-135.909454
 20
49.671296
 30
0.0
 11
-132.409454
 21
49.671296
 31
0.0
  0
LINE
  5
3FF
  8
0
 10
-132.409454
 20
69.821296
 30
0.0
 11
-137.409454
 21
69.821296
 31
0.0
  0
LINE
  5
400
  8
0
 10
-131.409454
 20
50.671296
 30
0.0
 11
-131.409454
 21
68.821296
 31
0.0
  0
LINE
  5
401
  8
0
 10
-156.285454
 20
49.671296
 30
0.0
 11
-137.409454
 21
49.671296
 31
0.0
  0
LINE
  5
402
  8
0
  6
BYBLOCK
 10
-155.285454
 20
68.821296
 30
0.0
 11
-155.285454
 21
66.071296
 31
0.0
  0
LINE
  5
403
  8
0
  6
BYBLOCK
 10
-139.847454
 20
66.071296
 30
0.0
 11
-138.409454
 21
66.071296
 31
0.0
  0
LINE
  5
404
  8
0
  6
BYBLOCK
 10
-138.409454
 20
68.821296
 30
0.0
 11
-138.409454
 21
66.071296
 31
0.0
  0
LINE
  5
405
  8
0
  6
BYBLOCK
 10
-153.847454
 20
66.071296
 30
0.0
 11
-155.285454
 21
66.071296
 31
0.0
  0
ARC
  5
406
  8
0
 10
159.505306
 20
17.742031
 30
0.0
 40
1.0
 50
180.0
 51
270.0
  0
ARC
  5
407
  8
0
 10
171.505306
 20
17.742031
 30
0.0
 40
1.0
 50
270.0
 51
0.0
  0
LINE
  5
408
  8
0
 10
159.505306
 20
16.742031
 30
0.0
 11
171.505306
 21
16.742031
 31
0.0
  0
ARC
  5
409
  8
0
 10
179.943306
 20
33.142031
 30
0.0
 40
1.0
 50
0.0
 51
90.0
  0
ARC
  5
40A
  8
0
 10
174.943306
 20
14.992031
 30
0.0
 40
1.0
 50
180.0
 51
270.0
  0
ARC
  5
40B
  8
0
 10
179.943306
 20
14.992031
 30
0.0
 40
1.0
 50
270.0
 51
0.0
  0
LINE
  5
40C
  8
0
 10
179.943306
 20
34.142031
 30
0.0
 11
176.443306
 21
34.142031
 31
0.0
  0
LINE
  5
40D
  8
0
 10
176.443306
 20
34.142031
 30
0.0
 11
174.943306
 21
34.142031
 31
0.0
  0
LINE
  5
40E
  8
0
 10
174.943306
 20
13.992031
 30
0.0
 11
179.943306
 21
13.992031
 31
0.0
  0
LINE
  5
40F
  8
0
 10
180.943306
 20
14.992031
 30
0.0
 11
180.943306
 21
33.142031
 31
0.0
  0
ARC
  5
410
  8
0
 10
151.067306
 20
33.142031
 30
0.0
 40
1.0
 50
90.0
 51
180.0
  0
ARC
  5
411
  8
0
 10
151.067306
 20
14.992031
 30
0.0
 40
1.0
 50
180.0
 51
270.0
  0
ARC
  5
412
  8
0
 10
156.067306
 20
14.992031
 30
0.0
 40
1.0
 50
270.0
 51
0.0
  0
LINE
  5
413
  8
0
 10
156.067306
 20
34.142031
 30
0.0
 11
154.567306
 21
34.142031
 31
0.0
  0
LINE
  5
414
  8
0
 10
154.567306
 20
34.142031
 30
0.0
 11
151.067306
 21
34.142031
 31
0.0
  0
LINE
  5
415
  8
0
 10
151.067306
 20
13.992031
 30
0.0
 11
156.067306
 21
13.992031
 31
0.0
  0
LINE
  5
416
  8
0
 10
150.067306
 20
33.142031
 30
0.0
 11
150.067306
 21
14.992031
 31
0.0
  0
LINE
  5
417
  8
0
 10
174.943306
 20
34.142031
 30
0.0
 11
156.067306
 21
34.142031
 31
0.0
  0
LINE
  5
418
  8
0
  6
BYBLOCK
 10
173.943306
 20
14.992031
 30
0.0
 11
173.943306
 21
17.742031
 31
0.0
  0
LINE
  5
419
  8
0
  6
BYBLOCK
 10
158.505306
 20
17.742031
 30
0.0
 11
157.067306
 21
17.742031
 31
0.0
  0
LINE
  5
41A
  8
0
  6
BYBLOCK
 10
157.067306
 20
14.992031
 30
0.0
 11
157.067306
 21
17.742031
 31
0.0
  0
LINE
  5
41B
  8
0
  6
BYBLOCK
 10
172.505306
 20
17.742031
 30
0.0
 11
173.943306
 21
17.742031
 31
0.0
  0
ARC
  5
41C
  8
0
 10
57.205306
 20
48.792031
 30
0.0
 40
1.0
 50
0.0
 51
90.0
  0
ARC
  5
41D
  8
0
 10
45.205306
 20
48.792031
 30
0.0
 40
1.0
 50
90.0
 51
180.0
  0
LINE
  5
41E
  8
0
 10
57.205306
 20
49.792031
 30
0.0
 11
45.205306
 21
49.792031
 31
0.0
  0
ARC
  5
41F
  8
0
 10
36.767306
 20
33.392031
 30
0.0
 40
1.0
 50
180.0
 51
270.0
  0
ARC
  5
420
  8
0
 10
41.767306
 20
51.542031
 30
0.0
 40
1.0
 50
0.0
 51
90.0
  0
ARC
  5
421
  8
0
 10
36.767306
 20
51.542031
 30
0.0
 40
1.0
 50
90.0
 51
180.0
  0
LINE
  5
422
  8
0
 10
36.767306
 20
32.392031
 30
0.0
 11
40.267306
 21
32.392031
 31
0.0
  0
LINE
  5
423
  8
0
 10
40.267306
 20
32.392031
 30
0.0
 11
41.767306
 21
32.392031
 31
0.0
  0
LINE
  5
424
  8
0
 10
41.767306
 20
52.542031
 30
0.0
 11
36.767306
 21
52.542031
 31
0.0
  0
LINE
  5
425
  8
0
 10
35.767306
 20
51.542031
 30
0.0
 11
35.767306
 21
33.392031
 31
0.0
  0
ARC
  5
426
  8
0
 10
65.643306
 20
33.392031
 30
0.0
 40
1.0
 50
270.0
 51
0.0
  0
ARC
  5
427
  8
0
 10
65.643306
 20
51.542031
 30
0.0
 40
1.0
 50
0.0
 51
90.0
  0
ARC
  5
428
  8
0
 10
60.643306
 20
51.542031
 30
0.0
 40
1.0
 50
90.0
 51
180.0
  0
LINE
  5
429
  8
0
 10
60.643306
 20
32.392031
 30
0.0
 11
62.143306
 21
32.392031
 31
0.0
  0
LINE
  5
42A
  8
0
 10
62.143306
 20
32.392031
 30
0.0
 11
65.643306
 21
32.392031
 31
0.0
  0
LINE
  5
42B
  8
0
 10
65.643306
 20
52.542031
 30
0.0
 11
60.643306
 21
52.542031
 31
0.0
  0
LINE
  5
42C
  8
0
 10
66.643306
 20
33.392031
 30
0.0
 11
66.643306
 21
51.542031
 31
0.0
  0
LINE
  5
42D
  8
0
 10
41.767306
 20
32.392031
 30
0.0
 11
60.643306
 21
32.392031
 31
0.0
  0
LINE
  5
42E
  8
0
  6
BYBLOCK
 10
42.767306
 20
51.542031
 30
0.0
 11
42.767306
 21
48.792031
 31
0.0
  0
LINE
  5
42F
  8
0
  6
BYBLOCK
 10
58.205306
 20
48.792031
 30
0.0
 11
59.643306
 21
48.792031
 31
0.0
  0
LINE
  5
430
  8
0
  6
BYBLOCK
 10
59.643306
 20
51.542031
 30
0.0
 11
59.643306
 21
48.792031
 31
0.0
  0
LINE
  5
431
  8
0
  6
BYBLOCK
 10
44.205306
 20
48.792031
 30
0.0
 11
42.767306
 21
48.792031
 31
0.0
  0
ARC
  5
432
  8
0
 10
307.236556
 20
67.842031
 30
0.0
 40
1.0
 50
0.0
 51
90.0
  0
ARC
  5
433
  8
0
 10
295.236556
 20
67.842031
 30
0.0
 40
1.0
 50
90.0
 51
180.0
  0
LINE
  5
434
  8
0
 10
307.236556
 20
68.842031
 30
0.0
 11
295.236556
 21
68.842031
 31
0.0
  0
ARC
  5
435
  8
0
 10
286.798556
 20
52.442031
 30
0.0
 40
1.0
 50
180.0
 51
270.0
  0
ARC
  5
436
  8
0
 10
291.798556
 20
70.592031
 30
0.0
 40
1.0
 50
0.0
 51
90.0
  0
ARC
  5
437
  8
0
 10
286.798556
 20
70.592031
 30
0.0
 40
1.0
 50
90.0
 51
180.0
  0
LINE
  5
438
  8
0
 10
286.798556
 20
51.442031
 30
0.0
 11
290.298556
 21
51.442031
 31
0.0
  0
LINE
  5
439
  8
0
 10
290.298556
 20
51.442031
 30
0.0
 11
291.798556
 21
51.442031
 31
0.0
  0
LINE
  5
43A
  8
0
 10
291.798556
 20
71.592031
 30
0.0
 11
286.798556
 21
71.592031
 31
0.0
  0
LINE
  5
43B
  8
0
 10
285.798556
 20
70.592031
 30
0.0
 11
285.798556
 21
52.442031
 31
0.0
  0
ARC
  5
43C
  8
0
 10
315.674556
 20
52.442031
 30
0.0
 40
1.0
 50
270.0
 51
0.0
  0
ARC
  5
43D
  8
0
 10
315.674556
 20
70.592031
 30
0.0
 40
1.0
 50
0.0
 51
90.0
  0
ARC
  5
43E
  8
0
 10
310.674556
 20
70.592031
 30
0.0
 40
1.0
 50
90.0
 51
180.0
  0
LINE
  5
43F
  8
0
 10
310.674556
 20
51.442031
 30
0.0
 11
312.174556
 21
51.442031
 31
0.0
  0
LINE
  5
440
  8
0
 10
312.174556
 20
51.442031
 30
0.0
 11
315.674556
 21
51.442031
 31
0.0
  0
LINE
  5
441
  8
0
 10
315.674556
 20
71.592031
 30
0.0
 11
310.674556
 21
71.592031
 31
0.0
  0
LINE
  5
442
  8
0
 10
316.674556
 20
52.442031
 30
0.0
 11
316.674556
 21
70.592031
 31
0.0
  0
LINE
  5
443
  8
0
 10
291.798556
 20
51.442031
 30
0.0
 11
310.674556
 21
51.442031
 31
0.0
  0
LINE
  5
444
  8
0
  6
BYBLOCK
 10
292.798556
 20
70.592031
 30
0.0
 11
292.798556
 21
67.842031
 31
0.0
  0
LINE
  5
445
  8
0
  6
BYBLOCK
 10
308.236556
 20
67.842031
 30
0.0
 11
309.674556
 21
67.842031
 31
0.0
  0
LINE
  5
446
  8
0
  6
BYBLOCK
 10
309.674556
 20
70.592031
 30
0.0
 11
309.674556
 21
67.842031
 31
0.0
  0
LINE
  5
447
  8
0
  6
BYBLOCK
 10
294.236556
 20
67.842031
 30
0.0
 11
292.798556
 21
67.842031
 31
0.0
  0
POLYLINE
  5
448
  8
0
  6
BYBLOCK
 62
     4
 66
     1
 10
0.0
 20
0.0
 30
0.0
 70
     1
  0
VERTEX
  5
29E1
  8
0
  6
BYBLOCK
 62
     4
 10
41.680306
 20
90.417031
 30
0.0
  0
VERTEX
  5
29E2
  8
0
  6
BYBLOCK
 62
     4
 10
70.255306
 20
90.417031
 30
0.0
  0
VERTEX
  5
29E3
  8
0
  6
BYBLOCK
 62
     4
 10
70.255306
 20
71.367031
 30
0.0
  0
VERTEX
  5
29E4
  8
0
  6
BYBLOCK
 62
     4
 10
41.680306
 20
71.367031
 30
0.0
  0
SEQEND
  5
2B59
  8
0
  6
BYBLOCK
 62
     4
  0
POLYLINE
  5
449
  8
0
  6
BYBLOCK
 62
     4
 66
     1
 10
0.0
 20
0.0
 30
0.0
 70
     1
  0
VERTEX
  5
29E5
  8
0
  6
BYBLOCK
 62
     4
 10
260.755306
 20
90.417031
 30
0.0
  0
VERTEX
  5
29E6
  8
0
  6
BYBLOCK
 62
     4
 10
289.330306
 20
90.417031
 30
0.0
  0
VERTEX
  5
29E7
  8
0
  6
BYBLOCK
 62
     4
 10
289.330306
 20
71.367031
 30
0.0
  0
VERTEX
  5
29E8
  8
0
  6
BYBLOCK
 62
     4
 10
260.755306
 20
71.367031
 30
0.0
  0
SEQEND
  5
2B5A
  8
0
  6
BYBLOCK
 62
     4
  0
POLYLINE
  5
44A
  8
0
  6
BYBLOCK
 62
     4
 66
     1
 10
0.0
 20
0.0
 30
0.0
 70
     1
  0
VERTEX
  5
29E9
  8
0
  6
BYBLOCK
 62
     4
 10
36.917806
 20
71.367031
 30
0.0
  0
VERTEX
  5
29EA
  8
0
  6
BYBLOCK
 62
     4
 10
70.255306
 20
71.367031
 30
0.0
  0
VERTEX
  5
29EB
  8
0
  6
BYBLOCK
 62
     4
 10
70.255306
 20
52.317031
 30
0.0
  0
VERTEX
  5
29EC
  8
0
  6
BYBLOCK
 62
     4
 10
36.917806
 20
52.317031
 30
0.0
  0
SEQEND
  5
2B5B
  8
0
  6
BYBLOCK
 62
     4
  0
POLYLINE
  5
44B
  8
0
  6
BYBLOCK
 62
     4
 66
     1
 10
0.0
 20
0.0
 30
0.0
 70
     1
  0
VERTEX
  5
29ED
  8
0
  6
BYBLOCK
 62
     4
 10
-214.315711
 20
22.738684
 30
0.0
  0
VERTEX
  5
29EE
  8
0
  6
BYBLOCK
 62
     4
 10
-171.453211
 20
22.738684
 30
0.0
  0
VERTEX
  5
29EF
  8
0
  6
BYBLOCK
 62
     4
 10
-171.453211
 20
3.688684
 30
0.0
  0
VERTEX
  5
29F0
  8
0
  6
BYBLOCK
 62
     4
 10
-214.315711
 20
3.688684
 30
0.0
  0
SEQEND
  5
2B5C
  8
0
  6
BYBLOCK
 62
     4
  0
POLYLINE
  5
44C
  8
0
  6
BYBLOCK
 62
     4
 66
     1
 10
0.0
 20
0.0
 30
0.0
 70
     1
  0
VERTEX
  5
29F1
  8
0
  6
BYBLOCK
 62
     4
 10
32.155306
 20
52.317031
 30
0.0
  0
VERTEX
  5
29F2
  8
0
  6
BYBLOCK
 62
     4
 10
70.255306
 20
52.317031
 30
0.0
  0
VERTEX
  5
29F3
  8
0
  6
BYBLOCK
 62
     4
 10
70.255306
 20
33.267031
 30
0.0
  0
VERTEX
  5
29F4
  8
0
  6
BYBLOCK
 62
     4
 10
32.155306
 20
33.267031
 30
0.0
  0
SEQEND
  5
2B5D
  8
0
  6
BYBLOCK
 62
     4
  0
POLYLINE
  5
44D
  8
0
  6
BYBLOCK
 62
     4
 66
     1
 10
0.0
 20
0.0
 30
0.0
 70
     1
  0
VERTEX
  5
29F5
  8
0
  6
BYBLOCK
 62
     4
 10
260.755306
 20
52.317031
 30
0.0
  0
VERTEX
  5
29F6
  8
0
  6
BYBLOCK
 62
     4
 10
294.092806
 20
52.317031
 30
0.0
  0
VERTEX
  5
29F7
  8
0
  6
BYBLOCK
 62
     4
 10
294.092806
 20
33.267031
 30
0.0
  0
VERTEX
  5
29F8
  8
0
  6
BYBLOCK
 62
     4
 10
260.755306
 20
33.267031
 30
0.0
  0
SEQEND
  5
2B5E
  8
0
  6
BYBLOCK
 62
     4
  0
POLYLINE
  5
44E
  8
0
  6
BYBLOCK
 62
     4
 66
     1
 10
0.0
 20
0.0
 30
0.0
 70
     1
  0
VERTEX
  5
29F9
  8
0
  6
BYBLOCK
 62
     4
 10
279.805306
 20
71.367031
 30
0.0
  0
VERTEX
  5
29FA
  8
0
  6
BYBLOCK
 62
     4
 10
322.667806
 20
71.367031
 30
0.0
  0
VERTEX
  5
29FB
  8
0
  6
BYBLOCK
 62
     4
 10
322.667806
 20
52.317031
 30
0.0
  0
VERTEX
  5
29FC
  8
0
  6
BYBLOCK
 62
     4
 10
279.805306
 20
52.317031
 30
0.0
  0
SEQEND
  5
2B5F
  8
0
  6
BYBLOCK
 62
     4
  0
POLYLINE
  5
44F
  8
0
 62
     4
 66
     1
 10
0.0
 20
0.0
 30
0.0
 70
     1
  0
VERTEX
  5
29FD
  8
0
 62
     4
 10
294.092806
 20
52.317031
 30
0.0
  0
VERTEX
  5
29FE
  8
0
 62
     4
 10
313.142806
 20
52.317031
 30
0.0
  0
VERTEX
  5
29FF
  8
0
 62
     4
 10
313.142806
 20
33.267031
 30
0.0
  0
VERTEX
  5
2A00
  8
0
 62
     4
 10
294.092806
 20
33.267031
 30
0.0
  0
SEQEND
  5
2B60
  8
0
 62
     4
  0
POLYLINE
  5
450
  8
0
 62
     4
 66
     1
 10
0.0
 20
0.0
 30
0.0
 70
     1
  0
VERTEX
  5
2A01
  8
0
 62
     4
 10
289.330306
 20
90.417031
 30
0.0
  0
VERTEX
  5
2A02
  8
0
 62
     4
 10
308.380306
 20
90.417031
 30
0.0
  0
VERTEX
  5
2A03
  8
0
 62
     4
 10
308.380306
 20
71.367031
 30
0.0
  0
VERTEX
  5
2A04
  8
0
 62
     4
 10
289.330306
 20
71.367031
 30
0.0
  0
SEQEND
  5
2B61
  8
0
 62
     4
  0
POLYLINE
  5
451
  8
0
  6
BYBLOCK
 62
     4
 66
     1
 10
0.0
 20
0.0
 30
0.0
 70
     1
  0
VERTEX
  5
2A05
  8
0
  6
BYBLOCK
 62
     4
 10
70.255306
 20
33.267031
 30
0.0
  0
VERTEX
  5
2A06
  8
0
  6
BYBLOCK
 62
     4
 10
94.067806
 20
33.267031
 30
0.0
  0
VERTEX
  5
2A07
  8
0
  6
BYBLOCK
 62
     4
 10
94.067806
 20
14.217031
 30
0.0
  0
VERTEX
  5
2A08
  8
0
  6
BYBLOCK
 62
     4
 10
70.255306
 20
14.217031
 30
0.0
  0
SEQEND
  5
2B62
  8
0
  6
BYBLOCK
 62
     4
  0
POLYLINE
  5
452
  8
0
  6
BYBLOCK
 62
     4
 66
     1
 10
0.0
 20
0.0
 30
0.0
 70
     1
  0
VERTEX
  5
2A09
  8
0
  6
BYBLOCK
 62
     4
 10
94.067806
 20
33.267031
 30
0.0
  0
VERTEX
  5
2A0A
  8
0
  6
BYBLOCK
 62
     4
 10
122.642806
 20
33.267031
 30
0.0
  0
VERTEX
  5
2A0B
  8
0
  6
BYBLOCK
 62
     4
 10
122.642806
 20
14.217031
 30
0.0
  0
VERTEX
  5
2A0C
  8
0
  6
BYBLOCK
 62
     4
 10
94.067806
 20
14.217031
 30
0.0
  0
SEQEND
  5
2B63
  8
0
  6
BYBLOCK
 62
     4
  0
POLYLINE
  5
453
  8
0
  6
BYBLOCK
 62
     4
 66
     1
 10
0.0
 20
0.0
 30
0.0
 70
     1
  0
VERTEX
  5
2A0D
  8
0
  6
BYBLOCK
 62
     4
 10
122.642806
 20
33.267031
 30
0.0
  0
VERTEX
  5
2A0E
  8
0
  6
BYBLOCK
 62
     4
 10
146.455306
 20
33.267031
 30
0.0
  0
VERTEX
  5
2A0F
  8
0
  6
BYBLOCK
 62
     4
 10
146.455306
 20
14.217031
 30
0.0
  0
VERTEX
  5
2A10
  8
0
  6
BYBLOCK
 62
     4
 10
122.642806
 20
14.217031
 30
0.0
  0
SEQEND
  5
2B64
  8
0
  6
BYBLOCK
 62
     4
  0
POLYLINE
  5
454
  8
0
  6
BYBLOCK
 62
     4
 66
     1
 10
0.0
 20
0.0
 30
0.0
 70
     1
  0
VERTEX
  5
2A11
  8
0
  6
BYBLOCK
 62
     4
 10
184.555306
 20
33.267031
 30
0.0
  0
VERTEX
  5
2A12
  8
0
  6
BYBLOCK
 62
     4
 10
208.367806
 20
33.267031
 30
0.0
  0
VERTEX
  5
2A13
  8
0
  6
BYBLOCK
 62
     4
 10
208.367806
 20
14.217031
 30
0.0
  0
VERTEX
  5
2A14
  8
0
  6
BYBLOCK
 62
     4
 10
184.555306
 20
14.217031
 30
0.0
  0
SEQEND
  5
2B65
  8
0
  6
BYBLOCK
 62
     4
  0
POLYLINE
  5
455
  8
0
  6
BYBLOCK
 62
     4
 66
     1
 10
0.0
 20
0.0
 30
0.0
 70
     1
  0
VERTEX
  5
2A15
  8
0
  6
BYBLOCK
 62
     4
 10
208.367806
 20
33.267031
 30
0.0
  0
VERTEX
  5
2A16
  8
0
  6
BYBLOCK
 62
     4
 10
236.942806
 20
33.267031
 30
0.0
  0
VERTEX
  5
2A17
  8
0
  6
BYBLOCK
 62
     4
 10
236.942806
 20
14.217031
 30
0.0
  0
VERTEX
  5
2A18
  8
0
  6
BYBLOCK
 62
     4
 10
208.367806
 20
14.217031
 30
0.0
  0
SEQEND
  5
2B66
  8
0
  6
BYBLOCK
 62
     4
  0
POLYLINE
  5
456
  8
0
  6
BYBLOCK
 62
     4
 66
     1
 10
0.0
 20
0.0
 30
0.0
 70
     1
  0
VERTEX
  5
2A19
  8
0
  6
BYBLOCK
 62
     4
 10
236.942806
 20
33.267031
 30
0.0
  0
VERTEX
  5
2A1A
  8
0
  6
BYBLOCK
 62
     4
 10
260.755306
 20
33.267031
 30
0.0
  0
VERTEX
  5
2A1B
  8
0
  6
BYBLOCK
 62
     4
 10
260.755306
 20
14.217031
 30
0.0
  0
VERTEX
  5
2A1C
  8
0
  6
BYBLOCK
 62
     4
 10
236.942806
 20
14.217031
 30
0.0
  0
SEQEND
  5
2B67
  8
0
  6
BYBLOCK
 62
     4
  0
POLYLINE
  5
457
  8
0
  6
BYBLOCK
 62
     4
 66
     1
 10
0.0
 20
0.0
 30
0.0
 70
     1
  0
VERTEX
  5
2A1D
  8
0
  6
BYBLOCK
 62
     4
 10
146.455306
 20
33.267031
 30
0.0
  0
VERTEX
  5
2A1E
  8
0
  6
BYBLOCK
 62
     4
 10
184.555306
 20
33.267031
 30
0.0
  0
VERTEX
  5
2A1F
  8
0
  6
BYBLOCK
 62
     4
 10
184.555306
 20
14.217031
 30
0.0
  0
VERTEX
  5
2A20
  8
0
  6
BYBLOCK
 62
     4
 10
146.455306
 20
14.217031
 30
0.0
  0
SEQEND
  5
2B68
  8
0
  6
BYBLOCK
 62
     4
  0
POLYLINE
  5
624
  8
0
  6
BYBLOCK
 66
     1
 10
0.0
 20
0.0
 30
0.0
 70
     1
  0
VERTEX
  5
2A21
  8
0
  6
BYBLOCK
 10
8.342806
 20
16.217031
 30
0.0
  0
VERTEX
  5
2A22
  8
0
  6
BYBLOCK
 10
8.342806
 20
107.467031
 30
0.0
 42
-0.414214
  0
VERTEX
  5
2A23
  8
0
  6
BYBLOCK
 10
10.342806
 20
109.467031
 30
0.0
  0
VERTEX
  5
2A24
  8
0
  6
BYBLOCK
 10
320.667806
 20
109.467031
 30
0.0
 42
-0.414214
  0
VERTEX
  5
2A25
  8
0
  6
BYBLOCK
 10
322.667806
 20
107.467031
 30
0.0
  0
VERTEX
  5
2A26
  8
0
  6
BYBLOCK
 10
322.667806
 20
16.217031
 30
0.0
 42
-0.414214
  0
VERTEX
  5
2A27
  8
0
  6
BYBLOCK
 10
320.667806
 20
14.217031
 30
0.0
  0
VERTEX
  5
2A28
  8
0
  6
BYBLOCK
 10
10.342806
 20
14.217031
 30
0.0
 42
-0.414214
  0
SEQEND
  5
2B69
  8
0
  6
BYBLOCK
  0
LINE
  5
7CE
  8
0
  6
BYBLOCK
 10
8.342806
 20
4.217031
 30
0.0
 11
322.667806
 21
4.217031
 31
0.0
  0
LINE
  5
7CF
  8
0
  6
BYBLOCK
 10
327.667806
 20
119.467031
 30
0.0
 11
327.667806
 21
9.217031
 31
0.0
  0
LINE
  5
7D0
  8
0
  6
BYBLOCK
 10
3.342806
 20
9.217031
 30
0.0
 11
3.342806
 21
119.467031
 31
0.0
  0
LINE
  5
7D1
  8
0
  6
BYBLOCK
 10
322.667806
 20
124.467031
 30
0.0
 11
8.342806
 21
124.467031
 31
0.0
  0
ARC
  5
7D2
  8
0
  6
BYBLOCK
 10
8.342806
 20
119.467031
 30
0.0
 40
4.999999999999474
 50
90.0
 51
180.0
1001
MCSXDATA5
1071
      167
1004
06000000000000008B0000001C000000B503000000000000000000001F050A025C020509020FEE020C4D43535F46494C4C45545F3109020FEE020C4D43535F46494C4C45545F3209020FEE020C4D43535F46494C4C45545F3309020FEE020C4D43535F46494C4C45545F3409020FEE020C4D43535F46494C4C45545F351202
1004
2602050201030201030202020103020326020502010302012202010302010302010201030201221A
  0
ARC
  5
7E1
  8
0
  6
BYBLOCK
 10
322.667806
 20
119.467031
 30
0.0
 40
4.999999999997669
 50
0.0
 51
90.0
1001
MCSXDATA5
1071
      167
1004
06000000000000008B0000001C000000B503000000000000000000001F050A025C020509020FEE020C4D43535F46494C4C45545F3109020FEE020C4D43535F46494C4C45545F3209020FEE020C4D43535F46494C4C45545F3309020FEE020C4D43535F46494C4C45545F3409020FEE020C4D43535F46494C4C45545F351202
1004
2602050201030201030202020103020326020502010302012202010302010302010201030201221A
  0
ARC
  5
7E3
  8
0
  6
BYBLOCK
 10
322.667806
 20
9.217031
 30
0.0
 40
4.999999999999122
 50
270.0
 51
0.0
1001
MCSXDATA5
1071
      167
1004
06000000000000008B0000001C000000B503000000000000000000001F050A025C020509020FEE020C4D43535F46494C4C45545F3109020FEE020C4D43535F46494C4C45545F3209020FEE020C4D43535F46494C4C45545F3309020FEE020C4D43535F46494C4C45545F3409020FEE020C4D43535F46494C4C45545F351202
1004
2602050201030201030202020103020326020502010302012202010302010302010201030201221A
  0
ARC
  5
7E4
  8
0
  6
BYBLOCK
 10
8.342806
 20
9.217031
 30
0.0
 40
5.0
 50
180.0
 51
270.0
1001
MCSXDATA5
1071
      167
1004
06000000000000008B0000001C000000B503000000000000000000001F050A025C020509020FEE020C4D43535F46494C4C45545F3109020FEE020C4D43535F46494C4C45545F3209020FEE020C4D43535F46494C4C45545F3309020FEE020C4D43535F46494C4C45545F3409020FEE020C4D43535F46494C4C45545F351202
1004
2602050201030201030202020103020326020502010302012202010302010302010201030201221A
  0
POLYLINE
  5
9E1
  8
0
  6
BYBLOCK
 62
     3
 66
     1
 10
0.0
 20
0.0
 30
0.0
 70
     1
  0
VERTEX
  5
2A29
  8
0
  6
BYBLOCK
 62
     3
 10
25.892806
 20
109.967031
 30
0.0
  0
VERTEX
  5
2A2A
  8
0
  6
BYBLOCK
 62
     3
 10
9.842806
 20
109.967031
 30
0.0
 42
0.414214
  0
VERTEX
  5
2A2B
  8
0
  6
BYBLOCK
 62
     3
 10
7.842806
 20
107.967031
 30
0.0
  0
VERTEX
  5
2A2C
  8
0
  6
BYBLOCK
 62
     3
 10
7.842806
 20
34.767031
 30
0.0
 42
0.414214
  0
VERTEX
  5
2A2D
  8
0
  6
BYBLOCK
 62
     3
 10
9.842806
 20
32.767031
 30
0.0
  0
VERTEX
  5
2A2E
  8
0
  6
BYBLOCK
 62
     3
 10
25.892806
 20
32.767031
 30
0.0
 42
0.414214
  0
VERTEX
  5
2A2F
  8
0
  6
BYBLOCK
 62
     3
 10
27.892806
 20
34.767031
 30
0.0
  0
VERTEX
  5
2A30
  8
0
  6
BYBLOCK
 62
     3
 10
27.892806
 20
107.967031
 30
0.0
 42
0.414214
  0
SEQEND
  5
2B6A
  8
0
  6
BYBLOCK
 62
     3
  0
POLYLINE
  5
B4D
  8
0
  6
BYBLOCK
 62
     3
 66
     1
 10
0.0
 20
0.0
 30
0.0
 70
     1
  0
VERTEX
  5
2A31
  8
0
  6
BYBLOCK
 62
     3
 10
261.255306
 20
15.717031
 30
0.0
  0
VERTEX
  5
2A32
  8
0
  6
BYBLOCK
 62
     3
 10
261.255306
 20
32.767031
 30
0.0
  0
VERTEX
  5
2A33
  8
0
  6
BYBLOCK
 62
     3
 10
311.642806
 20
32.767031
 30
0.0
 42
0.414214
  0
VERTEX
  5
2A34
  8
0
  6
BYBLOCK
 62
     3
 10
313.642806
 20
34.767031
 30
0.0
  0
VERTEX
  5
2A35
  8
0
  6
BYBLOCK
 62
     3
 10
313.642806
 20
51.817031
 30
0.0
  0
VERTEX
  5
2A36
  8
0
  6
BYBLOCK
 62
     3
 10
321.167806
 20
51.817031
 30
0.0
 42
0.414214
  0
VERTEX
  5
2A37
  8
0
  6
BYBLOCK
 62
     3
 10
323.167806
 20
53.817031
 30
0.0
  0
VERTEX
  5
2A38
  8
0
  6
BYBLOCK
 62
     3
 10
323.167806
 20
69.867031
 30
0.0
 42
0.414214
  0
VERTEX
  5
2A39
  8
0
  6
BYBLOCK
 62
     3
 10
321.167806
 20
71.867031
 30
0.0
  0
VERTEX
  5
2A3A
  8
0
  6
BYBLOCK
 62
     3
 10
308.880306
 20
71.867031
 30
0.0
  0
VERTEX
  5
2A3B
  8
0
  6
BYBLOCK
 62
     3
 10
308.880306
 20
88.917031
 30
0.0
 42
0.414214
  0
VERTEX
  5
2A3C
  8
0
  6
BYBLOCK
 62
     3
 10
306.880306
 20
90.917031
 30
0.0
  0
VERTEX
  5
2A3D
  8
0
  6
BYBLOCK
 62
     3
 10
299.355306
 20
90.917031
 30
0.0
  0
VERTEX
  5
2A3E
  8
0
  6
BYBLOCK
 62
     3
 10
299.355306
 20
107.967031
 30
0.0
 42
0.414214
  0
VERTEX
  5
2A3F
  8
0
  6
BYBLOCK
 62
     3
 10
297.355306
 20
109.967031
 30
0.0
  0
VERTEX
  5
2A40
  8
0
  6
BYBLOCK
 62
     3
 10
52.705306
 20
109.967031
 30
0.0
 42
0.414214
  0
VERTEX
  5
2A41
  8
0
  6
BYBLOCK
 62
     3
 10
50.705306
 20
107.967031
 30
0.0
  0
VERTEX
  5
2A42
  8
0
  6
BYBLOCK
 62
     3
 10
50.705306
 20
90.917031
 30
0.0
  0
VERTEX
  5
2A43
  8
0
  6
BYBLOCK
 62
     3
 10
43.180306
 20
90.917031
 30
0.0
 42
0.414214
  0
VERTEX
  5
2A44
  8
0
  6
BYBLOCK
 62
     3
 10
41.180306
 20
88.917031
 30
0.0
  0
VERTEX
  5
2A45
  8
0
  6
BYBLOCK
 62
     3
 10
41.180306
 20
71.867031
 30
0.0
  0
VERTEX
  5
2A46
  8
0
  6
BYBLOCK
 62
     3
 10
38.417806
 20
71.867031
 30
0.0
 42
0.414214
  0
VERTEX
  5
2A47
  8
0
  6
BYBLOCK
 62
     3
 10
36.417806
 20
69.867031
 30
0.0
  0
VERTEX
  5
2A48
  8
0
  6
BYBLOCK
 62
     3
 10
36.417806
 20
52.817031
 30
0.0
  0
VERTEX
  5
2A49
  8
0
  6
BYBLOCK
 62
     3
 10
33.655306
 20
52.817031
 30
0.0
 42
0.414214
  0
VERTEX
  5
2A4A
  8
0
  6
BYBLOCK
 62
     3
 10
31.655306
 20
50.817031
 30
0.0
  0
VERTEX
  5
2A4B
  8
0
  6
BYBLOCK
 62
     3
 10
31.655306
 20
34.767031
 30
0.0
 42
0.414214
  0
VERTEX
  5
2A4C
  8
0
  6
BYBLOCK
 62
     3
 10
33.655306
 20
32.767031
 30
0.0
  0
VERTEX
  5
2A4D
  8
0
  6
BYBLOCK
 62
     3
 10
69.755306
 20
32.767031
 30
0.0
  0
VERTEX
  5
2A4E
  8
0
  6
BYBLOCK
 62
     3
 10
69.755306
 20
15.717031
 30
0.0
 42
0.414214
  0
VERTEX
  5
2A4F
  8
0
  6
BYBLOCK
 62
     3
 10
71.755306
 20
13.717031
 30
0.0
  0
VERTEX
  5
2A50
  8
0
  6
BYBLOCK
 62
     3
 10
259.255306
 20
13.717031
 30
0.0
 42
0.414214
  0
SEQEND
  5
2B6B
  8
0
  6
BYBLOCK
 62
     3
  0
ARC
  5
F1C
  8
0
 62
     2
 10
-113.406689
 20
54.071296
 30
0.0
 40
1.0
 50
180.0
 51
270.0
  0
ARC
  5
F1D
  8
0
 62
     2
 10
-101.406689
 20
54.071296
 30
0.0
 40
1.0
 50
270.0
 51
0.0
  0
ARC
  5
F1E
  8
0
 62
     2
 10
-101.406689
 20
66.071296
 30
0.0
 40
1.0
 50
0.0
 51
90.0
  0
ARC
  5
F1F
  8
0
 62
     2
 10
-113.406689
 20
66.071296
 30
0.0
 40
1.0
 50
90.0
 51
180.0
  0
LINE
  5
F20
  8
0
 62
     2
 10
-113.406689
 20
53.071296
 30
0.0
 11
-101.406689
 21
53.071296
 31
0.0
  0
LINE
  5
F21
  8
0
 62
     2
 10
-101.406689
 20
67.071296
 30
0.0
 11
-113.406689
 21
67.071296
 31
0.0
  0
LINE
  5
F22
  8
0
 62
     2
 10
-100.406689
 20
54.071296
 30
0.0
 11
-100.406689
 21
66.071296
 31
0.0
  0
LINE
  5
F23
  8
0
 62
     2
 10
-114.406689
 20
66.071296
 30
0.0
 11
-114.406689
 21
54.071296
 31
0.0
  0
ARC
  5
F24
  8
0
 62
     2
 10
-121.844689
 20
52.071296
 30
0.0
 40
1.0
 50
180.0
 51
270.0
  0
ARC
  5
F25
  8
0
 62
     2
 10
-116.844689
 20
52.071296
 30
0.0
 40
1.0
 50
270.0
 51
0.0
  0
ARC
  5
F26
  8
0
 62
     2
 10
-116.844689
 20
66.071296
 30
0.0
 40
1.0
 50
0.0
 51
90.0
  0
ARC
  5
F27
  8
0
 62
     2
 10
-121.844689
 20
66.071296
 30
0.0
 40
1.0
 50
90.0
 51
180.0
  0
LINE
  5
F28
  8
0
 62
     2
 10
-121.844689
 20
51.071296
 30
0.0
 11
-116.844689
 21
51.071296
 31
0.0
  0
LINE
  5
F29
  8
0
 62
     2
 10
-116.844689
 20
67.071296
 30
0.0
 11
-121.844689
 21
67.071296
 31
0.0
  0
LINE
  5
F2A
  8
0
 62
     2
 10
-115.844689
 20
52.071296
 30
0.0
 11
-115.844689
 21
66.071296
 31
0.0
  0
LINE
  5
F2B
  8
0
 62
     2
 10
-122.844689
 20
66.071296
 30
0.0
 11
-122.844689
 21
52.071296
 31
0.0
  0
ARC
  5
F2C
  8
0
 62
     2
 10
-97.968689
 20
52.071296
 30
0.0
 40
1.0
 50
180.0
 51
270.0
  0
ARC
  5
F2D
  8
0
 62
     2
 10
-92.968689
 20
52.071296
 30
0.0
 40
1.0
 50
270.0
 51
0.0
  0
ARC
  5
F2E
  8
0
 62
     2
 10
-92.968689
 20
66.071296
 30
0.0
 40
1.0
 50
0.0
 51
90.0
  0
ARC
  5
F2F
  8
0
 62
     2
 10
-97.968689
 20
66.071296
 30
0.0
 40
1.0
 50
90.0
 51
180.0
  0
LINE
  5
F30
  8
0
 62
     2
 10
-97.968689
 20
51.071296
 30
0.0
 11
-92.968689
 21
51.071296
 31
0.0
  0
LINE
  5
F31
  8
0
 62
     2
 10
-92.968689
 20
67.071296
 30
0.0
 11
-97.968689
 21
67.071296
 31
0.0
  0
LINE
  5
F32
  8
0
 62
     2
 10
-91.968689
 20
52.071296
 30
0.0
 11
-91.968689
 21
66.071296
 31
0.0
  0
LINE
  5
F33
  8
0
 62
     2
 10
-98.968689
 20
66.071296
 30
0.0
 11
-98.968689
 21
52.071296
 31
0.0
  0
ARC
  5
F54
  8
0
 62
     2
 10
-101.406689
 20
91.176981
 30
0.0
 40
1.0
 50
0.0
 51
90.0
  0
ARC
  5
F55
  8
0
 62
     2
 10
-113.406689
 20
91.176981
 30
0.0
 40
1.0
 50
90.0
 51
180.0
  0
ARC
  5
F56
  8
0
 62
     2
 10
-113.406689
 20
79.176981
 30
0.0
 40
1.0
 50
180.0
 51
270.0
  0
ARC
  5
F57
  8
0
 62
     2
 10
-101.406689
 20
79.176981
 30
0.0
 40
1.0
 50
270.0
 51
0.0
  0
LINE
  5
F58
  8
0
 62
     2
 10
-101.406689
 20
92.176981
 30
0.0
 11
-113.406689
 21
92.176981
 31
0.0
  0
LINE
  5
F59
  8
0
 62
     2
 10
-113.406689
 20
78.176981
 30
0.0
 11
-101.406689
 21
78.176981
 31
0.0
  0
LINE
  5
F5A
  8
0
 62
     2
 10
-114.406689
 20
91.176981
 30
0.0
 11
-114.406689
 21
79.176981
 31
0.0
  0
LINE
  5
F5B
  8
0
 62
     2
 10
-100.406689
 20
79.176981
 30
0.0
 11
-100.406689
 21
91.176981
 31
0.0
  0
ARC
  5
F5C
  8
0
 62
     2
 10
-92.968689
 20
93.176981
 30
0.0
 40
1.0
 50
0.0
 51
90.0
  0
ARC
  5
F5D
  8
0
 62
     2
 10
-97.968689
 20
93.176981
 30
0.0
 40
1.0
 50
90.0
 51
180.0
  0
ARC
  5
F5E
  8
0
 62
     2
 10
-97.968689
 20
79.176981
 30
0.0
 40
1.0
 50
180.0
 51
270.0
  0
ARC
  5
F5F
  8
0
 62
     2
 10
-92.968689
 20
79.176981
 30
0.0
 40
1.0
 50
270.0
 51
0.0
  0
LINE
  5
F60
  8
0
 62
     2
 10
-92.968689
 20
94.176981
 30
0.0
 11
-97.968689
 21
94.176981
 31
0.0
  0
LINE
  5
F61
  8
0
 62
     2
 10
-97.968689
 20
78.176981
 30
0.0
 11
-92.968689
 21
78.176981
 31
0.0
  0
LINE
  5
F62
  8
0
 62
     2
 10
-98.968689
 20
93.176981
 30
0.0
 11
-98.968689
 21
79.176981
 31
0.0
  0
LINE
  5
F63
  8
0
 62
     2
 10
-91.968689
 20
79.176981
 30
0.0
 11
-91.968689
 21
93.176981
 31
0.0
  0
ARC
  5
F64
  8
0
 62
     2
 10
-116.844689
 20
93.176981
 30
0.0
 40
1.0
 50
0.0
 51
90.0
  0
ARC
  5
F65
  8
0
 62
     2
 10
-121.844689
 20
93.176981
 30
0.0
 40
1.0
 50
90.0
 51
180.0
  0
ARC
  5
F66
  8
0
 62
     2
 10
-121.844689
 20
79.176981
 30
0.0
 40
1.0
 50
180.0
 51
270.0
  0
ARC
  5
F67
  8
0
 62
     2
 10
-116.844689
 20
79.176981
 30
0.0
 40
1.0
 50
270.0
 51
0.0
  0
LINE
  5
F68
  8
0
 62
     2
 10
-116.844689
 20
94.176981
 30
0.0
 11
-121.844689
 21
94.176981
 31
0.0
  0
LINE
  5
F69
  8
0
 62
     2
 10
-121.844689
 20
78.176981
 30
0.0
 11
-116.844689
 21
78.176981
 31
0.0
  0
LINE
  5
F6A
  8
0
 62
     2
 10
-122.844689
 20
93.176981
 30
0.0
 11
-122.844689
 21
79.176981
 31
0.0
  0
LINE
  5
F6B
  8
0
 62
     2
 10
-115.844689
 20
79.176981
 30
0.0
 11
-115.844689
 21
93.176981
 31
0.0
  0
ARC
  5
F8C
  8
0
 62
     2
 10
171.505306
 20
29.742031
 30
0.0
 40
1.0
 50
0.0
 51
90.0
  0
ARC
  5
F8D
  8
0
 62
     2
 10
159.505306
 20
29.742031
 30
0.0
 40
1.0
 50
90.0
 51
180.0
  0
ARC
  5
F8E
  8
0
 62
     2
 10
159.505306
 20
17.742031
 30
0.0
 40
1.0
 50
180.0
 51
270.0
  0
ARC
  5
F8F
  8
0
 62
     2
 10
171.505306
 20
17.742031
 30
0.0
 40
1.0
 50
270.0
 51
0.0
  0
LINE
  5
F90
  8
0
 62
     2
 10
171.505306
 20
30.742031
 30
0.0
 11
159.505306
 21
30.742031
 31
0.0
  0
LINE
  5
F91
  8
0
 62
     2
 10
159.505306
 20
16.742031
 30
0.0
 11
171.505306
 21
16.742031
 31
0.0
  0
LINE
  5
F92
  8
0
 62
     2
 10
158.505306
 20
29.742031
 30
0.0
 11
158.505306
 21
17.742031
 31
0.0
  0
LINE
  5
F93
  8
0
 62
     2
 10
172.505306
 20
17.742031
 30
0.0
 11
172.505306
 21
29.742031
 31
0.0
  0
ARC
  5
F94
  8
0
 62
     2
 10
179.943306
 20
31.742031
 30
0.0
 40
1.0
 50
0.0
 51
90.0
  0
ARC
  5
F95
  8
0
 62
     2
 10
174.943306
 20
31.742031
 30
0.0
 40
1.0
 50
90.0
 51
180.0
  0
ARC
  5
F96
  8
0
 62
     2
 10
174.943306
 20
17.742031
 30
0.0
 40
1.0
 50
180.0
 51
270.0
  0
ARC
  5
F97
  8
0
 62
     2
 10
179.943306
 20
17.742031
 30
0.0
 40
1.0
 50
270.0
 51
0.0
  0
LINE
  5
F98
  8
0
 62
     2
 10
179.943306
 20
32.742031
 30
0.0
 11
174.943306
 21
32.742031
 31
0.0
  0
LINE
  5
F99
  8
0
 62
     2
 10
174.943306
 20
16.742031
 30
0.0
 11
179.943306
 21
16.742031
 31
0.0
  0
LINE
  5
F9A
  8
0
 62
     2
 10
173.943306
 20
31.742031
 30
0.0
 11
173.943306
 21
17.742031
 31
0.0
  0
LINE
  5
F9B
  8
0
 62
     2
 10
180.943306
 20
17.742031
 30
0.0
 11
180.943306
 21
31.742031
 31
0.0
  0
ARC
  5
F9C
  8
0
 62
     2
 10
156.067306
 20
31.742031
 30
0.0
 40
1.0
 50
0.0
 51
90.0
  0
ARC
  5
F9D
  8
0
 62
     2
 10
151.067306
 20
31.742031
 30
0.0
 40
1.0
 50
90.0
 51
180.0
  0
ARC
  5
F9E
  8
0
 62
     2
 10
151.067306
 20
17.742031
 30
0.0
 40
1.0
 50
180.0
 51
270.0
  0
ARC
  5
F9F
  8
0
 62
     2
 10
156.067306
 20
17.742031
 30
0.0
 40
1.0
 50
270.0
 51
0.0
  0
LINE
  5
FA0
  8
0
 62
     2
 10
156.067306
 20
32.742031
 30
0.0
 11
151.067306
 21
32.742031
 31
0.0
  0
LINE
  5
FA1
  8
0
 62
     2
 10
151.067306
 20
16.742031
 30
0.0
 11
156.067306
 21
16.742031
 31
0.0
  0
LINE
  5
FA2
  8
0
 62
     2
 10
150.067306
 20
31.742031
 30
0.0
 11
150.067306
 21
17.742031
 31
0.0
  0
LINE
  5
FA3
  8
0
 62
     2
 10
157.067306
 20
17.742031
 30
0.0
 11
157.067306
 21
31.742031
 31
0.0
  0
ARC
  5
FC4
  8
0
 62
     2
 10
45.205306
 20
36.792031
 30
0.0
 40
1.0
 50
180.0
 51
270.0
  0
ARC
  5
FC5
  8
0
 62
     2
 10
57.205306
 20
36.792031
 30
0.0
 40
1.0
 50
270.0
 51
0.0
  0
ARC
  5
FC6
  8
0
 62
     2
 10
57.205306
 20
48.792031
 30
0.0
 40
1.0
 50
0.0
 51
90.0
  0
ARC
  5
FC7
  8
0
 62
     2
 10
45.205306
 20
48.792031
 30
0.0
 40
1.0
 50
90.0
 51
180.0
  0
LINE
  5
FC8
  8
0
 62
     2
 10
45.205306
 20
35.792031
 30
0.0
 11
57.205306
 21
35.792031
 31
0.0
  0
LINE
  5
FC9
  8
0
 62
     2
 10
57.205306
 20
49.792031
 30
0.0
 11
45.205306
 21
49.792031
 31
0.0
  0
LINE
  5
FCA
  8
0
 62
     2
 10
58.205306
 20
36.792031
 30
0.0
 11
58.205306
 21
48.792031
 31
0.0
  0
LINE
  5
FCB
  8
0
 62
     2
 10
44.205306
 20
48.792031
 30
0.0
 11
44.205306
 21
36.792031
 31
0.0
  0
ARC
  5
FCC
  8
0
 62
     2
 10
36.767306
 20
34.792031
 30
0.0
 40
1.0
 50
180.0
 51
270.0
  0
ARC
  5
FCD
  8
0
 62
     2
 10
41.767306
 20
34.792031
 30
0.0
 40
1.0
 50
270.0
 51
0.0
  0
ARC
  5
FCE
  8
0
 62
     2
 10
41.767306
 20
48.792031
 30
0.0
 40
1.0
 50
0.0
 51
90.0
  0
ARC
  5
FCF
  8
0
 62
     2
 10
36.767306
 20
48.792031
 30
0.0
 40
1.0
 50
90.0
 51
180.0
  0
LINE
  5
FD0
  8
0
 62
     2
 10
36.767306
 20
33.792031
 30
0.0
 11
41.767306
 21
33.792031
 31
0.0
  0
LINE
  5
FD1
  8
0
 62
     2
 10
41.767306
 20
49.792031
 30
0.0
 11
36.767306
 21
49.792031
 31
0.0
  0
LINE
  5
FD2
  8
0
 62
     2
 10
42.767306
 20
34.792031
 30
0.0
 11
42.767306
 21
48.792031
 31
0.0
  0
LINE
  5
FD3
  8
0
 62
     2
 10
35.767306
 20
48.792031
 30
0.0
 11
35.767306
 21
34.792031
 31
0.0
  0
ARC
  5
FD4
  8
0
 62
     2
 10
60.643306
 20
34.792031
 30
0.0
 40
1.0
 50
180.0
 51
270.0
  0
ARC
  5
FD5
  8
0
 62
     2
 10
65.643306
 20
34.792031
 30
0.0
 40
1.0
 50
270.0
 51
0.0
  0
ARC
  5
FD6
  8
0
 62
     2
 10
65.643306
 20
48.792031
 30
0.0
 40
1.0
 50
0.0
 51
90.0
  0
ARC
  5
FD7
  8
0
 62
     2
 10
60.643306
 20
48.792031
 30
0.0
 40
1.0
 50
90.0
 51
180.0
  0
LINE
  5
FD8
  8
0
 62
     2
 10
60.643306
 20
33.792031
 30
0.0
 11
65.643306
 21
33.792031
 31
0.0
  0
LINE
  5
FD9
  8
0
 62
     2
 10
65.643306
 20
49.792031
 30
0.0
 11
60.643306
 21
49.792031
 31
0.0
  0
LINE
  5
FDA
  8
0
 62
     2
 10
66.643306
 20
34.792031
 30
0.0
 11
66.643306
 21
48.792031
 31
0.0
  0
LINE
  5
FDB
  8
0
 62
     2
 10
59.643306
 20
48.792031
 30
0.0
 11
59.643306
 21
34.792031
 31
0.0
  0
ARC
  5
FFC
  8
0
 62
     2
 10
295.236556
 20
55.842031
 30
0.0
 40
1.0
 50
180.0
 51
270.0
  0
ARC
  5
FFD
  8
0
 62
     2
 10
307.236556
 20
55.842031
 30
0.0
 40
1.0
 50
270.0
 51
0.0
  0
ARC
  5
FFE
  8
0
 62
     2
 10
307.236556
 20
67.842031
 30
0.0
 40
1.0
 50
0.0
 51
90.0
  0
ARC
  5
FFF
  8
0
 62
     2
 10
295.236556
 20
67.842031
 30
0.0
 40
1.0
 50
90.0
 51
180.0
  0
LINE
  5
1000
  8
0
 62
     2
 10
295.236556
 20
54.842031
 30
0.0
 11
307.236556
 21
54.842031
 31
0.0
  0
LINE
  5
1001
  8
0
 62
     2
 10
307.236556
 20
68.842031
 30
0.0
 11
295.236556
 21
68.842031
 31
0.0
  0
LINE
  5
1002
  8
0
 62
     2
 10
308.236556
 20
55.842031
 30
0.0
 11
308.236556
 21
67.842031
 31
0.0
  0
LINE
  5
1003
  8
0
 62
     2
 10
294.236556
 20
67.842031
 30
0.0
 11
294.236556
 21
55.842031
 31
0.0
  0
ARC
  5
1004
  8
0
 62
     2
 10
286.798556
 20
53.842031
 30
0.0
 40
1.0
 50
180.0
 51
270.0
  0
ARC
  5
1005
  8
0
 62
     2
 10
291.798556
 20
53.842031
 30
0.0
 40
1.0
 50
270.0
 51
0.0
  0
ARC
  5
1006
  8
0
 62
     2
 10
291.798556
 20
67.842031
 30
0.0
 40
1.0
 50
0.0
 51
90.0
  0
ARC
  5
1007
  8
0
 62
     2
 10
286.798556
 20
67.842031
 30
0.0
 40
1.0
 50
90.0
 51
180.0
  0
LINE
  5
1008
  8
0
 62
     2
 10
286.798556
 20
52.842031
 30
0.0
 11
291.798556
 21
52.842031
 31
0.0
  0
LINE
  5
1009
  8
0
 62
     2
 10
291.798556
 20
68.842031
 30
0.0
 11
286.798556
 21
68.842031
 31
0.0
  0
LINE
  5
100A
  8
0
 62
     2
 10
292.798556
 20
53.842031
 30
0.0
 11
292.798556
 21
67.842031
 31
0.0
  0
LINE
  5
100B
  8
0
 62
     2
 10
285.798556
 20
67.842031
 30
0.0
 11
285.798556
 21
53.842031
 31
0.0
  0
ARC
  5
100C
  8
0
 62
     2
 10
310.674556
 20
53.842031
 30
0.0
 40
1.0
 50
180.0
 51
270.0
  0
ARC
  5
100D
  8
0
 62
     2
 10
315.674556
 20
53.842031
 30
0.0
 40
1.0
 50
270.0
 51
0.0
  0
ARC
  5
100E
  8
0
 62
     2
 10
315.674556
 20
67.842031
 30
0.0
 40
1.0
 50
0.0
 51
90.0
  0
ARC
  5
100F
  8
0
 62
     2
 10
310.674556
 20
67.842031
 30
0.0
 40
1.0
 50
90.0
 51
180.0
  0
LINE
  5
1010
  8
0
 62
     2
 10
310.674556
 20
52.842031
 30
0.0
 11
315.674556
 21
52.842031
 31
0.0
  0
LINE
  5
1011
  8
0
 62
     2
 10
315.674556
 20
68.842031
 30
0.0
 11
310.674556
 21
68.842031
 31
0.0
  0
LINE
  5
1012
  8
0
 62
     2
 10
316.674556
 20
53.842031
 30
0.0
 11
316.674556
 21
67.842031
 31
0.0
  0
LINE
  5
1013
  8
0
 62
     2
 10
309.674556
 20
67.842031
 30
0.0
 11
309.674556
 21
53.842031
 31
0.0
  0
POLYLINE
  5
1084
  8
0
 62
     0
 66
     1
 10
0.0
 20
0.0
 30
0.0
 70
     1
  0
VERTEX
  5
2A51
  8
0
 62
     0
 10
117.707314
 20
114.767031
 30
0.0
  0
VERTEX
  5
2A52
  8
0
 62
     0
 10
119.121822
 20
117.217031
 30
0.0
  0
VERTEX
  5
2A53
  8
0
 62
     0
 10
117.707314
 20
119.667031
 30
0.0
  0
VERTEX
  5
2A54
  8
0
 62
     0
 10
114.878298
 20
119.667031
 30
0.0
  0
VERTEX
  5
2A55
  8
0
 62
     0
 10
113.46379
 20
117.217031
 30
0.0
  0
VERTEX
  5
2A56
  8
0
 62
     0
 10
114.878298
 20
114.767031
 30
0.0
  0
SEQEND
  5
2B6C
  8
0
 62
     0
  0
POLYLINE
  5
1085
  8
0
 62
     0
 66
     1
 10
0.0
 20
0.0
 30
0.0
 70
     1
  0
VERTEX
  5
2A57
  8
0
 62
     0
 10
216.132314
 20
114.767031
 30
0.0
  0
VERTEX
  5
2A58
  8
0
 62
     0
 10
217.546822
 20
117.217031
 30
0.0
  0
VERTEX
  5
2A59
  8
0
 62
     0
 10
216.132314
 20
119.667031
 30
0.0
  0
VERTEX
  5
2A5A
  8
0
 62
     0
 10
213.303298
 20
119.667031
 30
0.0
  0
VERTEX
  5
2A5B
  8
0
 62
     0
 10
211.88879
 20
117.217031
 30
0.0
  0
VERTEX
  5
2A5C
  8
0
 62
     0
 10
213.303298
 20
114.767031
 30
0.0
  0
SEQEND
  5
2B6D
  8
0
 62
     0
  0
POLYLINE
  5
1086
  8
0
 62
     0
 66
     1
 10
0.0
 20
0.0
 30
0.0
 70
     1
  0
VERTEX
  5
2A5D
  8
0
 62
     0
 10
314.557314
 20
114.767031
 30
0.0
  0
VERTEX
  5
2A5E
  8
0
 62
     0
 10
315.971822
 20
117.217031
 30
0.0
  0
VERTEX
  5
2A5F
  8
0
 62
     0
 10
314.557314
 20
119.667031
 30
0.0
  0
VERTEX
  5
2A60
  8
0
 62
     0
 10
311.728298
 20
119.667031
 30
0.0
  0
VERTEX
  5
2A61
  8
0
 62
     0
 10
310.31379
 20
117.217031
 30
0.0
  0
VERTEX
  5
2A62
  8
0
 62
     0
 10
311.728298
 20
114.767031
 30
0.0
  0
SEQEND
  5
2B6E
  8
0
 62
     0
  0
POLYLINE
  5
1087
  8
0
 66
     1
 10
0.0
 20
0.0
 30
0.0
 70
     1
  0
VERTEX
  5
2A63
  8
0
 10
16.453298
 20
114.767031
 30
0.0
  0
VERTEX
  5
2A64
  8
0
 10
15.03879
 20
117.217031
 30
0.0
  0
VERTEX
  5
2A65
  8
0
 10
16.453298
 20
119.667031
 30
0.0
  0
VERTEX
  5
2A66
  8
0
 10
19.282314
 20
119.667031
 30
0.0
  0
VERTEX
  5
2A67
  8
0
 10
20.696822
 20
117.217031
 30
0.0
  0
VERTEX
  5
2A68
  8
0
 10
19.282314
 20
114.767031
 30
0.0
  0
SEQEND
  5
2B6F
  8
0
  0
POLYLINE
  5
1088
  8
0
 62
     0
 66
     1
 10
0.0
 20
0.0
 30
0.0
 70
     1
  0
VERTEX
  5
2A69
  8
0
 62
     0
 10
117.707314
 20
6.767031
 30
0.0
  0
VERTEX
  5
2A6A
  8
0
 62
     0
 10
119.121822
 20
9.217031
 30
0.0
  0
VERTEX
  5
2A6B
  8
0
 62
     0
 10
117.707314
 20
11.667031
 30
0.0
  0
VERTEX
  5
2A6C
  8
0
 62
     0
 10
114.878298
 20
11.667031
 30
0.0
  0
VERTEX
  5
2A6D
  8
0
 62
     0
 10
113.46379
 20
9.217031
 30
0.0
  0
VERTEX
  5
2A6E
  8
0
 62
     0
 10
114.878298
 20
6.767031
 30
0.0
  0
SEQEND
  5
2B70
  8
0
 62
     0
  0
POLYLINE
  5
1089
  8
0
 62
     0
 66
     1
 10
0.0
 20
0.0
 30
0.0
 70
     1
  0
VERTEX
  5
2A6F
  8
0
 62
     0
 10
216.132314
 20
6.767031
 30
0.0
  0
VERTEX
  5
2A70
  8
0
 62
     0
 10
217.546822
 20
9.217031
 30
0.0
  0
VERTEX
  5
2A71
  8
0
 62
     0
 10
216.132314
 20
11.667031
 30
0.0
  0
VERTEX
  5
2A72
  8
0
 62
     0
 10
213.303298
 20
11.667031
 30
0.0
  0
VERTEX
  5
2A73
  8
0
 62
     0
 10
211.88879
 20
9.217031
 30
0.0
  0
VERTEX
  5
2A74
  8
0
 62
     0
 10
213.303298
 20
6.767031
 30
0.0
  0
SEQEND
  5
2B71
  8
0
 62
     0
  0
POLYLINE
  5
108A
  8
0
 62
     0
 66
     1
 10
0.0
 20
0.0
 30
0.0
 70
     1
  0
VERTEX
  5
2A75
  8
0
 62
     0
 10
314.557314
 20
6.767031
 30
0.0
  0
VERTEX
  5
2A76
  8
0
 62
     0
 10
315.971822
 20
9.217031
 30
0.0
  0
VERTEX
  5
2A77
  8
0
 62
     0
 10
314.557314
 20
11.667031
 30
0.0
  0
VERTEX
  5
2A78
  8
0
 62
     0
 10
311.728298
 20
11.667031
 30
0.0
  0
VERTEX
  5
2A79
  8
0
 62
     0
 10
310.31379
 20
9.217031
 30
0.0
  0
VERTEX
  5
2A7A
  8
0
 62
     0
 10
311.728298
 20
6.767031
 30
0.0
  0
SEQEND
  5
2B72
  8
0
 62
     0
  0
POLYLINE
  5
108B
  8
0
 66
     1
 10
0.0
 20
0.0
 30
0.0
 70
     1
  0
VERTEX
  5
2A7B
  8
0
 10
16.453298
 20
6.767031
 30
0.0
  0
VERTEX
  5
2A7C
  8
0
 10
15.03879
 20
9.217031
 30
0.0
  0
VERTEX
  5
2A7D
  8
0
 10
16.453298
 20
11.667031
 30
0.0
  0
VERTEX
  5
2A7E
  8
0
 10
19.282314
 20
11.667031
 30
0.0
  0
VERTEX
  5
2A7F
  8
0
 10
20.696822
 20
9.217031
 30
0.0
  0
VERTEX
  5
2A80
  8
0
 10
19.282314
 20
6.767031
 30
0.0
  0
SEQEND
  5
2B73
  8
0
  0
POLYLINE
  5
108C
  8
0
 66
     1
 10
0.0
 20
0.0
 30
0.0
 70
     1
  0
VERTEX
  5
2A81
  8
0
 10
19.542806
 20
102.843216
 30
0.0
  0
VERTEX
  5
2A82
  8
0
 10
21.217806
 20
99.942031
 30
0.0
  0
VERTEX
  5
2A83
  8
0
 10
19.542806
 20
97.040846
 30
0.0
  0
VERTEX
  5
2A84
  8
0
 10
16.192806
 20
97.040846
 30
0.0
  0
VERTEX
  5
2A85
  8
0
 10
14.517806
 20
99.942031
 30
0.0
  0
VERTEX
  5
2A86
  8
0
 10
16.192806
 20
102.843216
 30
0.0
  0
SEQEND
  5
2B74
  8
0
  0
POLYLINE
  5
108D
  8
0
 66
     1
 10
0.0
 20
0.0
 30
0.0
 70
     1
  0
VERTEX
  5
2A87
  8
0
 10
167.180306
 20
102.843216
 30
0.0
  0
VERTEX
  5
2A88
  8
0
 10
168.855306
 20
99.942031
 30
0.0
  0
VERTEX
  5
2A89
  8
0
 10
167.180306
 20
97.040846
 30
0.0
  0
VERTEX
  5
2A8A
  8
0
 10
163.830306
 20
97.040846
 30
0.0
  0
VERTEX
  5
2A8B
  8
0
 10
162.155306
 20
99.942031
 30
0.0
  0
VERTEX
  5
2A8C
  8
0
 10
163.830306
 20
102.843216
 30
0.0
  0
SEQEND
  5
2B75
  8
0
  0
POLYLINE
  5
108E
  8
0
 66
     1
 10
0.0
 20
0.0
 30
0.0
 70
     1
  0
VERTEX
  5
2A8D
  8
0
 10
314.817806
 20
102.843216
 30
0.0
  0
VERTEX
  5
2A8E
  8
0
 10
316.492806
 20
99.942031
 30
0.0
  0
VERTEX
  5
2A8F
  8
0
 10
314.817806
 20
97.040846
 30
0.0
  0
VERTEX
  5
2A90
  8
0
 10
311.467806
 20
97.040846
 30
0.0
  0
VERTEX
  5
2A91
  8
0
 10
309.792806
 20
99.942031
 30
0.0
  0
VERTEX
  5
2A92
  8
0
 10
311.467806
 20
102.843216
 30
0.0
  0
SEQEND
  5
2B76
  8
0
  0
LINE
  5
19B2
  8
0
  6
BYBLOCK
 10
322.667806
 20
237.435779
 30
0.0
 11
8.342806
 21
237.435779
 31
0.0
  0
LINE
  5
19B4
  8
0
  6
BYBLOCK
 10
322.667806
 20
189.952183
 30
0.0
 11
8.342806
 21
189.952183
 31
0.0
  0
LINE
  5
19B5
  8
0
  6
BYBLOCK
 10
3.342806
 20
282.435779
 30
0.0
 11
3.342806
 21
242.435779
 31
0.0
  0
LINE
  5
19B6
  8
0
  6
BYBLOCK
 10
327.667806
 20
282.435779
 30
0.0
 11
327.667806
 21
242.435779
 31
0.0
  0
ARC
  5
19B7
  8
0
  6
BYBLOCK
 10
8.342806
 20
282.435779
 30
0.0
 40
5.000000000000966
 50
90.0
 51
180.0
1001
MCSXDATA5
1071
      167
1004
06000000000000008B0000001C000000B503000000000000000000001F050A025C020509020FEE020C4D43535F46494C4C45545F3109020FEE020C4D43535F46494C4C45545F3209020FEE020C4D43535F46494C4C45545F3309020FEE020C4D43535F46494C4C45545F3409020FEE020C4D43535F46494C4C45545F351202
1004
2602050201030201030202020103020326020502010302012202010302010302010201030201221A
  0
ARC
  5
19C6
  8
0
  6
BYBLOCK
 10
322.667806
 20
282.435779
 30
0.0
 40
4.999999999999773
 50
0.0
 51
90.0
1001
MCSXDATA5
1071
      167
1004
06000000000000008B0000001C000000B503000000000000000000001F050A025C020509020FEE020C4D43535F46494C4C45545F3109020FEE020C4D43535F46494C4C45545F3209020FEE020C4D43535F46494C4C45545F3309020FEE020C4D43535F46494C4C45545F3409020FEE020C4D43535F46494C4C45545F351202
1004
2602050201030201030202020103020326020502010302012202010302010302010201030201221A
  0
ARC
  5
19C8
  8
0
  6
BYBLOCK
 10
322.667806
 20
242.435779
 30
0.0
 40
4.999999999999289
 50
270.0
 51
0.0
1001
MCSXDATA5
1071
      167
1004
06000000000000008B0000001C000000B503000000000000000000001F050A025C020509020FEE020C4D43535F46494C4C45545F3109020FEE020C4D43535F46494C4C45545F3209020FEE020C4D43535F46494C4C45545F3309020FEE020C4D43535F46494C4C45545F3409020FEE020C4D43535F46494C4C45545F351202
1004
2602050201030201030202020103020326020502010302012202010302010302010201030201221A
  0
ARC
  5
19C9
  8
0
  6
BYBLOCK
 10
8.342806
 20
242.435779
 30
0.0
 40
5.00000000000097
 50
180.0
 51
270.0
1001
MCSXDATA5
1071
      167
1004
06000000000000008B0000001C000000B503000000000000000000001F050A025C020509020FEE020C4D43535F46494C4C45545F3109020FEE020C4D43535F46494C4C45545F3209020FEE020C4D43535F46494C4C45545F3309020FEE020C4D43535F46494C4C45545F3409020FEE020C4D43535F46494C4C45545F351202
1004
2602050201030201030202020103020326020502010302012202010302010302010201030201221A
  0
POLYLINE
  5
1C90
  8
0
 62
     0
 66
     1
 10
0.0
 20
0.0
 30
0.0
 70
     1
  0
VERTEX
  5
2A93
  8
0
 62
     0
 10
117.707314
 20
277.735779
 30
0.0
  0
VERTEX
  5
2A94
  8
0
 62
     0
 10
119.121822
 20
280.185779
 30
0.0
  0
VERTEX
  5
2A95
  8
0
 62
     0
 10
117.707314
 20
282.635779
 30
0.0
  0
VERTEX
  5
2A96
  8
0
 62
     0
 10
114.878298
 20
282.635779
 30
0.0
  0
VERTEX
  5
2A97
  8
0
 62
     0
 10
113.46379
 20
280.185779
 30
0.0
  0
VERTEX
  5
2A98
  8
0
 62
     0
 10
114.878298
 20
277.735779
 30
0.0
  0
SEQEND
  5
2B77
  8
0
 62
     0
  0
POLYLINE
  5
1C91
  8
0
 62
     0
 66
     1
 10
0.0
 20
0.0
 30
0.0
 70
     1
  0
VERTEX
  5
2A99
  8
0
 62
     0
 10
216.132314
 20
277.735779
 30
0.0
  0
VERTEX
  5
2A9A
  8
0
 62
     0
 10
217.546822
 20
280.185779
 30
0.0
  0
VERTEX
  5
2A9B
  8
0
 62
     0
 10
216.132314
 20
282.635779
 30
0.0
  0
VERTEX
  5
2A9C
  8
0
 62
     0
 10
213.303298
 20
282.635779
 30
0.0
  0
VERTEX
  5
2A9D
  8
0
 62
     0
 10
211.88879
 20
280.185779
 30
0.0
  0
VERTEX
  5
2A9E
  8
0
 62
     0
 10
213.303298
 20
277.735779
 30
0.0
  0
SEQEND
  5
2B78
  8
0
 62
     0
  0
POLYLINE
  5
1C92
  8
0
 62
     0
 66
     1
 10
0.0
 20
0.0
 30
0.0
 70
     1
  0
VERTEX
  5
2A9F
  8
0
 62
     0
 10
314.557314
 20
277.735779
 30
0.0
  0
VERTEX
  5
2AA0
  8
0
 62
     0
 10
315.971822
 20
280.185779
 30
0.0
  0
VERTEX
  5
2AA1
  8
0
 62
     0
 10
314.557314
 20
282.635779
 30
0.0
  0
VERTEX
  5
2AA2
  8
0
 62
     0
 10
311.728298
 20
282.635779
 30
0.0
  0
VERTEX
  5
2AA3
  8
0
 62
     0
 10
310.31379
 20
280.185779
 30
0.0
  0
VERTEX
  5
2AA4
  8
0
 62
     0
 10
311.728298
 20
277.735779
 30
0.0
  0
SEQEND
  5
2B79
  8
0
 62
     0
  0
POLYLINE
  5
1C93
  8
0
 66
     1
 10
0.0
 20
0.0
 30
0.0
 70
     1
  0
VERTEX
  5
2AA5
  8
0
 10
16.453298
 20
277.735779
 30
0.0
  0
VERTEX
  5
2AA6
  8
0
 10
15.03879
 20
280.185779
 30
0.0
  0
VERTEX
  5
2AA7
  8
0
 10
16.453298
 20
282.635779
 30
0.0
  0
VERTEX
  5
2AA8
  8
0
 10
19.282314
 20
282.635779
 30
0.0
  0
VERTEX
  5
2AA9
  8
0
 10
20.696822
 20
280.185779
 30
0.0
  0
VERTEX
  5
2AAA
  8
0
 10
19.282314
 20
277.735779
 30
0.0
  0
SEQEND
  5
2B7A
  8
0
  0
POLYLINE
  5
1C94
  8
0
 66
     1
 10
0.0
 20
0.0
 30
0.0
 70
     1
  0
VERTEX
  5
2AAB
  8
0
 10
19.542806
 20
265.811964
 30
0.0
  0
VERTEX
  5
2AAC
  8
0
 10
21.217806
 20
262.910779
 30
0.0
  0
VERTEX
  5
2AAD
  8
0
 10
19.542806
 20
260.009594
 30
0.0
  0
VERTEX
  5
2AAE
  8
0
 10
16.192806
 20
260.009594
 30
0.0
  0
VERTEX
  5
2AAF
  8
0
 10
14.517806
 20
262.910779
 30
0.0
  0
VERTEX
  5
2AB0
  8
0
 10
16.192806
 20
265.811964
 30
0.0
  0
SEQEND
  5
2B7B
  8
0
  0
POLYLINE
  5
1C95
  8
0
 66
     1
 10
0.0
 20
0.0
 30
0.0
 70
     1
  0
VERTEX
  5
2AB1
  8
0
 10
167.180306
 20
265.811964
 30
0.0
  0
VERTEX
  5
2AB2
  8
0
 10
168.855306
 20
262.910779
 30
0.0
  0
VERTEX
  5
2AB3
  8
0
 10
167.180306
 20
260.009594
 30
0.0
  0
VERTEX
  5
2AB4
  8
0
 10
163.830306
 20
260.009594
 30
0.0
  0
VERTEX
  5
2AB5
  8
0
 10
162.155306
 20
262.910779
 30
0.0
  0
VERTEX
  5
2AB6
  8
0
 10
163.830306
 20
265.811964
 30
0.0
  0
SEQEND
  5
2B7C
  8
0
  0
POLYLINE
  5
1C96
  8
0
 66
     1
 10
0.0
 20
0.0
 30
0.0
 70
     1
  0
VERTEX
  5
2AB7
  8
0
 10
314.817806
 20
265.811964
 30
0.0
  0
VERTEX
  5
2AB8
  8
0
 10
316.492806
 20
262.910779
 30
0.0
  0
VERTEX
  5
2AB9
  8
0
 10
314.817806
 20
260.009594
 30
0.0
  0
VERTEX
  5
2ABA
  8
0
 10
311.467806
 20
260.009594
 30
0.0
  0
VERTEX
  5
2ABB
  8
0
 10
309.792806
 20
262.910779
 30
0.0
  0
VERTEX
  5
2ABC
  8
0
 10
311.467806
 20
265.811964
 30
0.0
  0
SEQEND
  5
2B7D
  8
0
  0
LINE
  5
1C97
  8
0
  6
BYBLOCK
 10
322.667806
 20
229.952183
 30
0.0
 11
8.342806
 21
229.952183
 31
0.0
  0
LINE
  5
1C98
  8
0
  6
BYBLOCK
 10
325.631797
 20
152.777636
 30
0.0
 11
11.306797
 21
152.777636
 31
0.0
  0
LINE
  5
1C99
  8
0
  6
BYBLOCK
 10
3.342806
 20
224.952183
 30
0.0
 11
3.342806
 21
194.952183
 31
0.0
  0
LINE
  5
1C9A
  8
0
  6
BYBLOCK
 10
327.667806
 20
224.952183
 30
0.0
 11
327.667806
 21
194.952183
 31
0.0
  0
ARC
  5
1C9B
  8
0
  6
BYBLOCK
 10
8.342806
 20
224.952183
 30
0.0
 40
5.000000000003411
 50
90.0
 51
180.0
1001
MCSXDATA5
1071
      167
1004
06000000000000008B0000001C000000B503000000000000000000001F050A025C020509020FEE020C4D43535F46494C4C45545F3109020FEE020C4D43535F46494C4C45545F3209020FEE020C4D43535F46494C4C45545F3309020FEE020C4D43535F46494C4C45545F3409020FEE020C4D43535F46494C4C45545F351202
1004
2602050201030201030202020103020326020502010302012202010302010302010201030201221A
  0
ARC
  5
1CAA
  8
0
  6
BYBLOCK
 10
322.667806
 20
224.952183
 30
0.0
 40
5.000000000007049
 50
0.0
 51
90.0
1001
MCSXDATA5
1071
      167
1004
06000000000000008B0000001C000000B503000000000000000000001F050A025C020509020FEE020C4D43535F46494C4C45545F3109020FEE020C4D43535F46494C4C45545F3209020FEE020C4D43535F46494C4C45545F3309020FEE020C4D43535F46494C4C45545F3409020FEE020C4D43535F46494C4C45545F351202
1004
2602050201030201030202020103020326020502010302012202010302010302010201030201221A
  0
ARC
  5
1CAC
  8
0
  6
BYBLOCK
 10
322.667806
 20
194.952183
 30
0.0
 40
5.000000000004547
 50
270.0
 51
0.0
1001
MCSXDATA5
1071
      167
1004
06000000000000008B0000001C000000B503000000000000000000001F050A025C020509020FEE020C4D43535F46494C4C45545F3109020FEE020C4D43535F46494C4C45545F3209020FEE020C4D43535F46494C4C45545F3309020FEE020C4D43535F46494C4C45545F3409020FEE020C4D43535F46494C4C45545F351202
1004
2602050201030201030202020103020326020502010302012202010302010302010201030201221A
  0
ARC
  5
1CAD
  8
0
  6
BYBLOCK
 10
8.342806
 20
194.952183
 30
0.0
 40
5.000000000003483
 50
180.0
 51
270.0
1001
MCSXDATA5
1071
      167
1004
06000000000000008B0000001C000000B503000000000000000000001F050A025C020509020FEE020C4D43535F46494C4C45545F3109020FEE020C4D43535F46494C4C45545F3209020FEE020C4D43535F46494C4C45545F3309020FEE020C4D43535F46494C4C45545F3409020FEE020C4D43535F46494C4C45545F351202
1004
2602050201030201030202020103020326020502010302012202010302010302010201030201221A
  0
LINE
  5
1CAE
  8
0
  6
BYBLOCK
 10
325.631797
 20
182.777636
 30
0.0
 11
11.306797
 21
182.777636
 31
0.0
  0
LINE
  5
1CAF
  8
0
  6
BYBLOCK
 10
6.306797
 20
177.777636
 30
0.0
 11
6.306797
 21
157.777636
 31
0.0
  0
LINE
  5
1CB0
  8
0
  6
BYBLOCK
 10
330.631797
 20
177.777636
 30
0.0
 11
330.631797
 21
157.777636
 31
0.0
  0
ARC
  5
1CB1
  8
0
  6
BYBLOCK
 10
11.306797
 20
177.777636
 30
0.0
 40
4.999999999999886
 50
90.0
 51
180.0
1001
MCSXDATA5
1071
      167
1004
06000000000000008B0000001C000000B503000000000000000000001F050A025C020509020FEE020C4D43535F46494C4C45545F3109020FEE020C4D43535F46494C4C45545F3209020FEE020C4D43535F46494C4C45545F3309020FEE020C4D43535F46494C4C45545F3409020FEE020C4D43535F46494C4C45545F351202
1004
2602050201030201030202020103020326020502010302012202010302010302010201030201221A
  0
ARC
  5
1CC0
  8
0
  6
BYBLOCK
 10
11.306797
 20
157.777636
 30
0.0
 40
5.000000000004045
 50
180.0
 51
270.0
1001
MCSXDATA5
1071
      167
1004
06000000000000008B0000001C000000B503000000000000000000001F050A025C020509020FEE020C4D43535F46494C4C45545F3109020FEE020C4D43535F46494C4C45545F3209020FEE020C4D43535F46494C4C45545F3309020FEE020C4D43535F46494C4C45545F3409020FEE020C4D43535F46494C4C45545F351202
1004
2602050201030201030202020103020326020502010302012202010302010302010201030201221A
  0
ARC
  5
1CC2
  8
0
  6
BYBLOCK
 10
325.631797
 20
157.777636
 30
0.0
 40
5.00000000000415
 50
270.0
 51
0.0
1001
MCSXDATA5
1071
      167
1004
06000000000000008B0000001C000000B503000000000000000000001F050A025C020509020FEE020C4D43535F46494C4C45545F3109020FEE020C4D43535F46494C4C45545F3209020FEE020C4D43535F46494C4C45545F3309020FEE020C4D43535F46494C4C45545F3409020FEE020C4D43535F46494C4C45545F351202
1004
2602050201030201030202020103020326020502010302012202010302010302010201030201221A
  0
ARC
  5
1CC3
  8
0
  6
BYBLOCK
 10
325.631797
 20
177.777636
 30
0.0
 40
4.999999999997101
 50
0.0
 51
90.0
1001
MCSXDATA5
1071
      167
1004
06000000000000008B0000001C000000B503000000000000000000001F050A025C020509020FEE020C4D43535F46494C4C45545F3109020FEE020C4D43535F46494C4C45545F3209020FEE020C4D43535F46494C4C45545F3309020FEE020C4D43535F46494C4C45545F3409020FEE020C4D43535F46494C4C45545F351202
1004
2602050201030201030202020103020326020502010302012202010302010302010201030201221A
  0
POLYLINE
  5
1CC4
  8
0
 62
     0
 66
     1
 10
0.0
 20
0.0
 30
0.0
 70
     1
  0
VERTEX
  5
2ABD
  8
0
 62
     0
 10
117.707314
 20
220.252183
 30
0.0
  0
VERTEX
  5
2ABE
  8
0
 62
     0
 10
119.121822
 20
222.702183
 30
0.0
  0
VERTEX
  5
2ABF
  8
0
 62
     0
 10
117.707314
 20
225.152183
 30
0.0
  0
VERTEX
  5
2AC0
  8
0
 62
     0
 10
114.878298
 20
225.152183
 30
0.0
  0
VERTEX
  5
2AC1
  8
0
 62
     0
 10
113.46379
 20
222.702183
 30
0.0
  0
VERTEX
  5
2AC2
  8
0
 62
     0
 10
114.878298
 20
220.252183
 30
0.0
  0
SEQEND
  5
2B7E
  8
0
 62
     0
  0
POLYLINE
  5
1CC5
  8
0
 62
     0
 66
     1
 10
0.0
 20
0.0
 30
0.0
 70
     1
  0
VERTEX
  5
2AC3
  8
0
 62
     0
 10
216.132314
 20
220.252183
 30
0.0
  0
VERTEX
  5
2AC4
  8
0
 62
     0
 10
217.546822
 20
222.702183
 30
0.0
  0
VERTEX
  5
2AC5
  8
0
 62
     0
 10
216.132314
 20
225.152183
 30
0.0
  0
VERTEX
  5
2AC6
  8
0
 62
     0
 10
213.303298
 20
225.152183
 30
0.0
  0
VERTEX
  5
2AC7
  8
0
 62
     0
 10
211.88879
 20
222.702183
 30
0.0
  0
VERTEX
  5
2AC8
  8
0
 62
     0
 10
213.303298
 20
220.252183
 30
0.0
  0
SEQEND
  5
2B7F
  8
0
 62
     0
  0
POLYLINE
  5
1CC6
  8
0
 62
     0
 66
     1
 10
0.0
 20
0.0
 30
0.0
 70
     1
  0
VERTEX
  5
2AC9
  8
0
 62
     0
 10
314.557314
 20
220.252183
 30
0.0
  0
VERTEX
  5
2ACA
  8
0
 62
     0
 10
315.971822
 20
222.702183
 30
0.0
  0
VERTEX
  5
2ACB
  8
0
 62
     0
 10
314.557314
 20
225.152183
 30
0.0
  0
VERTEX
  5
2ACC
  8
0
 62
     0
 10
311.728298
 20
225.152183
 30
0.0
  0
VERTEX
  5
2ACD
  8
0
 62
     0
 10
310.31379
 20
222.702183
 30
0.0
  0
VERTEX
  5
2ACE
  8
0
 62
     0
 10
311.728298
 20
220.252183
 30
0.0
  0
SEQEND
  5
2B80
  8
0
 62
     0
  0
POLYLINE
  5
1CC7
  8
0
 66
     1
 10
0.0
 20
0.0
 30
0.0
 70
     1
  0
VERTEX
  5
2ACF
  8
0
 10
16.453298
 20
220.252183
 30
0.0
  0
VERTEX
  5
2AD0
  8
0
 10
15.03879
 20
222.702183
 30
0.0
  0
VERTEX
  5
2AD1
  8
0
 10
16.453298
 20
225.152183
 30
0.0
  0
VERTEX
  5
2AD2
  8
0
 10
19.282314
 20
225.152183
 30
0.0
  0
VERTEX
  5
2AD3
  8
0
 10
20.696822
 20
222.702183
 30
0.0
  0
VERTEX
  5
2AD4
  8
0
 10
19.282314
 20
220.252183
 30
0.0
  0
SEQEND
  5
2B81
  8
0
  0
POLYLINE
  5
1CC8
  8
0
 66
     1
 10
0.0
 20
0.0
 30
0.0
 70
     1
  0
VERTEX
  5
2AD5
  8
0
 10
19.542806
 20
208.328368
 30
0.0
  0
VERTEX
  5
2AD6
  8
0
 10
21.217806
 20
205.427183
 30
0.0
  0
VERTEX
  5
2AD7
  8
0
 10
19.542806
 20
202.525998
 30
0.0
  0
VERTEX
  5
2AD8
  8
0
 10
16.192806
 20
202.525998
 30
0.0
  0
VERTEX
  5
2AD9
  8
0
 10
14.517806
 20
205.427183
 30
0.0
  0
VERTEX
  5
2ADA
  8
0
 10
16.192806
 20
208.328368
 30
0.0
  0
SEQEND
  5
2B82
  8
0
  0
POLYLINE
  5
1CC9
  8
0
 66
     1
 10
0.0
 20
0.0
 30
0.0
 70
     1
  0
VERTEX
  5
2ADB
  8
0
 10
167.180306
 20
208.328368
 30
0.0
  0
VERTEX
  5
2ADC
  8
0
 10
168.855306
 20
205.427183
 30
0.0
  0
VERTEX
  5
2ADD
  8
0
 10
167.180306
 20
202.525998
 30
0.0
  0
VERTEX
  5
2ADE
  8
0
 10
163.830306
 20
202.525998
 30
0.0
  0
VERTEX
  5
2ADF
  8
0
 10
162.155306
 20
205.427183
 30
0.0
  0
VERTEX
  5
2AE0
  8
0
 10
163.830306
 20
208.328368
 30
0.0
  0
SEQEND
  5
2B83
  8
0
  0
POLYLINE
  5
1CCA
  8
0
 66
     1
 10
0.0
 20
0.0
 30
0.0
 70
     1
  0
VERTEX
  5
2AE1
  8
0
 10
314.817806
 20
208.328368
 30
0.0
  0
VERTEX
  5
2AE2
  8
0
 10
316.492806
 20
205.427183
 30
0.0
  0
VERTEX
  5
2AE3
  8
0
 10
314.817806
 20
202.525998
 30
0.0
  0
VERTEX
  5
2AE4
  8
0
 10
311.467806
 20
202.525998
 30
0.0
  0
VERTEX
  5
2AE5
  8
0
 10
309.792806
 20
205.427183
 30
0.0
  0
VERTEX
  5
2AE6
  8
0
 10
311.467806
 20
208.328368
 30
0.0
  0
SEQEND
  5
2B84
  8
0
  0
POLYLINE
  5
1CCB
  8
0
 62
     0
 66
     1
 10
0.0
 20
0.0
 30
0.0
 70
     1
  0
VERTEX
  5
2AE7
  8
0
 62
     0
 10
120.671305
 20
173.077636
 30
0.0
  0
VERTEX
  5
2AE8
  8
0
 62
     0
 10
122.085813
 20
175.527636
 30
0.0
  0
VERTEX
  5
2AE9
  8
0
 62
     0
 10
120.671305
 20
177.977636
 30
0.0
  0
VERTEX
  5
2AEA
  8
0
 62
     0
 10
117.842289
 20
177.977636
 30
0.0
  0
VERTEX
  5
2AEB
  8
0
 62
     0
 10
116.427781
 20
175.527636
 30
0.0
  0
VERTEX
  5
2AEC
  8
0
 62
     0
 10
117.842289
 20
173.077636
 30
0.0
  0
SEQEND
  5
2B85
  8
0
 62
     0
  0
POLYLINE
  5
1CCC
  8
0
 62
     0
 66
     1
 10
0.0
 20
0.0
 30
0.0
 70
     1
  0
VERTEX
  5
2AED
  8
0
 62
     0
 10
219.096305
 20
173.077636
 30
0.0
  0
VERTEX
  5
2AEE
  8
0
 62
     0
 10
220.510813
 20
175.527636
 30
0.0
  0
VERTEX
  5
2AEF
  8
0
 62
     0
 10
219.096305
 20
177.977636
 30
0.0
  0
VERTEX
  5
2AF0
  8
0
 62
     0
 10
216.267289
 20
177.977636
 30
0.0
  0
VERTEX
  5
2AF1
  8
0
 62
     0
 10
214.852781
 20
175.527636
 30
0.0
  0
VERTEX
  5
2AF2
  8
0
 62
     0
 10
216.267289
 20
173.077636
 30
0.0
  0
SEQEND
  5
2B86
  8
0
 62
     0
  0
POLYLINE
  5
1CCD
  8
0
 62
     0
 66
     1
 10
0.0
 20
0.0
 30
0.0
 70
     1
  0
VERTEX
  5
2AF3
  8
0
 62
     0
 10
317.521305
 20
173.077636
 30
0.0
  0
VERTEX
  5
2AF4
  8
0
 62
     0
 10
318.935813
 20
175.527636
 30
0.0
  0
VERTEX
  5
2AF5
  8
0
 62
     0
 10
317.521305
 20
177.977636
 30
0.0
  0
VERTEX
  5
2AF6
  8
0
 62
     0
 10
314.692289
 20
177.977636
 30
0.0
  0
VERTEX
  5
2AF7
  8
0
 62
     0
 10
313.277781
 20
175.527636
 30
0.0
  0
VERTEX
  5
2AF8
  8
0
 62
     0
 10
314.692289
 20
173.077636
 30
0.0
  0
SEQEND
  5
2B87
  8
0
 62
     0
  0
POLYLINE
  5
1CCE
  8
0
 66
     1
 10
0.0
 20
0.0
 30
0.0
 70
     1
  0
VERTEX
  5
2AF9
  8
0
 10
19.417289
 20
173.077636
 30
0.0
  0
VERTEX
  5
2AFA
  8
0
 10
18.002781
 20
175.527636
 30
0.0
  0
VERTEX
  5
2AFB
  8
0
 10
19.417289
 20
177.977636
 30
0.0
  0
VERTEX
  5
2AFC
  8
0
 10
22.246305
 20
177.977636
 30
0.0
  0
VERTEX
  5
2AFD
  8
0
 10
23.660813
 20
175.527636
 30
0.0
  0
VERTEX
  5
2AFE
  8
0
 10
22.246305
 20
173.077636
 30
0.0
  0
SEQEND
  5
2B88
  8
0
  0
POLYLINE
  5
1CCF
  8
0
 66
     1
 10
0.0
 20
0.0
 30
0.0
 70
     1
  0
VERTEX
  5
2AFF
  8
0
 10
22.506797
 20
161.153821
 30
0.0
  0
VERTEX
  5
2B00
  8
0
 10
24.181797
 20
158.252636
 30
0.0
  0
VERTEX
  5
2B01
  8
0
 10
22.506797
 20
155.351451
 30
0.0
  0
VERTEX
  5
2B02
  8
0
 10
19.156797
 20
155.351451
 30
0.0
  0
VERTEX
  5
2B03
  8
0
 10
17.481797
 20
158.252636
 30
0.0
  0
VERTEX
  5
2B04
  8
0
 10
19.156797
 20
161.153821
 30
0.0
  0
SEQEND
  5
2B89
  8
0
  0
POLYLINE
  5
1CD0
  8
0
 66
     1
 10
0.0
 20
0.0
 30
0.0
 70
     1
  0
VERTEX
  5
2B05
  8
0
 10
170.144297
 20
161.153821
 30
0.0
  0
VERTEX
  5
2B06
  8
0
 10
171.819297
 20
158.252636
 30
0.0
  0
VERTEX
  5
2B07
  8
0
 10
170.144297
 20
155.351451
 30
0.0
  0
VERTEX
  5
2B08
  8
0
 10
166.794297
 20
155.351451
 30
0.0
  0
VERTEX
  5
2B09
  8
0
 10
165.119297
 20
158.252636
 30
0.0
  0
VERTEX
  5
2B0A
  8
0
 10
166.794297
 20
161.153821
 30
0.0
  0
SEQEND
  5
2B8A
  8
0
  0
POLYLINE
  5
1CD1
  8
0
 66
     1
 10
0.0
 20
0.0
 30
0.0
 70
     1
  0
VERTEX
  5
2B0B
  8
0
 10
317.781797
 20
161.153821
 30
0.0
  0
VERTEX
  5
2B0C
  8
0
 10
319.456797
 20
158.252636
 30
0.0
  0
VERTEX
  5
2B0D
  8
0
 10
317.781797
 20
155.351451
 30
0.0
  0
VERTEX
  5
2B0E
  8
0
 10
314.431797
 20
155.351451
 30
0.0
  0
VERTEX
  5
2B0F
  8
0
 10
312.756797
 20
158.252636
 30
0.0
  0
VERTEX
  5
2B10
  8
0
 10
314.431797
 20
161.153821
 30
0.0
  0
SEQEND
  5
2B8B
  8
0
  0
POLYLINE
  5
22D7
  8
0
  6
BYBLOCK
 66
     1
 10
0.0
 20
0.0
 30
0.0
  0
VERTEX
  5
2B11
  8
0
  6
BYBLOCK
 10
8.342806
 20
124.467031
 30
0.0
  0
VERTEX
  5
2B12
  8
0
  6
BYBLOCK
 10
27.155306
 20
124.467031
 30
0.0
 42
-0.414214
  0
VERTEX
  5
2B13
  8
0
  6
BYBLOCK
 10
32.155306
 20
119.467031
 30
0.0
  0
VERTEX
  5
2B14
  8
0
  6
BYBLOCK
 10
32.155306
 20
88.467031
 30
0.0
 42
0.414214
  0
VERTEX
  5
2B15
  8
0
  6
BYBLOCK
 10
34.155306
 20
86.467031
 30
0.0
  0
VERTEX
  5
2B16
  8
0
  6
BYBLOCK
 10
49.205306
 20
86.467031
 30
0.0
 42
0.414214
  0
VERTEX
  5
2B17
  8
0
  6
BYBLOCK
 10
51.205306
 20
88.467031
 30
0.0
  0
VERTEX
  5
2B18
  8
0
  6
BYBLOCK
 10
51.205306
 20
119.467031
 30
0.0
 42
-0.414214
  0
VERTEX
  5
2B19
  8
0
  6
BYBLOCK
 10
56.205306
 20
124.467031
 30
0.0
  0
VERTEX
  5
2B1A
  8
0
  6
BYBLOCK
 10
322.667806
 20
124.467031
 30
0.0
  0
SEQEND
  5
2B8C
  8
0
  6
BYBLOCK
  0
LINE
  5
261B
  8
0
  6
BYBLOCK
 10
32.155306
 20
102.274531
 30
0.0
 11
32.155306
 21
90.304531
 31
0.0
  0
LINE
  5
261C
  8
0
  6
BYBLOCK
 10
51.205306
 20
104.814531
 30
0.0
 11
51.205306
 21
90.304531
 31
0.0
  0
LINE
  5
261D
  8
0
  6
BYBLOCK
 10
47.395306
 20
90.304531
 30
0.0
 11
47.395306
 21
104.814531
 31
0.0
  0
LINE
  5
261E
  8
0
  6
BYBLOCK
 10
48.395306
 20
105.814531
 30
0.0
 11
50.205306
 21
105.814531
 31
0.0
  0
LINE
  5
261F
  8
0
  6
BYBLOCK
 10
48.395306
 20
89.304531
 30
0.0
 11
50.205306
 21
89.304531
 31
0.0
  0
LINE
  5
2620
  8
0
  6
BYBLOCK
 10
35.965306
 20
90.304531
 30
0.0
 11
35.965306
 21
102.274531
 31
0.0
  0
LINE
  5
2621
  8
0
  6
BYBLOCK
 10
33.155306
 20
103.274531
 30
0.0
 11
34.965306
 21
103.274531
 31
0.0
  0
LINE
  5
2622
  8
0
  6
BYBLOCK
 10
33.155306
 20
89.304531
 30
0.0
 11
34.965306
 21
89.304531
 31
0.0
  0
ARC
  5
2623
  8
0
  6
BYBLOCK
 10
48.395306
 20
104.814531
 30
0.0
 40
0.9999999999631086
 50
90.0
 51
180.0
1001
MCSXDATA5
1071
      167
1004
06000000000000008B0000001C000000B503000000000000000000001F050A025C020509020FEE020C4D43535F46494C4C45545F3109020FEE020C4D43535F46494C4C45545F3209020FEE020C4D43535F46494C4C45545F3309020FEE020C4D43535F46494C4C45545F3409020FEE020C4D43535F46494C4C45545F351202
1004
2602050201030201030202020103020326020102010302012202010302010302010201030201221A
  0
ARC
  5
2624
  8
0
  6
BYBLOCK
 10
50.205306
 20
104.814531
 30
0.0
 40
0.9999999999732836
 50
0.0
 51
90.0
1001
MCSXDATA5
1071
      167
1004
06000000000000008B0000001C000000B503000000000000000000001F050A025C020509020FEE020C4D43535F46494C4C45545F3109020FEE020C4D43535F46494C4C45545F3209020FEE020C4D43535F46494C4C45545F3309020FEE020C4D43535F46494C4C45545F3409020FEE020C4D43535F46494C4C45545F351202
1004
2602050201030201030202020103020326020102010302012202010302010302010201030201221A
  0
ARC
  5
2625
  8
0
  6
BYBLOCK
 10
50.205306
 20
90.304531
 30
0.0
 40
0.9999999999806732
 50
270.0
 51
0.0
1001
MCSXDATA5
1071
      167
1004
06000000000000008B0000001C000000B503000000000000000000001F050A025C020509020FEE020C4D43535F46494C4C45545F3109020FEE020C4D43535F46494C4C45545F3209020FEE020C4D43535F46494C4C45545F3309020FEE020C4D43535F46494C4C45545F3409020FEE020C4D43535F46494C4C45545F351202
1004
2602050201030201030202020103020326020102010302012202010302010302010201030201221A
  0
ARC
  5
2626
  8
0
  6
BYBLOCK
 10
48.395306
 20
90.304531
 30
0.0
 40
0.9999999999154738
 50
180.0
 51
270.0
1001
MCSXDATA5
1071
      167
1004
06000000000000008B0000001C000000B503000000000000000000001F050A025C020509020FEE020C4D43535F46494C4C45545F3109020FEE020C4D43535F46494C4C45545F3209020FEE020C4D43535F46494C4C45545F3309020FEE020C4D43535F46494C4C45545F3409020FEE020C4D43535F46494C4C45545F351202
1004
2602050201030201030202020103020326020102010302012202010302010302010201030201221A
  0
ARC
  5
2627
  8
0
  6
BYBLOCK
 10
34.965306
 20
90.304531
 30
0.0
 40
0.9999999999703846
 50
270.0
 51
0.0
1001
MCSXDATA5
1071
      167
1004
06000000000000008B0000001C000000B503000000000000000000001F050A025C020509020FEE020C4D43535F46494C4C45545F3109020FEE020C4D43535F46494C4C45545F3209020FEE020C4D43535F46494C4C45545F3309020FEE020C4D43535F46494C4C45545F3409020FEE020C4D43535F46494C4C45545F351202
1004
2602050201030201030202020103020326020102010302012202010302010302010201030201221A
  0
ARC
  5
2628
  8
0
  6
BYBLOCK
 10
33.155306
 20
90.304531
 30
0.0
 40
0.9999999999754436
 50
180.0
 51
270.0
1001
MCSXDATA5
1071
      167
1004
06000000000000008B0000001C000000B503000000000000000000001F050A025C020509020FEE020C4D43535F46494C4C45545F3109020FEE020C4D43535F46494C4C45545F3209020FEE020C4D43535F46494C4C45545F3309020FEE020C4D43535F46494C4C45545F3409020FEE020C4D43535F46494C4C45545F351202
1004
2602050201030201030202020103020326020102010302012202010302010302010201030201221A
  0
ARC
  5
2629
  8
0
  6
BYBLOCK
 10
33.155306
 20
102.274531
 30
0.0
 40
1.000000000047919
 50
90.0
 51
180.0
1001
MCSXDATA5
1071
      167
1004
06000000000000008B0000001C000000B503000000000000000000001F050A025C020509020FEE020C4D43535F46494C4C45545F3109020FEE020C4D43535F46494C4C45545F3209020FEE020C4D43535F46494C4C45545F3309020FEE020C4D43535F46494C4C45545F3409020FEE020C4D43535F46494C4C45545F351202
1004
2602050201030201030202020103020326020102010302012202010302010302010201030201221A
  0
ARC
  5
262A
  8
0
  6
BYBLOCK
 10
34.965306
 20
102.274531
 30
0.0
 40
1.000000000047919
 50
0.0
 51
90.0
1001
MCSXDATA5
1071
      167
1004
06000000000000008B0000001C000000B503000000000000000000001F050A025C020509020FEE020C4D43535F46494C4C45545F3109020FEE020C4D43535F46494C4C45545F3209020FEE020C4D43535F46494C4C45545F3309020FEE020C4D43535F46494C4C45545F3409020FEE020C4D43535F46494C4C45545F351202
1004
2602050201030201030202020103020326020102010302012202010302010302010201030201221A
  0
POLYLINE
  5
2910
  8
0
  6
BYBLOCK
 66
     1
 10
0.0
 20
0.0
 30
0.0
  0
VERTEX
  5
2B1B
  8
0
  6
BYBLOCK
 10
8.342806
 20
287.435779
 30
0.0
  0
VERTEX
  5
2B1C
  8
0
  6
BYBLOCK
 10
27.155306
 20
287.435779
 30
0.0
 42
-0.414214
  0
VERTEX
  5
2B1D
  8
0
  6
BYBLOCK
 10
32.155306
 20
282.435779
 30
0.0
  0
VERTEX
  5
2B1E
  8
0
  6
BYBLOCK
 10
32.155306
 20
251.435779
 30
0.0
 42
0.414214
  0
VERTEX
  5
2B1F
  8
0
  6
BYBLOCK
 10
34.155306
 20
249.435779
 30
0.0
  0
VERTEX
  5
2B20
  8
0
  6
BYBLOCK
 10
49.205306
 20
249.435779
 30
0.0
 42
0.414214
  0
VERTEX
  5
2B21
  8
0
  6
BYBLOCK
 10
51.205306
 20
251.435779
 30
0.0
  0
VERTEX
  5
2B22
  8
0
  6
BYBLOCK
 10
51.205306
 20
282.435779
 30
0.0
 42
-0.414214
  0
VERTEX
  5
2B23
  8
0
  6
BYBLOCK
 10
56.205306
 20
287.435779
 30
0.0
  0
VERTEX
  5
2B24
  8
0
  6
BYBLOCK
 10
322.667806
 20
287.435779
 30
0.0
  0
SEQEND
  5
2B8D
  8
0
  6
BYBLOCK
  0
ENDSEC
  0
EOF
