%TF.GenerationSoftware,KiCad,Pcbnew,7.0.1*%
%TF.CreationDate,2023-05-09T15:13:21+09:00*%
%TF.ProjectId,Pherk60,50686572-6b36-4302-9e6b-696361645f70,rev?*%
%TF.SameCoordinates,Original*%
%TF.FileFunction,Legend,Top*%
%TF.FilePolarity,Positive*%
%FSLAX46Y46*%
G04 Gerber Fmt 4.6, Leading zero omitted, Abs format (unit mm)*
G04 Created by KiCad (PCBNEW 7.0.1) date 2023-05-09 15:13:21*
%MOMM*%
%LPD*%
G01*
G04 APERTURE LIST*
%ADD10C,1.701800*%
%ADD11C,3.000000*%
%ADD12C,3.987800*%
%ADD13C,3.048000*%
%ADD14C,1.600000*%
G04 APERTURE END LIST*
%LPC*%
D10*
%TO.C,SW50*%
X285432500Y-57150000D03*
D11*
X286702500Y-54610000D03*
D12*
X290512500Y-57150000D03*
D11*
X293052500Y-52070000D03*
D10*
X295592500Y-57150000D03*
%TD*%
%TO.C,SW24*%
X147320000Y-95250000D03*
D11*
X148590000Y-92710000D03*
D12*
X152400000Y-95250000D03*
D11*
X154940000Y-90170000D03*
D10*
X157480000Y-95250000D03*
%TD*%
%TO.C,SW52*%
X287813750Y-95250000D03*
D11*
X289083750Y-92710000D03*
D12*
X292893750Y-95250000D03*
D11*
X295433750Y-90170000D03*
D10*
X297973750Y-95250000D03*
%TD*%
%TO.C,SW17*%
X128270000Y-38100000D03*
D11*
X129540000Y-35560000D03*
D12*
X133350000Y-38100000D03*
D11*
X135890000Y-33020000D03*
D10*
X138430000Y-38100000D03*
%TD*%
%TO.C,SW12*%
X90170000Y-95250000D03*
D11*
X91440000Y-92710000D03*
D12*
X95250000Y-95250000D03*
D11*
X97790000Y-90170000D03*
D10*
X100330000Y-95250000D03*
%TD*%
%TO.C,SW28*%
X166370000Y-95250000D03*
D11*
X167640000Y-92710000D03*
D12*
X171450000Y-95250000D03*
D11*
X173990000Y-90170000D03*
D10*
X176530000Y-95250000D03*
%TD*%
%TO.C,SW31*%
X185420000Y-76200000D03*
D11*
X186690000Y-73660000D03*
D12*
X190500000Y-76200000D03*
D11*
X193040000Y-71120000D03*
D10*
X195580000Y-76200000D03*
%TD*%
%TO.C,SW11*%
X90170000Y-76200000D03*
D11*
X91440000Y-73660000D03*
D12*
X95250000Y-76200000D03*
D11*
X97790000Y-71120000D03*
D10*
X100330000Y-76200000D03*
%TD*%
%TO.C,SW3*%
X28257500Y-76200000D03*
D11*
X29527500Y-73660000D03*
D12*
X33337500Y-76200000D03*
D11*
X35877500Y-71120000D03*
D10*
X38417500Y-76200000D03*
%TD*%
%TO.C,SW39*%
X223520000Y-76200000D03*
D11*
X224790000Y-73660000D03*
D12*
X228600000Y-76200000D03*
D11*
X231140000Y-71120000D03*
D10*
X233680000Y-76200000D03*
%TD*%
%TO.C,SW9*%
X90170000Y-38100000D03*
D11*
X91440000Y-35560000D03*
D12*
X95250000Y-38100000D03*
D11*
X97790000Y-33020000D03*
D10*
X100330000Y-38100000D03*
%TD*%
%TO.C,SW1*%
X28257500Y-38100000D03*
D11*
X29527500Y-35560000D03*
D12*
X33337500Y-38100000D03*
D11*
X35877500Y-33020000D03*
D10*
X38417500Y-38100000D03*
%TD*%
%TO.C,SW6*%
X66357500Y-57150000D03*
D11*
X67627500Y-54610000D03*
D12*
X71437500Y-57150000D03*
D11*
X73977500Y-52070000D03*
D10*
X76517500Y-57150000D03*
%TD*%
%TO.C,SW13*%
X109220000Y-38100000D03*
D11*
X110490000Y-35560000D03*
D12*
X114300000Y-38100000D03*
D11*
X116840000Y-33020000D03*
D10*
X119380000Y-38100000D03*
%TD*%
%TO.C,SW58*%
X118745000Y-114300000D03*
D11*
X120015000Y-111760000D03*
D12*
X123825000Y-114300000D03*
D11*
X126365000Y-109220000D03*
D10*
X128905000Y-114300000D03*
%TD*%
%TO.C,SW35*%
X204470000Y-76200000D03*
D11*
X205740000Y-73660000D03*
D12*
X209550000Y-76200000D03*
D11*
X212090000Y-71120000D03*
D10*
X214630000Y-76200000D03*
%TD*%
%TO.C,SW61*%
X206851250Y-114300000D03*
D11*
X208121250Y-111760000D03*
D12*
X211931250Y-114300000D03*
D11*
X214471250Y-109220000D03*
D10*
X217011250Y-114300000D03*
%TD*%
%TO.C,SW43*%
X242570000Y-76200000D03*
D11*
X243840000Y-73660000D03*
D12*
X247650000Y-76200000D03*
D11*
X250190000Y-71120000D03*
D10*
X252730000Y-76200000D03*
%TD*%
%TO.C,SW62*%
X233045000Y-114300000D03*
D11*
X234315000Y-111760000D03*
D12*
X238125000Y-114300000D03*
D11*
X240665000Y-109220000D03*
D10*
X243205000Y-114300000D03*
%TD*%
%TO.C,SW54*%
X309245000Y-57150000D03*
D11*
X310515000Y-54610000D03*
D12*
X314325000Y-57150000D03*
D11*
X316865000Y-52070000D03*
D10*
X319405000Y-57150000D03*
%TD*%
%TO.C,SW44*%
X242570000Y-95250000D03*
D11*
X243840000Y-92710000D03*
D12*
X247650000Y-95250000D03*
D11*
X250190000Y-90170000D03*
D10*
X252730000Y-95250000D03*
%TD*%
%TO.C,SW16*%
X109220000Y-95250000D03*
D11*
X110490000Y-92710000D03*
D12*
X114300000Y-95250000D03*
D11*
X116840000Y-90170000D03*
D10*
X119380000Y-95250000D03*
%TD*%
D12*
%TO.C,SW60*%
X169037000Y-106045000D03*
D13*
X169037000Y-121285000D03*
D10*
X175895000Y-114300000D03*
D11*
X177165000Y-111760000D03*
D12*
X180975000Y-114300000D03*
D11*
X183515000Y-109220000D03*
D10*
X186055000Y-114300000D03*
D12*
X192913000Y-106045000D03*
D13*
X192913000Y-121285000D03*
%TD*%
D10*
%TO.C,SW27*%
X166370000Y-76200000D03*
D11*
X167640000Y-73660000D03*
D12*
X171450000Y-76200000D03*
D11*
X173990000Y-71120000D03*
D10*
X176530000Y-76200000D03*
%TD*%
%TO.C,SW26*%
X166370000Y-57150000D03*
D11*
X167640000Y-54610000D03*
D12*
X171450000Y-57150000D03*
D11*
X173990000Y-52070000D03*
D10*
X176530000Y-57150000D03*
%TD*%
%TO.C,SW42*%
X242570000Y-57150000D03*
D11*
X243840000Y-54610000D03*
D12*
X247650000Y-57150000D03*
D11*
X250190000Y-52070000D03*
D10*
X252730000Y-57150000D03*
%TD*%
%TO.C,SW23*%
X147320000Y-76200000D03*
D11*
X148590000Y-73660000D03*
D12*
X152400000Y-76200000D03*
D11*
X154940000Y-71120000D03*
D10*
X157480000Y-76200000D03*
%TD*%
%TO.C,SW5*%
X71120000Y-38100000D03*
D11*
X72390000Y-35560000D03*
D12*
X76200000Y-38100000D03*
D11*
X78740000Y-33020000D03*
D10*
X81280000Y-38100000D03*
%TD*%
%TO.C,SW57*%
X92551250Y-114300000D03*
D11*
X93821250Y-111760000D03*
D12*
X97631250Y-114300000D03*
D11*
X100171250Y-109220000D03*
D10*
X102711250Y-114300000D03*
%TD*%
%TO.C,SW33*%
X204470000Y-38100000D03*
D11*
X205740000Y-35560000D03*
D12*
X209550000Y-38100000D03*
D11*
X212090000Y-33020000D03*
D10*
X214630000Y-38100000D03*
%TD*%
%TO.C,SW48*%
X261620000Y-95250000D03*
D11*
X262890000Y-92710000D03*
D12*
X266700000Y-95250000D03*
D11*
X269240000Y-90170000D03*
D10*
X271780000Y-95250000D03*
%TD*%
%TO.C,SW49*%
X280670000Y-38100000D03*
D11*
X281940000Y-35560000D03*
D12*
X285750000Y-38100000D03*
D11*
X288290000Y-33020000D03*
D10*
X290830000Y-38100000D03*
%TD*%
D13*
%TO.C,SW55*%
X304768250Y-69215000D03*
D12*
X304768250Y-84455000D03*
D10*
X311626250Y-76200000D03*
D11*
X312896250Y-73660000D03*
D12*
X316706250Y-76200000D03*
D11*
X319246250Y-71120000D03*
D10*
X321786250Y-76200000D03*
D13*
X328644250Y-69215000D03*
D12*
X328644250Y-84455000D03*
%TD*%
D10*
%TO.C,SW38*%
X223520000Y-57150000D03*
D11*
X224790000Y-54610000D03*
D12*
X228600000Y-57150000D03*
D11*
X231140000Y-52070000D03*
D10*
X233680000Y-57150000D03*
%TD*%
%TO.C,SW32*%
X185420000Y-95250000D03*
D11*
X186690000Y-92710000D03*
D12*
X190500000Y-95250000D03*
D11*
X193040000Y-90170000D03*
D10*
X195580000Y-95250000D03*
%TD*%
%TO.C,SW7*%
X63976250Y-76200000D03*
D11*
X65246250Y-73660000D03*
D12*
X69056250Y-76200000D03*
D11*
X71596250Y-71120000D03*
D10*
X74136250Y-76200000D03*
%TD*%
%TO.C,SW15*%
X109220000Y-76200000D03*
D11*
X110490000Y-73660000D03*
D12*
X114300000Y-76200000D03*
D11*
X116840000Y-71120000D03*
D10*
X119380000Y-76200000D03*
%TD*%
%TO.C,SW29*%
X185420000Y-38100000D03*
D11*
X186690000Y-35560000D03*
D12*
X190500000Y-38100000D03*
D11*
X193040000Y-33020000D03*
D10*
X195580000Y-38100000D03*
%TD*%
%TO.C,SW2*%
X28257500Y-57150000D03*
D11*
X29527500Y-54610000D03*
D12*
X33337500Y-57150000D03*
D11*
X35877500Y-52070000D03*
D10*
X38417500Y-57150000D03*
%TD*%
%TO.C,SW22*%
X147320000Y-57150000D03*
D11*
X148590000Y-54610000D03*
D12*
X152400000Y-57150000D03*
D11*
X154940000Y-52070000D03*
D10*
X157480000Y-57150000D03*
%TD*%
%TO.C,SW19*%
X128270000Y-76200000D03*
D11*
X129540000Y-73660000D03*
D12*
X133350000Y-76200000D03*
D11*
X135890000Y-71120000D03*
D10*
X138430000Y-76200000D03*
%TD*%
%TO.C,SW21*%
X147320000Y-38100000D03*
D11*
X148590000Y-35560000D03*
D12*
X152400000Y-38100000D03*
D11*
X154940000Y-33020000D03*
D10*
X157480000Y-38100000D03*
%TD*%
%TO.C,SW25*%
X166370000Y-38100000D03*
D11*
X167640000Y-35560000D03*
D12*
X171450000Y-38100000D03*
D11*
X173990000Y-33020000D03*
D10*
X176530000Y-38100000D03*
%TD*%
%TO.C,SW47*%
X261620000Y-76200000D03*
D11*
X262890000Y-73660000D03*
D12*
X266700000Y-76200000D03*
D11*
X269240000Y-71120000D03*
D10*
X271780000Y-76200000D03*
%TD*%
D13*
%TO.C,SW8*%
X54737000Y-88265000D03*
D12*
X54737000Y-103505000D03*
D10*
X61595000Y-95250000D03*
D11*
X62865000Y-92710000D03*
D12*
X66675000Y-95250000D03*
D11*
X69215000Y-90170000D03*
D10*
X71755000Y-95250000D03*
D13*
X78613000Y-88265000D03*
D12*
X78613000Y-103505000D03*
%TD*%
D10*
%TO.C,SW37*%
X223520000Y-38100000D03*
D11*
X224790000Y-35560000D03*
D12*
X228600000Y-38100000D03*
D11*
X231140000Y-33020000D03*
D10*
X233680000Y-38100000D03*
%TD*%
%TO.C,SW34*%
X204470000Y-57150000D03*
D11*
X205740000Y-54610000D03*
D12*
X209550000Y-57150000D03*
D11*
X212090000Y-52070000D03*
D10*
X214630000Y-57150000D03*
%TD*%
%TO.C,SW18*%
X128270000Y-57150000D03*
D11*
X129540000Y-54610000D03*
D12*
X133350000Y-57150000D03*
D11*
X135890000Y-52070000D03*
D10*
X138430000Y-57150000D03*
%TD*%
%TO.C,SW59*%
X144938750Y-114300000D03*
D11*
X146208750Y-111760000D03*
D12*
X150018750Y-114300000D03*
D11*
X152558750Y-109220000D03*
D10*
X155098750Y-114300000D03*
%TD*%
%TO.C,SW36*%
X204470000Y-95250000D03*
D11*
X205740000Y-92710000D03*
D12*
X209550000Y-95250000D03*
D11*
X212090000Y-90170000D03*
D10*
X214630000Y-95250000D03*
%TD*%
%TO.C,SW63*%
X259238750Y-114300000D03*
D11*
X260508750Y-111760000D03*
D12*
X264318750Y-114300000D03*
D11*
X266858750Y-109220000D03*
D10*
X269398750Y-114300000D03*
%TD*%
%TO.C,SW45*%
X261620000Y-38100000D03*
D11*
X262890000Y-35560000D03*
D12*
X266700000Y-38100000D03*
D11*
X269240000Y-33020000D03*
D10*
X271780000Y-38100000D03*
%TD*%
%TO.C,SW14*%
X109220000Y-57150000D03*
D11*
X110490000Y-54610000D03*
D12*
X114300000Y-57150000D03*
D11*
X116840000Y-52070000D03*
D10*
X119380000Y-57150000D03*
%TD*%
%TO.C,SW40*%
X223520000Y-95250000D03*
D11*
X224790000Y-92710000D03*
D12*
X228600000Y-95250000D03*
D11*
X231140000Y-90170000D03*
D10*
X233680000Y-95250000D03*
%TD*%
%TO.C,SW10*%
X90170000Y-57150000D03*
D11*
X91440000Y-54610000D03*
D12*
X95250000Y-57150000D03*
D11*
X97790000Y-52070000D03*
D10*
X100330000Y-57150000D03*
%TD*%
%TO.C,SW51*%
X280670000Y-76200000D03*
D11*
X281940000Y-73660000D03*
D12*
X285750000Y-76200000D03*
D11*
X288290000Y-71120000D03*
D10*
X290830000Y-76200000D03*
%TD*%
%TO.C,SW4*%
X28257500Y-95250000D03*
D11*
X29527500Y-92710000D03*
D12*
X33337500Y-95250000D03*
D11*
X35877500Y-90170000D03*
D10*
X38417500Y-95250000D03*
%TD*%
%TO.C,SW41*%
X242570000Y-38100000D03*
D11*
X243840000Y-35560000D03*
D12*
X247650000Y-38100000D03*
D11*
X250190000Y-33020000D03*
D10*
X252730000Y-38100000D03*
%TD*%
%TO.C,SW20*%
X128270000Y-95250000D03*
D11*
X129540000Y-92710000D03*
D12*
X133350000Y-95250000D03*
D11*
X135890000Y-90170000D03*
D10*
X138430000Y-95250000D03*
%TD*%
%TO.C,SW46*%
X261620000Y-57150000D03*
D11*
X262890000Y-54610000D03*
D12*
X266700000Y-57150000D03*
D11*
X269240000Y-52070000D03*
D10*
X271780000Y-57150000D03*
%TD*%
%TO.C,SW53*%
X299720000Y-38100000D03*
D11*
X300990000Y-35560000D03*
D12*
X304800000Y-38100000D03*
D11*
X307340000Y-33020000D03*
D10*
X309880000Y-38100000D03*
%TD*%
%TO.C,SW56*%
X314007500Y-95250000D03*
D11*
X315277500Y-92710000D03*
D12*
X319087500Y-95250000D03*
D11*
X321627500Y-90170000D03*
D10*
X324167500Y-95250000D03*
%TD*%
%TO.C,SW30*%
X185420000Y-57150000D03*
D11*
X186690000Y-54610000D03*
D12*
X190500000Y-57150000D03*
D11*
X193040000Y-52070000D03*
D10*
X195580000Y-57150000D03*
%TD*%
D14*
%TO.C,U9*%
X49530000Y-36672500D03*
X49530000Y-39212500D03*
X49530000Y-41752500D03*
X49530000Y-44292500D03*
X49530000Y-46832500D03*
X64770000Y-46832500D03*
X64770000Y-44292500D03*
X64770000Y-41752500D03*
X64770000Y-39212500D03*
X64770000Y-36672500D03*
X64770000Y-34132500D03*
%TD*%
M02*
