M48
; DRILL file {KiCad 7.0.1} date Tue May  9 15:13:21 2023
; FORMAT={-:-/ absolute / inch / decimal}
; #@! TF.CreationDate,2023-05-09T15:13:21+09:00
; #@! TF.GenerationSoftware,Kicad,Pcbnew,7.0.1
; #@! TF.FileFunction,Plated,1,2,PTH
FMAT,2
INCH
; #@! TA.AperFunction,Plated,PTH,ViaDrill
T1C0.0118
; #@! TA.AperFunction,Plated,PTH,ComponentDrill
T2C0.0394
%
G90
G05
T1
X1.8128Y-2.6629
X1.9573Y-2.4179
X2.0923Y-2.5715
X2.115Y-2.51
X2.1273Y-2.5971
X2.2031Y-1.882
X2.2528Y-2.6629
X2.2807Y-2.7421
X2.2831Y-1.802
X2.3127Y-2.4179
X2.3428Y-1.712
X2.3428Y-1.882
X2.3507Y-2.7421
X2.3527Y-2.4435
X2.37Y-1.5238
X2.45Y-1.6038
X2.45Y-1.6938
X2.45Y-1.8038
X2.9487Y-2.63
X3.8028Y-2.6629
X3.9473Y-2.4179
X4.0823Y-2.5715
X4.105Y-2.51
X4.1173Y-2.5971
X4.1773Y-2.4435
X4.2428Y-2.6629
X4.2707Y-2.7421
X4.3407Y-2.7421
X4.3427Y-2.4435
X4.7287Y-2.63
X5.3028Y-2.6629
X5.4473Y-2.4179
X5.5823Y-2.5715
X5.605Y-2.51
X5.6173Y-2.5971
X5.6773Y-2.4435
X5.7428Y-2.6629
X5.7707Y-2.7421
X5.8407Y-2.7421
X5.8427Y-2.4435
X6.2287Y-2.63
X6.4641Y-4.175
X6.7611Y-4.4
X6.8028Y-2.6629
X6.8311Y-4.175
X6.9473Y-2.4179
X7.0823Y-2.5715
X7.105Y-2.51
X7.1173Y-2.5971
X7.1773Y-2.4435
X7.2428Y-2.6629
X7.2707Y-2.7421
X7.3407Y-2.7421
X7.3427Y-2.4435
X7.7287Y-2.63
X7.7328Y-4.1629
X7.8457Y-2.5715
X7.8457Y-2.6929
X7.8773Y-3.9179
X7.8861Y-2.5971
X7.8861Y-2.6929
X7.9973Y-4.0715
X8.0273Y-4.0971
X8.0748Y-4.245
X8.0987Y-2.63
X8.1027Y-3.9435
X8.1445Y-4.2056
X8.1728Y-4.1629
X8.1748Y-4.245
X8.2727Y-3.9179
X8.2827Y-3.9691
X8.3028Y-2.6629
X8.4473Y-2.4179
X8.5823Y-2.5715
X8.605Y-2.51
X8.6173Y-2.5971
X8.6773Y-2.4435
X8.7428Y-2.6629
X8.7707Y-2.7421
X8.8407Y-2.7421
X8.8427Y-2.4435
X9.2287Y-2.63
X9.8028Y-2.6629
X9.9473Y-2.4179
X10.0823Y-2.5715
X10.105Y-2.51
X10.1173Y-2.5971
X10.1773Y-2.4435
X10.2428Y-2.6629
X10.2707Y-2.7421
X10.3407Y-2.7421
X10.3427Y-2.4435
X10.7287Y-2.63
X11.3028Y-2.6629
X11.4473Y-2.4179
X11.5823Y-2.5715
X11.605Y-2.51
X11.6173Y-2.5971
X11.6773Y-2.4435
X11.7428Y-2.6629
X11.8427Y-2.4435
T2
X1.95Y-1.4438
X1.95Y-1.5438
X1.95Y-1.6438
X1.95Y-1.7438
X1.95Y-1.8438
X2.55Y-1.3438
X2.55Y-1.4438
X2.55Y-1.5438
X2.55Y-1.6438
X2.55Y-1.7438
X2.55Y-1.8438
T0
M30
