%TF.GenerationSoftware,KiCad,Pcbnew,7.0.1*%
%TF.CreationDate,2023-05-09T15:13:21+09:00*%
%TF.ProjectId,Pherk60,50686572-6b36-4302-9e6b-696361645f70,rev?*%
%TF.SameCoordinates,Original*%
%TF.FileFunction,Paste,Bot*%
%TF.FilePolarity,Positive*%
%FSLAX46Y46*%
G04 Gerber Fmt 4.6, Leading zero omitted, Abs format (unit mm)*
G04 Created by KiCad (PCBNEW 7.0.1) date 2023-05-09 15:13:21*
%MOMM*%
%LPD*%
G01*
G04 APERTURE LIST*
G04 Aperture macros list*
%AMRoundRect*
0 Rectangle with rounded corners*
0 $1 Rounding radius*
0 $2 $3 $4 $5 $6 $7 $8 $9 X,Y pos of 4 corners*
0 Add a 4 corners polygon primitive as box body*
4,1,4,$2,$3,$4,$5,$6,$7,$8,$9,$2,$3,0*
0 Add four circle primitives for the rounded corners*
1,1,$1+$1,$2,$3*
1,1,$1+$1,$4,$5*
1,1,$1+$1,$6,$7*
1,1,$1+$1,$8,$9*
0 Add four rect primitives between the rounded corners*
20,1,$1+$1,$2,$3,$4,$5,0*
20,1,$1+$1,$4,$5,$6,$7,0*
20,1,$1+$1,$6,$7,$8,$9,0*
20,1,$1+$1,$8,$9,$2,$3,0*%
G04 Aperture macros list end*
%ADD10RoundRect,0.200000X-1.075000X-1.050000X1.075000X-1.050000X1.075000X1.050000X-1.075000X1.050000X0*%
%ADD11R,0.500000X0.800000*%
%ADD12R,0.400000X0.800000*%
%ADD13RoundRect,0.100000X-0.637500X-0.100000X0.637500X-0.100000X0.637500X0.100000X-0.637500X0.100000X0*%
G04 APERTURE END LIST*
D10*
%TO.C,SW50*%
X283427500Y-54610000D03*
X296354500Y-52070000D03*
%TD*%
%TO.C,SW24*%
X145315000Y-92710000D03*
X158242000Y-90170000D03*
%TD*%
%TO.C,SW52*%
X285808750Y-92710000D03*
X298735750Y-90170000D03*
%TD*%
%TO.C,SW17*%
X126265000Y-35560000D03*
X139192000Y-33020000D03*
%TD*%
%TO.C,SW12*%
X88165000Y-92710000D03*
X101092000Y-90170000D03*
%TD*%
%TO.C,SW28*%
X164365000Y-92710000D03*
X177292000Y-90170000D03*
%TD*%
%TO.C,SW31*%
X183415000Y-73660000D03*
X196342000Y-71120000D03*
%TD*%
%TO.C,SW11*%
X88165000Y-73660000D03*
X101092000Y-71120000D03*
%TD*%
%TO.C,SW3*%
X26252500Y-73660000D03*
X39179500Y-71120000D03*
%TD*%
%TO.C,SW39*%
X221515000Y-73660000D03*
X234442000Y-71120000D03*
%TD*%
%TO.C,SW9*%
X88165000Y-35560000D03*
X101092000Y-33020000D03*
%TD*%
%TO.C,SW1*%
X26252500Y-35560000D03*
X39179500Y-33020000D03*
%TD*%
%TO.C,SW6*%
X64352500Y-54610000D03*
X77279500Y-52070000D03*
%TD*%
%TO.C,SW13*%
X107215000Y-35560000D03*
X120142000Y-33020000D03*
%TD*%
%TO.C,SW58*%
X116740000Y-111760000D03*
X129667000Y-109220000D03*
%TD*%
%TO.C,SW35*%
X202465000Y-73660000D03*
X215392000Y-71120000D03*
%TD*%
%TO.C,SW61*%
X204846250Y-111760000D03*
X217773250Y-109220000D03*
%TD*%
%TO.C,SW43*%
X240565000Y-73660000D03*
X253492000Y-71120000D03*
%TD*%
%TO.C,SW62*%
X231040000Y-111760000D03*
X243967000Y-109220000D03*
%TD*%
%TO.C,SW54*%
X307240000Y-54610000D03*
X320167000Y-52070000D03*
%TD*%
%TO.C,SW44*%
X240565000Y-92710000D03*
X253492000Y-90170000D03*
%TD*%
%TO.C,SW16*%
X107215000Y-92710000D03*
X120142000Y-90170000D03*
%TD*%
%TO.C,SW60*%
X173890000Y-111760000D03*
X186817000Y-109220000D03*
%TD*%
%TO.C,SW27*%
X164365000Y-73660000D03*
X177292000Y-71120000D03*
%TD*%
%TO.C,SW26*%
X164365000Y-54610000D03*
X177292000Y-52070000D03*
%TD*%
%TO.C,SW42*%
X240565000Y-54610000D03*
X253492000Y-52070000D03*
%TD*%
%TO.C,SW23*%
X145315000Y-73660000D03*
X158242000Y-71120000D03*
%TD*%
%TO.C,SW5*%
X69115000Y-35560000D03*
X82042000Y-33020000D03*
%TD*%
%TO.C,SW57*%
X90546250Y-111760000D03*
X103473250Y-109220000D03*
%TD*%
%TO.C,SW33*%
X202465000Y-35560000D03*
X215392000Y-33020000D03*
%TD*%
%TO.C,SW48*%
X259615000Y-92710000D03*
X272542000Y-90170000D03*
%TD*%
%TO.C,SW49*%
X278665000Y-35560000D03*
X291592000Y-33020000D03*
%TD*%
%TO.C,SW55*%
X309621250Y-73660000D03*
X322548250Y-71120000D03*
%TD*%
%TO.C,SW38*%
X221515000Y-54610000D03*
X234442000Y-52070000D03*
%TD*%
%TO.C,SW32*%
X183415000Y-92710000D03*
X196342000Y-90170000D03*
%TD*%
%TO.C,SW7*%
X61971250Y-73660000D03*
X74898250Y-71120000D03*
%TD*%
%TO.C,SW15*%
X107215000Y-73660000D03*
X120142000Y-71120000D03*
%TD*%
%TO.C,SW29*%
X183415000Y-35560000D03*
X196342000Y-33020000D03*
%TD*%
%TO.C,SW2*%
X26252500Y-54610000D03*
X39179500Y-52070000D03*
%TD*%
%TO.C,SW22*%
X145315000Y-54610000D03*
X158242000Y-52070000D03*
%TD*%
%TO.C,SW19*%
X126265000Y-73660000D03*
X139192000Y-71120000D03*
%TD*%
%TO.C,SW21*%
X145315000Y-35560000D03*
X158242000Y-33020000D03*
%TD*%
%TO.C,SW25*%
X164365000Y-35560000D03*
X177292000Y-33020000D03*
%TD*%
%TO.C,SW47*%
X259615000Y-73660000D03*
X272542000Y-71120000D03*
%TD*%
%TO.C,SW8*%
X59590000Y-92710000D03*
X72517000Y-90170000D03*
%TD*%
%TO.C,SW37*%
X221515000Y-35560000D03*
X234442000Y-33020000D03*
%TD*%
%TO.C,SW34*%
X202465000Y-54610000D03*
X215392000Y-52070000D03*
%TD*%
%TO.C,SW18*%
X126265000Y-54610000D03*
X139192000Y-52070000D03*
%TD*%
%TO.C,SW59*%
X142933750Y-111760000D03*
X155860750Y-109220000D03*
%TD*%
%TO.C,SW36*%
X202465000Y-92710000D03*
X215392000Y-90170000D03*
%TD*%
%TO.C,SW63*%
X257233750Y-111760000D03*
X270160750Y-109220000D03*
%TD*%
%TO.C,SW45*%
X259615000Y-35560000D03*
X272542000Y-33020000D03*
%TD*%
%TO.C,SW14*%
X107215000Y-54610000D03*
X120142000Y-52070000D03*
%TD*%
%TO.C,SW40*%
X221515000Y-92710000D03*
X234442000Y-90170000D03*
%TD*%
%TO.C,SW10*%
X88165000Y-54610000D03*
X101092000Y-52070000D03*
%TD*%
%TO.C,SW51*%
X278665000Y-73660000D03*
X291592000Y-71120000D03*
%TD*%
%TO.C,SW4*%
X26252500Y-92710000D03*
X39179500Y-90170000D03*
%TD*%
%TO.C,SW41*%
X240565000Y-35560000D03*
X253492000Y-33020000D03*
%TD*%
%TO.C,SW20*%
X126265000Y-92710000D03*
X139192000Y-90170000D03*
%TD*%
%TO.C,SW46*%
X259615000Y-54610000D03*
X272542000Y-52070000D03*
%TD*%
%TO.C,SW53*%
X297715000Y-35560000D03*
X310642000Y-33020000D03*
%TD*%
%TO.C,SW56*%
X312002500Y-92710000D03*
X324929500Y-90170000D03*
%TD*%
%TO.C,SW30*%
X183415000Y-54610000D03*
X196342000Y-52070000D03*
%TD*%
D11*
%TO.C,RN3*%
X100260000Y-67638500D03*
D12*
X99460000Y-67638500D03*
X98660000Y-67638500D03*
D11*
X97860000Y-67638500D03*
X97860000Y-65838500D03*
D12*
X98660000Y-65838500D03*
X99460000Y-65838500D03*
D11*
X100260000Y-65838500D03*
%TD*%
%TO.C,RN7*%
X176460000Y-67638500D03*
D12*
X175660000Y-67638500D03*
X174860000Y-67638500D03*
D11*
X174060000Y-67638500D03*
X174060000Y-65838500D03*
D12*
X174860000Y-65838500D03*
X175660000Y-65838500D03*
D11*
X176460000Y-65838500D03*
%TD*%
D13*
%TO.C,U8*%
X201861500Y-104065500D03*
X201861500Y-103415500D03*
X201861500Y-102765500D03*
X201861500Y-102115500D03*
X201861500Y-101465500D03*
X201861500Y-100815500D03*
X201861500Y-100165500D03*
X201861500Y-99515500D03*
X207586500Y-99515500D03*
X207586500Y-100165500D03*
X207586500Y-100815500D03*
X207586500Y-101465500D03*
X207586500Y-102115500D03*
X207586500Y-102765500D03*
X207586500Y-103415500D03*
X207586500Y-104065500D03*
%TD*%
D11*
%TO.C,RN5*%
X138360000Y-67638500D03*
D12*
X137560000Y-67638500D03*
X136760000Y-67638500D03*
D11*
X135960000Y-67638500D03*
X135960000Y-65838500D03*
D12*
X136760000Y-65838500D03*
X137560000Y-65838500D03*
D11*
X138360000Y-65838500D03*
%TD*%
%TO.C,RN15*%
X200082000Y-105738500D03*
D12*
X199282000Y-105738500D03*
X198482000Y-105738500D03*
D11*
X197682000Y-105738500D03*
X197682000Y-103938500D03*
D12*
X198482000Y-103938500D03*
X199282000Y-103938500D03*
D11*
X200082000Y-103938500D03*
%TD*%
%TO.C,RN4*%
X109544000Y-65838500D03*
D12*
X110344000Y-65838500D03*
X111144000Y-65838500D03*
D11*
X111944000Y-65838500D03*
X111944000Y-67638500D03*
D12*
X111144000Y-67638500D03*
X110344000Y-67638500D03*
D11*
X109544000Y-67638500D03*
%TD*%
%TO.C,RN6*%
X147644000Y-65838500D03*
D12*
X148444000Y-65838500D03*
X149244000Y-65838500D03*
D11*
X150044000Y-65838500D03*
X150044000Y-67638500D03*
D12*
X149244000Y-67638500D03*
X148444000Y-67638500D03*
D11*
X147644000Y-67638500D03*
%TD*%
%TO.C,RN12*%
X261944000Y-65838500D03*
D12*
X262744000Y-65838500D03*
X263544000Y-65838500D03*
D11*
X264344000Y-65838500D03*
X264344000Y-67638500D03*
D12*
X263544000Y-67638500D03*
X262744000Y-67638500D03*
D11*
X261944000Y-67638500D03*
%TD*%
D13*
%TO.C,U4*%
X178239500Y-65965500D03*
X178239500Y-65315500D03*
X178239500Y-64665500D03*
X178239500Y-64015500D03*
X178239500Y-63365500D03*
X178239500Y-62715500D03*
X178239500Y-62065500D03*
X178239500Y-61415500D03*
X183964500Y-61415500D03*
X183964500Y-62065500D03*
X183964500Y-62715500D03*
X183964500Y-63365500D03*
X183964500Y-64015500D03*
X183964500Y-64665500D03*
X183964500Y-65315500D03*
X183964500Y-65965500D03*
%TD*%
D11*
%TO.C,RN1*%
X49714000Y-67638500D03*
D12*
X48914000Y-67638500D03*
X48114000Y-67638500D03*
D11*
X47314000Y-67638500D03*
X47314000Y-65838500D03*
D12*
X48114000Y-65838500D03*
X48914000Y-65838500D03*
D11*
X49714000Y-65838500D03*
%TD*%
%TO.C,RN8*%
X185744000Y-65838500D03*
D12*
X186544000Y-65838500D03*
X187344000Y-65838500D03*
D11*
X188144000Y-65838500D03*
X188144000Y-67638500D03*
D12*
X187344000Y-67638500D03*
X186544000Y-67638500D03*
D11*
X185744000Y-67638500D03*
%TD*%
%TO.C,RN2*%
X58998000Y-65838500D03*
D12*
X59798000Y-65838500D03*
X60598000Y-65838500D03*
D11*
X61398000Y-65838500D03*
X61398000Y-67638500D03*
D12*
X60598000Y-67638500D03*
X59798000Y-67638500D03*
D11*
X58998000Y-67638500D03*
%TD*%
D13*
%TO.C,U7*%
X292539500Y-65965500D03*
X292539500Y-65315500D03*
X292539500Y-64665500D03*
X292539500Y-64015500D03*
X292539500Y-63365500D03*
X292539500Y-62715500D03*
X292539500Y-62065500D03*
X292539500Y-61415500D03*
X298264500Y-61415500D03*
X298264500Y-62065500D03*
X298264500Y-62715500D03*
X298264500Y-63365500D03*
X298264500Y-64015500D03*
X298264500Y-64665500D03*
X298264500Y-65315500D03*
X298264500Y-65965500D03*
%TD*%
D11*
%TO.C,RN16*%
X209366000Y-103938500D03*
D12*
X210166000Y-103938500D03*
X210966000Y-103938500D03*
D11*
X211766000Y-103938500D03*
X211766000Y-105738500D03*
D12*
X210966000Y-105738500D03*
X210166000Y-105738500D03*
D11*
X209366000Y-105738500D03*
%TD*%
%TO.C,RN11*%
X252660000Y-67638500D03*
D12*
X251860000Y-67638500D03*
X251060000Y-67638500D03*
D11*
X250260000Y-67638500D03*
X250260000Y-65838500D03*
D12*
X251060000Y-65838500D03*
X251860000Y-65838500D03*
D11*
X252660000Y-65838500D03*
%TD*%
%TO.C,RN13*%
X290760000Y-67638500D03*
D12*
X289960000Y-67638500D03*
X289160000Y-67638500D03*
D11*
X288360000Y-67638500D03*
X288360000Y-65838500D03*
D12*
X289160000Y-65838500D03*
X289960000Y-65838500D03*
D11*
X290760000Y-65838500D03*
%TD*%
%TO.C,RN9*%
X214560000Y-67638500D03*
D12*
X213760000Y-67638500D03*
X212960000Y-67638500D03*
D11*
X212160000Y-67638500D03*
X212160000Y-65838500D03*
D12*
X212960000Y-65838500D03*
X213760000Y-65838500D03*
D11*
X214560000Y-65838500D03*
%TD*%
D13*
%TO.C,U5*%
X216339500Y-65965500D03*
X216339500Y-65315500D03*
X216339500Y-64665500D03*
X216339500Y-64015500D03*
X216339500Y-63365500D03*
X216339500Y-62715500D03*
X216339500Y-62065500D03*
X216339500Y-61415500D03*
X222064500Y-61415500D03*
X222064500Y-62065500D03*
X222064500Y-62715500D03*
X222064500Y-63365500D03*
X222064500Y-64015500D03*
X222064500Y-64665500D03*
X222064500Y-65315500D03*
X222064500Y-65965500D03*
%TD*%
%TO.C,U1*%
X51493500Y-65965500D03*
X51493500Y-65315500D03*
X51493500Y-64665500D03*
X51493500Y-64015500D03*
X51493500Y-63365500D03*
X51493500Y-62715500D03*
X51493500Y-62065500D03*
X51493500Y-61415500D03*
X57218500Y-61415500D03*
X57218500Y-62065500D03*
X57218500Y-62715500D03*
X57218500Y-63365500D03*
X57218500Y-64015500D03*
X57218500Y-64665500D03*
X57218500Y-65315500D03*
X57218500Y-65965500D03*
%TD*%
%TO.C,U6*%
X254439500Y-65965500D03*
X254439500Y-65315500D03*
X254439500Y-64665500D03*
X254439500Y-64015500D03*
X254439500Y-63365500D03*
X254439500Y-62715500D03*
X254439500Y-62065500D03*
X254439500Y-61415500D03*
X260164500Y-61415500D03*
X260164500Y-62065500D03*
X260164500Y-62715500D03*
X260164500Y-63365500D03*
X260164500Y-64015500D03*
X260164500Y-64665500D03*
X260164500Y-65315500D03*
X260164500Y-65965500D03*
%TD*%
%TO.C,U3*%
X140139500Y-65965500D03*
X140139500Y-65315500D03*
X140139500Y-64665500D03*
X140139500Y-64015500D03*
X140139500Y-63365500D03*
X140139500Y-62715500D03*
X140139500Y-62065500D03*
X140139500Y-61415500D03*
X145864500Y-61415500D03*
X145864500Y-62065500D03*
X145864500Y-62715500D03*
X145864500Y-63365500D03*
X145864500Y-64015500D03*
X145864500Y-64665500D03*
X145864500Y-65315500D03*
X145864500Y-65965500D03*
%TD*%
%TO.C,U2*%
X102039500Y-65965500D03*
X102039500Y-65315500D03*
X102039500Y-64665500D03*
X102039500Y-64015500D03*
X102039500Y-63365500D03*
X102039500Y-62715500D03*
X102039500Y-62065500D03*
X102039500Y-61415500D03*
X107764500Y-61415500D03*
X107764500Y-62065500D03*
X107764500Y-62715500D03*
X107764500Y-63365500D03*
X107764500Y-64015500D03*
X107764500Y-64665500D03*
X107764500Y-65315500D03*
X107764500Y-65965500D03*
%TD*%
D11*
%TO.C,RN14*%
X300044000Y-65838500D03*
D12*
X300844000Y-65838500D03*
X301644000Y-65838500D03*
D11*
X302444000Y-65838500D03*
X302444000Y-67638500D03*
D12*
X301644000Y-67638500D03*
X300844000Y-67638500D03*
D11*
X300044000Y-67638500D03*
%TD*%
%TO.C,RN10*%
X223844000Y-65838500D03*
D12*
X224644000Y-65838500D03*
X225444000Y-65838500D03*
D11*
X226244000Y-65838500D03*
X226244000Y-67638500D03*
D12*
X225444000Y-67638500D03*
X224644000Y-67638500D03*
D11*
X223844000Y-67638500D03*
%TD*%
M02*
