M48
; DRILL file {KiCad 7.0.1} date Tue May  9 15:13:21 2023
; FORMAT={-:-/ absolute / inch / decimal}
; #@! TF.CreationDate,2023-05-09T15:13:21+09:00
; #@! TF.GenerationSoftware,Kicad,Pcbnew,7.0.1
; #@! TF.FileFunction,NonPlated,1,2,NPTH
FMAT,2
INCH
; #@! TA.AperFunction,NonPlated,NPTH,ComponentDrill
T1C0.0670
; #@! TA.AperFunction,NonPlated,NPTH,ComponentDrill
T2C0.1181
; #@! TA.AperFunction,NonPlated,NPTH,ComponentDrill
T3C0.1200
; #@! TA.AperFunction,NonPlated,NPTH,ComponentDrill
T4C0.1570
%
G90
G05
T1
X1.1125Y-1.5
X1.1125Y-2.25
X1.1125Y-3.0
X1.1125Y-3.75
X1.5125Y-1.5
X1.5125Y-2.25
X1.5125Y-3.0
X1.5125Y-3.75
X2.425Y-3.75
X2.5187Y-3.0
X2.6125Y-2.25
X2.8Y-1.5
X2.825Y-3.75
X2.9187Y-3.0
X3.0125Y-2.25
X3.2Y-1.5
X3.55Y-1.5
X3.55Y-2.25
X3.55Y-3.0
X3.55Y-3.75
X3.6437Y-4.5
X3.95Y-1.5
X3.95Y-2.25
X3.95Y-3.0
X3.95Y-3.75
X4.0438Y-4.5
X4.3Y-1.5
X4.3Y-2.25
X4.3Y-3.0
X4.3Y-3.75
X4.675Y-4.5
X4.7Y-1.5
X4.7Y-2.25
X4.7Y-3.0
X4.7Y-3.75
X5.05Y-1.5
X5.05Y-2.25
X5.05Y-3.0
X5.05Y-3.75
X5.075Y-4.5
X5.45Y-1.5
X5.45Y-2.25
X5.45Y-3.0
X5.45Y-3.75
X5.7062Y-4.5
X5.8Y-1.5
X5.8Y-2.25
X5.8Y-3.0
X5.8Y-3.75
X6.1063Y-4.5
X6.2Y-1.5
X6.2Y-2.25
X6.2Y-3.0
X6.2Y-3.75
X6.55Y-1.5
X6.55Y-2.25
X6.55Y-3.0
X6.55Y-3.75
X6.925Y-4.5
X6.95Y-1.5
X6.95Y-2.25
X6.95Y-3.0
X6.95Y-3.75
X7.3Y-1.5
X7.3Y-2.25
X7.3Y-3.0
X7.3Y-3.75
X7.325Y-4.5
X7.7Y-1.5
X7.7Y-2.25
X7.7Y-3.0
X7.7Y-3.75
X8.05Y-1.5
X8.05Y-2.25
X8.05Y-3.0
X8.05Y-3.75
X8.1437Y-4.5
X8.45Y-1.5
X8.45Y-2.25
X8.45Y-3.0
X8.45Y-3.75
X8.5437Y-4.5
X8.8Y-1.5
X8.8Y-2.25
X8.8Y-3.0
X8.8Y-3.75
X9.175Y-4.5
X9.2Y-1.5
X9.2Y-2.25
X9.2Y-3.0
X9.2Y-3.75
X9.55Y-1.5
X9.55Y-2.25
X9.55Y-3.0
X9.55Y-3.75
X9.575Y-4.5
X9.95Y-1.5
X9.95Y-2.25
X9.95Y-3.0
X9.95Y-3.75
X10.2062Y-4.5
X10.3Y-1.5
X10.3Y-2.25
X10.3Y-3.0
X10.3Y-3.75
X10.6062Y-4.5
X10.7Y-1.5
X10.7Y-2.25
X10.7Y-3.0
X10.7Y-3.75
X11.05Y-1.5
X11.05Y-3.0
X11.2375Y-2.25
X11.3312Y-3.75
X11.45Y-1.5
X11.45Y-3.0
X11.6375Y-2.25
X11.7312Y-3.75
X11.8Y-1.5
X12.175Y-2.25
X12.2Y-1.5
X12.2687Y-3.0
X12.3625Y-3.75
X12.575Y-2.25
X12.6687Y-3.0
X12.7625Y-3.75
T2
X1.1625Y-1.4
X1.1625Y-2.15
X1.1625Y-2.9
X1.1625Y-3.65
X1.4125Y-1.3
X1.4125Y-2.05
X1.4125Y-2.8
X1.4125Y-3.55
X2.475Y-3.65
X2.5688Y-2.9
X2.6625Y-2.15
X2.725Y-3.55
X2.8188Y-2.8
X2.85Y-1.4
X2.9125Y-2.05
X3.1Y-1.3
X3.6Y-1.4
X3.6Y-2.15
X3.6Y-2.9
X3.6Y-3.65
X3.6938Y-4.4
X3.85Y-1.3
X3.85Y-2.05
X3.85Y-2.8
X3.85Y-3.55
X3.9438Y-4.3
X4.35Y-1.4
X4.35Y-2.15
X4.35Y-2.9
X4.35Y-3.65
X4.6Y-1.3
X4.6Y-2.05
X4.6Y-2.8
X4.6Y-3.55
X4.725Y-4.4
X4.975Y-4.3
X5.1Y-1.4
X5.1Y-2.15
X5.1Y-2.9
X5.1Y-3.65
X5.35Y-1.3
X5.35Y-2.05
X5.35Y-2.8
X5.35Y-3.55
X5.7562Y-4.4
X5.85Y-1.4
X5.85Y-2.15
X5.85Y-2.9
X5.85Y-3.65
X6.0062Y-4.3
X6.1Y-1.3
X6.1Y-2.05
X6.1Y-2.8
X6.1Y-3.55
X6.6Y-1.4
X6.6Y-2.15
X6.6Y-2.9
X6.6Y-3.65
X6.85Y-1.3
X6.85Y-2.05
X6.85Y-2.8
X6.85Y-3.55
X6.975Y-4.4
X7.225Y-4.3
X7.35Y-1.4
X7.35Y-2.15
X7.35Y-2.9
X7.35Y-3.65
X7.6Y-1.3
X7.6Y-2.05
X7.6Y-2.8
X7.6Y-3.55
X8.1Y-1.4
X8.1Y-2.15
X8.1Y-2.9
X8.1Y-3.65
X8.1937Y-4.4
X8.35Y-1.3
X8.35Y-2.05
X8.35Y-2.8
X8.35Y-3.55
X8.4437Y-4.3
X8.85Y-1.4
X8.85Y-2.15
X8.85Y-2.9
X8.85Y-3.65
X9.1Y-1.3
X9.1Y-2.05
X9.1Y-2.8
X9.1Y-3.55
X9.225Y-4.4
X9.475Y-4.3
X9.6Y-1.4
X9.6Y-2.15
X9.6Y-2.9
X9.6Y-3.65
X9.85Y-1.3
X9.85Y-2.05
X9.85Y-2.8
X9.85Y-3.55
X10.2562Y-4.4
X10.35Y-1.4
X10.35Y-2.15
X10.35Y-2.9
X10.35Y-3.65
X10.5062Y-4.3
X10.6Y-1.3
X10.6Y-2.05
X10.6Y-2.8
X10.6Y-3.55
X11.1Y-1.4
X11.1Y-2.9
X11.2875Y-2.15
X11.35Y-1.3
X11.35Y-2.8
X11.3812Y-3.65
X11.5375Y-2.05
X11.6312Y-3.55
X11.85Y-1.4
X12.1Y-1.3
X12.225Y-2.15
X12.3187Y-2.9
X12.4125Y-3.65
X12.475Y-2.05
X12.5687Y-2.8
X12.6625Y-3.55
T3
X2.155Y-3.475
X3.095Y-3.475
X6.655Y-4.775
X7.595Y-4.775
X11.9987Y-2.725
X12.9387Y-2.725
T4
X1.3125Y-1.5
X1.3125Y-2.25
X1.3125Y-3.0
X1.3125Y-3.75
X2.155Y-4.075
X2.625Y-3.75
X2.7188Y-3.0
X2.8125Y-2.25
X3.0Y-1.5
X3.095Y-4.075
X3.75Y-1.5
X3.75Y-2.25
X3.75Y-3.0
X3.75Y-3.75
X3.8438Y-4.5
X4.5Y-1.5
X4.5Y-2.25
X4.5Y-3.0
X4.5Y-3.75
X4.875Y-4.5
X5.25Y-1.5
X5.25Y-2.25
X5.25Y-3.0
X5.25Y-3.75
X5.9062Y-4.5
X6.0Y-1.5
X6.0Y-2.25
X6.0Y-3.0
X6.0Y-3.75
X6.655Y-4.175
X6.75Y-1.5
X6.75Y-2.25
X6.75Y-3.0
X6.75Y-3.75
X7.125Y-4.5
X7.5Y-1.5
X7.5Y-2.25
X7.5Y-3.0
X7.5Y-3.75
X7.595Y-4.175
X8.25Y-1.5
X8.25Y-2.25
X8.25Y-3.0
X8.25Y-3.75
X8.3438Y-4.5
X9.0Y-1.5
X9.0Y-2.25
X9.0Y-3.0
X9.0Y-3.75
X9.375Y-4.5
X9.75Y-1.5
X9.75Y-2.25
X9.75Y-3.0
X9.75Y-3.75
X10.4062Y-4.5
X10.5Y-1.5
X10.5Y-2.25
X10.5Y-3.0
X10.5Y-3.75
X11.25Y-1.5
X11.25Y-3.0
X11.4375Y-2.25
X11.5312Y-3.75
X11.9987Y-3.325
X12.0Y-1.5
X12.375Y-2.25
X12.4688Y-3.0
X12.5625Y-3.75
X12.9387Y-3.325
T0
M30
